<svg xmlns="http://www.w3.org/2000/svg">
<defs>
<font id="Halcyon Bold">
<font-face  font-family="Halcyon" units-per-em="1200" ascent="860" descent="-475" font-style="normal" font-weight="900" font-stretch="normal" cap-height="773" x-height="550" underline-position="-75" underline-thickness="50" />

<glyph glyph-name="NULL" d="" />
<glyph glyph-name="CR" unicode="&#xd;" horiz-adv-x="300" d="" />
<glyph glyph-name="space" unicode="&#x20;" horiz-adv-x="284" d="" />
<glyph glyph-name="exclam" unicode="&#x21;" horiz-adv-x="353" d="M231 229 L124 229 L98 622 L86 860 L270 860 L261 622 L231 229 Z M176 132 C216 132 246 102 246 57 C246 18 219 -19 176 -19 C133 -19 105 14 105 57 C105 103 132 132 176 132 L176 132 Z " />
<glyph glyph-name="quotedbl" unicode="&#x22;" horiz-adv-x="402" d="M152 619 L58 619 L30 860 L176 860 L152 619 Z M346 619 L252 619 L225 860 L371 860 L346 619 Z " />
<glyph glyph-name="numbersign" unicode="&#x23;" horiz-adv-x="721" d="M675 400 L675 516 L588 516 L627 680 L502 680 L463 516 L332 516 L371 680 L247 680 L208 516 L90 516 L90 401 L181 401 L150 270 L46 270 L46 156 L123 156 L86 0 L211 0 L248 156 L379 157 L342 0 L466 0 L503 157 L629 157 L629 270 L530 270 L561 400 L675 400 Z M406 270 L275 270 L305 401 L436 400 L406 270 Z " />
<glyph glyph-name="dollar" unicode="&#x24;" horiz-adv-x="591" d="M509 233 C509 403 254 386 254 459 C254 470 265 497 302 497 C342 497 390 466 411 445 L499 540 C454 581 405 603 348 610 L356 680 L251 680 L259 610 C161 595 104 534 104 463 C104 289 362 309 362 225 C362 206 337 187 303 187 C264 187 202 218 159 270 L73 170 C124 116 181 79 249 67 L241 0 L347 0 L340 66 C438 80 509 144 509 233 L509 233 Z " />
<glyph glyph-name="percent" unicode="&#x25;" horiz-adv-x="848" d="M276 -11 L172 47 L583 725 L685 666 L276 -11 Z M214 699 C309 699 384 639 384 542 C384 479 341 387 214 387 C120 387 46 445 46 542 C46 641 120 699 214 699 L214 699 Z M214 590 C187 590 179 565 179 542 C179 522 187 497 214 497 C239 497 249 522 249 542 C249 565 239 590 214 590 L214 590 Z M635 305 C729 305 804 244 804 148 C804 85 762 -7 635 -7 C540 -7 467 50 467 148 C467 247 540 305 635 305 L635 305 Z M635 196 C610 196 601 169 601 148 C601 128 610 103 635 103 C659 103 672 128 672 148 C672 169 661 196 635 196 L635 196 Z " />
<glyph glyph-name="ampersand" unicode="&#x26;" horiz-adv-x="770" d="M726 95 L632 198 C679 276 708 365 717 444 L556 480 C547 427 533 375 514 327 L415 435 C470 476 518 526 519 612 C519 692 449 793 314 793 C207 793 106 713 106 616 C106 552 127 511 184 448 C99 383 49 333 49 228 C49 86 158 -16 301 -16 C389 -16 465 18 526 70 L609 -21 L726 95 Z M314 665 C343 665 364 642 364 612 C364 585 343 560 319 538 C299 555 264 582 264 616 C264 642 283 665 314 665 L314 665 Z M317 148 C258 148 228 195 228 228 C226 271 255 309 284 337 L421 187 C391 162 357 148 317 148 L317 148 Z " />
<glyph glyph-name="quotesingle" unicode="&#x27;" horiz-adv-x="205" d="M152 619 L58 619 L30 860 L176 860 L152 619 Z " />
<glyph glyph-name="parenleft" unicode="&#x28;" horiz-adv-x="446" d="M391 811 C276 690 217 533 217 342 C217 157 275 1 391 -121 L295 -189 C145 -42 51 120 51 345 C51 573 145 734 296 880 L391 811 Z " />
<glyph glyph-name="parenright" unicode="&#x29;" horiz-adv-x="420" d="M47 811 L142 880 C292 734 387 573 387 345 C387 120 292 -42 143 -189 L47 -121 C162 1 221 157 221 342 C221 533 162 690 47 811 L47 811 Z " />
<glyph glyph-name="asterisk" unicode="&#x2a;" horiz-adv-x="544" d="M105 476 L207 402 L272 515 L336 402 L439 476 L343 574 L470 602 L423 719 L318 659 L337 786 L206 786 L226 659 L120 719 L74 602 L201 574 L105 476 Z " />
<glyph glyph-name="plus" unicode="&#x2b;" horiz-adv-x="664" d="M581 390 L414 390 L414 563 L247 563 L247 389 L82 389 L82 236 L247 236 L247 53 L414 53 L414 236 L581 236 L581 390 Z " />
<glyph glyph-name="comma" unicode="&#x2c;" horiz-adv-x="265" d="M132 182 C70 185 37 141 34 92 C31 30 72 -15 125 -17 C126 -17 132 -17 143 -15 C150 -53 99 -108 51 -145 C60 -151 87 -182 94 -190 C199 -112 229 -22 234 55 C238 128 199 180 132 182 L132 182 Z " />
<glyph glyph-name="hyphen" unicode="&#x2d;" horiz-adv-x="509" d="M437 360 L437 208 L68 208 L68 360 L437 360 Z " />
<glyph glyph-name="period" unicode="&#x2e;" horiz-adv-x="266" d="M134 190 C190 190 230 148 230 88 C230 33 192 -16 134 -16 C76 -16 37 28 37 88 C37 149 75 190 134 190 L134 190 Z " />
<glyph glyph-name="slash" unicode="&#x2f;" horiz-adv-x="693" d="M267 -83 L95 -83 L444 758 L614 758 L267 -83 Z " />
<glyph glyph-name="zero" unicode="0" horiz-adv-x="730" d="M365 -14 C174 -14 66 144 66 342 C66 541 176 697 366 697 C553 697 665 546 665 344 C665 141 554 -14 365 -14 L365 -14 Z M366 549 C254 549 246 405 246 342 C246 266 263 135 365 135 C459 135 486 237 486 338 C486 420 470 549 366 549 L366 549 Z " />
<glyph glyph-name="one" unicode="1" horiz-adv-x="517" d="M291 680 L52 611 L100 467 L219 509 L219 0 L404 0 L404 680 L291 680 Z " />
<glyph glyph-name="two" unicode="2" horiz-adv-x="641" d="M327 155 L404 218 C468 272 555 361 555 485 C555 626 439 697 304 697 C194 697 109 649 48 572 L162 463 C193 500 236 547 289 547 C311 547 381 539 381 470 C381 421 351 376 287 320 L75 143 L75 0 L564 0 L564 166 L327 155 Z " />
<glyph glyph-name="three" unicode="3" horiz-adv-x="615" d="M370 388 L526 534 L526 680 L90 680 L90 511 L340 524 L167 392 L191 278 C207 279 233 286 272 286 C320 286 366 257 366 208 C366 167 331 125 272 125 C214 125 185 150 165 173 L51 69 C83 34 165 -14 272 -14 C487 -14 546 104 546 201 C546 289 484 367 370 388 L370 388 Z " />
<glyph glyph-name="four" unicode="4" horiz-adv-x="654" d="M605 279 L517 279 L517 680 L353 680 L44 279 L80 128 L353 128 L353 0 L517 0 L517 128 L605 128 L605 279 Z M215 279 L353 460 L353 279 L215 279 Z " />
<glyph glyph-name="five" unicode="5" horiz-adv-x="633" d="M324 432 C305 432 286 430 267 426 L277 525 L513 511 L513 680 L137 680 L108 361 L237 281 C249 290 267 310 308 310 C364 310 389 264 389 218 C389 171 364 128 294 128 C243 128 196 152 151 198 L55 91 C104 42 176 -14 307 -14 C497 -14 564 105 564 220 C564 363 450 432 324 432 L324 432 Z " />
<glyph glyph-name="six" unicode="6" horiz-adv-x="679" d="M391 449 C329 449 282 429 245 391 C253 473 280 559 368 559 C429 559 481 524 495 515 L574 626 C542 653 468 698 357 698 C153 698 66 512 66 331 C66 197 127 -11 352 -11 C527 -11 609 109 609 224 C609 365 505 449 391 449 L391 449 Z M348 125 C317 125 254 142 244 273 C268 316 314 336 348 336 C393 336 430 296 430 225 C430 160 393 125 348 125 L348 125 Z " />
<glyph glyph-name="seven" unicode="7" horiz-adv-x="595" d="M51 680 L51 504 L350 519 L94 0 L289 0 L527 528 L527 680 L51 680 Z " />
<glyph glyph-name="eight" unicode="8" horiz-adv-x="634" d="M462 355 C525 387 558 441 558 508 C558 615 459 697 314 697 C171 697 74 617 74 503 C74 432 110 384 168 355 C102 326 58 272 58 191 C58 67 165 -14 318 -14 C488 -14 574 87 574 195 C574 273 529 326 462 355 L462 355 Z M315 568 C365 568 393 528 393 489 C393 447 364 409 315 409 C266 409 238 447 238 489 C238 528 266 568 315 568 L315 568 Z M315 131 C263 131 234 171 234 206 C234 245 262 283 315 283 C369 283 398 245 398 206 C398 171 368 131 315 131 L315 131 Z " />
<glyph glyph-name="nine" unicode="9" horiz-adv-x="670" d="M323 698 C148 698 66 578 66 463 C66 322 171 238 285 238 C346 238 393 258 430 296 C422 213 395 128 307 128 C246 128 194 163 181 172 L101 60 C133 34 208 -11 318 -11 C523 -11 609 175 609 356 C609 490 548 698 323 698 L323 698 Z M327 351 C276 351 240 391 240 462 C240 527 282 562 329 562 C363 562 421 544 431 414 C407 371 361 351 327 351 L327 351 Z " />
<glyph glyph-name="colon" unicode="&#x3a;" horiz-adv-x="267" d="M136 494 C193 494 233 454 233 392 C233 339 196 289 134 289 C76 289 40 333 40 392 C40 455 75 494 136 494 L136 494 Z M136 190 C193 190 233 148 233 87 C233 35 196 -16 134 -16 C76 -16 40 28 40 87 C40 150 75 190 136 190 L136 190 Z " />
<glyph glyph-name="semicolon" unicode="&#x3b;" horiz-adv-x="274" d="M123 289 C185 289 222 339 222 392 C222 454 182 494 125 494 C64 494 29 455 29 392 C29 333 65 289 123 289 L123 289 Z M139 187 C78 190 44 145 41 96 C39 35 80 -10 133 -13 C134 -13 140 -13 150 -11 C158 -49 106 -103 58 -141 C68 -147 94 -177 101 -186 C207 -107 237 -18 241 59 C245 132 207 184 139 187 L139 187 Z " />
<glyph glyph-name="less" unicode="&#x3c;" horiz-adv-x="583" d="M515 397 L456 539 L99 394 L99 220 L456 75 L515 217 L247 307 L515 397 Z " />
<glyph glyph-name="equal" unicode="&#x3d;" horiz-adv-x="605" d="M507 479 L507 343 L97 343 L97 478 L507 479 Z M507 265 L507 129 L97 129 L97 265 L507 265 Z " />
<glyph glyph-name="greater" unicode="&#x3e;" horiz-adv-x="583" d="M125 539 L66 397 L334 307 L66 217 L125 75 L482 220 L482 394 L125 539 Z " />
<glyph glyph-name="question" unicode="&#x3f;" horiz-adv-x="688" d="M331 870 C192 870 93 795 51 719 L189 631 C209 658 256 720 332 720 C381 720 444 686 444 609 C444 529 387 473 234 473 L264 247 L395 247 L408 356 C539 386 622 470 622 609 C622 756 512 870 331 870 L331 870 Z M328 165 C275 165 243 130 243 76 C243 24 277 -16 328 -16 C380 -16 413 28 413 76 C413 129 379 165 328 165 L328 165 Z " />
<glyph glyph-name="at" unicode="&#x40;" horiz-adv-x="835" d="M418 696 C187 696 59 536 59 341 C59 160 179 -16 418 -16 C486 -16 556 4 610 36 L566 109 C523 84 471 72 418 72 C269 72 145 157 145 341 C145 520 259 611 418 611 C567 611 689 521 689 341 C689 293 669 256 632 256 C605 256 586 275 586 295 L586 488 L539 488 L521 454 C495 496 450 522 388 522 C290 522 228 446 228 346 C228 247 293 172 388 172 C452 172 497 199 523 242 C545 194 595 175 636 175 C724 175 775 237 775 341 C775 546 630 696 418 696 L418 696 Z M414 254 C362 254 328 293 328 346 C328 403 362 440 414 440 C469 440 499 404 499 346 C499 293 469 254 414 254 L414 254 Z " />
<glyph glyph-name="A" unicode="A" horiz-adv-x="860" d="M640 0 L827 0 L532 773 L324 773 L31 0 L217 0 L273 158 L584 158 L640 0 Z M331 322 L428 595 L525 322 L331 322 Z " />
<glyph glyph-name="B" unicode="B" horiz-adv-x="764" d="M598 418 C629 446 663 491 663 570 C663 689 582 773 466 773 L93 773 L93 0 L498 0 C624 0 710 92 710 219 C710 309 667 384 598 418 L598 418 Z M439 617 C479 617 514 588 514 542 C514 494 472 468 432 468 L264 468 L264 617 L439 617 Z M472 156 L264 156 L264 324 L465 324 C511 324 556 293 556 240 C556 192 515 156 472 156 L472 156 Z " />
<glyph glyph-name="C" unicode="C" horiz-adv-x="811" d="M770 641 L627 539 C589 588 528 631 454 631 C315 631 235 523 235 388 C235 250 317 144 454 144 C528 144 589 186 627 237 L771 135 C699 40 584 -17 454 -17 C225 -17 59 152 59 388 C59 621 220 791 454 791 C585 791 699 735 770 641 L770 641 Z " />
<glyph glyph-name="D" unicode="D" horiz-adv-x="878" d="M446 773 L93 773 L93 0 L446 0 C666 0 818 159 818 384 C818 615 667 773 446 773 L446 773 Z M446 161 L269 161 L269 612 L446 612 C564 612 635 515 635 384 C635 255 566 161 446 161 L446 161 Z " />
<glyph glyph-name="E" unicode="E" horiz-adv-x="694" d="M625 617 L625 773 L93 773 L93 0 L625 0 L625 156 L263 156 L263 320 L547 320 L547 469 L263 471 L263 617 L625 617 Z " />
<glyph glyph-name="F" unicode="F" horiz-adv-x="683" d="M625 612 L625 773 L93 773 L93 0 L269 0 L269 288 L546 288 L546 440 L269 440 L269 612 L625 612 Z " />
<glyph glyph-name="G" unicode="G" horiz-adv-x="820" d="M738 437 L425 437 L425 276 L549 276 L549 191 C528 164 493 146 439 146 C306 146 235 252 235 389 C235 524 303 632 427 632 C507 632 575 589 612 538 L740 645 C669 738 563 793 433 793 C209 793 59 625 59 390 C59 151 217 -16 433 -16 C561 -16 671 41 738 135 L738 437 Z " />
<glyph glyph-name="H" unicode="H" horiz-adv-x="857" d="M588 773 L588 466 L269 466 L269 773 L93 773 L93 0 L269 0 L269 305 L588 305 L588 0 L764 0 L764 773 L588 773 Z " />
<glyph glyph-name="I" unicode="I" horiz-adv-x="360" d="M269 0 L93 0 L93 773 L269 773 L269 0 Z " />
<glyph glyph-name="J" unicode="J" horiz-adv-x="682" d="M50 120 L168 214 C204 167 236 135 291 135 C344 135 414 165 414 291 L414 773 L590 773 L590 269 C590 120 524 -15 307 -15 C181 -15 91 51 50 120 L50 120 Z " />
<glyph glyph-name="K" unicode="K" horiz-adv-x="780" d="M538 0 L762 0 L408 386 L744 772 L527 772 L278 466 L269 466 L269 772 L93 772 L93 0 L269 0 L269 305 L281 305 L538 0 Z " />
<glyph glyph-name="L" unicode="L" horiz-adv-x="688" d="M269 161 L269 773 L93 773 L93 0 L625 0 L625 161 L269 161 Z " />
<glyph glyph-name="M" unicode="M" horiz-adv-x="963" d="M891 0 L841 773 L621 773 L480 246 L339 773 L119 773 L69 0 L245 0 L274 486 L409 0 L549 0 L688 511 L718 0 L891 0 Z " />
<glyph glyph-name="N" unicode="N" horiz-adv-x="908" d="M646 773 L646 275 L266 773 L93 773 L93 0 L264 0 L264 494 L644 0 L816 0 L816 773 L646 773 Z " />
<glyph glyph-name="O" unicode="O" horiz-adv-x="875" d="M438 791 C663 791 815 625 815 387 C815 154 669 -18 438 -18 C214 -18 59 152 59 387 C59 621 207 791 438 791 L438 791 Z M438 631 C302 631 235 522 235 387 C235 250 303 144 438 144 C573 144 640 249 640 387 C640 530 567 631 438 631 L438 631 Z " />
<glyph glyph-name="P" unicode="P" horiz-adv-x="747" d="M338 772 L93 772 L93 0 L269 0 L269 220 L338 220 C578 220 682 329 682 496 C682 661 580 772 338 772 L338 772 Z M338 385 L269 385 L269 618 L338 618 C438 618 502 583 502 499 C502 420 444 385 338 385 L338 385 Z " />
<glyph glyph-name="Q" unicode="Q" horiz-adv-x="876" d="M815 387 C815 625 664 790 438 790 C208 790 59 619 59 387 C59 151 214 -18 438 -18 C490 -18 538 -9 580 7 L682 -115 L813 0 L722 107 C782 179 815 276 815 387 L815 387 Z M235 387 C235 522 304 630 438 630 C565 630 641 527 641 387 C641 250 570 143 438 143 C305 143 235 250 235 387 L235 387 Z " />
<glyph glyph-name="R" unicode="R" horiz-adv-x="772" d="M734 0 L574 277 C677 317 723 395 723 509 C723 665 646 773 394 773 L93 773 L93 0 L269 0 L269 247 L379 247 C392 247 404 247 417 248 L544 0 L734 0 Z M269 395 L269 619 L394 619 C482 619 543 597 543 507 C543 416 478 395 379 395 L269 395 Z " />
<glyph glyph-name="S" unicode="S" horiz-adv-x="721" d="M43 134 L173 245 C232 177 301 141 372 141 C437 141 487 174 487 216 C487 345 88 317 88 568 C88 700 198 793 375 793 C481 793 573 761 651 685 L528 576 C475 616 434 643 370 643 C307 643 273 605 273 575 C273 463 669 489 669 230 C669 79 535 -16 366 -16 C238 -16 128 41 43 134 L43 134 Z " />
<glyph glyph-name="T" unicode="T" horiz-adv-x="707" d="M666 773 L38 773 L38 613 L266 613 L266 0 L439 0 L439 613 L666 613 L666 773 Z " />
<glyph glyph-name="U" unicode="U" horiz-adv-x="848" d="M761 773 L761 376 C761 134 674 -18 425 -18 C173 -18 88 134 88 376 L88 773 L264 773 L264 400 C264 174 346 133 425 133 C505 133 585 177 585 400 L585 773 L761 773 Z " />
<glyph glyph-name="V" unicode="V" horiz-adv-x="797" d="M764 772 L557 772 L397 172 L237 772 L31 772 L289 0 L506 0 L764 772 Z " />
<glyph glyph-name="W" unicode="W" horiz-adv-x="1054" d="M810 773 L731 305 L586 773 L470 773 L306 296 L231 773 L42 773 L202 0 L371 0 L524 488 L658 0 L830 0 L1011 773 L810 773 Z " />
<glyph glyph-name="X" unicode="X" horiz-adv-x="721" d="M32 0 L261 380 L13 773 L215 773 L355 530 L488 773 L690 773 L455 380 L698 0 L494 0 L359 219 L234 0 L32 0 Z " />
<glyph glyph-name="Y" unicode="Y" horiz-adv-x="701" d="M678 773 L478 773 L349 440 L219 773 L20 773 L255 311 L255 0 L440 0 L440 307 L441 307 L678 773 Z " />
<glyph glyph-name="Z" unicode="Z" horiz-adv-x="783" d="M723 772 L65 772 L65 608 L478 618 L65 99 L65 0 L723 0 L723 164 L311 154 L723 671 L723 772 Z " />
<glyph glyph-name="bracketleft" unicode="&#x5b;" horiz-adv-x="440" d="M367 823 L367 690 L240 690 L240 -6 L367 -6 L367 -139 L93 -139 L93 823 L367 823 Z " />
<glyph glyph-name="backslash" unicode="&#x5c;" horiz-adv-x="675" d="M620 30 L458 -47 L20 889 L182 966 L620 30 Z " />
<glyph glyph-name="bracketright" unicode="&#x5d;" horiz-adv-x="440" d="M65 823 L339 823 L339 -139 L65 -139 L65 -6 L193 -6 L193 690 L65 690 L65 823 Z " />
<glyph glyph-name="asciicircum" unicode="&#x5e;" horiz-adv-x="691" d="M621 431 L433 773 L258 773 L69 431 L212 372 L345 664 L479 371 L621 431 Z " />
<glyph glyph-name="underscore" unicode="&#x5f;" horiz-adv-x="608" d="M560 -40 L560 -179 L46 -179 L46 -40 L560 -40 Z " />
<glyph glyph-name="grave" unicode="&#x60;" horiz-adv-x="461" d="M309 624 L335 684 L108 816 L62 689 L309 624 Z " />
<glyph glyph-name="a" unicode="a" horiz-adv-x="702" d="M458 550 L458 479 C422 532 366 566 287 566 C135 566 34 448 34 274 C34 101 134 -16 291 -16 C384 -16 438 25 469 79 L496 0 L624 0 L624 550 L458 550 Z M333 138 C256 138 209 193 209 275 C209 357 256 412 333 412 C410 412 456 357 456 275 C456 191 408 138 333 138 L333 138 Z " />
<glyph glyph-name="b" unicode="b" horiz-adv-x="696" d="M403 566 C323 566 270 536 235 494 L235 860 L65 860 L65 0 L192 0 L222 79 C261 21 321 -16 407 -16 C561 -16 660 106 660 276 C660 443 565 566 403 566 L403 566 Z M361 138 C288 138 235 193 235 275 C235 359 289 412 361 412 C433 412 487 357 487 275 C487 193 433 138 361 138 L361 138 Z " />
<glyph glyph-name="c" unicode="c" horiz-adv-x="604" d="M36 274 C36 459 159 566 331 566 C444 566 527 519 577 449 L456 365 C431 395 392 418 337 418 C253 418 207 357 207 274 C207 193 253 132 335 132 C393 132 436 160 456 185 L577 102 C533 39 457 -16 331 -16 C159 -16 36 92 36 274 L36 274 Z " />
<glyph glyph-name="d" unicode="d" horiz-adv-x="696" d="M459 860 L459 494 C424 537 371 566 291 566 C129 566 34 443 34 276 C34 106 133 -16 287 -16 C373 -16 433 22 472 80 L503 0 L629 0 L629 860 L459 860 Z M333 138 C261 138 207 193 207 275 C207 357 261 412 333 412 C405 412 459 359 459 275 C459 193 406 138 333 138 L333 138 Z " />
<glyph glyph-name="e" unicode="e" horiz-adv-x="622" d="M34 276 C34 422 115 566 313 566 C507 566 596 430 558 227 L218 227 C229 167 260 119 334 119 C397 119 447 142 497 167 L562 44 C495 7 436 -16 334 -16 C153 -16 34 100 34 276 L34 276 Z M218 324 L412 324 C415 369 397 440 317 440 C237 440 218 360 218 324 L218 324 Z " />
<glyph glyph-name="f" unicode="f" horiz-adv-x="442" d="M415 703 L416 840 C229 907 91 826 91 596 L91 550 L23 550 L23 400 L91 400 L91 0 L261 0 L261 400 L398 400 L398 550 L261 550 L261 610 C261 743 346 728 415 703 L415 703 Z " />
<glyph glyph-name="g" unicode="g" horiz-adv-x="697" d="M496 550 L470 477 C432 531 371 566 287 566 C130 566 34 447 34 289 C34 129 132 15 291 15 C371 15 424 43 459 83 L459 6 C459 -120 377 -153 321 -153 C240 -153 192 -93 173 -71 L50 -166 C96 -236 185 -300 334 -300 C553 -300 632 -164 632 -15 L632 550 L496 550 Z M333 162 C261 162 207 213 207 288 C207 362 261 412 333 412 C408 412 459 362 459 288 C459 212 405 162 333 162 L333 162 Z " />
<glyph glyph-name="h" unicode="h" horiz-adv-x="657" d="M405 565 C337 565 283 533 244 494 L244 849 L65 849 L65 0 L244 0 L244 339 C290 384 334 403 362 403 C414 403 425 364 425 309 L424 0 L604 0 L604 342 C604 512 510 565 405 565 L405 565 Z M162 381 L163 380 C159 373 159 372 162 381 L162 381 Z " />
<glyph glyph-name="i" unicode="i" horiz-adv-x="323" d="M154 861 C208 861 245 823 245 765 C245 715 211 667 154 667 C101 667 64 709 64 765 C64 824 99 861 154 861 L154 861 Z M241 0 L68 0 L68 550 L241 550 L241 0 Z " />
<glyph glyph-name="j" unicode="j" horiz-adv-x="321" d="M151 860 C205 860 242 821 242 764 C242 713 208 666 151 666 C98 666 61 708 61 764 C61 822 96 860 151 860 L151 860 Z M244 550 L244 -8 C244 -206 142 -281 41 -331 L-37 -205 C-38 -205 66 -161 66 -37 L66 550 L244 550 Z " />
<glyph glyph-name="k" unicode="k" horiz-adv-x="655" d="M422 -1 L655 -1 L408 291 L626 550 L404 550 L264 373 L241 373 L241 820 L65 820 L65 0 L241 0 L241 212 L259 212 L422 -1 Z " />
<glyph glyph-name="l" unicode="l" horiz-adv-x="373" d="M305 148 L331 14 C186 -39 57 -18 58 181 L58 837 L231 837 L231 201 C231 150 260 139 305 148 L305 148 Z " />
<glyph glyph-name="m" unicode="m" horiz-adv-x="940" d="M694 565 C623 565 568 524 531 480 C497 543 437 565 374 565 C310 565 259 532 222 494 L200 550 L62 550 L62 0 L241 0 L241 369 C277 403 311 418 334 418 C380 418 390 379 390 323 L388 0 L560 0 L560 342 C560 351 560 359 559 367 C597 402 631 418 654 418 C700 418 710 379 710 323 L709 0 L880 0 L880 342 C880 512 792 565 694 565 L694 565 Z M147 380 C147 380 147 380 147 380 L147 380 Z " />
<glyph glyph-name="n" unicode="n" horiz-adv-x="661" d="M402 565 C325 565 268 524 228 481 L200 550 L62 550 L62 0 L241 0 L241 339 C286 384 330 403 358 403 C410 403 422 364 422 309 L420 0 L601 0 L601 342 C601 512 506 565 402 565 L402 565 Z M161 381 L162 381 C158 373 158 371 161 381 L161 381 Z " />
<glyph glyph-name="o" unicode="o" horiz-adv-x="667" d="M333 566 C503 566 632 452 632 274 C632 137 545 -16 333 -16 C160 -16 34 95 34 274 C34 454 160 566 333 566 L333 566 Z M333 415 C245 415 213 341 213 274 C213 209 245 135 333 135 C419 135 453 209 453 274 C453 341 420 415 333 415 L333 415 Z " />
<glyph glyph-name="p" unicode="p" horiz-adv-x="692" d="M405 566 C319 566 259 528 220 470 L189 550 L63 550 L63 -300 L233 -300 L233 56 C268 13 321 -16 400 -16 C563 -16 658 107 658 274 C658 444 558 566 405 566 L405 566 Z M358 138 C287 138 233 191 233 275 C233 357 285 412 358 412 C431 412 484 357 484 275 C484 193 431 138 358 138 L358 138 Z " />
<glyph glyph-name="q" unicode="q" horiz-adv-x="690" d="M502 550 L471 471 C433 528 373 566 287 566 C133 566 34 444 34 274 C34 107 129 -16 291 -16 C371 -16 424 13 459 56 L459 -300 L629 -300 L629 550 L502 550 Z M333 138 C261 138 207 193 207 275 C207 357 261 412 333 412 C406 412 459 357 459 275 C459 191 405 138 333 138 L333 138 Z " />
<glyph glyph-name="r" unicode="r" horiz-adv-x="470" d="M338 566 C281 566 242 533 217 490 L191 550 L62 550 L62 0 L232 0 L232 302 C242 349 268 393 311 393 C339 393 358 382 379 371 L457 530 C439 541 393 566 338 566 L338 566 Z " />
<glyph glyph-name="s" unicode="s" horiz-adv-x="565" d="M282 -16 C185 -16 66 20 26 56 L94 183 C126 159 226 119 291 119 C349 119 363 140 363 158 C363 244 42 168 42 385 C42 473 118 566 278 566 C374 566 435 543 508 506 L448 384 C403 407 347 431 278 431 C224 431 208 415 208 397 C208 312 530 394 530 164 C530 65 447 -16 282 -16 L282 -16 Z " />
<glyph glyph-name="t" unicode="t" horiz-adv-x="445" d="M269 247 L269 415 L379 415 L393 550 L269 550 L269 722 L96 722 L96 550 L18 550 L18 415 L96 415 L96 263 C96 -5 265 -46 421 0 L432 138 C369 124 269 87 269 247 L269 247 Z " />
<glyph glyph-name="u" unicode="u" horiz-adv-x="661" d="M419 550 L419 231 C375 188 344 169 302 169 C250 169 238 208 238 263 L239 550 L59 550 L59 208 C59 38 154 -15 258 -15 C334 -15 392 26 432 70 L460 0 L598 0 L598 550 L419 550 Z " />
<glyph glyph-name="v" unicode="v" horiz-adv-x="661" d="M442 550 L330 156 L218 550 L21 550 L239 0 L421 0 L638 550 L442 550 Z " />
<glyph glyph-name="w" unicode="w" horiz-adv-x="926" d="M715 550 L639 240 L539 551 L386 551 L282 229 L197 550 L19 550 L204 0 L377 0 L463 371 L548 0 L719 0 L904 550 L715 550 Z " />
<glyph glyph-name="x" unicode="x" horiz-adv-x="574" d="M-8 550 L177 265 L5 0 L207 0 L284 149 L365 0 L573 0 L396 273 L573 550 L380 550 L289 387 L199 550 L-8 550 Z " />
<glyph glyph-name="y" unicode="y" horiz-adv-x="541" d="M360 550 L270 210 L178 550 L1 550 L183 2 C154 -83 147 -156 21 -105 L8 -270 C235 -324 295 -209 336 -68 L533 550 L360 550 Z " />
<glyph glyph-name="z" unicode="z" horiz-adv-x="538" d="M511 550 L28 550 L28 387 L292 401 L28 163 L28 0 L511 0 L511 163 L241 149 L511 387 L511 550 Z " />
<glyph glyph-name="braceleft" unicode="&#x7b;" horiz-adv-x="414" d="M320 -149 L320 -12 C267 -12 260 6 260 74 L260 207 C260 275 248 308 172 332 C248 355 260 390 260 457 L260 591 C260 658 267 676 320 676 L320 814 C189 814 119 741 119 624 L119 453 C119 413 106 393 59 393 L36 393 L36 270 L59 270 C106 270 119 252 119 211 L119 40 C119 -77 189 -149 320 -149 L320 -149 Z " />
<glyph glyph-name="bar" unicode="&#x7c;" horiz-adv-x="390" d="M284 -220 L105 -220 L105 773 L284 773 L284 -220 Z " />
<glyph glyph-name="braceright" unicode="&#x7d;" horiz-adv-x="409" d="M61 814 C192 814 262 741 262 624 L262 453 C262 413 275 393 322 393 L345 393 L345 270 L322 270 C275 270 262 252 262 211 L262 40 C262 -77 192 -149 61 -149 L61 -12 C114 -12 123 6 123 74 L123 207 C123 275 134 308 211 332 C134 355 123 390 123 457 L123 591 C123 658 115 676 61 676 L61 814 Z " />
<glyph glyph-name="asciitilde" unicode="&#x7e;" horiz-adv-x="657" d="M206 323 C206 360 214 386 254 386 C307 386 332 317 415 317 C488 317 561 362 561 486 L454 486 C454 450 446 427 414 427 C355 427 331 490 251 490 C177 490 97 432 97 323 L206 323 Z " />
<glyph glyph-name="exclamdown" unicode="&#xa1;" horiz-adv-x="353" d="M177 473 C134 473 103 504 103 551 C103 592 132 631 177 631 C222 631 251 596 251 551 C251 503 223 473 177 473 L177 473 Z M131 404 L220 404 L261 -67 L275 -248 L77 -248 L90 -67 L131 404 Z " />
<glyph glyph-name="cent" unicode="&#xa2;" horiz-adv-x="594" d="M329 197 C251 197 218 270 218 339 C218 412 251 484 329 484 C377 484 413 460 438 432 L553 507 C511 567 444 606 354 614 L357 680 L276 680 L276 611 C141 592 59 496 59 339 C59 188 140 90 273 70 L270 0 L357 0 L354 67 C456 74 515 121 553 175 L438 250 C414 226 377 197 329 197 L329 197 Z " />
<glyph glyph-name="sterling" unicode="&#xa3;" horiz-adv-x="611" d="M309 285 L461 285 L461 402 L309 402 L309 444 C309 492 335 554 401 554 C437 554 472 536 493 516 L583 620 C534 670 464 696 391 696 C247 696 138 601 138 444 L138 402 L69 402 L69 285 L138 285 L138 135 L69 103 L69 0 L559 0 L559 154 L309 154 L309 285 Z " />
<glyph glyph-name="currency" unicode="&#xa4;" horiz-adv-x="637" d="M530 351 C530 396 520 435 502 466 L581 530 L499 612 L433 534 C402 552 364 561 321 561 C277 561 239 551 207 533 L143 613 L61 531 L139 464 C121 433 112 395 112 352 C112 308 122 270 140 238 L61 171 L143 89 L208 169 C240 150 280 140 324 140 C367 140 404 149 435 167 L499 90 L581 172 L503 235 C521 267 530 307 530 351 L530 351 Z M321 255 C266 255 245 297 245 351 C245 402 261 446 321 446 C374 446 398 412 398 349 C398 296 381 255 321 255 L321 255 Z " />
<glyph glyph-name="yen" unicode="&#xa5;" horiz-adv-x="707" d="M685 680 L490 680 L351 398 L215 680 L20 680 L231 341 L141 341 L141 248 L562 248 L562 341 L475 341 L685 680 Z M141 105 L265 105 L265 0 L438 0 L438 105 L562 105 L562 199 L141 199 L141 105 Z " />
<glyph glyph-name="brokenbar" unicode="&#xa6;" horiz-adv-x="390" d="M284 362 L105 362 L105 773 L284 773 L284 362 Z M284 -220 L105 -220 L105 213 L284 213 L284 -220 Z " />
<glyph glyph-name="section" unicode="&#xa7;" horiz-adv-x="590" d="M456 169 C507 194 538 235 538 303 C538 516 223 473 223 602 C223 645 258 668 307 668 C365 668 421 637 450 609 L520 707 C475 753 403 793 304 793 C163 793 63 710 63 591 C63 518 100 473 149 442 C95 414 63 369 63 301 C63 87 379 150 379 11 C379 -31 353 -56 292 -56 C229 -56 167 -25 126 24 L43 -80 C104 -145 193 -182 295 -182 C423 -182 538 -124 538 15 C538 92 503 138 456 169 L456 169 Z M223 322 C223 357 245 381 284 377 C337 354 379 329 379 282 C379 251 361 226 327 229 C269 251 223 274 223 322 L223 322 Z " />
<glyph glyph-name="dieresis" unicode="&#xa8;" horiz-adv-x="543" d="M173 773 C211 773 240 745 240 702 C240 666 214 631 173 631 C133 631 106 661 106 702 C106 746 131 773 173 773 L173 773 Z M370 773 C409 773 437 745 437 702 C437 666 412 631 370 631 C330 631 304 661 304 702 C304 746 329 773 370 773 L370 773 Z " />
<glyph glyph-name="copyright" unicode="&#xa9;" horiz-adv-x="841" d="M412 733 C602 733 756 596 756 389 C756 180 602 44 412 44 C221 44 67 181 67 389 C67 596 221 733 412 733 L412 733 Z M412 646 C270 646 154 546 154 389 C154 231 270 131 412 131 C553 131 669 230 669 389 C669 548 554 646 412 646 L412 646 Z M252 388 C252 496 320 565 422 565 C485 565 537 535 565 493 L493 448 C482 465 458 481 424 481 C373 481 345 442 345 388 C345 337 373 297 424 297 C458 297 481 314 494 332 L565 285 C541 249 494 215 422 215 C320 215 252 283 252 388 L252 388 Z " />
<glyph glyph-name="ordfeminine" unicode="&#xaa;" horiz-adv-x="482" d="M215 793 C157 793 99 786 63 766 L101 667 C114 673 154 690 205 690 C251 690 286 672 286 632 L286 625 C263 631 233 635 198 635 C104 635 41 586 41 501 C41 438 88 385 173 385 C230 385 268 408 292 445 L311 397 L414 397 L414 635 C414 747 320 793 215 793 L215 793 Z M219 481 C193 481 174 494 174 519 C174 544 200 558 232 558 C252 558 269 555 284 551 C275 503 244 481 219 481 L219 481 Z " />
<glyph glyph-name="guillemotleft" unicode="&#xab;" horiz-adv-x="779" d="M403 411 L287 523 L81 277 L287 31 L403 143 L264 278 L403 411 Z M681 411 L565 523 L359 277 L565 31 L681 143 L541 278 L681 411 Z " />
<glyph glyph-name="logicalnot" unicode="&#xac;" horiz-adv-x="719" d="M622 464 L97 464 L97 343 L487 343 L487 171 L622 171 L622 464 Z " />
<glyph glyph-name="registered" unicode="&#xae;" horiz-adv-x="532" d="M266 793 C142 793 60 705 60 580 C60 455 142 368 266 368 C391 367 471 460 471 580 C471 707 387 793 266 793 L266 793 Z M266 403 C163 403 100 477 100 580 C100 682 163 756 266 756 C367 756 431 682 431 580 C431 477 367 403 266 403 L266 403 Z M359 615 C359 662 332 694 255 694 L180 694 L180 462 L232 462 L232 536 L255 536 L261 536 L302 462 L361 462 L309 543 C344 554 359 578 359 615 L359 615 Z M232 647 L255 647 C288 647 306 642 306 614 C306 587 289 580 255 580 L232 580 L232 647 Z " />
<glyph glyph-name="macron" unicode="&#xaf;" horiz-adv-x="518" d="M84 643 L84 744 L434 744 L434 643 L84 643 Z " />
<glyph glyph-name="degree" unicode="&#xb0;" horiz-adv-x="328" d="M165 794 C234 794 284 747 284 677 C284 615 237 557 165 557 C93 557 46 609 46 677 C46 749 91 794 165 794 L165 794 Z M165 715 C140 715 126 698 126 677 C126 656 140 637 165 637 C188 637 204 657 204 677 C204 698 187 715 165 715 L165 715 Z " />
<glyph glyph-name="plusminus" unicode="&#xb1;" horiz-adv-x="629" d="M377 471 L377 563 L225 563 L225 471 L82 471 L82 333 L225 333 L225 232 L377 232 L377 333 L523 333 L523 471 L377 471 Z M82 53 L523 53 L523 192 L82 192 L82 53 Z " />
<glyph glyph-name="uni00B2" unicode="&#xb2;" horiz-adv-x="359" d="M207 574 L228 591 C255 614 297 658 297 722 C297 797 237 830 170 830 C115 830 73 806 38 768 L105 701 C122 717 138 742 161 742 C158 742 194 746 194 710 C194 682 177 668 157 650 L56 565 L56 481 L302 481 L302 579 L207 574 Z " />
<glyph glyph-name="uni00B3" unicode="&#xb3;" horiz-adv-x="356" d="M223 670 L292 734 L292 821 L72 821 L72 719 L151 724 L105 688 L130 614 C145 614 151 611 157 611 C190 611 191 590 191 587 C191 587 190 564 157 564 C146 564 128 566 114 572 L47 509 C63 498 104 474 157 474 C274 474 298 537 298 582 C298 620 273 656 223 670 L223 670 Z " />
<glyph glyph-name="acute" unicode="&#xb4;" horiz-adv-x="461" d="M153 624 L400 689 L354 816 L128 684 L153 624 Z " />
<glyph glyph-name="uni00B5" unicode="&#xb5;" horiz-adv-x="661" d="M419 550 L419 231 C375 188 344 169 302 169 C250 169 238 208 238 263 L239 550 L59 550 L59 -300 L194 -300 L194 -7 C214 -13 236 -15 258 -15 C334 -15 392 26 432 70 L460 0 L598 0 L598 550 L419 550 Z " />
<glyph glyph-name="paragraph" unicode="&#xb6;" horiz-adv-x="829" d="M733 772 L356 772 L356 771 C137 762 44 659 44 511 C44 349 138 258 356 250 L356 -180 L491 -180 L491 615 L598 615 L598 -180 L733 -180 L733 772 Z " />
<glyph glyph-name="periodcentered" unicode="&#xb7;" horiz-adv-x="299" d="M150 460 C193 460 224 429 224 382 C224 341 196 302 150 302 C106 302 76 337 76 382 C76 430 104 460 150 460 L150 460 Z " />
<glyph glyph-name="cedilla" unicode="&#xb8;" horiz-adv-x="505" d="M227 11 L281 7 L275 -51 C321 -53 406 -79 398 -165 C385 -296 253 -269 167 -238 L186 -162 C216 -181 312 -209 315 -162 C317 -111 234 -110 213 -111 L227 11 Z " />
<glyph glyph-name="uni00B9" unicode="&#xb9;" horiz-adv-x="324" d="M178 821 L50 787 L79 699 L135 718 L135 481 L242 481 L242 821 L178 821 Z " />
<glyph glyph-name="ordmasculine" unicode="&#xba;" horiz-adv-x="495" d="M247 793 C367 793 459 713 459 589 C459 497 400 386 247 386 C124 386 35 463 35 589 C35 715 124 793 247 793 L247 793 Z M247 675 C191 675 177 625 177 589 C177 554 191 504 247 504 C301 504 318 554 318 589 C318 625 302 675 247 675 L247 675 Z " />
<glyph glyph-name="guillemotright" unicode="&#xbb;" horiz-adv-x="779" d="M220 523 L104 411 L243 278 L104 143 L220 31 L425 277 L220 523 Z M493 523 L377 411 L517 278 L377 143 L493 31 L699 277 L493 523 Z " />
<glyph glyph-name="onequarter" unicode="&#xbc;" horiz-adv-x="949" d="M671 821 L179 32 L276 -18 L767 768 L671 821 Z M242 431 L242 771 L178 771 L50 737 L79 649 L135 668 L135 431 L242 431 Z M901 149 L855 146 L855 340 L760 340 L588 149 L623 58 L760 58 L760 0 L855 0 L855 58 L901 58 L901 149 Z M679 134 L760 225 L760 140 L679 134 Z " />
<glyph glyph-name="onehalf" unicode="&#xbd;" horiz-adv-x="936" d="M671 821 L179 32 L276 -18 L767 768 L671 821 Z M242 431 L242 771 L178 771 L50 737 L79 649 L135 668 L135 431 L242 431 Z M784 93 L805 110 C832 133 874 177 874 241 C874 316 814 349 747 349 C692 349 650 325 615 287 L682 220 C699 236 715 261 738 261 C735 261 771 265 771 229 C771 201 754 187 734 169 L633 84 L633 0 L879 0 L879 98 L784 93 Z " />
<glyph glyph-name="threequarters" unicode="&#xbe;" horiz-adv-x="998" d="M720 821 L228 32 L325 -18 L816 768 L720 821 Z M298 532 C298 570 273 606 223 620 L292 684 L292 771 L72 771 L72 669 L151 674 L105 638 L130 564 C145 564 151 561 157 561 C190 561 191 540 191 537 C191 537 190 514 157 514 C146 514 128 516 114 522 L47 459 C63 448 104 424 157 424 C274 424 298 487 298 532 L298 532 Z M950 149 L904 146 L904 340 L809 340 L637 149 L672 58 L809 58 L809 0 L904 0 L904 58 L950 58 L950 149 Z M728 134 L809 225 L809 140 L728 134 Z " />
<glyph glyph-name="questiondown" unicode="&#xbf;" horiz-adv-x="688" d="M361 442 C413 442 449 478 449 533 C449 589 413 631 360 631 C306 631 271 586 271 533 C271 479 308 442 361 442 L361 442 Z M498 -18 C478 -45 431 -107 356 -107 C307 -107 244 -73 244 4 C244 84 301 140 453 140 L414 372 L302 372 L284 258 C150 229 65 145 65 4 C65 -143 175 -257 357 -257 C496 -257 595 -182 637 -106 L498 -18 Z " />
<glyph glyph-name="Agrave" unicode="&#xc0;" horiz-adv-x="860" d="M506 907 L279 1039 L233 912 L480 847 L506 907 Z M640 0 L827 0 L532 773 L324 773 L31 0 L217 0 L273 158 L584 158 L640 0 Z M331 322 L428 595 L525 322 L331 322 Z " />
<glyph glyph-name="Aacute" unicode="&#xc1;" horiz-adv-x="860" d="M620 912 L574 1039 L348 907 L373 847 L620 912 Z M640 0 L827 0 L532 773 L324 773 L31 0 L217 0 L273 158 L584 158 L640 0 Z M331 322 L428 595 L525 322 L331 322 Z " />
<glyph glyph-name="Acircumflex" unicode="&#xc2;" horiz-adv-x="860" d="M431 908 L560 843 L605 903 L456 1035 L407 1035 L258 903 L304 843 L431 908 Z M640 0 L827 0 L532 773 L324 773 L31 0 L217 0 L273 158 L584 158 L640 0 Z M331 322 L428 595 L525 322 L331 322 Z " />
<glyph glyph-name="Atilde" unicode="&#xc3;" horiz-adv-x="860" d="M355 901 C398 901 420 837 493 837 C558 837 623 880 623 996 L524 996 C524 963 518 940 491 940 C442 940 421 1000 352 1000 C286 1000 213 943 213 842 L313 842 C313 876 321 901 355 901 L355 901 Z M640 0 L827 0 L532 773 L324 773 L31 0 L217 0 L273 158 L584 158 L640 0 Z M331 322 L428 595 L525 322 L331 322 Z " />
<glyph glyph-name="Adieresis" unicode="&#xc4;" horiz-adv-x="860" d="M336 854 C377 854 403 889 403 925 C403 968 374 996 336 996 C294 996 269 969 269 925 C269 884 296 854 336 854 L336 854 Z M533 854 C575 854 600 889 600 925 C600 968 572 996 533 996 C492 996 467 969 467 925 C467 884 493 854 533 854 L533 854 Z M640 0 L827 0 L532 773 L324 773 L31 0 L217 0 L273 158 L584 158 L640 0 Z M331 322 L428 595 L525 322 L331 322 Z " />
<glyph glyph-name="Aring" unicode="&#xc5;" horiz-adv-x="860" d="M431 827 C501 827 545 886 545 951 C545 1024 499 1073 431 1073 C360 1073 316 1027 316 951 C316 881 362 827 431 827 L431 827 Z M431 999 C456 999 474 978 474 951 C474 925 458 903 431 903 C405 903 387 925 387 951 C387 978 404 999 431 999 L431 999 Z M640 0 L827 0 L532 773 L324 773 L31 0 L217 0 L273 158 L584 158 L640 0 Z M331 322 L428 595 L525 322 L331 322 Z " />
<glyph glyph-name="AE" unicode="&#xc6;" horiz-adv-x="1111" d="M1041 609 L1041 773 L548 773 L31 0 L225 0 L322 158 L553 158 L553 0 L1041 0 L1041 164 L717 164 L717 306 L920 306 L920 471 L717 471 L717 609 L1041 609 Z M405 293 L553 535 L553 293 L405 293 Z " />
<glyph glyph-name="Ccedilla" unicode="&#xc7;" horiz-adv-x="811" d="M771 135 L627 237 C589 186 528 144 454 144 C317 144 235 250 235 388 C235 523 315 631 454 631 C528 631 589 588 627 539 L770 641 C699 735 585 791 454 791 C220 791 59 621 59 388 C59 162 211 -2 424 -16 L413 -111 C434 -110 517 -111 515 -162 C512 -209 416 -181 386 -162 L367 -238 C453 -269 585 -296 598 -165 C606 -79 521 -53 475 -51 L479 -16 C598 -10 704 46 771 135 L771 135 Z " />
<glyph glyph-name="Egrave" unicode="&#xc8;" horiz-adv-x="694" d="M426 907 L199 1039 L153 912 L400 847 L426 907 Z M625 617 L625 773 L93 773 L93 0 L625 0 L625 156 L263 156 L263 320 L547 320 L547 469 L263 471 L263 617 L625 617 Z " />
<glyph glyph-name="Eacute" unicode="&#xc9;" horiz-adv-x="694" d="M540 912 L494 1039 L268 907 L293 847 L540 912 Z M625 617 L625 773 L93 773 L93 0 L625 0 L625 156 L263 156 L263 320 L547 320 L547 469 L263 471 L263 617 L625 617 Z " />
<glyph glyph-name="Ecircumflex" unicode="&#xca;" horiz-adv-x="694" d="M351 908 L480 843 L525 903 L376 1035 L327 1035 L178 903 L224 843 L351 908 Z M625 617 L625 773 L93 773 L93 0 L625 0 L625 156 L263 156 L263 320 L547 320 L547 469 L263 471 L263 617 L625 617 Z " />
<glyph glyph-name="Edieresis" unicode="&#xcb;" horiz-adv-x="694" d="M256 854 C297 854 323 889 323 925 C323 968 294 996 256 996 C214 996 189 969 189 925 C189 884 216 854 256 854 L256 854 Z M453 854 C495 854 520 889 520 925 C520 968 492 996 453 996 C412 996 387 969 387 925 C387 884 413 854 453 854 L453 854 Z M625 617 L625 773 L93 773 L93 0 L625 0 L625 156 L263 156 L263 320 L547 320 L547 469 L263 471 L263 617 L625 617 Z " />
<glyph glyph-name="Igrave" unicode="&#xcc;" horiz-adv-x="360" d="M231 847 L257 907 L30 1039 L-16 912 L231 847 Z M269 0 L93 0 L93 773 L269 773 L269 0 Z " />
<glyph glyph-name="Iacute" unicode="&#xcd;" horiz-adv-x="360" d="M124 847 L371 912 L325 1039 L99 907 L124 847 Z M269 0 L93 0 L93 773 L269 773 L269 0 Z " />
<glyph glyph-name="Icircumflex" unicode="&#xce;" horiz-adv-x="360" d="M158 1035 L207 1035 L356 903 L311 843 L182 908 L55 843 L9 903 L158 1035 Z M269 0 L93 0 L93 773 L269 773 L269 0 Z " />
<glyph glyph-name="Idieresis" unicode="&#xcf;" horiz-adv-x="360" d="M87 996 C125 996 154 968 154 925 C154 889 128 854 87 854 C47 854 20 884 20 925 C20 969 45 996 87 996 L87 996 Z M284 996 C323 996 351 968 351 925 C351 889 326 854 284 854 C244 854 218 884 218 925 C218 969 243 996 284 996 L284 996 Z M269 0 L93 0 L93 773 L269 773 L269 0 Z " />
<glyph glyph-name="Eth" unicode="&#xd0;" horiz-adv-x="825" d="M392 773 L106 773 L106 463 L43 463 L43 298 L106 298 L106 0 L392 0 C613 0 765 159 765 384 C765 615 614 773 392 773 L392 773 Z M392 164 L285 164 L285 298 L447 298 L447 463 L285 463 L285 609 L392 609 C508 609 579 514 579 384 C579 256 512 164 392 164 L392 164 Z " />
<glyph glyph-name="Ntilde" unicode="&#xd1;" horiz-adv-x="908" d="M367 901 C410 901 432 837 505 837 C570 837 635 880 635 996 L536 996 C536 963 530 940 503 940 C454 940 433 1000 364 1000 C298 1000 225 943 225 842 L325 842 C325 876 333 901 367 901 L367 901 Z M646 773 L646 275 L266 773 L93 773 L93 0 L264 0 L264 494 L644 0 L816 0 L816 773 L646 773 Z " />
<glyph glyph-name="Ograve" unicode="&#xd2;" horiz-adv-x="875" d="M487 847 L513 907 L286 1039 L240 912 L487 847 Z M438 791 C663 791 815 625 815 387 C815 154 669 -18 438 -18 C214 -18 59 152 59 387 C59 621 207 791 438 791 L438 791 Z M438 631 C302 631 235 522 235 387 C235 250 303 144 438 144 C573 144 640 249 640 387 C640 530 567 631 438 631 L438 631 Z " />
<glyph glyph-name="Oacute" unicode="&#xd3;" horiz-adv-x="875" d="M380 847 L627 912 L581 1039 L355 907 L380 847 Z M438 791 C663 791 815 625 815 387 C815 154 669 -18 438 -18 C214 -18 59 152 59 387 C59 621 207 791 438 791 L438 791 Z M438 631 C302 631 235 522 235 387 C235 250 303 144 438 144 C573 144 640 249 640 387 C640 530 567 631 438 631 L438 631 Z " />
<glyph glyph-name="Ocircumflex" unicode="&#xd4;" horiz-adv-x="875" d="M414 1035 L463 1035 L612 903 L567 843 L438 908 L311 843 L265 903 L414 1035 Z M438 791 C663 791 815 625 815 387 C815 154 669 -18 438 -18 C214 -18 59 152 59 387 C59 621 207 791 438 791 L438 791 Z M438 631 C302 631 235 522 235 387 C235 250 303 144 438 144 C573 144 640 249 640 387 C640 530 567 631 438 631 L438 631 Z " />
<glyph glyph-name="Otilde" unicode="&#xd5;" horiz-adv-x="875" d="M320 842 C320 876 328 901 362 901 C405 901 427 837 500 837 C565 837 630 880 630 996 L531 996 C531 963 525 940 498 940 C449 940 428 1000 359 1000 C293 1000 220 943 220 842 L320 842 Z M438 791 C663 791 815 625 815 387 C815 154 669 -18 438 -18 C214 -18 59 152 59 387 C59 621 207 791 438 791 L438 791 Z M438 631 C302 631 235 522 235 387 C235 250 303 144 438 144 C573 144 640 249 640 387 C640 530 567 631 438 631 L438 631 Z " />
<glyph glyph-name="Odieresis" unicode="&#xd6;" horiz-adv-x="875" d="M343 996 C381 996 410 968 410 925 C410 889 384 854 343 854 C303 854 276 884 276 925 C276 969 301 996 343 996 L343 996 Z M540 996 C579 996 607 968 607 925 C607 889 582 854 540 854 C500 854 474 884 474 925 C474 969 499 996 540 996 L540 996 Z M438 791 C663 791 815 625 815 387 C815 154 669 -18 438 -18 C214 -18 59 152 59 387 C59 621 207 791 438 791 L438 791 Z M438 631 C302 631 235 522 235 387 C235 250 303 144 438 144 C573 144 640 249 640 387 C640 530 567 631 438 631 L438 631 Z " />
<glyph glyph-name="multiply" unicode="&#xd7;" horiz-adv-x="617" d="M533 300 L418 416 L522 520 L412 628 L309 525 L200 633 L82 513 L190 406 L88 304 L196 194 L299 297 L413 182 L533 300 Z " />
<glyph glyph-name="Oslash" unicode="&#xd8;" horiz-adv-x="935" d="M875 694 L773 796 L695 718 C634 765 556 791 466 791 C235 791 88 621 88 387 C88 303 108 227 143 165 L59 80 L161 -22 L238 55 C300 9 377 -18 466 -18 C697 -18 843 154 843 387 C843 471 824 546 790 608 L875 694 Z M266 387 C266 521 331 628 466 628 C509 628 545 617 574 597 L277 298 C270 326 266 355 266 387 L266 387 Z M665 387 C665 251 600 147 466 147 C424 147 388 158 359 176 L655 473 C662 447 665 418 665 387 L665 387 Z " />
<glyph glyph-name="Ugrave" unicode="&#xd9;" horiz-adv-x="848" d="M469 847 L495 907 L268 1039 L222 912 L469 847 Z M761 773 L761 376 C761 134 674 -18 425 -18 C173 -18 88 134 88 376 L88 773 L264 773 L264 400 C264 174 346 133 425 133 C505 133 585 177 585 400 L585 773 L761 773 Z " />
<glyph glyph-name="Uacute" unicode="&#xda;" horiz-adv-x="848" d="M362 847 L609 912 L563 1039 L337 907 L362 847 Z M761 773 L761 376 C761 134 674 -18 425 -18 C173 -18 88 134 88 376 L88 773 L264 773 L264 400 C264 174 346 133 425 133 C505 133 585 177 585 400 L585 773 L761 773 Z " />
<glyph glyph-name="Ucircumflex" unicode="&#xdb;" horiz-adv-x="848" d="M396 1035 L445 1035 L594 903 L549 843 L420 908 L293 843 L247 903 L396 1035 Z M761 773 L761 376 C761 134 674 -18 425 -18 C173 -18 88 134 88 376 L88 773 L264 773 L264 400 C264 174 346 133 425 133 C505 133 585 177 585 400 L585 773 L761 773 Z " />
<glyph glyph-name="Udieresis" unicode="&#xdc;" horiz-adv-x="848" d="M325 996 C363 996 392 968 392 925 C392 889 366 854 325 854 C285 854 258 884 258 925 C258 969 283 996 325 996 L325 996 Z M522 996 C561 996 589 968 589 925 C589 889 564 854 522 854 C482 854 456 884 456 925 C456 969 481 996 522 996 L522 996 Z M761 773 L761 376 C761 134 674 -18 425 -18 C173 -18 88 134 88 376 L88 773 L264 773 L264 400 C264 174 346 133 425 133 C505 133 585 177 585 400 L585 773 L761 773 Z " />
<glyph glyph-name="Yacute" unicode="&#xdd;" horiz-adv-x="701" d="M538 905 L492 1032 L266 900 L291 840 L538 905 Z M678 773 L478 773 L349 440 L219 773 L20 773 L255 311 L255 0 L440 0 L440 307 L441 307 L678 773 Z " />
<glyph glyph-name="Thorn" unicode="&#xde;" horiz-adv-x="720" d="M309 671 L271 671 L271 772 L93 772 L93 0 L271 0 L271 148 L309 148 C551 148 655 239 655 409 C655 564 553 671 309 671 L309 671 Z M309 299 L271 299 L271 513 L309 513 C401 513 472 502 472 406 C472 311 407 299 309 299 L309 299 Z " />
<glyph glyph-name="germandbls" unicode="&#xdf;" horiz-adv-x="790" d="M93 -107 C116 -11 118 101 118 159 L118 423 C118 628 194 773 396 773 C538 773 641 690 641 580 C641 473 548 439 501 401 C479 384 464 372 464 351 C464 275 736 319 736 143 C736 39 654 -14 520 -14 C429 -14 346 17 311 48 L369 154 C395 133 463 100 524 100 C569 100 596 113 596 143 C596 227 326 176 326 343 C326 401 365 440 404 470 C465 517 503 534 503 577 C503 620 452 645 405 645 C297 645 264 547 264 424 L264 159 C264 78 261 -31 238 -139 L93 -107 Z " />
<glyph glyph-name="agrave" unicode="&#xe0;" horiz-adv-x="702" d="M371 684 L144 816 L98 689 L345 624 L371 684 Z M458 550 L458 479 C422 532 366 566 287 566 C135 566 34 448 34 274 C34 101 134 -16 291 -16 C384 -16 438 25 469 79 L496 0 L624 0 L624 550 L458 550 Z M333 138 C256 138 209 193 209 275 C209 357 256 412 333 412 C410 412 456 357 456 275 C456 191 408 138 333 138 L333 138 Z " />
<glyph glyph-name="aacute" unicode="&#xe1;" horiz-adv-x="702" d="M485 689 L439 816 L213 684 L238 624 L485 689 Z M458 550 L458 479 C422 532 366 566 287 566 C135 566 34 448 34 274 C34 101 134 -16 291 -16 C384 -16 438 25 469 79 L496 0 L624 0 L624 550 L458 550 Z M333 138 C256 138 209 193 209 275 C209 357 256 412 333 412 C410 412 456 357 456 275 C456 191 408 138 333 138 L333 138 Z " />
<glyph glyph-name="acircumflex" unicode="&#xe2;" horiz-adv-x="702" d="M296 685 L425 620 L470 680 L321 812 L272 812 L123 680 L169 620 L296 685 Z M458 550 L458 479 C422 532 366 566 287 566 C135 566 34 448 34 274 C34 101 134 -16 291 -16 C384 -16 438 25 469 79 L496 0 L624 0 L624 550 L458 550 Z M333 138 C256 138 209 193 209 275 C209 357 256 412 333 412 C410 412 456 357 456 275 C456 191 408 138 333 138 L333 138 Z " />
<glyph glyph-name="atilde" unicode="&#xe3;" horiz-adv-x="702" d="M220 678 C263 678 285 614 358 614 C423 614 488 657 488 773 L389 773 C389 740 383 717 356 717 C307 717 286 777 217 777 C151 777 78 720 78 619 L178 619 C178 653 186 678 220 678 L220 678 Z M458 550 L458 479 C422 532 366 566 287 566 C135 566 34 448 34 274 C34 101 134 -16 291 -16 C384 -16 438 25 469 79 L496 0 L624 0 L624 550 L458 550 Z M333 138 C256 138 209 193 209 275 C209 357 256 412 333 412 C410 412 456 357 456 275 C456 191 408 138 333 138 L333 138 Z " />
<glyph glyph-name="adieresis" unicode="&#xe4;" horiz-adv-x="702" d="M201 631 C242 631 268 666 268 702 C268 745 239 773 201 773 C159 773 134 746 134 702 C134 661 161 631 201 631 L201 631 Z M398 631 C440 631 465 666 465 702 C465 745 437 773 398 773 C357 773 332 746 332 702 C332 661 358 631 398 631 L398 631 Z M458 550 L458 479 C422 532 366 566 287 566 C135 566 34 448 34 274 C34 101 134 -16 291 -16 C384 -16 438 25 469 79 L496 0 L624 0 L624 550 L458 550 Z M333 138 C256 138 209 193 209 275 C209 357 256 412 333 412 C410 412 456 357 456 275 C456 191 408 138 333 138 L333 138 Z " />
<glyph glyph-name="aring" unicode="&#xe5;" horiz-adv-x="702" d="M296 604 C366 604 410 663 410 728 C410 801 364 850 296 850 C225 850 181 804 181 728 C181 658 227 604 296 604 L296 604 Z M296 776 C321 776 339 755 339 728 C339 702 323 680 296 680 C270 680 252 702 252 728 C252 755 269 776 296 776 L296 776 Z M458 550 L458 479 C422 532 366 566 287 566 C135 566 34 448 34 274 C34 101 134 -16 291 -16 C384 -16 438 25 469 79 L496 0 L624 0 L624 550 L458 550 Z M333 138 C256 138 209 193 209 275 C209 357 256 412 333 412 C410 412 456 357 456 275 C456 191 408 138 333 138 L333 138 Z " />
<glyph glyph-name="ae" unicode="&#xe6;" horiz-adv-x="976" d="M683 119 C609 119 577 167 566 227 L914 227 C944 430 870 566 661 566 C555 566 491 525 454 464 C407 528 337 566 252 566 C193 566 105 547 35 518 L90 373 C129 392 190 413 251 413 C331 413 374 380 382 326 C348 337 305 346 252 346 C125 346 34 286 34 167 C34 52 118 -18 238 -18 C343 -18 414 33 451 102 C494 28 571 -16 683 -16 C784 -16 852 7 919 44 L845 167 C795 142 745 119 683 119 L683 119 Z M661 431 C738 431 766 381 758 336 L566 336 C577 381 593 431 661 431 L661 431 Z M281 128 C258 128 220 135 220 171 C220 204 250 216 291 216 C326 216 356 210 380 203 C365 149 316 128 281 128 L281 128 Z " />
<glyph glyph-name="ccedilla" unicode="&#xe7;" horiz-adv-x="604" d="M335 132 C253 132 207 193 207 274 C207 357 253 418 337 418 C392 418 431 395 456 365 L577 449 C527 519 444 566 331 566 C159 566 36 459 36 274 C36 103 145 -3 301 -15 L290 -111 C311 -110 394 -111 392 -162 C389 -209 293 -181 263 -162 L244 -238 C330 -269 462 -296 475 -165 C483 -79 398 -53 352 -51 L356 -15 C467 -9 536 43 577 102 L456 185 C436 160 393 132 335 132 L335 132 Z " />
<glyph glyph-name="egrave" unicode="&#xe8;" horiz-adv-x="622" d="M352 624 L378 684 L151 816 L105 689 L352 624 Z M34 276 C34 422 115 566 313 566 C507 566 596 430 558 227 L218 227 C229 167 260 119 334 119 C397 119 447 142 497 167 L562 44 C495 7 436 -16 334 -16 C153 -16 34 100 34 276 L34 276 Z M218 324 L412 324 C415 369 397 440 317 440 C237 440 218 360 218 324 L218 324 Z " />
<glyph glyph-name="eacute" unicode="&#xe9;" horiz-adv-x="622" d="M245 624 L492 689 L446 816 L220 684 L245 624 Z M34 276 C34 422 115 566 313 566 C507 566 596 430 558 227 L218 227 C229 167 260 119 334 119 C397 119 447 142 497 167 L562 44 C495 7 436 -16 334 -16 C153 -16 34 100 34 276 L34 276 Z M218 324 L412 324 C415 369 397 440 317 440 C237 440 218 360 218 324 L218 324 Z " />
<glyph glyph-name="ecircumflex" unicode="&#xea;" horiz-adv-x="622" d="M279 812 L328 812 L477 680 L432 620 L303 685 L176 620 L130 680 L279 812 Z M34 276 C34 422 115 566 313 566 C507 566 596 430 558 227 L218 227 C229 167 260 119 334 119 C397 119 447 142 497 167 L562 44 C495 7 436 -16 334 -16 C153 -16 34 100 34 276 L34 276 Z M218 324 L412 324 C415 369 397 440 317 440 C237 440 218 360 218 324 L218 324 Z " />
<glyph glyph-name="edieresis" unicode="&#xeb;" horiz-adv-x="622" d="M208 773 C246 773 275 745 275 702 C275 666 249 631 208 631 C168 631 141 661 141 702 C141 746 166 773 208 773 L208 773 Z M405 773 C444 773 472 745 472 702 C472 666 447 631 405 631 C365 631 339 661 339 702 C339 746 364 773 405 773 L405 773 Z M34 276 C34 422 115 566 313 566 C507 566 596 430 558 227 L218 227 C229 167 260 119 334 119 C397 119 447 142 497 167 L562 44 C495 7 436 -16 334 -16 C153 -16 34 100 34 276 L34 276 Z M218 324 L412 324 C415 369 397 440 317 440 C237 440 218 360 218 324 L218 324 Z " />
<glyph glyph-name="igrave" unicode="&#xec;" horiz-adv-x="332" d="M214 624 L240 684 L13 816 L-33 689 L214 624 Z M253 0 L80 0 L80 550 L253 550 L253 0 Z " />
<glyph glyph-name="iacute" unicode="&#xed;" horiz-adv-x="332" d="M107 624 L354 689 L308 816 L82 684 L107 624 Z M253 0 L80 0 L80 550 L253 550 L253 0 Z " />
<glyph glyph-name="icircumflex" unicode="&#xee;" horiz-adv-x="332" d="M141 812 L190 812 L339 680 L294 620 L165 685 L38 620 L-8 680 L141 812 Z M253 0 L80 0 L80 550 L253 550 L253 0 Z " />
<glyph glyph-name="idieresis" unicode="&#xef;" horiz-adv-x="332" d="M70 773 C108 773 137 745 137 702 C137 666 111 631 70 631 C30 631 3 661 3 702 C3 746 28 773 70 773 L70 773 Z M267 773 C306 773 334 745 334 702 C334 666 309 631 267 631 C227 631 201 661 201 702 C201 746 226 773 267 773 L267 773 Z M253 0 L80 0 L80 550 L253 550 L253 0 Z " />
<glyph glyph-name="eth" unicode="&#xf0;" horiz-adv-x="656" d="M512 658 L591 699 L543 801 L436 746 C365 813 287 853 243 867 L185 723 C208 713 245 695 284 666 L208 627 L256 527 L368 584 C400 542 425 488 434 421 C398 469 346 501 275 501 C151 501 34 413 34 244 C34 104 135 -17 305 -17 C513 -17 602 162 602 373 C602 489 564 584 512 658 L512 658 Z M311 129 C230 129 204 196 206 244 C204 303 237 366 308 366 C354 366 404 329 432 277 C419 191 384 129 311 129 L311 129 Z " />
<glyph glyph-name="ntilde" unicode="&#xf1;" horiz-adv-x="661" d="M238 678 C281 678 303 614 376 614 C441 614 506 657 506 773 L407 773 C407 740 401 717 374 717 C325 717 304 777 235 777 C169 777 96 720 96 619 L196 619 C196 653 204 678 238 678 L238 678 Z M402 565 C325 565 268 524 228 481 L200 550 L62 550 L62 0 L241 0 L241 339 C286 384 330 403 358 403 C410 403 422 364 422 309 L420 0 L601 0 L601 342 C601 512 506 565 402 565 L402 565 Z M161 381 L162 381 C158 373 158 371 161 381 L161 381 Z " />
<glyph glyph-name="ograve" unicode="&#xf2;" horiz-adv-x="667" d="M366 624 L392 684 L165 816 L119 689 L366 624 Z M333 566 C503 566 632 452 632 274 C632 137 545 -16 333 -16 C160 -16 34 95 34 274 C34 454 160 566 333 566 L333 566 Z M333 415 C245 415 213 341 213 274 C213 209 245 135 333 135 C419 135 453 209 453 274 C453 341 420 415 333 415 L333 415 Z " />
<glyph glyph-name="oacute" unicode="&#xf3;" horiz-adv-x="667" d="M259 624 L506 689 L460 816 L234 684 L259 624 Z M333 566 C503 566 632 452 632 274 C632 137 545 -16 333 -16 C160 -16 34 95 34 274 C34 454 160 566 333 566 L333 566 Z M333 415 C245 415 213 341 213 274 C213 209 245 135 333 135 C419 135 453 209 453 274 C453 341 420 415 333 415 L333 415 Z " />
<glyph glyph-name="ocircumflex" unicode="&#xf4;" horiz-adv-x="667" d="M293 812 L342 812 L491 680 L446 620 L317 685 L190 620 L144 680 L293 812 Z M333 566 C503 566 632 452 632 274 C632 137 545 -16 333 -16 C160 -16 34 95 34 274 C34 454 160 566 333 566 L333 566 Z M333 415 C245 415 213 341 213 274 C213 209 245 135 333 135 C419 135 453 209 453 274 C453 341 420 415 333 415 L333 415 Z " />
<glyph glyph-name="otilde" unicode="&#xf5;" horiz-adv-x="667" d="M199 619 C199 653 207 678 241 678 C284 678 306 614 379 614 C444 614 509 657 509 773 L410 773 C410 740 404 717 377 717 C328 717 307 777 238 777 C172 777 99 720 99 619 L199 619 Z M333 566 C503 566 632 452 632 274 C632 137 545 -16 333 -16 C160 -16 34 95 34 274 C34 454 160 566 333 566 L333 566 Z M333 415 C245 415 213 341 213 274 C213 209 245 135 333 135 C419 135 453 209 453 274 C453 341 420 415 333 415 L333 415 Z " />
<glyph glyph-name="odieresis" unicode="&#xf6;" horiz-adv-x="667" d="M222 773 C260 773 289 745 289 702 C289 666 263 631 222 631 C182 631 155 661 155 702 C155 746 180 773 222 773 L222 773 Z M419 773 C458 773 486 745 486 702 C486 666 461 631 419 631 C379 631 353 661 353 702 C353 746 378 773 419 773 L419 773 Z M333 566 C503 566 632 452 632 274 C632 137 545 -16 333 -16 C160 -16 34 95 34 274 C34 454 160 566 333 566 L333 566 Z M333 415 C245 415 213 341 213 274 C213 209 245 135 333 135 C419 135 453 209 453 274 C453 341 420 415 333 415 L333 415 Z " />
<glyph glyph-name="divide" unicode="&#xf7;" horiz-adv-x="624" d="M314 684 C357 684 388 653 388 606 C388 565 359 526 314 526 C269 526 239 561 239 606 C239 654 268 684 314 684 L314 684 Z M541 475 L541 351 L82 351 L82 475 L541 475 Z M314 300 C357 300 388 269 388 222 C388 181 359 142 314 142 C269 142 239 177 239 222 C239 270 268 300 314 300 L314 300 Z " />
<glyph glyph-name="oslash" unicode="&#xf8;" horiz-adv-x="659" d="M562 465 L612 515 L566 561 L515 510 C464 546 400 566 329 566 C155 566 30 454 30 274 C30 198 52 135 91 86 L46 41 L92 -5 L139 42 C189 4 255 -16 329 -16 C541 -16 628 137 628 274 C628 351 604 416 562 465 L562 465 Z M209 274 C209 341 249 415 329 415 C356 415 379 406 397 392 L220 215 C213 234 209 254 209 274 L209 274 Z M329 135 C300 135 276 145 257 160 L436 339 C445 318 449 296 449 274 C449 209 406 135 329 135 L329 135 Z " />
<glyph glyph-name="ugrave" unicode="&#xf9;" horiz-adv-x="661" d="M396 684 L169 816 L123 689 L370 624 L396 684 Z M419 550 L419 231 C375 188 344 169 302 169 C250 169 238 208 238 263 L239 550 L59 550 L59 208 C59 38 154 -15 258 -15 C334 -15 392 26 432 70 L460 0 L598 0 L598 550 L419 550 Z " />
<glyph glyph-name="uacute" unicode="&#xfa;" horiz-adv-x="661" d="M510 689 L464 816 L238 684 L263 624 L510 689 Z M419 550 L419 231 C375 188 344 169 302 169 C250 169 238 208 238 263 L239 550 L59 550 L59 208 C59 38 154 -15 258 -15 C334 -15 392 26 432 70 L460 0 L598 0 L598 550 L419 550 Z " />
<glyph glyph-name="ucircumflex" unicode="&#xfb;" horiz-adv-x="661" d="M321 685 L450 620 L495 680 L346 812 L297 812 L148 680 L194 620 L321 685 Z M419 550 L419 231 C375 188 344 169 302 169 C250 169 238 208 238 263 L239 550 L59 550 L59 208 C59 38 154 -15 258 -15 C334 -15 392 26 432 70 L460 0 L598 0 L598 550 L419 550 Z " />
<glyph glyph-name="udieresis" unicode="&#xfc;" horiz-adv-x="661" d="M226 631 C267 631 293 666 293 702 C293 745 264 773 226 773 C184 773 159 746 159 702 C159 661 186 631 226 631 L226 631 Z M423 631 C465 631 490 666 490 702 C490 745 462 773 423 773 C382 773 357 746 357 702 C357 661 383 631 423 631 L423 631 Z M419 550 L419 231 C375 188 344 169 302 169 C250 169 238 208 238 263 L239 550 L59 550 L59 208 C59 38 154 -15 258 -15 C334 -15 392 26 432 70 L460 0 L598 0 L598 550 L419 550 Z " />
<glyph glyph-name="yacute" unicode="&#xfd;" horiz-adv-x="541" d="M463 689 L417 816 L191 684 L216 624 L463 689 Z M360 550 L270 210 L178 550 L1 550 L183 2 C154 -83 147 -156 21 -105 L8 -270 C235 -324 295 -209 336 -68 L533 550 L360 550 Z " />
<glyph glyph-name="thorn" unicode="&#xfe;" horiz-adv-x="700" d="M400 566 C336 566 283 545 242 511 L242 850 L63 850 L63 -300 L242 -300 L242 35 C279 4 329 -16 395 -16 C557 -16 666 107 666 274 C666 444 552 566 400 566 L400 566 Z M367 138 C296 138 242 191 242 275 C242 357 294 412 367 412 C439 412 493 357 493 275 C493 193 439 138 367 138 L367 138 Z " />
<glyph glyph-name="ydieresis" unicode="&#xff;" horiz-adv-x="541" d="M179 631 C220 631 246 666 246 702 C246 745 217 773 179 773 C137 773 112 746 112 702 C112 661 139 631 179 631 L179 631 Z M376 631 C418 631 443 666 443 702 C443 745 415 773 376 773 C335 773 310 746 310 702 C310 661 336 631 376 631 L376 631 Z M360 550 L270 210 L178 550 L1 550 L183 2 C154 -83 147 -156 21 -105 L8 -270 C235 -324 295 -209 336 -68 L533 550 L360 550 Z " />
<glyph glyph-name="Amacron" unicode="&#x100;" horiz-adv-x="860" d="M610 967 L260 967 L260 866 L610 866 L610 967 Z M640 0 L827 0 L532 773 L324 773 L31 0 L217 0 L273 158 L584 158 L640 0 Z M331 322 L428 595 L525 322 L331 322 Z " />
<glyph glyph-name="amacron" unicode="&#x101;" horiz-adv-x="702" d="M475 744 L125 744 L125 643 L475 643 L475 744 Z M458 550 L458 479 C422 532 366 566 287 566 C135 566 34 448 34 274 C34 101 134 -16 291 -16 C384 -16 438 25 469 79 L496 0 L624 0 L624 550 L458 550 Z M333 138 C256 138 209 193 209 275 C209 357 256 412 333 412 C410 412 456 357 456 275 C456 191 408 138 333 138 L333 138 Z " />
<glyph glyph-name="Abreve" unicode="&#x102;" horiz-adv-x="860" d="M431 850 C548 850 585 921 587 996 L483 996 C481 988 482 940 431 940 C382 940 381 988 380 996 L276 996 C278 898 334 850 431 850 L431 850 Z M640 0 L827 0 L532 773 L324 773 L31 0 L217 0 L273 158 L584 158 L640 0 Z M331 322 L428 595 L525 322 L331 322 Z " />
<glyph glyph-name="abreve" unicode="&#x103;" horiz-adv-x="702" d="M296 627 C413 627 450 698 452 773 L348 773 C346 765 347 717 296 717 C247 717 246 765 245 773 L141 773 C143 675 199 627 296 627 L296 627 Z M458 550 L458 479 C422 532 366 566 287 566 C135 566 34 448 34 274 C34 101 134 -16 291 -16 C384 -16 438 25 469 79 L496 0 L624 0 L624 550 L458 550 Z M333 138 C256 138 209 193 209 275 C209 357 256 412 333 412 C410 412 456 357 456 275 C456 191 408 138 333 138 L333 138 Z " />
<glyph glyph-name="Aogonek" unicode="&#x104;" horiz-adv-x="860" d="M675 -149 C658 -149 645 -139 645 -117 C645 -87 666 -58 711 0 L827 0 L532 773 L324 773 L31 0 L217 0 L273 158 L584 158 L640 0 L642 0 C601 -32 553 -90 553 -138 C551 -192 587 -230 657 -227 C685 -226 719 -213 749 -181 L718 -129 C702 -144 691 -149 675 -149 L675 -149 Z M331 322 L428 595 L525 322 L331 322 Z " />
<glyph glyph-name="aogonek" unicode="&#x105;" horiz-adv-x="702" d="M624 0 L624 550 L458 550 L458 479 C422 532 366 566 287 566 C135 566 34 448 34 274 C34 101 134 -16 291 -16 C384 -16 438 25 469 79 L496 1 L493 1 C452 -31 403 -89 403 -138 C401 -192 437 -230 507 -227 C535 -226 569 -213 599 -181 L568 -129 C552 -144 541 -149 525 -149 C508 -149 495 -139 495 -117 C495 -87 516 -58 561 0 L624 0 Z M333 138 C256 138 209 193 209 275 C209 357 256 412 333 412 C410 412 456 357 456 275 C456 191 408 138 333 138 L333 138 Z " />
<glyph glyph-name="Cacute" unicode="&#x106;" horiz-adv-x="811" d="M388 847 L635 912 L589 1039 L363 907 L388 847 Z M770 641 L627 539 C589 588 528 631 454 631 C315 631 235 523 235 388 C235 250 317 144 454 144 C528 144 589 186 627 237 L771 135 C699 40 584 -17 454 -17 C225 -17 59 152 59 388 C59 621 220 791 454 791 C585 791 699 735 770 641 L770 641 Z " />
<glyph glyph-name="cacute" unicode="&#x107;" horiz-adv-x="604" d="M260 624 L507 689 L461 816 L235 684 L260 624 Z M36 274 C36 459 159 566 331 566 C444 566 527 519 577 449 L456 365 C431 395 392 418 337 418 C253 418 207 357 207 274 C207 193 253 132 335 132 C393 132 436 160 456 185 L577 102 C533 39 457 -16 331 -16 C159 -16 36 92 36 274 L36 274 Z " />
<glyph glyph-name="Cdotaccent" unicode="&#x10a;" horiz-adv-x="811" d="M447 1031 C503 1031 541 991 541 931 C541 879 505 829 447 829 C390 829 352 873 352 931 C352 992 389 1031 447 1031 L447 1031 Z M770 641 L627 539 C589 588 528 631 454 631 C315 631 235 523 235 388 C235 250 317 144 454 144 C528 144 589 186 627 237 L771 135 C699 40 584 -17 454 -17 C225 -17 59 152 59 388 C59 621 220 791 454 791 C585 791 699 735 770 641 L770 641 Z " />
<glyph glyph-name="cdotaccent" unicode="&#x10b;" horiz-adv-x="604" d="M319 808 C375 808 413 768 413 708 C413 656 377 606 319 606 C262 606 224 650 224 708 C224 769 261 808 319 808 L319 808 Z M36 274 C36 459 159 566 331 566 C444 566 527 519 577 449 L456 365 C431 395 392 418 337 418 C253 418 207 357 207 274 C207 193 253 132 335 132 C393 132 436 160 456 185 L577 102 C533 39 457 -16 331 -16 C159 -16 36 92 36 274 L36 274 Z " />
<glyph glyph-name="Ccaron" unicode="&#x10c;" horiz-adv-x="811" d="M424 848 L275 980 L321 1040 L448 975 L577 1040 L622 980 L473 848 L424 848 Z M770 641 L627 539 C589 588 528 631 454 631 C315 631 235 523 235 388 C235 250 317 144 454 144 C528 144 589 186 627 237 L771 135 C699 40 584 -17 454 -17 C225 -17 59 152 59 388 C59 621 220 791 454 791 C585 791 699 735 770 641 L770 641 Z " />
<glyph glyph-name="ccaron" unicode="&#x10d;" horiz-adv-x="604" d="M296 625 L147 757 L193 817 L320 752 L449 817 L494 757 L345 625 L296 625 Z M36 274 C36 459 159 566 331 566 C444 566 527 519 577 449 L456 365 C431 395 392 418 337 418 C253 418 207 357 207 274 C207 193 253 132 335 132 C393 132 436 160 456 185 L577 102 C533 39 457 -16 331 -16 C159 -16 36 92 36 274 L36 274 Z " />
<glyph glyph-name="Dcaron" unicode="&#x10e;" horiz-adv-x="878" d="M465 848 L614 980 L569 1040 L440 975 L313 1040 L267 980 L416 848 L465 848 Z M446 773 L93 773 L93 0 L446 0 C666 0 818 159 818 384 C818 615 667 773 446 773 L446 773 Z M446 161 L269 161 L269 612 L446 612 C564 612 635 515 635 384 C635 255 566 161 446 161 L446 161 Z " />
<glyph glyph-name="dcaron" unicode="&#x10f;" horiz-adv-x="706" d="M738 864 L672 611 L732 586 L861 808 L738 864 Z M459 494 C424 537 371 566 291 566 C129 566 34 443 34 276 C34 106 133 -16 287 -16 C373 -16 433 22 472 80 L503 0 L629 0 L629 860 L459 860 L459 494 Z M333 138 C261 138 207 193 207 275 C207 357 261 412 333 412 C405 412 459 359 459 275 C459 193 406 138 333 138 L333 138 Z " />
<glyph glyph-name="Dcroat" unicode="&#x110;" horiz-adv-x="825" d="M392 773 L106 773 L106 463 L43 463 L43 298 L106 298 L106 0 L392 0 C613 0 765 159 765 384 C765 615 614 773 392 773 L392 773 Z M392 164 L285 164 L285 298 L447 298 L447 463 L285 463 L285 609 L392 609 C508 609 579 514 579 384 C579 256 512 164 392 164 L392 164 Z " />
<glyph glyph-name="dcroat" unicode="&#x111;" horiz-adv-x="766" d="M722 761 L664 761 L664 860 L485 860 L485 761 L360 761 L360 654 L485 654 L485 505 C443 543 390 566 329 566 C170 566 59 448 59 274 C59 104 153 -16 320 -16 C408 -16 470 22 512 75 L543 0 L664 0 L664 654 L722 654 L722 761 Z M361 145 C288 145 237 193 237 274 C237 364 288 405 361 405 C434 405 483 357 483 274 C483 193 432 145 361 145 L361 145 Z " />
<glyph glyph-name="Emacron" unicode="&#x112;" horiz-adv-x="694" d="M530 967 L180 967 L180 866 L530 866 L530 967 Z M625 617 L625 773 L93 773 L93 0 L625 0 L625 156 L263 156 L263 320 L547 320 L547 469 L263 471 L263 617 L625 617 Z " />
<glyph glyph-name="emacron" unicode="&#x113;" horiz-adv-x="622" d="M132 643 L132 744 L482 744 L482 643 L132 643 Z M34 276 C34 422 115 566 313 566 C507 566 596 430 558 227 L218 227 C229 167 260 119 334 119 C397 119 447 142 497 167 L562 44 C495 7 436 -16 334 -16 C153 -16 34 100 34 276 L34 276 Z M218 324 L412 324 C415 369 397 440 317 440 C237 440 218 360 218 324 L218 324 Z " />
<glyph glyph-name="Edotaccent" unicode="&#x116;" horiz-adv-x="694" d="M352 829 C410 829 446 879 446 931 C446 991 408 1031 352 1031 C294 1031 257 992 257 931 C257 873 295 829 352 829 L352 829 Z M625 617 L625 773 L93 773 L93 0 L625 0 L625 156 L263 156 L263 320 L547 320 L547 469 L263 471 L263 617 L625 617 Z " />
<glyph glyph-name="edotaccent" unicode="&#x117;" horiz-adv-x="622" d="M304 808 C360 808 398 768 398 708 C398 656 362 606 304 606 C247 606 209 650 209 708 C209 769 246 808 304 808 L304 808 Z M34 276 C34 422 115 566 313 566 C507 566 596 430 558 227 L218 227 C229 167 260 119 334 119 C397 119 447 142 497 167 L562 44 C495 7 436 -16 334 -16 C153 -16 34 100 34 276 L34 276 Z M218 324 L412 324 C415 369 397 440 317 440 C237 440 218 360 218 324 L218 324 Z " />
<glyph glyph-name="Eogonek" unicode="&#x118;" horiz-adv-x="694" d="M625 617 L625 773 L93 773 L93 0 L469 0 C429 -32 382 -89 382 -137 C380 -191 416 -229 486 -226 C514 -225 548 -212 578 -180 L547 -128 C531 -143 520 -148 504 -148 C487 -148 474 -138 474 -116 C474 -86 495 -58 539 0 L625 0 L625 156 L263 156 L263 320 L547 320 L547 469 L263 471 L263 617 L625 617 Z " />
<glyph glyph-name="eogonek" unicode="&#x119;" horiz-adv-x="622" d="M563 -92 C547 -107 536 -112 520 -112 C503 -112 490 -102 490 -80 C490 -50 511 -21 557 38 L551 38 L562 44 L497 167 C447 142 397 119 334 119 C260 119 229 167 218 227 L558 227 C596 430 507 566 313 566 C115 566 34 422 34 276 C34 100 153 -16 334 -16 C377 -16 412 -12 444 -4 C418 -34 398 -69 398 -101 C396 -155 432 -193 502 -190 C530 -189 564 -176 594 -144 L563 -92 Z M317 440 C397 440 415 369 412 324 L218 324 C218 360 237 440 317 440 L317 440 Z " />
<glyph glyph-name="Ecaron" unicode="&#x11a;" horiz-adv-x="694" d="M378 848 L527 980 L482 1040 L353 975 L226 1040 L180 980 L329 848 L378 848 Z M625 617 L625 773 L93 773 L93 0 L625 0 L625 156 L263 156 L263 320 L547 320 L547 469 L263 471 L263 617 L625 617 Z " />
<glyph glyph-name="ecaron" unicode="&#x11b;" horiz-adv-x="622" d="M281 625 L132 757 L178 817 L305 752 L434 817 L479 757 L330 625 L281 625 Z M34 276 C34 422 115 566 313 566 C507 566 596 430 558 227 L218 227 C229 167 260 119 334 119 C397 119 447 142 497 167 L562 44 C495 7 436 -16 334 -16 C153 -16 34 100 34 276 L34 276 Z M218 324 L412 324 C415 369 397 440 317 440 C237 440 218 360 218 324 L218 324 Z " />
<glyph glyph-name="Gbreve" unicode="&#x11e;" horiz-adv-x="820" d="M435 850 C552 850 589 921 591 996 L487 996 C485 988 486 940 435 940 C386 940 385 988 384 996 L280 996 C282 898 338 850 435 850 L435 850 Z M738 437 L425 437 L425 276 L549 276 L549 191 C528 164 493 146 439 146 C306 146 235 252 235 389 C235 524 303 632 427 632 C507 632 575 589 612 538 L740 645 C669 738 563 793 433 793 C209 793 59 625 59 390 C59 151 217 -16 433 -16 C561 -16 671 41 738 135 L738 437 Z " />
<glyph glyph-name="gbreve" unicode="&#x11f;" horiz-adv-x="697" d="M330 627 C447 627 484 698 486 773 L382 773 C380 765 381 717 330 717 C281 717 280 765 279 773 L175 773 C177 675 233 627 330 627 L330 627 Z M496 550 L470 477 C432 531 371 566 287 566 C130 566 34 447 34 289 C34 129 132 15 291 15 C371 15 424 43 459 83 L459 6 C459 -120 377 -153 321 -153 C240 -153 192 -93 173 -71 L50 -166 C96 -236 185 -300 334 -300 C553 -300 632 -164 632 -15 L632 550 L496 550 Z M333 162 C261 162 207 213 207 288 C207 362 261 412 333 412 C408 412 459 362 459 288 C459 212 405 162 333 162 L333 162 Z " />
<glyph glyph-name="Gdotaccent" unicode="&#x120;" horiz-adv-x="820" d="M436 829 C494 829 530 879 530 931 C530 991 492 1031 436 1031 C378 1031 341 992 341 931 C341 873 379 829 436 829 L436 829 Z M738 437 L425 437 L425 276 L549 276 L549 191 C528 164 493 146 439 146 C306 146 235 252 235 389 C235 524 303 632 427 632 C507 632 575 589 612 538 L740 645 C669 738 563 793 433 793 C209 793 59 625 59 390 C59 151 217 -16 433 -16 C561 -16 671 41 738 135 L738 437 Z " />
<glyph glyph-name="gdotaccent" unicode="&#x121;" horiz-adv-x="697" d="M331 606 C389 606 425 656 425 708 C425 768 387 808 331 808 C273 808 236 769 236 708 C236 650 274 606 331 606 L331 606 Z M496 550 L470 477 C432 531 371 566 287 566 C130 566 34 447 34 289 C34 129 132 15 291 15 C371 15 424 43 459 83 L459 6 C459 -120 377 -153 321 -153 C240 -153 192 -93 173 -71 L50 -166 C96 -236 185 -300 334 -300 C553 -300 632 -164 632 -15 L632 550 L496 550 Z M333 162 C261 162 207 213 207 288 C207 362 261 412 333 412 C408 412 459 362 459 288 C459 212 405 162 333 162 L333 162 Z " />
<glyph glyph-name="Gcommaaccent" unicode="&#x122;" horiz-adv-x="820" d="M738 437 L425 437 L425 276 L549 276 L549 191 C528 164 493 146 439 146 C306 146 235 252 235 389 C235 524 303 632 427 632 C507 632 575 589 612 538 L740 645 C669 738 563 793 433 793 C209 793 59 625 59 390 C59 151 217 -16 433 -16 C561 -16 671 41 738 135 L738 437 Z M436 -71 C390 -71 360 -103 360 -154 C360 -201 390 -235 436 -235 L446 -235 C434 -258 412 -266 373 -273 L390 -327 C484 -313 523 -255 523 -178 C523 -114 494 -71 436 -71 L436 -71 Z " />
<glyph glyph-name="gcommaaccent" unicode="&#x123;" horiz-adv-x="697" d="M326 622 C374 622 405 655 405 704 C405 752 374 786 328 786 L319 786 C330 809 353 817 391 824 L375 879 C287 866 242 811 242 730 C242 665 269 622 326 622 L326 622 Z M496 550 L470 477 C432 531 371 566 287 566 C130 566 34 447 34 289 C34 129 132 15 291 15 C371 15 424 43 459 83 L459 6 C459 -120 377 -153 321 -153 C240 -153 192 -93 173 -71 L50 -166 C96 -236 185 -300 334 -300 C553 -300 632 -164 632 -15 L632 550 L496 550 Z M333 162 C261 162 207 213 207 288 C207 362 261 412 333 412 C408 412 459 362 459 288 C459 212 405 162 333 162 L333 162 Z " />
<glyph glyph-name="Hbar" unicode="&#x126;" horiz-adv-x="926" d="M843 625 L775 625 L775 773 L596 773 L596 625 L326 625 L326 773 L148 773 L148 625 L83 625 L83 559 L148 559 L148 0 L326 0 L326 304 L596 304 L596 0 L775 0 L775 559 L843 559 L843 625 Z M596 468 L326 468 L326 559 L596 559 L596 468 Z " />
<glyph glyph-name="hbar" unicode="&#x127;" horiz-adv-x="705" d="M453 565 C384 565 331 532 292 493 L292 651 L455 651 L455 751 L292 751 L292 849 L113 849 L113 751 L65 751 L65 651 L113 651 L113 0 L292 0 L292 353 C338 398 382 418 410 418 C462 418 474 379 474 323 L472 0 L653 0 L653 342 C653 512 558 565 453 565 L453 565 Z M215 381 L216 381 C212 373 212 371 215 381 L215 381 Z " />
<glyph glyph-name="Itilde" unicode="&#x128;" horiz-adv-x="360" d="M64 842 C64 876 72 901 106 901 C149 901 171 837 244 837 C309 837 374 880 374 996 L275 996 C275 963 269 940 242 940 C193 940 172 1000 103 1000 C37 1000 -36 943 -36 842 L64 842 Z M269 0 L93 0 L93 773 L269 773 L269 0 Z " />
<glyph glyph-name="itilde" unicode="&#x129;" horiz-adv-x="332" d="M47 619 C47 653 55 678 89 678 C132 678 154 614 227 614 C292 614 357 657 357 773 L258 773 C258 740 252 717 225 717 C176 717 155 777 86 777 C20 777 -53 720 -53 619 L47 619 Z M253 0 L80 0 L80 550 L253 550 L253 0 Z " />
<glyph glyph-name="Imacron" unicode="&#x12a;" horiz-adv-x="360" d="M11 866 L11 967 L361 967 L361 866 L11 866 Z M269 0 L93 0 L93 773 L269 773 L269 0 Z " />
<glyph glyph-name="imacron" unicode="&#x12b;" horiz-adv-x="332" d="M-6 643 L-6 744 L344 744 L344 643 L-6 643 Z M253 0 L80 0 L80 550 L253 550 L253 0 Z " />
<glyph glyph-name="Iogonek" unicode="&#x12e;" horiz-adv-x="360" d="M269 0 L269 773 L93 773 L93 2 C53 -31 6 -87 6 -135 C4 -189 40 -227 110 -224 C138 -223 172 -210 202 -178 L171 -126 C155 -141 144 -146 128 -146 C111 -146 98 -136 98 -114 C98 -85 118 -56 162 0 L269 0 Z " />
<glyph glyph-name="iogonek" unicode="&#x12f;" horiz-adv-x="332" d="M166 606 C224 606 260 656 260 708 C260 768 222 808 166 808 C108 808 71 769 71 708 C71 650 109 606 166 606 L166 606 Z M80 4 C39 -28 -8 -85 -8 -133 C-10 -187 26 -225 96 -222 C124 -221 158 -208 188 -176 L157 -124 C141 -139 130 -144 114 -144 C97 -144 84 -134 84 -112 C84 -83 104 -55 146 0 L253 0 L253 550 L80 550 L80 4 Z " />
<glyph glyph-name="Idotaccent" unicode="&#x130;" horiz-adv-x="360" d="M183 1031 C239 1031 277 991 277 931 C277 879 241 829 183 829 C126 829 88 873 88 931 C88 992 125 1031 183 1031 L183 1031 Z M269 0 L93 0 L93 773 L269 773 L269 0 Z " />
<glyph glyph-name="dotlessi" unicode="&#x131;" horiz-adv-x="332" d="M253 0 L80 0 L80 550 L253 550 L253 0 Z " />
<glyph glyph-name="IJ" unicode="&#x132;" horiz-adv-x="741" d="M267 321 L91 321 L91 773 L267 773 L267 321 Z M110 120 L228 214 C264 167 296 135 351 135 C404 135 474 165 474 291 L474 773 L650 773 L650 269 C650 120 584 -15 367 -15 C241 -15 150 51 110 120 L110 120 Z " />
<glyph glyph-name="ij" unicode="&#x133;" horiz-adv-x="644" d="M154 861 C208 861 245 823 245 765 C245 715 211 667 154 667 C101 667 64 709 64 765 C64 824 99 861 154 861 L154 861 Z M474 860 C528 860 565 821 565 764 C565 713 531 666 474 666 C421 666 384 708 384 764 C384 822 419 860 474 860 L474 860 Z M241 0 L68 0 L68 550 L241 550 L241 0 Z M567 550 L567 -8 C567 -206 465 -281 364 -331 L286 -205 C285 -205 389 -161 389 -37 L389 550 L567 550 Z " />
<glyph glyph-name="Kcommaaccent" unicode="&#x136;" horiz-adv-x="780" d="M408 386 L744 772 L527 772 L278 466 L269 466 L269 772 L93 772 L93 0 L269 0 L269 305 L281 305 L538 0 L762 0 L408 386 Z M400 -71 C354 -71 324 -103 324 -154 C324 -201 354 -235 400 -235 L410 -235 C398 -258 376 -266 337 -273 L354 -327 C448 -313 487 -255 487 -178 C487 -114 458 -71 400 -71 L400 -71 Z " />
<glyph glyph-name="kcommaaccent" unicode="&#x137;" horiz-adv-x="655" d="M408 291 L626 550 L404 550 L264 373 L241 373 L241 820 L65 820 L65 0 L241 0 L241 212 L259 212 L422 -1 L655 -1 L408 291 Z M335 -71 C289 -71 259 -103 259 -154 C259 -201 289 -235 335 -235 L345 -235 C333 -258 311 -266 272 -273 L289 -327 C383 -313 422 -255 422 -178 C422 -114 393 -71 335 -71 L335 -71 Z " />
<glyph glyph-name="Lacute" unicode="&#x139;" horiz-adv-x="688" d="M371 912 L325 1039 L99 907 L124 847 L371 912 Z M269 161 L269 773 L93 773 L93 0 L625 0 L625 161 L269 161 Z " />
<glyph glyph-name="lacute" unicode="&#x13a;" horiz-adv-x="373" d="M86 924 L333 989 L287 1116 L61 984 L86 924 Z M305 148 L331 14 C186 -39 57 -18 58 181 L58 837 L231 837 L231 201 C231 150 260 139 305 148 L305 148 Z " />
<glyph glyph-name="Lcommaaccent" unicode="&#x13b;" horiz-adv-x="688" d="M269 161 L269 773 L93 773 L93 0 L625 0 L625 161 L269 161 Z M375 -71 C329 -71 299 -103 299 -154 C299 -201 329 -235 375 -235 L385 -235 C373 -258 351 -266 312 -273 L329 -327 C423 -313 462 -255 462 -178 C462 -114 433 -71 375 -71 L375 -71 Z " />
<glyph glyph-name="lcommaaccent" unicode="&#x13c;" horiz-adv-x="373" d="M331 14 L305 148 C260 139 231 150 231 201 L231 837 L58 837 L58 181 C57 -18 186 -39 331 14 L331 14 Z M201 -71 C155 -71 125 -103 125 -154 C125 -201 155 -235 201 -235 L211 -235 C199 -258 177 -266 138 -273 L155 -327 C249 -313 288 -255 288 -178 C288 -114 259 -71 201 -71 L201 -71 Z " />
<glyph glyph-name="Lcaron" unicode="&#x13d;" horiz-adv-x="688" d="M491 721 L368 777 L302 524 L362 499 L491 721 Z M269 161 L269 773 L93 773 L93 0 L625 0 L625 161 L269 161 Z " />
<glyph glyph-name="lcaron" unicode="&#x13e;" horiz-adv-x="383" d="M324 576 L453 798 L330 854 L264 601 L324 576 Z M305 148 L331 14 C186 -39 57 -18 58 181 L58 837 L231 837 L231 201 C231 150 260 139 305 148 L305 148 Z " />
<glyph glyph-name="Lslash" unicode="&#x141;" horiz-adv-x="636" d="M277 164 L277 348 L384 394 L384 530 L277 484 L277 773 L98 773 L98 406 L18 371 L18 235 L98 270 L98 0 L587 0 L587 164 L277 164 Z " />
<glyph glyph-name="lslash" unicode="&#x142;" horiz-adv-x="423" d="M368 156 C322 148 299 159 299 210 L299 412 L381 449 L381 585 L299 548 L299 850 L121 850 L121 468 L45 434 L45 299 L121 333 L121 190 C120 -9 248 -30 394 22 L368 156 Z " />
<glyph glyph-name="Nacute" unicode="&#x143;" horiz-adv-x="908" d="M632 912 L586 1039 L360 907 L385 847 L632 912 Z M646 773 L646 275 L266 773 L93 773 L93 0 L264 0 L264 494 L644 0 L816 0 L816 773 L646 773 Z " />
<glyph glyph-name="nacute" unicode="&#x144;" horiz-adv-x="661" d="M503 689 L457 816 L231 684 L256 624 L503 689 Z M402 565 C325 565 268 524 228 481 L200 550 L62 550 L62 0 L241 0 L241 339 C286 384 330 403 358 403 C410 403 422 364 422 309 L420 0 L601 0 L601 342 C601 512 506 565 402 565 L402 565 Z M161 381 L162 381 C158 373 158 371 161 381 L161 381 Z " />
<glyph glyph-name="Ncommaaccent" unicode="&#x145;" horiz-adv-x="908" d="M646 773 L646 275 L266 773 L93 773 L93 0 L264 0 L264 494 L644 0 L816 0 L816 773 L646 773 Z M467 -71 C421 -71 391 -103 391 -154 C391 -201 421 -235 467 -235 L477 -235 C465 -258 443 -266 404 -273 L421 -327 C515 -313 554 -255 554 -178 C554 -114 525 -71 467 -71 L467 -71 Z " />
<glyph glyph-name="ncommaaccent" unicode="&#x146;" horiz-adv-x="661" d="M402 565 C325 565 268 524 228 481 L200 550 L62 550 L62 0 L241 0 L241 339 C286 384 330 403 358 403 C410 403 422 364 422 309 L420 0 L601 0 L601 342 C601 512 506 565 402 565 L402 565 Z M161 381 L162 381 C158 373 158 371 161 381 L161 381 Z M346 -71 C300 -71 270 -103 270 -154 C270 -201 300 -235 346 -235 L356 -235 C344 -258 322 -266 283 -273 L300 -327 C394 -313 433 -255 433 -178 C433 -114 404 -71 346 -71 L346 -71 Z " />
<glyph glyph-name="Ncaron" unicode="&#x147;" horiz-adv-x="908" d="M470 848 L619 980 L574 1040 L445 975 L318 1040 L272 980 L421 848 L470 848 Z M646 773 L646 275 L266 773 L93 773 L93 0 L264 0 L264 494 L644 0 L816 0 L816 773 L646 773 Z " />
<glyph glyph-name="ncaron" unicode="&#x148;" horiz-adv-x="661" d="M341 625 L490 757 L445 817 L316 752 L189 817 L143 757 L292 625 L341 625 Z M402 565 C325 565 268 524 228 481 L200 550 L62 550 L62 0 L241 0 L241 339 C286 384 330 403 358 403 C410 403 422 364 422 309 L420 0 L601 0 L601 342 C601 512 506 565 402 565 L402 565 Z M161 381 L162 381 C158 373 158 371 161 381 L161 381 Z " />
<glyph glyph-name="Eng" unicode="&#x14a;" horiz-adv-x="864" d="M595 773 L595 295 L275 773 L93 773 L93 0 L271 0 L271 476 L590 1 L590 -37 C590 -161 486 -205 488 -205 L570 -331 C671 -281 772 -206 772 -8 L772 773 L595 773 Z " />
<glyph glyph-name="eng" unicode="&#x14b;" horiz-adv-x="661" d="M402 565 C324 565 267 523 227 479 L200 550 L62 550 L62 0 L241 0 L241 353 C286 398 330 418 358 418 C410 418 422 379 422 323 L421 82 L420 82 L420 -37 C420 -161 317 -205 320 -205 L397 -331 C497 -282 601 -207 601 -8 L601 342 C601 512 506 565 402 565 L402 565 Z M163 381 L164 381 C160 373 160 371 163 381 L163 381 Z " />
<glyph glyph-name="Omacron" unicode="&#x14c;" horiz-adv-x="875" d="M267 866 L267 967 L617 967 L617 866 L267 866 Z M438 791 C663 791 815 625 815 387 C815 154 669 -18 438 -18 C214 -18 59 152 59 387 C59 621 207 791 438 791 L438 791 Z M438 631 C302 631 235 522 235 387 C235 250 303 144 438 144 C573 144 640 249 640 387 C640 530 567 631 438 631 L438 631 Z " />
<glyph glyph-name="omacron" unicode="&#x14d;" horiz-adv-x="667" d="M146 643 L146 744 L496 744 L496 643 L146 643 Z M333 566 C503 566 632 452 632 274 C632 137 545 -16 333 -16 C160 -16 34 95 34 274 C34 454 160 566 333 566 L333 566 Z M333 415 C245 415 213 341 213 274 C213 209 245 135 333 135 C419 135 453 209 453 274 C453 341 420 415 333 415 L333 415 Z " />
<glyph glyph-name="Ohungarumlaut" unicode="&#x150;" horiz-adv-x="875" d="M377 832 L465 1001 L335 1038 L313 847 L377 832 Z M533 832 L621 1001 L490 1038 L469 847 L533 832 Z M438 791 C663 791 815 625 815 387 C815 154 669 -18 438 -18 C214 -18 59 152 59 387 C59 621 207 791 438 791 L438 791 Z M438 631 C302 631 235 522 235 387 C235 250 303 144 438 144 C573 144 640 249 640 387 C640 530 567 631 438 631 L438 631 Z " />
<glyph glyph-name="ohungarumlaut" unicode="&#x151;" horiz-adv-x="667" d="M256 609 L344 778 L214 815 L192 624 L256 609 Z M412 609 L500 778 L369 815 L348 624 L412 609 Z M333 566 C503 566 632 452 632 274 C632 137 545 -16 333 -16 C160 -16 34 95 34 274 C34 454 160 566 333 566 L333 566 Z M333 415 C245 415 213 341 213 274 C213 209 245 135 333 135 C419 135 453 209 453 274 C453 341 420 415 333 415 L333 415 Z " />
<glyph glyph-name="OE" unicode="&#x152;" horiz-adv-x="1226" d="M1156 609 L1156 773 L668 773 L668 692 C606 755 521 791 420 791 C200 791 59 621 59 387 C59 152 206 -18 420 -18 C522 -18 607 19 668 81 L668 0 L1156 0 L1156 164 L832 164 L832 306 L1035 306 L1035 471 L832 471 L832 609 L1156 609 Z M438 147 C305 147 238 251 238 387 C238 521 303 628 438 628 C566 628 637 528 637 387 C637 251 571 147 438 147 L438 147 Z " />
<glyph glyph-name="oe" unicode="&#x153;" horiz-adv-x="1047" d="M754 119 C680 119 648 167 637 227 L985 227 C1015 430 941 566 732 566 C630 566 568 528 530 472 C484 532 412 566 318 566 C160 566 34 454 34 274 C34 95 160 -16 318 -16 C427 -16 495 24 536 82 C580 20 653 -16 754 -16 C855 -16 923 7 990 44 L917 167 C866 142 817 119 754 119 L754 119 Z M732 431 C809 431 837 381 829 336 L637 336 C648 381 664 431 732 431 L732 431 Z M333 135 C253 135 213 209 213 274 C213 341 253 415 333 415 C412 415 453 341 453 274 C453 209 410 135 333 135 L333 135 Z " />
<glyph glyph-name="Racute" unicode="&#x154;" horiz-adv-x="772" d="M566 912 L520 1039 L294 907 L319 847 L566 912 Z M734 0 L574 277 C677 317 723 395 723 509 C723 665 646 773 394 773 L93 773 L93 0 L269 0 L269 247 L379 247 C392 247 404 247 417 248 L544 0 L734 0 Z M269 395 L269 619 L394 619 C482 619 543 597 543 507 C543 416 478 395 379 395 L269 395 Z " />
<glyph glyph-name="racute" unicode="&#x155;" horiz-adv-x="470" d="M415 689 L369 816 L143 684 L168 624 L415 689 Z M338 566 C281 566 242 533 217 490 L191 550 L62 550 L62 0 L232 0 L232 302 C242 349 268 393 311 393 C339 393 358 382 379 371 L457 530 C439 541 393 566 338 566 L338 566 Z " />
<glyph glyph-name="Rcommaaccent" unicode="&#x156;" horiz-adv-x="772" d="M574 277 C677 317 723 395 723 509 C723 665 646 773 394 773 L93 773 L93 0 L269 0 L269 247 L379 247 C392 247 404 247 417 248 L544 0 L734 0 L574 277 Z M269 395 L269 619 L394 619 C482 619 543 597 543 507 C543 416 478 395 379 395 L269 395 Z M394 -71 C348 -71 318 -103 318 -154 C318 -201 348 -235 394 -235 L404 -235 C392 -258 370 -266 331 -273 L348 -327 C442 -313 481 -255 481 -178 C481 -114 452 -71 394 -71 L394 -71 Z " />
<glyph glyph-name="rcommaaccent" unicode="&#x157;" horiz-adv-x="470" d="M338 566 C281 566 242 533 217 490 L191 550 L62 550 L62 0 L232 0 L232 302 C242 349 268 393 311 393 C339 393 358 382 379 371 L457 530 C439 541 393 566 338 566 L338 566 Z M141 -71 C95 -71 65 -103 65 -154 C65 -201 95 -235 141 -235 L151 -235 C139 -258 117 -266 78 -273 L95 -327 C189 -313 228 -255 228 -178 C228 -114 199 -71 141 -71 L141 -71 Z " />
<glyph glyph-name="Rcaron" unicode="&#x158;" horiz-adv-x="772" d="M404 848 L553 980 L508 1040 L379 975 L252 1040 L206 980 L355 848 L404 848 Z M734 0 L574 277 C677 317 723 395 723 509 C723 665 646 773 394 773 L93 773 L93 0 L269 0 L269 247 L379 247 C392 247 404 247 417 248 L544 0 L734 0 Z M269 395 L269 619 L394 619 C482 619 543 597 543 507 C543 416 478 395 379 395 L269 395 Z " />
<glyph glyph-name="rcaron" unicode="&#x159;" horiz-adv-x="470" d="M253 625 L402 757 L357 817 L228 752 L101 817 L55 757 L204 625 L253 625 Z M338 566 C281 566 242 533 217 490 L191 550 L62 550 L62 0 L232 0 L232 302 C242 349 268 393 311 393 C339 393 358 382 379 371 L457 530 C439 541 393 566 338 566 L338 566 Z " />
<glyph glyph-name="Sacute" unicode="&#x15a;" horiz-adv-x="721" d="M310 847 L557 912 L511 1039 L285 907 L310 847 Z M43 134 L173 245 C232 177 301 141 372 141 C437 141 487 174 487 216 C487 345 88 317 88 568 C88 700 198 793 375 793 C481 793 573 761 651 685 L528 576 C475 616 434 643 370 643 C307 643 273 605 273 575 C273 463 669 489 669 230 C669 79 535 -16 366 -16 C238 -16 128 41 43 134 L43 134 Z " />
<glyph glyph-name="sacute" unicode="&#x15b;" horiz-adv-x="565" d="M219 730 L466 795 L420 922 L194 790 L219 730 Z M282 -16 C185 -16 66 20 26 56 L94 183 C126 159 226 119 291 119 C349 119 363 140 363 158 C363 244 42 168 42 385 C42 473 118 566 278 566 C374 566 435 543 508 506 L448 384 C403 407 347 431 278 431 C224 431 208 415 208 397 C208 312 530 394 530 164 C530 65 447 -16 282 -16 L282 -16 Z " />
<glyph glyph-name="Scedilla" unicode="&#x15e;" horiz-adv-x="721" d="M669 230 C669 489 273 463 273 575 C273 605 307 643 370 643 C434 643 475 616 528 576 L651 685 C573 761 481 793 375 793 C198 793 88 700 88 568 C88 317 487 345 487 216 C487 174 437 141 372 141 C301 141 232 177 173 245 L43 134 C122 47 224 -8 341 -15 L330 -111 C351 -110 434 -111 432 -162 C429 -209 333 -181 303 -162 L284 -238 C370 -269 502 -296 515 -165 C523 -79 438 -53 392 -51 L396 -15 C550 -5 669 88 669 230 L669 230 Z " />
<glyph glyph-name="scedilla" unicode="&#x15f;" horiz-adv-x="565" d="M530 164 C530 394 208 312 208 397 C208 415 224 431 278 431 C347 431 403 407 448 384 L508 506 C435 543 374 566 278 566 C118 566 42 473 42 385 C42 168 363 244 363 158 C363 140 349 119 291 119 C226 119 126 159 94 183 L26 56 C62 23 164 -9 255 -15 L244 -111 C265 -110 348 -111 346 -162 C343 -209 247 -181 217 -162 L198 -238 C212 -248 266 -270 330 -260 C398 -250 429 -216 431 -151 C429 -79 352 -53 306 -51 L310 -15 C456 -7 530 71 530 164 L530 164 Z " />
<glyph glyph-name="Scaron" unicode="&#x160;" horiz-adv-x="721" d="M346 848 L197 980 L243 1040 L370 975 L499 1040 L544 980 L395 848 L346 848 Z M43 134 L173 245 C232 177 301 141 372 141 C437 141 487 174 487 216 C487 345 88 317 88 568 C88 700 198 793 375 793 C481 793 573 761 651 685 L528 576 C475 616 434 643 370 643 C307 643 273 605 273 575 C273 463 669 489 669 230 C669 79 535 -16 366 -16 C238 -16 128 41 43 134 L43 134 Z " />
<glyph glyph-name="scaron" unicode="&#x161;" horiz-adv-x="565" d="M255 731 L106 863 L152 923 L279 858 L408 923 L453 863 L304 731 L255 731 Z M282 -16 C185 -16 66 20 26 56 L94 183 C126 159 226 119 291 119 C349 119 363 140 363 158 C363 244 42 168 42 385 C42 473 118 566 278 566 C374 566 435 543 508 506 L448 384 C403 407 347 431 278 431 C224 431 208 415 208 397 C208 312 530 394 530 164 C530 65 447 -16 282 -16 L282 -16 Z " />
<glyph glyph-name="uni0162" unicode="&#x162;" horiz-adv-x="707" d="M439 0 L439 613 L666 613 L666 773 L38 773 L38 613 L266 613 L266 0 L327 0 L314 -111 C335 -110 418 -111 416 -162 C413 -209 317 -181 287 -162 L268 -238 C354 -269 486 -296 499 -165 C507 -79 422 -53 376 -51 L381 0 L439 0 Z " />
<glyph glyph-name="uni0163" unicode="&#x163;" horiz-adv-x="445" d="M299 -51 L303 -16 C341 -18 381 -12 421 0 L432 138 C369 124 269 87 269 247 L269 415 L379 415 L393 550 L269 550 L269 722 L96 722 L96 550 L18 550 L18 415 L96 415 L96 263 C96 96 162 17 249 -7 L237 -111 C258 -110 341 -111 339 -162 C336 -209 240 -181 210 -162 L191 -238 C277 -269 409 -296 422 -165 C430 -79 345 -53 299 -51 L299 -51 Z " />
<glyph glyph-name="Tcaron" unicode="&#x164;" horiz-adv-x="707" d="M379 848 L528 980 L483 1040 L354 975 L227 1040 L181 980 L330 848 L379 848 Z M666 773 L38 773 L38 613 L266 613 L266 0 L439 0 L439 613 L666 613 L666 773 Z " />
<glyph glyph-name="tcaron" unicode="&#x165;" horiz-adv-x="445" d="M522 819 L399 875 L333 622 L393 597 L522 819 Z M269 247 L269 415 L379 415 L393 550 L269 550 L269 722 L96 722 L96 550 L18 550 L18 415 L96 415 L96 263 C96 -5 265 -46 421 0 L432 138 C369 124 269 87 269 247 L269 247 Z " />
<glyph glyph-name="Tbar" unicode="&#x166;" horiz-adv-x="707" d="M666 609 L666 773 L38 773 L38 609 L263 609 L263 504 L118 504 L118 339 L263 339 L263 0 L442 0 L442 339 L586 339 L586 504 L442 504 L442 609 L666 609 Z " />
<glyph glyph-name="tbar" unicode="&#x167;" horiz-adv-x="445" d="M269 246 L269 247 L363 247 L374 362 L269 362 L269 415 L379 415 L393 550 L269 550 L269 722 L90 722 L90 550 L18 550 L18 415 L90 415 L90 362 L38 362 L38 247 L90 247 C97 -8 268 -46 421 -1 L432 137 C369 123 269 86 269 246 L269 246 Z " />
<glyph glyph-name="Utilde" unicode="&#x168;" horiz-adv-x="848" d="M302 842 C302 876 310 901 344 901 C387 901 409 837 482 837 C547 837 612 880 612 996 L513 996 C513 963 507 940 480 940 C431 940 410 1000 341 1000 C275 1000 202 943 202 842 L302 842 Z M761 773 L761 376 C761 134 674 -18 425 -18 C173 -18 88 134 88 376 L88 773 L264 773 L264 400 C264 174 346 133 425 133 C505 133 585 177 585 400 L585 773 L761 773 Z " />
<glyph glyph-name="utilde" unicode="&#x169;" horiz-adv-x="661" d="M245 678 C288 678 310 614 383 614 C448 614 513 657 513 773 L414 773 C414 740 408 717 381 717 C332 717 311 777 242 777 C176 777 103 720 103 619 L203 619 C203 653 211 678 245 678 L245 678 Z M419 550 L419 231 C375 188 344 169 302 169 C250 169 238 208 238 263 L239 550 L59 550 L59 208 C59 38 154 -15 258 -15 C334 -15 392 26 432 70 L460 0 L598 0 L598 550 L419 550 Z " />
<glyph glyph-name="Umacron" unicode="&#x16a;" horiz-adv-x="848" d="M249 866 L249 967 L599 967 L599 866 L249 866 Z M761 773 L761 376 C761 134 674 -18 425 -18 C173 -18 88 134 88 376 L88 773 L264 773 L264 400 C264 174 346 133 425 133 C505 133 585 177 585 400 L585 773 L761 773 Z " />
<glyph glyph-name="umacron" unicode="&#x16b;" horiz-adv-x="661" d="M500 744 L150 744 L150 643 L500 643 L500 744 Z M419 550 L419 231 C375 188 344 169 302 169 C250 169 238 208 238 263 L239 550 L59 550 L59 208 C59 38 154 -15 258 -15 C334 -15 392 26 432 70 L460 0 L598 0 L598 550 L419 550 Z " />
<glyph glyph-name="Uring" unicode="&#x16e;" horiz-adv-x="848" d="M420 1073 C488 1073 534 1024 534 951 C534 886 490 827 420 827 C351 827 305 881 305 951 C305 1027 349 1073 420 1073 L420 1073 Z M420 999 C393 999 376 978 376 951 C376 925 394 903 420 903 C447 903 463 925 463 951 C463 978 445 999 420 999 L420 999 Z M761 773 L761 376 C761 134 674 -18 425 -18 C173 -18 88 134 88 376 L88 773 L264 773 L264 400 C264 174 346 133 425 133 C505 133 585 177 585 400 L585 773 L761 773 Z " />
<glyph glyph-name="uring" unicode="&#x16f;" horiz-adv-x="661" d="M321 604 C391 604 435 663 435 728 C435 801 389 850 321 850 C250 850 206 804 206 728 C206 658 252 604 321 604 L321 604 Z M321 776 C346 776 364 755 364 728 C364 702 348 680 321 680 C295 680 277 702 277 728 C277 755 294 776 321 776 L321 776 Z M419 550 L419 231 C375 188 344 169 302 169 C250 169 238 208 238 263 L239 550 L59 550 L59 208 C59 38 154 -15 258 -15 C334 -15 392 26 432 70 L460 0 L598 0 L598 550 L419 550 Z " />
<glyph glyph-name="Uhungarumlaut" unicode="&#x170;" horiz-adv-x="848" d="M359 832 L447 1001 L317 1038 L295 847 L359 832 Z M515 832 L603 1001 L472 1038 L451 847 L515 832 Z M761 773 L761 376 C761 134 674 -18 425 -18 C173 -18 88 134 88 376 L88 773 L264 773 L264 400 C264 174 346 133 425 133 C505 133 585 177 585 400 L585 773 L761 773 Z " />
<glyph glyph-name="uhungarumlaut" unicode="&#x171;" horiz-adv-x="661" d="M348 778 L218 815 L196 624 L260 609 L348 778 Z M504 778 L373 815 L352 624 L416 609 L504 778 Z M419 550 L419 231 C375 188 344 169 302 169 C250 169 238 208 238 263 L239 550 L59 550 L59 208 C59 38 154 -15 258 -15 C334 -15 392 26 432 70 L460 0 L598 0 L598 550 L419 550 Z " />
<glyph glyph-name="Uogonek" unicode="&#x172;" horiz-adv-x="848" d="M585 773 L585 400 C585 177 505 133 425 133 C346 133 264 174 264 400 L264 773 L88 773 L88 376 C88 134 173 -18 425 -18 C444 -18 462 -17 478 -15 C446 -48 417 -91 417 -129 C415 -183 451 -221 521 -218 C549 -217 583 -204 613 -172 L582 -120 C566 -135 555 -140 539 -140 C522 -140 509 -130 509 -108 C509 -79 529 -50 573 6 C710 57 761 190 761 376 L761 773 L585 773 Z " />
<glyph glyph-name="uogonek" unicode="&#x173;" horiz-adv-x="661" d="M598 0 L598 550 L419 550 L419 231 C375 188 344 169 302 169 C250 169 238 208 238 263 L239 550 L59 550 L59 208 C59 38 154 -15 258 -15 C334 -15 392 26 432 70 L460 0 C420 -33 376 -87 376 -134 C374 -188 410 -226 480 -223 C508 -222 542 -209 572 -177 L541 -125 C525 -140 514 -145 498 -145 C481 -145 468 -135 468 -113 C468 -84 488 -56 531 0 L598 0 Z " />
<glyph glyph-name="Wcircumflex" unicode="&#x174;" horiz-adv-x="1054" d="M495 908 L624 843 L669 903 L520 1035 L471 1035 L322 903 L368 843 L495 908 Z M810 773 L731 305 L586 773 L470 773 L306 296 L231 773 L42 773 L202 0 L371 0 L524 488 L658 0 L830 0 L1011 773 L810 773 Z " />
<glyph glyph-name="wcircumflex" unicode="&#x175;" horiz-adv-x="926" d="M462 685 L591 620 L636 680 L487 812 L438 812 L289 680 L335 620 L462 685 Z M715 550 L639 240 L539 551 L386 551 L282 229 L197 550 L19 550 L204 0 L377 0 L463 371 L548 0 L719 0 L904 550 L715 550 Z " />
<glyph glyph-name="Ycircumflex" unicode="&#x176;" horiz-adv-x="701" d="M349 901 L478 836 L523 896 L374 1028 L325 1028 L176 896 L222 836 L349 901 Z M678 773 L478 773 L349 440 L219 773 L20 773 L255 311 L255 0 L440 0 L440 307 L441 307 L678 773 Z " />
<glyph glyph-name="ycircumflex" unicode="&#x177;" horiz-adv-x="541" d="M274 685 L403 620 L448 680 L299 812 L250 812 L101 680 L147 620 L274 685 Z M360 550 L270 210 L178 550 L1 550 L183 2 C154 -83 147 -156 21 -105 L8 -270 C235 -324 295 -209 336 -68 L533 550 L360 550 Z " />
<glyph glyph-name="Ydieresis" unicode="&#x178;" horiz-adv-x="701" d="M254 847 C295 847 321 882 321 918 C321 961 292 989 254 989 C212 989 187 962 187 918 C187 877 214 847 254 847 L254 847 Z M451 847 C493 847 518 882 518 918 C518 961 490 989 451 989 C410 989 385 962 385 918 C385 877 411 847 451 847 L451 847 Z M678 773 L478 773 L349 440 L219 773 L20 773 L255 311 L255 0 L440 0 L440 307 L441 307 L678 773 Z " />
<glyph glyph-name="Zacute" unicode="&#x179;" horiz-adv-x="783" d="M582 912 L536 1039 L310 907 L335 847 L582 912 Z M723 772 L65 772 L65 608 L478 618 L65 99 L65 0 L723 0 L723 164 L311 154 L723 671 L723 772 Z " />
<glyph glyph-name="zacute" unicode="&#x17a;" horiz-adv-x="538" d="M457 689 L411 816 L185 684 L210 624 L457 689 Z M511 550 L28 550 L28 387 L292 401 L28 163 L28 0 L511 0 L511 163 L241 149 L511 387 L511 550 Z " />
<glyph glyph-name="Zdotaccent" unicode="&#x17b;" horiz-adv-x="783" d="M394 829 C452 829 488 879 488 931 C488 991 450 1031 394 1031 C336 1031 299 992 299 931 C299 873 337 829 394 829 L394 829 Z M723 772 L65 772 L65 608 L478 618 L65 99 L65 0 L723 0 L723 164 L311 154 L723 671 L723 772 Z " />
<glyph glyph-name="zdotaccent" unicode="&#x17c;" horiz-adv-x="538" d="M269 606 C327 606 363 656 363 708 C363 768 325 808 269 808 C211 808 174 769 174 708 C174 650 212 606 269 606 L269 606 Z M511 550 L28 550 L28 387 L292 401 L28 163 L28 0 L511 0 L511 163 L241 149 L511 387 L511 550 Z " />
<glyph glyph-name="Zcaron" unicode="&#x17d;" horiz-adv-x="783" d="M420 848 L569 980 L524 1040 L395 975 L268 1040 L222 980 L371 848 L420 848 Z M723 772 L65 772 L65 608 L478 618 L65 99 L65 0 L723 0 L723 164 L311 154 L723 671 L723 772 Z " />
<glyph glyph-name="zcaron" unicode="&#x17e;" horiz-adv-x="538" d="M295 625 L444 757 L399 817 L270 752 L143 817 L97 757 L246 625 L295 625 Z M511 550 L28 550 L28 387 L292 401 L28 163 L28 0 L511 0 L511 163 L241 149 L511 387 L511 550 Z " />
<glyph glyph-name="longs" unicode="&#x17f;" horiz-adv-x="430" d="M91 596 L91 550 L23 550 L23 400 L91 400 L91 0 L261 0 L261 610 C261 743 346 728 415 703 L416 840 C229 907 91 826 91 596 L91 596 Z " />
<glyph glyph-name="Ohorn" unicode="&#x1a0;" horiz-adv-x="884" d="M856 860 L727 860 C736 809 724 775 674 777 C596 782 517 792 439 792 L438 792 C207 792 59 621 59 387 C59 152 214 -18 438 -18 C669 -18 815 154 815 387 C815 497 782 592 725 662 L745 662 C865 662 880 777 856 860 L856 860 Z M438 144 C303 144 235 250 235 387 C235 522 302 631 438 631 C567 631 640 530 640 387 C640 249 573 144 438 144 L438 144 Z " />
<glyph glyph-name="ohorn" unicode="&#x1a1;" horiz-adv-x="697" d="M698 639 L569 639 C578 588 566 554 516 557 C438 562 426 566 348 566 C175 566 49 454 49 274 C49 95 175 -16 348 -16 C560 -16 647 137 647 274 C647 349 624 412 585 461 C699 466 719 567 698 639 L698 639 Z M348 135 C268 135 228 209 228 274 C228 341 268 415 348 415 C427 415 468 341 468 274 C468 209 425 135 348 135 L348 135 Z " />
<glyph glyph-name="Uhorn" unicode="&#x1af;" horiz-adv-x="923" d="M958 853 L829 853 C838 802 826 770 776 773 L596 773 L596 402 C596 179 516 135 436 135 C357 135 274 176 274 402 L274 773 L98 773 L98 378 C98 136 184 -16 436 -16 C685 -16 772 136 772 378 L772 657 L831 656 C952 656 967 770 958 853 L958 853 Z " />
<glyph glyph-name="uhorn" unicode="&#x1b0;" horiz-adv-x="807" d="M781 630 L652 630 C660 583 651 553 611 550 L434 550 L434 231 C390 188 358 169 316 169 C265 169 253 208 253 263 L254 550 L74 550 L74 208 C74 38 169 -15 273 -15 C349 -15 407 26 447 70 L475 0 L613 0 L613 434 L654 433 C775 433 790 547 781 630 L781 630 Z " />
<glyph glyph-name="uni01CD" unicode="&#x1cd;" horiz-adv-x="860" d="M458 848 L607 980 L562 1040 L433 975 L306 1040 L260 980 L409 848 L458 848 Z M640 0 L827 0 L532 773 L324 773 L31 0 L217 0 L273 158 L584 158 L640 0 Z M331 322 L428 595 L525 322 L331 322 Z " />
<glyph glyph-name="uni01CE" unicode="&#x1ce;" horiz-adv-x="702" d="M323 625 L472 757 L427 817 L298 752 L171 817 L125 757 L274 625 L323 625 Z M458 550 L458 479 C422 532 366 566 287 566 C135 566 34 448 34 274 C34 101 134 -16 291 -16 C384 -16 438 25 469 79 L496 0 L624 0 L624 550 L458 550 Z M333 138 C256 138 209 193 209 275 C209 357 256 412 333 412 C410 412 456 357 456 275 C456 191 408 138 333 138 L333 138 Z " />
<glyph glyph-name="uni01CF" unicode="&#x1cf;" horiz-adv-x="360" d="M160 848 L11 980 L57 1040 L184 975 L313 1040 L358 980 L209 848 L160 848 Z M269 0 L93 0 L93 773 L269 773 L269 0 Z " />
<glyph glyph-name="uni01D0" unicode="&#x1d0;" horiz-adv-x="332" d="M143 625 L-6 757 L40 817 L167 752 L296 817 L341 757 L192 625 L143 625 Z M253 0 L80 0 L80 550 L253 550 L253 0 Z " />
<glyph glyph-name="uni01D1" unicode="&#x1d1;" horiz-adv-x="875" d="M416 848 L267 980 L313 1040 L440 975 L569 1040 L614 980 L465 848 L416 848 Z M438 791 C663 791 815 625 815 387 C815 154 669 -18 438 -18 C214 -18 59 152 59 387 C59 621 207 791 438 791 L438 791 Z M438 631 C302 631 235 522 235 387 C235 250 303 144 438 144 C573 144 640 249 640 387 C640 530 567 631 438 631 L438 631 Z " />
<glyph glyph-name="uni01D2" unicode="&#x1d2;" horiz-adv-x="667" d="M295 625 L146 757 L192 817 L319 752 L448 817 L493 757 L344 625 L295 625 Z M333 566 C503 566 632 452 632 274 C632 137 545 -16 333 -16 C160 -16 34 95 34 274 C34 454 160 566 333 566 L333 566 Z M333 415 C245 415 213 341 213 274 C213 209 245 135 333 135 C419 135 453 209 453 274 C453 341 420 415 333 415 L333 415 Z " />
<glyph glyph-name="uni01D3" unicode="&#x1d3;" horiz-adv-x="848" d="M398 848 L249 980 L295 1040 L422 975 L551 1040 L596 980 L447 848 L398 848 Z M761 773 L761 376 C761 134 674 -18 425 -18 C173 -18 88 134 88 376 L88 773 L264 773 L264 400 C264 174 346 133 425 133 C505 133 585 177 585 400 L585 773 L761 773 Z " />
<glyph glyph-name="uni01D4" unicode="&#x1d4;" horiz-adv-x="661" d="M348 625 L497 757 L452 817 L323 752 L196 817 L150 757 L299 625 L348 625 Z M419 550 L419 231 C375 188 344 169 302 169 C250 169 238 208 238 263 L239 550 L59 550 L59 208 C59 38 154 -15 258 -15 C334 -15 392 26 432 70 L460 0 L598 0 L598 550 L419 550 Z " />
<glyph glyph-name="uni01D5" unicode="&#x1d5;" horiz-adv-x="848" d="M252 1089 L252 1190 L602 1190 L602 1089 L252 1089 Z M325 996 C363 996 392 968 392 925 C392 889 366 854 325 854 C285 854 258 884 258 925 C258 969 283 996 325 996 L325 996 Z M522 996 C561 996 589 968 589 925 C589 889 564 854 522 854 C482 854 456 884 456 925 C456 969 481 996 522 996 L522 996 Z M761 773 L761 376 C761 134 674 -18 425 -18 C173 -18 88 134 88 376 L88 773 L264 773 L264 400 C264 174 346 133 425 133 C505 133 585 177 585 400 L585 773 L761 773 Z " />
<glyph glyph-name="uni01D6" unicode="&#x1d6;" horiz-adv-x="661" d="M503 967 L153 967 L153 866 L503 866 L503 967 Z M159 702 C159 661 186 631 226 631 C267 631 293 666 293 702 C293 745 264 773 226 773 C184 773 159 746 159 702 L159 702 Z M357 702 C357 661 383 631 423 631 C465 631 490 666 490 702 C490 745 462 773 423 773 C382 773 357 746 357 702 L357 702 Z M419 550 L419 231 C375 188 344 169 302 169 C250 169 238 208 238 263 L239 550 L59 550 L59 208 C59 38 154 -15 258 -15 C334 -15 392 26 432 70 L460 0 L598 0 L598 550 L419 550 Z " />
<glyph glyph-name="uni01D7" unicode="&#x1d7;" horiz-adv-x="848" d="M365 1070 L612 1135 L566 1262 L340 1130 L365 1070 Z M325 996 C363 996 392 968 392 925 C392 889 366 854 325 854 C285 854 258 884 258 925 C258 969 283 996 325 996 L325 996 Z M522 996 C561 996 589 968 589 925 C589 889 564 854 522 854 C482 854 456 884 456 925 C456 969 481 996 522 996 L522 996 Z M761 773 L761 376 C761 134 674 -18 425 -18 C173 -18 88 134 88 376 L88 773 L264 773 L264 400 C264 174 346 133 425 133 C505 133 585 177 585 400 L585 773 L761 773 Z " />
<glyph glyph-name="uni01D8" unicode="&#x1d8;" horiz-adv-x="661" d="M513 912 L467 1039 L241 907 L266 847 L513 912 Z M226 631 C267 631 293 666 293 702 C293 745 264 773 226 773 C184 773 159 746 159 702 C159 661 186 631 226 631 L226 631 Z M357 702 C357 661 383 631 423 631 C465 631 490 666 490 702 C490 745 462 773 423 773 C382 773 357 746 357 702 L357 702 Z M419 550 L419 231 C375 188 344 169 302 169 C250 169 238 208 238 263 L239 550 L59 550 L59 208 C59 38 154 -15 258 -15 C334 -15 392 26 432 70 L460 0 L598 0 L598 550 L419 550 Z " />
<glyph glyph-name="uni01D9" unicode="&#x1d9;" horiz-adv-x="848" d="M401 1071 L252 1203 L298 1263 L425 1198 L554 1263 L599 1203 L450 1071 L401 1071 Z M325 996 C363 996 392 968 392 925 C392 889 366 854 325 854 C285 854 258 884 258 925 C258 969 283 996 325 996 L325 996 Z M522 996 C561 996 589 968 589 925 C589 889 564 854 522 854 C482 854 456 884 456 925 C456 969 481 996 522 996 L522 996 Z M761 773 L761 376 C761 134 674 -18 425 -18 C173 -18 88 134 88 376 L88 773 L264 773 L264 400 C264 174 346 133 425 133 C505 133 585 177 585 400 L585 773 L761 773 Z " />
<glyph glyph-name="uni01DA" unicode="&#x1da;" horiz-adv-x="661" d="M351 848 L500 980 L455 1040 L326 975 L199 1040 L153 980 L302 848 L351 848 Z M159 702 C159 661 186 631 226 631 C267 631 293 666 293 702 C293 745 264 773 226 773 C184 773 159 746 159 702 L159 702 Z M357 702 C357 661 383 631 423 631 C465 631 490 666 490 702 C490 745 462 773 423 773 C382 773 357 746 357 702 L357 702 Z M419 550 L419 231 C375 188 344 169 302 169 C250 169 238 208 238 263 L239 550 L59 550 L59 208 C59 38 154 -15 258 -15 C334 -15 392 26 432 70 L460 0 L598 0 L598 550 L419 550 Z " />
<glyph glyph-name="uni01DB" unicode="&#x1db;" horiz-adv-x="848" d="M472 1070 L498 1130 L271 1262 L225 1135 L472 1070 Z M325 996 C363 996 392 968 392 925 C392 889 366 854 325 854 C285 854 258 884 258 925 C258 969 283 996 325 996 L325 996 Z M522 996 C561 996 589 968 589 925 C589 889 564 854 522 854 C482 854 456 884 456 925 C456 969 481 996 522 996 L522 996 Z M761 773 L761 376 C761 134 674 -18 425 -18 C173 -18 88 134 88 376 L88 773 L264 773 L264 400 C264 174 346 133 425 133 C505 133 585 177 585 400 L585 773 L761 773 Z " />
<glyph glyph-name="uni01DC" unicode="&#x1dc;" horiz-adv-x="661" d="M399 907 L172 1039 L126 912 L373 847 L399 907 Z M159 702 C159 661 186 631 226 631 C267 631 293 666 293 702 C293 745 264 773 226 773 C184 773 159 746 159 702 L159 702 Z M357 702 C357 661 383 631 423 631 C465 631 490 666 490 702 C490 745 462 773 423 773 C382 773 357 746 357 702 L357 702 Z M419 550 L419 231 C375 188 344 169 302 169 C250 169 238 208 238 263 L239 550 L59 550 L59 208 C59 38 154 -15 258 -15 C334 -15 392 26 432 70 L460 0 L598 0 L598 550 L419 550 Z " />
<glyph glyph-name="uni01DE" unicode="&#x1de;" horiz-adv-x="860" d="M613 1190 L263 1190 L263 1089 L613 1089 L613 1190 Z M269 925 C269 884 296 854 336 854 C377 854 403 889 403 925 C403 968 374 996 336 996 C294 996 269 969 269 925 L269 925 Z M467 925 C467 884 493 854 533 854 C575 854 600 889 600 925 C600 968 572 996 533 996 C492 996 467 969 467 925 L467 925 Z M640 0 L827 0 L532 773 L324 773 L31 0 L217 0 L273 158 L584 158 L640 0 Z M331 322 L428 595 L525 322 L331 322 Z " />
<glyph glyph-name="uni01DF" unicode="&#x1df;" horiz-adv-x="702" d="M478 967 L128 967 L128 866 L478 866 L478 967 Z M134 702 C134 661 161 631 201 631 C242 631 268 666 268 702 C268 745 239 773 201 773 C159 773 134 746 134 702 L134 702 Z M332 702 C332 661 358 631 398 631 C440 631 465 666 465 702 C465 745 437 773 398 773 C357 773 332 746 332 702 L332 702 Z M458 550 L458 479 C422 532 366 566 287 566 C135 566 34 448 34 274 C34 101 134 -16 291 -16 C384 -16 438 25 469 79 L496 0 L624 0 L624 550 L458 550 Z M333 138 C256 138 209 193 209 275 C209 357 256 412 333 412 C410 412 456 357 456 275 C456 191 408 138 333 138 L333 138 Z " />
<glyph glyph-name="Gcaron" unicode="&#x1e6;" horiz-adv-x="820" d="M462 848 L611 980 L566 1040 L437 975 L310 1040 L264 980 L413 848 L462 848 Z M738 437 L425 437 L425 276 L549 276 L549 191 C528 164 493 146 439 146 C306 146 235 252 235 389 C235 524 303 632 427 632 C507 632 575 589 612 538 L740 645 C669 738 563 793 433 793 C209 793 59 625 59 390 C59 151 217 -16 433 -16 C561 -16 671 41 738 135 L738 437 Z " />
<glyph glyph-name="gcaron" unicode="&#x1e7;" horiz-adv-x="697" d="M357 625 L506 757 L461 817 L332 752 L205 817 L159 757 L308 625 L357 625 Z M496 550 L470 477 C432 531 371 566 287 566 C130 566 34 447 34 289 C34 129 132 15 291 15 C371 15 424 43 459 83 L459 6 C459 -120 377 -153 321 -153 C240 -153 192 -93 173 -71 L50 -166 C96 -236 185 -300 334 -300 C553 -300 632 -164 632 -15 L632 550 L496 550 Z M333 162 C261 162 207 213 207 288 C207 362 261 412 333 412 C408 412 459 362 459 288 C459 212 405 162 333 162 L333 162 Z " />
<glyph glyph-name="aeacute" unicode="&#x1fd;" horiz-adv-x="976" d="M649 689 L603 816 L377 684 L402 624 L649 689 Z M683 119 C609 119 577 167 566 227 L914 227 C944 430 870 566 661 566 C555 566 491 525 454 464 C407 528 337 566 252 566 C193 566 105 547 35 518 L90 373 C129 392 190 413 251 413 C331 413 374 380 382 326 C348 337 305 346 252 346 C125 346 34 286 34 167 C34 52 118 -18 238 -18 C343 -18 414 33 451 102 C494 28 571 -16 683 -16 C784 -16 852 7 919 44 L845 167 C795 142 745 119 683 119 L683 119 Z M661 431 C738 431 766 381 758 336 L566 336 C577 381 593 431 661 431 L661 431 Z M281 128 C258 128 220 135 220 171 C220 204 250 216 291 216 C326 216 356 210 380 203 C365 149 316 128 281 128 L281 128 Z " />
<glyph glyph-name="Oslashacute" unicode="&#x1fe;" horiz-adv-x="935" d="M655 912 L609 1039 L383 907 L408 847 L655 912 Z M875 694 L773 796 L695 718 C634 765 556 791 466 791 C235 791 88 621 88 387 C88 303 108 227 143 165 L59 80 L161 -22 L238 55 C300 9 377 -18 466 -18 C697 -18 843 154 843 387 C843 471 824 546 790 608 L875 694 Z M266 387 C266 521 331 628 466 628 C509 628 545 617 574 597 L277 298 C270 326 266 355 266 387 L266 387 Z M665 387 C665 251 600 147 466 147 C424 147 388 158 359 176 L655 473 C662 447 665 418 665 387 L665 387 Z " />
<glyph glyph-name="oslashacute" unicode="&#x1ff;" horiz-adv-x="659" d="M518 689 L472 816 L246 684 L271 624 L518 689 Z M562 465 L612 515 L566 561 L515 510 C464 546 400 566 329 566 C155 566 30 454 30 274 C30 198 52 135 91 86 L46 41 L92 -5 L139 42 C189 4 255 -16 329 -16 C541 -16 628 137 628 274 C628 351 604 416 562 465 L562 465 Z M209 274 C209 341 249 415 329 415 C356 415 379 406 397 392 L220 215 C213 234 209 254 209 274 L209 274 Z M329 135 C300 135 276 145 257 160 L436 339 C445 318 449 296 449 274 C449 209 406 135 329 135 L329 135 Z " />
<glyph glyph-name="Scommaaccent" unicode="&#x218;" horiz-adv-x="721" d="M273 575 C273 605 307 643 370 643 C434 643 475 616 528 576 L651 685 C573 761 481 793 375 793 C198 793 88 700 88 568 C88 317 487 345 487 216 C487 174 437 141 372 141 C301 141 232 177 173 245 L43 134 C128 41 238 -16 366 -16 C535 -16 669 79 669 230 C669 489 273 463 273 575 L273 575 Z M371 -71 C325 -71 295 -103 295 -154 C295 -201 325 -235 371 -235 L381 -235 C369 -258 347 -266 308 -273 L325 -327 C419 -313 458 -255 458 -178 C458 -114 429 -71 371 -71 L371 -71 Z " />
<glyph glyph-name="scommaaccent" unicode="&#x219;" horiz-adv-x="565" d="M282 -16 C185 -16 66 20 26 56 L94 183 C126 159 226 119 291 119 C349 119 363 140 363 158 C363 244 42 168 42 385 C42 473 118 566 278 566 C374 566 435 543 508 506 L448 384 C403 407 347 431 278 431 C224 431 208 415 208 397 C208 312 530 394 530 164 C530 65 447 -16 282 -16 L282 -16 Z M285 -71 C239 -71 209 -103 209 -154 C209 -201 239 -235 285 -235 L295 -235 C283 -258 261 -266 222 -273 L239 -327 C333 -313 372 -255 372 -178 C372 -114 343 -71 285 -71 L285 -71 Z " />
<glyph glyph-name="uni021A" unicode="&#x21a;" horiz-adv-x="707" d="M38 773 L38 613 L266 613 L266 0 L439 0 L439 613 L666 613 L666 773 L38 773 Z M355 -71 C309 -71 279 -103 279 -154 C279 -201 309 -235 355 -235 L365 -235 C353 -258 331 -266 292 -273 L309 -327 C403 -313 442 -255 442 -178 C442 -114 413 -71 355 -71 L355 -71 Z " />
<glyph glyph-name="uni021B" unicode="&#x21b;" horiz-adv-x="445" d="M269 247 L269 415 L379 415 L393 550 L269 550 L269 722 L96 722 L96 550 L18 550 L18 415 L96 415 L96 263 C96 -5 265 -46 421 0 L432 138 C369 124 269 87 269 247 L269 247 Z M278 -71 C232 -71 202 -103 202 -154 C202 -201 232 -235 278 -235 L288 -235 C276 -258 254 -266 215 -273 L232 -327 C326 -313 365 -255 365 -178 C365 -114 336 -71 278 -71 L278 -71 Z " />
<glyph glyph-name="uni0228" unicode="&#x228;" horiz-adv-x="694" d="M625 617 L625 773 L93 773 L93 0 L311 0 L298 -111 C319 -110 402 -111 400 -162 C397 -209 301 -181 271 -162 L252 -238 C266 -248 320 -270 384 -260 C452 -250 483 -216 485 -151 C483 -79 406 -53 360 -51 L365 0 L625 0 L625 156 L263 156 L263 320 L547 320 L547 469 L263 471 L263 617 L625 617 Z " />
<glyph glyph-name="uni0229" unicode="&#x229;" horiz-adv-x="622" d="M562 44 L497 167 C447 142 397 119 334 119 C260 119 229 167 218 227 L558 227 C596 430 507 566 313 566 C115 566 34 422 34 276 C34 114 135 3 292 -14 L281 -111 C302 -110 385 -111 383 -162 C380 -209 284 -181 254 -162 L235 -238 C249 -248 303 -270 367 -260 C435 -250 466 -216 468 -151 C466 -79 389 -53 343 -51 L347 -16 C441 -14 498 9 562 44 L562 44 Z M317 440 C397 440 415 369 412 324 L218 324 C218 360 237 440 317 440 L317 440 Z " />
<glyph glyph-name="uni022A" unicode="&#x22a;" horiz-adv-x="875" d="M270 1089 L270 1190 L620 1190 L620 1089 L270 1089 Z M343 996 C381 996 410 968 410 925 C410 889 384 854 343 854 C303 854 276 884 276 925 C276 969 301 996 343 996 L343 996 Z M540 996 C579 996 607 968 607 925 C607 889 582 854 540 854 C500 854 474 884 474 925 C474 969 499 996 540 996 L540 996 Z M438 791 C663 791 815 625 815 387 C815 154 669 -18 438 -18 C214 -18 59 152 59 387 C59 621 207 791 438 791 L438 791 Z M438 631 C302 631 235 522 235 387 C235 250 303 144 438 144 C573 144 640 249 640 387 C640 530 567 631 438 631 L438 631 Z " />
<glyph glyph-name="uni022B" unicode="&#x22b;" horiz-adv-x="667" d="M149 866 L149 967 L499 967 L499 866 L149 866 Z M222 773 C260 773 289 745 289 702 C289 666 263 631 222 631 C182 631 155 661 155 702 C155 746 180 773 222 773 L222 773 Z M419 773 C458 773 486 745 486 702 C486 666 461 631 419 631 C379 631 353 661 353 702 C353 746 378 773 419 773 L419 773 Z M333 566 C503 566 632 452 632 274 C632 137 545 -16 333 -16 C160 -16 34 95 34 274 C34 454 160 566 333 566 L333 566 Z M333 415 C245 415 213 341 213 274 C213 209 245 135 333 135 C419 135 453 209 453 274 C453 341 420 415 333 415 L333 415 Z " />
<glyph glyph-name="uni0237" unicode="&#x237;" horiz-adv-x="383" d="M284 550 L284 -8 C284 -206 182 -281 81 -331 L3 -205 C2 -205 106 -161 106 -37 L106 550 L284 550 Z " />
<glyph glyph-name="uni0244" unicode="&#x244;" horiz-adv-x="999" d="M916 550 L836 550 L836 773 L660 773 L660 550 L339 550 L339 773 L163 773 L163 550 L83 550 L83 485 L163 485 L163 378 C163 136 248 -16 500 -16 C749 -16 836 136 836 378 L836 484 L916 484 L916 550 Z M660 402 C660 179 580 135 500 135 C421 135 339 176 339 402 L339 485 L660 484 L660 402 Z " />
<glyph glyph-name="uni0250" unicode="&#x250;" horiz-adv-x="641" d="M372 135 C305 135 251 150 251 192 L251 212 C285 199 329 190 382 190 C517 190 607 260 607 381 C607 489 539 566 415 566 C333 566 278 532 245 479 L219 548 L78 548 L78 209 C78 48 211 -18 359 -18 C442 -18 524 2 575 20 L521 162 C483 149 430 135 372 135 L372 135 Z M357 435 C397 435 428 413 428 373 C428 337 389 306 338 306 C305 306 276 313 253 322 C262 397 310 435 357 435 L357 435 Z " />
<glyph glyph-name="uni0251" unicode="&#x251;" horiz-adv-x="702" d="M458 550 L458 479 C422 532 366 566 287 566 C135 566 34 448 34 274 C34 101 134 -16 291 -16 C384 -16 438 25 469 79 L496 0 L624 0 L624 550 L458 550 Z M333 138 C256 138 209 193 209 275 C209 357 256 412 333 412 C410 412 456 357 456 275 C456 191 408 138 333 138 L333 138 Z " />
<glyph glyph-name="uni0259" unicode="&#x259;" horiz-adv-x="622" d="M588 274 C588 128 507 -16 309 -16 C115 -16 26 120 63 323 L404 323 C393 383 361 431 287 431 C225 431 175 408 125 383 L60 506 C127 543 186 566 287 566 C469 566 588 450 588 274 L588 274 Z M404 226 L209 226 C207 181 225 110 305 110 C385 110 404 190 404 226 L404 226 Z " />
<glyph glyph-name="uni0289" unicode="&#x289;" horiz-adv-x="738" d="M703 371 L637 371 L637 550 L458 550 L458 371 L277 371 L278 550 L98 550 L98 371 L34 371 L34 306 L98 306 L98 208 C98 38 193 -15 297 -15 C373 -15 431 26 471 70 L499 0 L637 0 L637 306 L703 306 L703 371 Z M458 231 C414 188 382 169 340 169 C289 169 277 208 277 263 L277 306 L458 306 L458 231 Z " />
<glyph glyph-name="circumflex" unicode="&#x2c6;" horiz-adv-x="475" d="M214 812 L263 812 L412 680 L367 620 L238 685 L111 620 L65 680 L214 812 Z " />
<glyph glyph-name="caron" unicode="&#x2c7;" horiz-adv-x="475" d="M214 625 L65 757 L111 817 L238 752 L367 817 L412 757 L263 625 L214 625 Z " />
<glyph glyph-name="breve" unicode="&#x2d8;" horiz-adv-x="491" d="M298 773 L402 773 C400 698 363 627 246 627 C149 627 93 675 91 773 L195 773 C196 765 197 717 246 717 C297 717 296 765 298 773 L298 773 Z " />
<glyph glyph-name="dotaccent" unicode="&#x2d9;" horiz-adv-x="537" d="M269 808 C325 808 363 768 363 708 C363 656 327 606 269 606 C212 606 174 650 174 708 C174 769 211 808 269 808 L269 808 Z " />
<glyph glyph-name="ring" unicode="&#x2da;" horiz-adv-x="498" d="M248 850 C316 850 362 801 362 728 C362 663 318 604 248 604 C179 604 133 658 133 728 C133 804 177 850 248 850 L248 850 Z M248 776 C221 776 204 755 204 728 C204 702 222 680 248 680 C275 680 291 702 291 728 C291 755 273 776 248 776 L248 776 Z " />
<glyph glyph-name="ogonek" unicode="&#x2db;" horiz-adv-x="502" d="M251 10 L320 10 C274 -49 253 -78 253 -108 C253 -130 266 -140 283 -140 C299 -140 310 -135 326 -120 L357 -172 C327 -204 293 -217 265 -218 C195 -221 159 -183 161 -129 C161 -80 210 -22 251 10 L251 10 Z " />
<glyph glyph-name="tilde" unicode="&#x2dc;" horiz-adv-x="629" d="M209 619 C209 653 217 678 251 678 C294 678 316 614 389 614 C454 614 519 657 519 773 L420 773 C420 740 414 717 387 717 C338 717 317 777 248 777 C182 777 109 720 109 619 L209 619 Z " />
<glyph glyph-name="hungarumlaut" unicode="&#x2dd;" horiz-adv-x="400" d="M114 606 L202 775 L72 812 L50 621 L114 606 Z M270 606 L358 775 L227 812 L206 621 L270 606 Z " />
<glyph glyph-name="gravecomb" unicode="&#x300;" d="M-152 624 L-126 684 L-353 816 L-399 689 L-152 624 Z " />
<glyph glyph-name="acutecomb" unicode="&#x301;" d="M-308 624 L-61 689 L-107 816 L-333 684 L-308 624 Z " />
<glyph glyph-name="uni0302" unicode="&#x302;" d="M-261 812 L-212 812 L-63 680 L-108 620 L-237 685 L-364 620 L-410 680 L-261 812 Z " />
<glyph glyph-name="tildecomb" unicode="&#x303;" d="M-420 619 C-420 653 -412 678 -378 678 C-335 678 -313 614 -240 614 C-175 614 -110 657 -110 773 L-209 773 C-209 740 -215 717 -242 717 C-291 717 -312 777 -381 777 C-447 777 -520 720 -520 619 L-420 619 Z " />
<glyph glyph-name="uni0304" unicode="&#x304;" d="M-434 643 L-434 744 L-84 744 L-84 643 L-434 643 Z " />
<glyph glyph-name="uni0306" unicode="&#x306;" d="M-193 773 L-89 773 C-91 698 -128 627 -245 627 C-342 627 -398 675 -400 773 L-296 773 C-295 765 -294 717 -245 717 C-194 717 -195 765 -193 773 L-193 773 Z " />
<glyph glyph-name="uni0307" unicode="&#x307;" d="M-268 808 C-212 808 -174 768 -174 708 C-174 656 -210 606 -268 606 C-325 606 -363 650 -363 708 C-363 769 -326 808 -268 808 L-268 808 Z " />
<glyph glyph-name="uni0308" unicode="&#x308;" d="M-370 773 C-332 773 -303 745 -303 702 C-303 666 -329 631 -370 631 C-410 631 -437 661 -437 702 C-437 746 -412 773 -370 773 L-370 773 Z M-173 773 C-134 773 -106 745 -106 702 C-106 666 -131 631 -173 631 C-213 631 -239 661 -239 702 C-239 746 -214 773 -173 773 L-173 773 Z " />
<glyph glyph-name="hookabovecomb" unicode="&#x309;" d="M-199 616 L-268 616 C-223 675 -202 694 -202 724 C-202 746 -215 756 -232 756 C-248 756 -258 751 -275 736 L-306 788 C-275 820 -240 833 -213 834 C-144 837 -108 799 -110 745 C-111 696 -159 648 -199 616 L-199 616 Z " />
<glyph glyph-name="uni030A" unicode="&#x30a;" d="M-250 850 C-182 850 -136 801 -136 728 C-136 663 -180 604 -250 604 C-319 604 -365 658 -365 728 C-365 804 -321 850 -250 850 L-250 850 Z M-250 776 C-277 776 -294 755 -294 728 C-294 702 -276 680 -250 680 C-223 680 -207 702 -207 728 C-207 755 -225 776 -250 776 L-250 776 Z " />
<glyph glyph-name="uni030B" unicode="&#x30b;" d="M-286 606 L-198 775 L-328 812 L-350 621 L-286 606 Z M-130 606 L-42 775 L-173 812 L-194 621 L-130 606 Z " />
<glyph glyph-name="uni030C" unicode="&#x30c;" d="M-261 625 L-410 757 L-364 817 L-237 752 L-108 817 L-63 757 L-212 625 L-261 625 Z " />
<glyph glyph-name="uni0312" unicode="&#x312;" d="M-157 703 C-157 654 -188 621 -236 621 C-293 621 -320 664 -320 729 C-320 810 -275 865 -187 878 L-171 823 C-209 816 -232 808 -243 785 L-234 785 C-188 785 -157 751 -157 703 L-157 703 Z " />
<glyph glyph-name="dotbelowcomb" unicode="&#x323;" d="M-268 -58 C-212 -58 -174 -98 -174 -158 C-174 -210 -210 -260 -268 -260 C-325 -260 -363 -216 -363 -158 C-363 -97 -326 -58 -268 -58 L-268 -58 Z " />
<glyph glyph-name="uni0326" unicode="&#x326;" d="M-244 -71 C-290 -71 -320 -103 -320 -154 C-320 -201 -290 -235 -244 -235 L-234 -235 C-246 -258 -268 -266 -307 -273 L-290 -327 C-196 -313 -157 -255 -157 -178 C-157 -114 -186 -71 -244 -71 L-244 -71 Z " />
<glyph glyph-name="uni0327" unicode="&#x327;" d="M-278 11 L-224 7 L-230 -51 C-184 -53 -107 -79 -105 -151 C-107 -216 -138 -250 -206 -260 C-270 -270 -324 -248 -338 -238 L-319 -162 C-289 -181 -193 -209 -190 -162 C-188 -111 -271 -110 -292 -111 L-278 11 Z " />
<glyph glyph-name="uni0328" unicode="&#x328;" d="M-251 10 L-182 10 C-228 -49 -249 -78 -249 -108 C-249 -130 -236 -140 -219 -140 C-203 -140 -192 -135 -176 -120 L-145 -172 C-175 -204 -209 -217 -237 -218 C-307 -221 -343 -183 -341 -129 C-341 -80 -292 -22 -251 10 L-251 10 Z " />
<glyph glyph-name="uni032D" unicode="&#x32d;" d="M-292 -100 L-242 -100 L-94 -232 L-139 -292 L-268 -227 L-395 -292 L-441 -232 L-292 -100 Z " />
<glyph glyph-name="uni0331" unicode="&#x331;" d="M-432 -201 L-432 -100 L-82 -100 L-82 -201 L-432 -201 Z " />
<glyph glyph-name="uni0E3F" unicode="&#xe3f;" horiz-adv-x="694" d="M545 369 C572 393 599 431 599 502 C599 606 529 680 430 680 L385 680 L385 773 L319 773 L319 680 L93 680 L93 0 L319 0 L319 -93 L385 -93 L385 0 L458 0 C566 0 640 81 640 193 C640 272 603 338 545 369 L545 369 Z M319 542 L319 418 L244 418 L244 542 L319 542 Z M405 542 C440 542 467 519 467 480 C467 436 432 418 401 418 L385 418 L385 542 L405 542 Z M244 138 L244 277 L319 277 L319 138 L244 138 Z M436 138 L385 138 L385 277 L428 277 C465 277 503 255 503 208 C503 166 469 138 436 138 L436 138 Z " />
<glyph glyph-name="uni1E04" unicode="&#x1e04;" horiz-adv-x="764" d="M598 418 C629 446 663 491 663 570 C663 689 582 773 466 773 L93 773 L93 0 L498 0 C624 0 710 92 710 219 C710 309 667 384 598 418 L598 418 Z M439 617 C479 617 514 588 514 542 C514 494 472 468 432 468 L264 468 L264 617 L439 617 Z M472 156 L264 156 L264 324 L465 324 C511 324 556 293 556 240 C556 192 515 156 472 156 L472 156 Z M380 -58 C322 -58 285 -97 285 -158 C285 -216 323 -260 380 -260 C438 -260 474 -210 474 -158 C474 -98 436 -58 380 -58 L380 -58 Z " />
<glyph glyph-name="uni1E05" unicode="&#x1e05;" horiz-adv-x="696" d="M403 566 C323 566 270 536 235 494 L235 860 L65 860 L65 0 L192 0 L222 79 C261 21 321 -16 407 -16 C561 -16 660 106 660 276 C660 443 565 566 403 566 L403 566 Z M361 138 C288 138 235 193 235 275 C235 359 289 412 361 412 C433 412 487 357 487 275 C487 193 433 138 361 138 L361 138 Z M381 -58 C323 -58 286 -97 286 -158 C286 -216 324 -260 381 -260 C439 -260 475 -210 475 -158 C475 -98 437 -58 381 -58 L381 -58 Z " />
<glyph glyph-name="uni1E0C" unicode="&#x1e0c;" horiz-adv-x="878" d="M446 773 L93 773 L93 0 L446 0 C666 0 818 159 818 384 C818 615 667 773 446 773 L446 773 Z M446 161 L269 161 L269 612 L446 612 C564 612 635 515 635 384 C635 255 566 161 446 161 L446 161 Z M429 -58 C371 -58 334 -97 334 -158 C334 -216 372 -260 429 -260 C487 -260 523 -210 523 -158 C523 -98 485 -58 429 -58 L429 -58 Z " />
<glyph glyph-name="uni1E0D" unicode="&#x1e0d;" horiz-adv-x="696" d="M459 860 L459 494 C424 537 371 566 291 566 C129 566 34 443 34 276 C34 106 133 -16 287 -16 C373 -16 433 22 472 80 L503 0 L629 0 L629 860 L459 860 Z M333 138 C261 138 207 193 207 275 C207 357 261 412 333 412 C405 412 459 359 459 275 C459 193 406 138 333 138 L333 138 Z M307 -58 C249 -58 212 -97 212 -158 C212 -216 250 -260 307 -260 C365 -260 401 -210 401 -158 C401 -98 363 -58 307 -58 L307 -58 Z " />
<glyph glyph-name="uni1E0E" unicode="&#x1e0e;" horiz-adv-x="878" d="M446 773 L93 773 L93 0 L446 0 C666 0 818 159 818 384 C818 615 667 773 446 773 L446 773 Z M446 161 L269 161 L269 612 L446 612 C564 612 635 515 635 384 C635 255 566 161 446 161 L446 161 Z M265 -201 L615 -201 L615 -100 L265 -100 L265 -201 Z " />
<glyph glyph-name="uni1E0F" unicode="&#x1e0f;" horiz-adv-x="696" d="M459 860 L459 494 C424 537 371 566 291 566 C129 566 34 443 34 276 C34 106 133 -16 287 -16 C373 -16 433 22 472 80 L503 0 L629 0 L629 860 L459 860 Z M333 138 C261 138 207 193 207 275 C207 357 261 412 333 412 C405 412 459 359 459 275 C459 193 406 138 333 138 L333 138 Z M143 -201 L493 -201 L493 -100 L143 -100 L143 -201 Z " />
<glyph glyph-name="uni1E12" unicode="&#x1e12;" horiz-adv-x="878" d="M446 773 L93 773 L93 0 L446 0 C666 0 818 159 818 384 C818 615 667 773 446 773 L446 773 Z M446 161 L269 161 L269 612 L446 612 C564 612 635 515 635 384 C635 255 566 161 446 161 L446 161 Z M405 -100 L256 -232 L302 -292 L429 -227 L558 -292 L603 -232 L455 -100 L405 -100 Z " />
<glyph glyph-name="uni1E13" unicode="&#x1e13;" horiz-adv-x="696" d="M459 860 L459 494 C424 537 371 566 291 566 C129 566 34 443 34 276 C34 106 133 -16 287 -16 C373 -16 433 22 472 80 L503 0 L629 0 L629 860 L459 860 Z M333 138 C261 138 207 193 207 275 C207 357 261 412 333 412 C405 412 459 359 459 275 C459 193 406 138 333 138 L333 138 Z M283 -100 L134 -232 L180 -292 L307 -227 L436 -292 L481 -232 L333 -100 L283 -100 Z " />
<glyph glyph-name="uni1E24" unicode="&#x1e24;" horiz-adv-x="857" d="M588 773 L588 466 L269 466 L269 773 L93 773 L93 0 L269 0 L269 305 L588 305 L588 0 L764 0 L764 773 L588 773 Z M443 -58 C385 -58 348 -97 348 -158 C348 -216 386 -260 443 -260 C501 -260 537 -210 537 -158 C537 -98 499 -58 443 -58 L443 -58 Z " />
<glyph glyph-name="uni1E25" unicode="&#x1e25;" horiz-adv-x="657" d="M405 565 C337 565 283 533 244 494 L244 849 L65 849 L65 0 L244 0 L244 339 C290 384 334 403 362 403 C414 403 425 364 425 309 L424 0 L604 0 L604 342 C604 512 510 565 405 565 L405 565 Z M162 381 L163 380 C159 373 159 372 162 381 L162 381 Z M337 -58 C279 -58 242 -97 242 -158 C242 -216 280 -260 337 -260 C395 -260 431 -210 431 -158 C431 -98 393 -58 337 -58 L337 -58 Z " />
<glyph glyph-name="uni1E2E" unicode="&#x1e2e;" horiz-adv-x="360" d="M127 1070 L374 1135 L328 1262 L102 1130 L127 1070 Z M87 996 C125 996 154 968 154 925 C154 889 128 854 87 854 C47 854 20 884 20 925 C20 969 45 996 87 996 L87 996 Z M284 996 C323 996 351 968 351 925 C351 889 326 854 284 854 C244 854 218 884 218 925 C218 969 243 996 284 996 L284 996 Z M269 0 L93 0 L93 773 L269 773 L269 0 Z " />
<glyph glyph-name="uni1E2F" unicode="&#x1e2f;" horiz-adv-x="332" d="M110 847 L357 912 L311 1039 L85 907 L110 847 Z M70 773 C108 773 137 745 137 702 C137 666 111 631 70 631 C30 631 3 661 3 702 C3 746 28 773 70 773 L70 773 Z M267 773 C306 773 334 745 334 702 C334 666 309 631 267 631 C227 631 201 661 201 702 C201 746 226 773 267 773 L267 773 Z M253 0 L80 0 L80 550 L253 550 L253 0 Z " />
<glyph glyph-name="uni1E36" unicode="&#x1e36;" horiz-adv-x="688" d="M269 161 L269 773 L93 773 L93 0 L625 0 L625 161 L269 161 Z M375 -58 C317 -58 280 -97 280 -158 C280 -216 318 -260 375 -260 C433 -260 469 -210 469 -158 C469 -98 431 -58 375 -58 L375 -58 Z " />
<glyph glyph-name="uni1E37" unicode="&#x1e37;" horiz-adv-x="373" d="M305 148 L331 14 C186 -39 57 -18 58 181 L58 837 L231 837 L231 201 C231 150 260 139 305 148 L305 148 Z M201 -58 C257 -58 295 -98 295 -158 C295 -210 259 -260 201 -260 C144 -260 106 -216 106 -158 C106 -97 143 -58 201 -58 L201 -58 Z " />
<glyph glyph-name="uni1E3C" unicode="&#x1e3c;" horiz-adv-x="688" d="M269 161 L269 773 L93 773 L93 0 L625 0 L625 161 L269 161 Z M351 -100 L202 -232 L248 -292 L375 -227 L504 -292 L549 -232 L401 -100 L351 -100 Z " />
<glyph glyph-name="uni1E3D" unicode="&#x1e3d;" horiz-adv-x="373" d="M305 148 L331 14 C186 -39 57 -18 58 181 L58 837 L231 837 L231 201 C231 150 260 139 305 148 L305 148 Z M177 -100 L227 -100 L375 -232 L330 -292 L201 -227 L74 -292 L28 -232 L177 -100 Z " />
<glyph glyph-name="uni1E3E" unicode="&#x1e3e;" horiz-adv-x="963" d="M676 912 L630 1039 L404 907 L429 847 L676 912 Z M891 0 L841 773 L621 773 L480 246 L339 773 L119 773 L69 0 L245 0 L274 486 L409 0 L549 0 L688 511 L718 0 L891 0 Z " />
<glyph glyph-name="uni1E3F" unicode="&#x1e3f;" horiz-adv-x="940" d="M663 689 L617 816 L391 684 L416 624 L663 689 Z M694 565 C623 565 568 524 531 480 C497 543 437 565 374 565 C310 565 259 532 222 494 L200 550 L62 550 L62 0 L241 0 L241 369 C277 403 311 418 334 418 C380 418 390 379 390 323 L388 0 L560 0 L560 342 C560 351 560 359 559 367 C597 402 631 418 654 418 C700 418 710 379 710 323 L709 0 L880 0 L880 342 C880 512 792 565 694 565 L694 565 Z M147 380 C147 380 147 380 147 380 L147 380 Z " />
<glyph glyph-name="uni1E44" unicode="&#x1e44;" horiz-adv-x="908" d="M444 829 C502 829 538 879 538 931 C538 991 500 1031 444 1031 C386 1031 349 992 349 931 C349 873 387 829 444 829 L444 829 Z M646 773 L646 275 L266 773 L93 773 L93 0 L264 0 L264 494 L644 0 L816 0 L816 773 L646 773 Z " />
<glyph glyph-name="uni1E45" unicode="&#x1e45;" horiz-adv-x="661" d="M315 606 C373 606 409 656 409 708 C409 768 371 808 315 808 C257 808 220 769 220 708 C220 650 258 606 315 606 L315 606 Z M402 565 C325 565 268 524 228 481 L200 550 L62 550 L62 0 L241 0 L241 339 C286 384 330 403 358 403 C410 403 422 364 422 309 L420 0 L601 0 L601 342 C601 512 506 565 402 565 L402 565 Z M161 381 L162 381 C158 373 158 371 161 381 L161 381 Z " />
<glyph glyph-name="uni1E46" unicode="&#x1e46;" horiz-adv-x="908" d="M646 773 L646 275 L266 773 L93 773 L93 0 L264 0 L264 494 L644 0 L816 0 L816 773 L646 773 Z M467 -58 C409 -58 372 -97 372 -158 C372 -216 410 -260 467 -260 C525 -260 561 -210 561 -158 C561 -98 523 -58 467 -58 L467 -58 Z " />
<glyph glyph-name="uni1E47" unicode="&#x1e47;" horiz-adv-x="661" d="M402 565 C325 565 268 524 228 481 L200 550 L62 550 L62 0 L241 0 L241 339 C286 384 330 403 358 403 C410 403 422 364 422 309 L420 0 L601 0 L601 342 C601 512 506 565 402 565 L402 565 Z M161 381 L162 381 C158 373 158 371 161 381 L161 381 Z M346 -58 C288 -58 251 -97 251 -158 C251 -216 289 -260 346 -260 C404 -260 440 -210 440 -158 C440 -98 402 -58 346 -58 L346 -58 Z " />
<glyph glyph-name="uni1E4A" unicode="&#x1e4a;" horiz-adv-x="908" d="M646 773 L646 275 L266 773 L93 773 L93 0 L264 0 L264 494 L644 0 L816 0 L816 773 L646 773 Z M443 -100 L294 -232 L340 -292 L467 -227 L596 -292 L641 -232 L493 -100 L443 -100 Z " />
<glyph glyph-name="uni1E4B" unicode="&#x1e4b;" horiz-adv-x="661" d="M402 565 C325 565 268 524 228 481 L200 550 L62 550 L62 0 L241 0 L241 339 C286 384 330 403 358 403 C410 403 422 364 422 309 L420 0 L601 0 L601 342 C601 512 506 565 402 565 L402 565 Z M161 381 L162 381 C158 373 158 371 161 381 L161 381 Z M322 -100 L173 -232 L219 -292 L346 -227 L475 -292 L520 -232 L372 -100 L322 -100 Z " />
<glyph glyph-name="uni1E4C" unicode="&#x1e4c;" horiz-adv-x="875" d="M398 1070 L645 1135 L599 1262 L373 1130 L398 1070 Z M336 842 C336 876 344 901 378 901 C421 901 443 837 516 837 C581 837 646 880 646 996 L547 996 C547 963 541 940 514 940 C465 940 444 1000 375 1000 C309 1000 236 943 236 842 L336 842 Z M438 791 C663 791 815 625 815 387 C815 154 669 -18 438 -18 C214 -18 59 152 59 387 C59 621 207 791 438 791 L438 791 Z M438 631 C302 631 235 522 235 387 C235 250 303 144 438 144 C573 144 640 249 640 387 C640 530 567 631 438 631 L438 631 Z " />
<glyph glyph-name="uni1E4D" unicode="&#x1e4d;" horiz-adv-x="667" d="M277 847 L524 912 L478 1039 L252 907 L277 847 Z M215 619 C215 653 223 678 257 678 C300 678 322 614 395 614 C460 614 525 657 525 773 L426 773 C426 740 420 717 393 717 C344 717 323 777 254 777 C188 777 115 720 115 619 L215 619 Z M333 566 C503 566 632 452 632 274 C632 137 545 -16 333 -16 C160 -16 34 95 34 274 C34 454 160 566 333 566 L333 566 Z M333 415 C245 415 213 341 213 274 C213 209 245 135 333 135 C419 135 453 209 453 274 C453 341 420 415 333 415 L333 415 Z " />
<glyph glyph-name="uni1E50" unicode="&#x1e50;" horiz-adv-x="875" d="M488 1070 L514 1130 L287 1262 L241 1135 L488 1070 Z M267 866 L267 967 L617 967 L617 866 L267 866 Z M438 791 C663 791 815 625 815 387 C815 154 669 -18 438 -18 C214 -18 59 152 59 387 C59 621 207 791 438 791 L438 791 Z M438 631 C302 631 235 522 235 387 C235 250 303 144 438 144 C573 144 640 249 640 387 C640 530 567 631 438 631 L438 631 Z " />
<glyph glyph-name="uni1E51" unicode="&#x1e51;" horiz-adv-x="667" d="M367 847 L393 907 L166 1039 L120 912 L367 847 Z M146 643 L146 744 L496 744 L496 643 L146 643 Z M333 566 C503 566 632 452 632 274 C632 137 545 -16 333 -16 C160 -16 34 95 34 274 C34 454 160 566 333 566 L333 566 Z M333 415 C245 415 213 341 213 274 C213 209 245 135 333 135 C419 135 453 209 453 274 C453 341 420 415 333 415 L333 415 Z " />
<glyph glyph-name="uni1E52" unicode="&#x1e52;" horiz-adv-x="875" d="M381 1070 L628 1135 L582 1262 L356 1130 L381 1070 Z M267 866 L267 967 L617 967 L617 866 L267 866 Z M438 791 C663 791 815 625 815 387 C815 154 669 -18 438 -18 C214 -18 59 152 59 387 C59 621 207 791 438 791 L438 791 Z M438 631 C302 631 235 522 235 387 C235 250 303 144 438 144 C573 144 640 249 640 387 C640 530 567 631 438 631 L438 631 Z " />
<glyph glyph-name="uni1E53" unicode="&#x1e53;" horiz-adv-x="667" d="M260 847 L507 912 L461 1039 L235 907 L260 847 Z M146 643 L146 744 L496 744 L496 643 L146 643 Z M333 566 C503 566 632 452 632 274 C632 137 545 -16 333 -16 C160 -16 34 95 34 274 C34 454 160 566 333 566 L333 566 Z M333 415 C245 415 213 341 213 274 C213 209 245 135 333 135 C419 135 453 209 453 274 C453 341 420 415 333 415 L333 415 Z " />
<glyph glyph-name="uni1E62" unicode="&#x1e62;" horiz-adv-x="721" d="M43 134 L173 245 C232 177 301 141 372 141 C437 141 487 174 487 216 C487 345 88 317 88 568 C88 700 198 793 375 793 C481 793 573 761 651 685 L528 576 C475 616 434 643 370 643 C307 643 273 605 273 575 C273 463 669 489 669 230 C669 79 535 -16 366 -16 C238 -16 128 41 43 134 L43 134 Z M371 -58 C427 -58 465 -98 465 -158 C465 -210 429 -260 371 -260 C314 -260 276 -216 276 -158 C276 -97 313 -58 371 -58 L371 -58 Z " />
<glyph glyph-name="uni1E63" unicode="&#x1e63;" horiz-adv-x="565" d="M282 -16 C185 -16 66 20 26 56 L94 183 C126 159 226 119 291 119 C349 119 363 140 363 158 C363 244 42 168 42 385 C42 473 118 566 278 566 C374 566 435 543 508 506 L448 384 C403 407 347 431 278 431 C224 431 208 415 208 397 C208 312 530 394 530 164 C530 65 447 -16 282 -16 L282 -16 Z M285 -58 C341 -58 379 -98 379 -158 C379 -210 343 -260 285 -260 C228 -260 190 -216 190 -158 C190 -97 227 -58 285 -58 L285 -58 Z " />
<glyph glyph-name="uni1E6C" unicode="&#x1e6c;" horiz-adv-x="707" d="M38 773 L38 613 L266 613 L266 0 L439 0 L439 613 L666 613 L666 773 L38 773 Z M355 -58 C297 -58 260 -97 260 -158 C260 -216 298 -260 355 -260 C413 -260 449 -210 449 -158 C449 -98 411 -58 355 -58 L355 -58 Z " />
<glyph glyph-name="uni1E6D" unicode="&#x1e6d;" horiz-adv-x="445" d="M269 247 L269 415 L379 415 L393 550 L269 550 L269 722 L96 722 L96 550 L18 550 L18 415 L96 415 L96 263 C96 -5 265 -46 421 0 L432 138 C369 124 269 87 269 247 L269 247 Z M278 -58 C220 -58 183 -97 183 -158 C183 -216 221 -260 278 -260 C336 -260 372 -210 372 -158 C372 -98 334 -58 278 -58 L278 -58 Z " />
<glyph glyph-name="uni1E6E" unicode="&#x1e6e;" horiz-adv-x="707" d="M38 773 L38 613 L266 613 L266 0 L439 0 L439 613 L666 613 L666 773 L38 773 Z M191 -201 L541 -201 L541 -100 L191 -100 L191 -201 Z " />
<glyph glyph-name="uni1E6F" unicode="&#x1e6f;" horiz-adv-x="445" d="M421 0 L432 138 C369 124 269 87 269 247 L269 415 L379 415 L393 550 L269 550 L269 722 L96 722 L96 550 L18 550 L18 415 L96 415 L96 263 C96 -5 265 -46 421 0 L421 0 Z M114 -100 L114 -201 L464 -201 L464 -100 L114 -100 Z " />
<glyph glyph-name="uni1E70" unicode="&#x1e70;" horiz-adv-x="707" d="M38 773 L38 613 L266 613 L266 0 L439 0 L439 613 L666 613 L666 773 L38 773 Z M331 -100 L182 -232 L228 -292 L355 -227 L484 -292 L529 -232 L381 -100 L331 -100 Z " />
<glyph glyph-name="uni1E71" unicode="&#x1e71;" horiz-adv-x="445" d="M421 0 L432 138 C369 124 269 87 269 247 L269 415 L379 415 L393 550 L269 550 L269 722 L96 722 L96 550 L18 550 L18 415 L96 415 L96 263 C96 -5 265 -46 421 0 L421 0 Z M304 -100 L254 -100 L105 -232 L151 -292 L278 -227 L407 -292 L452 -232 L304 -100 Z " />
<glyph glyph-name="Wgrave" unicode="&#x1e80;" horiz-adv-x="1054" d="M570 907 L343 1039 L297 912 L544 847 L570 907 Z M810 773 L731 305 L586 773 L470 773 L306 296 L231 773 L42 773 L202 0 L371 0 L524 488 L658 0 L830 0 L1011 773 L810 773 Z " />
<glyph glyph-name="wgrave" unicode="&#x1e81;" horiz-adv-x="926" d="M537 684 L310 816 L264 689 L511 624 L537 684 Z M715 550 L639 240 L539 551 L386 551 L282 229 L197 550 L19 550 L204 0 L377 0 L463 371 L548 0 L719 0 L904 550 L715 550 Z " />
<glyph glyph-name="Wacute" unicode="&#x1e82;" horiz-adv-x="1054" d="M684 912 L638 1039 L412 907 L437 847 L684 912 Z M810 773 L731 305 L586 773 L470 773 L306 296 L231 773 L42 773 L202 0 L371 0 L524 488 L658 0 L830 0 L1011 773 L810 773 Z " />
<glyph glyph-name="wacute" unicode="&#x1e83;" horiz-adv-x="926" d="M651 689 L605 816 L379 684 L404 624 L651 689 Z M715 550 L639 240 L539 551 L386 551 L282 229 L197 550 L19 550 L204 0 L377 0 L463 371 L548 0 L719 0 L904 550 L715 550 Z " />
<glyph glyph-name="Wdieresis" unicode="&#x1e84;" horiz-adv-x="1054" d="M400 854 C441 854 467 889 467 925 C467 968 438 996 400 996 C358 996 333 969 333 925 C333 884 360 854 400 854 L400 854 Z M597 854 C639 854 664 889 664 925 C664 968 636 996 597 996 C556 996 531 969 531 925 C531 884 557 854 597 854 L597 854 Z M810 773 L731 305 L586 773 L470 773 L306 296 L231 773 L42 773 L202 0 L371 0 L524 488 L658 0 L830 0 L1011 773 L810 773 Z " />
<glyph glyph-name="wdieresis" unicode="&#x1e85;" horiz-adv-x="926" d="M367 631 C408 631 434 666 434 702 C434 745 405 773 367 773 C325 773 300 746 300 702 C300 661 327 631 367 631 L367 631 Z M564 631 C606 631 631 666 631 702 C631 745 603 773 564 773 C523 773 498 746 498 702 C498 661 524 631 564 631 L564 631 Z M715 550 L639 240 L539 551 L386 551 L282 229 L197 550 L19 550 L204 0 L377 0 L463 371 L548 0 L719 0 L904 550 L715 550 Z " />
<glyph glyph-name="uni1E92" unicode="&#x1e92;" horiz-adv-x="783" d="M723 772 L65 772 L65 608 L478 618 L65 99 L65 0 L723 0 L723 164 L311 154 L723 671 L723 772 Z M402 -58 C344 -58 307 -97 307 -158 C307 -216 345 -260 402 -260 C460 -260 496 -210 496 -158 C496 -98 458 -58 402 -58 L402 -58 Z " />
<glyph glyph-name="uni1E93" unicode="&#x1e93;" horiz-adv-x="600" d="M511 550 L28 550 L28 387 L292 401 L28 163 L28 0 L511 0 L511 163 L241 149 L511 387 L511 550 Z M269 -58 C211 -58 174 -97 174 -158 C174 -216 212 -260 269 -260 C327 -260 363 -210 363 -158 C363 -98 325 -58 269 -58 L269 -58 Z " />
<glyph glyph-name="uni1E9E" unicode="&#x1e9e;" horiz-adv-x="749" d="M505 453 L651 613 L651 773 L341 773 C179 773 93 686 93 525 L93 0 L271 0 L271 526 C271 581 302 617 356 616 L461 615 L347 439 L374 309 L375 310 C387 311 405 312 421 312 C479 312 514 283 514 232 C514 183 495 145 440 145 L350 145 L350 0 L451 0 C646 0 695 130 695 240 C695 376 614 437 505 453 L505 453 Z " />
<glyph glyph-name="uni1EA0" unicode="&#x1ea0;" horiz-adv-x="860" d="M827 0 L532 773 L324 773 L31 0 L217 0 L273 158 L584 158 L640 0 L827 0 Z M331 322 L428 595 L525 322 L331 322 Z M437 -58 C379 -58 342 -97 342 -158 C342 -216 380 -260 437 -260 C495 -260 531 -210 531 -158 C531 -98 493 -58 437 -58 L437 -58 Z " />
<glyph glyph-name="uni1EA1" unicode="&#x1ea1;" horiz-adv-x="702" d="M458 550 L458 479 C422 532 366 566 287 566 C135 566 34 448 34 274 C34 101 134 -16 291 -16 C384 -16 438 25 469 79 L496 0 L624 0 L624 550 L458 550 Z M333 138 C256 138 209 193 209 275 C209 357 256 412 333 412 C410 412 456 357 456 275 C456 191 408 138 333 138 L333 138 Z M317 -58 C259 -58 222 -97 222 -158 C222 -216 260 -260 317 -260 C375 -260 411 -210 411 -158 C411 -98 373 -58 317 -58 L317 -58 Z " />
<glyph glyph-name="uni1EA2" unicode="&#x1ea2;" horiz-adv-x="860" d="M426 979 C443 979 456 969 456 947 C456 917 435 898 390 839 L459 839 C499 871 547 919 548 968 C550 1022 514 1060 445 1057 C418 1056 383 1043 352 1011 L383 959 C400 974 410 979 426 979 L426 979 Z M640 0 L827 0 L532 773 L324 773 L31 0 L217 0 L273 158 L584 158 L640 0 Z M331 322 L428 595 L525 322 L331 322 Z " />
<glyph glyph-name="uni1EA3" unicode="&#x1ea3;" horiz-adv-x="702" d="M291 756 C308 756 321 746 321 724 C321 694 300 675 255 616 L324 616 C364 648 412 696 413 745 C415 799 379 837 310 834 C283 833 248 820 217 788 L248 736 C265 751 275 756 291 756 L291 756 Z M458 550 L458 479 C422 532 366 566 287 566 C135 566 34 448 34 274 C34 101 134 -16 291 -16 C384 -16 438 25 469 79 L496 0 L624 0 L624 550 L458 550 Z M333 138 C256 138 209 193 209 275 C209 357 256 412 333 412 C410 412 456 357 456 275 C456 191 408 138 333 138 L333 138 Z " />
<glyph glyph-name="uni1EA4" unicode="&#x1ea4;" horiz-adv-x="860" d="M620 1135 L574 1262 L348 1130 L373 1070 L620 1135 Z M431 908 L560 843 L605 903 L456 1035 L407 1035 L258 903 L304 843 L431 908 Z M640 0 L827 0 L532 773 L324 773 L31 0 L217 0 L273 158 L584 158 L640 0 Z M331 322 L428 595 L525 322 L331 322 Z " />
<glyph glyph-name="uni1EA5" unicode="&#x1ea5;" horiz-adv-x="702" d="M485 912 L439 1039 L213 907 L238 847 L485 912 Z M296 685 L425 620 L470 680 L321 812 L272 812 L123 680 L169 620 L296 685 Z M458 550 L458 479 C422 532 366 566 287 566 C135 566 34 448 34 274 C34 101 134 -16 291 -16 C384 -16 438 25 469 79 L496 0 L624 0 L624 550 L458 550 Z M333 138 C256 138 209 193 209 275 C209 357 256 412 333 412 C410 412 456 357 456 275 C456 191 408 138 333 138 L333 138 Z " />
<glyph glyph-name="uni1EA6" unicode="&#x1ea6;" horiz-adv-x="860" d="M506 1130 L279 1262 L233 1135 L480 1070 L506 1130 Z M407 1035 L258 903 L304 843 L431 908 L560 843 L605 903 L456 1035 L407 1035 Z M640 0 L827 0 L532 773 L324 773 L31 0 L217 0 L273 158 L584 158 L640 0 Z M331 322 L428 595 L525 322 L331 322 Z " />
<glyph glyph-name="uni1EA7" unicode="&#x1ea7;" horiz-adv-x="702" d="M371 907 L144 1039 L98 912 L345 847 L371 907 Z M272 812 L123 680 L169 620 L296 685 L425 620 L470 680 L321 812 L272 812 Z M458 550 L458 479 C422 532 366 566 287 566 C135 566 34 448 34 274 C34 101 134 -16 291 -16 C384 -16 438 25 469 79 L496 0 L624 0 L624 550 L458 550 Z M333 138 C256 138 209 193 209 275 C209 357 256 412 333 412 C410 412 456 357 456 275 C456 191 408 138 333 138 L333 138 Z " />
<glyph glyph-name="uni1EA8" unicode="&#x1ea8;" horiz-adv-x="860" d="M426 1202 C443 1202 456 1192 456 1170 C456 1140 435 1121 390 1062 L459 1062 C499 1094 547 1142 548 1191 C550 1245 514 1283 445 1280 C418 1279 383 1266 352 1234 L383 1182 C400 1197 410 1202 426 1202 L426 1202 Z M431 908 L560 843 L605 903 L456 1035 L407 1035 L258 903 L304 843 L431 908 Z M640 0 L827 0 L532 773 L324 773 L31 0 L217 0 L273 158 L584 158 L640 0 Z M331 322 L428 595 L525 322 L331 322 Z " />
<glyph glyph-name="uni1EA9" unicode="&#x1ea9;" horiz-adv-x="702" d="M291 979 C308 979 321 969 321 947 C321 917 300 898 255 839 L324 839 C364 871 412 919 413 968 C415 1022 379 1060 310 1057 C283 1056 248 1043 217 1011 L248 959 C265 974 275 979 291 979 L291 979 Z M296 685 L425 620 L470 680 L321 812 L272 812 L123 680 L169 620 L296 685 Z M458 550 L458 479 C422 532 366 566 287 566 C135 566 34 448 34 274 C34 101 134 -16 291 -16 C384 -16 438 25 469 79 L496 0 L624 0 L624 550 L458 550 Z M333 138 C256 138 209 193 209 275 C209 357 256 412 333 412 C410 412 456 357 456 275 C456 191 408 138 333 138 L333 138 Z " />
<glyph glyph-name="uni1EAA" unicode="&#x1eaa;" horiz-adv-x="860" d="M371 1124 C414 1124 436 1060 509 1060 C574 1060 639 1103 639 1219 L540 1219 C540 1186 534 1163 507 1163 C458 1163 437 1223 368 1223 C302 1223 229 1166 229 1065 L329 1065 C329 1099 337 1124 371 1124 L371 1124 Z M407 1035 L258 903 L304 843 L431 908 L560 843 L605 903 L456 1035 L407 1035 Z M640 0 L827 0 L532 773 L324 773 L31 0 L217 0 L273 158 L584 158 L640 0 Z M331 322 L428 595 L525 322 L331 322 Z " />
<glyph glyph-name="uni1EAB" unicode="&#x1eab;" horiz-adv-x="702" d="M236 901 C279 901 301 837 374 837 C439 837 504 880 504 996 L405 996 C405 963 399 940 372 940 C323 940 302 1000 233 1000 C167 1000 94 943 94 842 L194 842 C194 876 202 901 236 901 L236 901 Z M272 812 L123 680 L169 620 L296 685 L425 620 L470 680 L321 812 L272 812 Z M458 550 L458 479 C422 532 366 566 287 566 C135 566 34 448 34 274 C34 101 134 -16 291 -16 C384 -16 438 25 469 79 L496 0 L624 0 L624 550 L458 550 Z M333 138 C256 138 209 193 209 275 C209 357 256 412 333 412 C410 412 456 357 456 275 C456 191 408 138 333 138 L333 138 Z " />
<glyph glyph-name="uni1EAC" unicode="&#x1eac;" horiz-adv-x="860" d="M431 908 L560 843 L605 903 L456 1035 L407 1035 L258 903 L304 843 L431 908 Z M827 0 L532 773 L324 773 L31 0 L217 0 L273 158 L584 158 L640 0 L827 0 Z M331 322 L428 595 L525 322 L331 322 Z M437 -58 C379 -58 342 -97 342 -158 C342 -216 380 -260 437 -260 C495 -260 531 -210 531 -158 C531 -98 493 -58 437 -58 L437 -58 Z " />
<glyph glyph-name="uni1EAD" unicode="&#x1ead;" horiz-adv-x="702" d="M296 685 L425 620 L470 680 L321 812 L272 812 L123 680 L169 620 L296 685 Z M458 550 L458 479 C422 532 366 566 287 566 C135 566 34 448 34 274 C34 101 134 -16 291 -16 C384 -16 438 25 469 79 L496 0 L624 0 L624 550 L458 550 Z M333 138 C256 138 209 193 209 275 C209 357 256 412 333 412 C410 412 456 357 456 275 C456 191 408 138 333 138 L333 138 Z M317 -58 C259 -58 222 -97 222 -158 C222 -216 260 -260 317 -260 C375 -260 411 -210 411 -158 C411 -98 373 -58 317 -58 L317 -58 Z " />
<glyph glyph-name="uni1EAE" unicode="&#x1eae;" horiz-adv-x="860" d="M620 1135 L574 1262 L348 1130 L373 1070 L620 1135 Z M431 850 C548 850 585 921 587 996 L483 996 C481 988 482 940 431 940 C382 940 381 988 380 996 L276 996 C278 898 334 850 431 850 L431 850 Z M640 0 L827 0 L532 773 L324 773 L31 0 L217 0 L273 158 L584 158 L640 0 Z M331 322 L428 595 L525 322 L331 322 Z " />
<glyph glyph-name="uni1EAF" unicode="&#x1eaf;" horiz-adv-x="702" d="M485 912 L439 1039 L213 907 L238 847 L485 912 Z M296 627 C413 627 450 698 452 773 L348 773 C346 765 347 717 296 717 C247 717 246 765 245 773 L141 773 C143 675 199 627 296 627 L296 627 Z M458 550 L458 479 C422 532 366 566 287 566 C135 566 34 448 34 274 C34 101 134 -16 291 -16 C384 -16 438 25 469 79 L496 0 L624 0 L624 550 L458 550 Z M333 138 C256 138 209 193 209 275 C209 357 256 412 333 412 C410 412 456 357 456 275 C456 191 408 138 333 138 L333 138 Z " />
<glyph glyph-name="uni1EB0" unicode="&#x1eb0;" horiz-adv-x="860" d="M506 1130 L279 1262 L233 1135 L480 1070 L506 1130 Z M431 940 C382 940 381 988 380 996 L276 996 C278 898 334 850 431 850 C548 850 585 921 587 996 L483 996 C481 988 482 940 431 940 L431 940 Z M640 0 L827 0 L532 773 L324 773 L31 0 L217 0 L273 158 L584 158 L640 0 Z M331 322 L428 595 L525 322 L331 322 Z " />
<glyph glyph-name="uni1EB1" unicode="&#x1eb1;" horiz-adv-x="702" d="M371 907 L144 1039 L98 912 L345 847 L371 907 Z M296 717 C247 717 246 765 245 773 L141 773 C143 675 199 627 296 627 C413 627 450 698 452 773 L348 773 C346 765 347 717 296 717 L296 717 Z M458 550 L458 479 C422 532 366 566 287 566 C135 566 34 448 34 274 C34 101 134 -16 291 -16 C384 -16 438 25 469 79 L496 0 L624 0 L624 550 L458 550 Z M333 138 C256 138 209 193 209 275 C209 357 256 412 333 412 C410 412 456 357 456 275 C456 191 408 138 333 138 L333 138 Z " />
<glyph glyph-name="uni1EB2" unicode="&#x1eb2;" horiz-adv-x="860" d="M426 1202 C443 1202 456 1192 456 1170 C456 1140 435 1121 390 1062 L459 1062 C499 1094 547 1142 548 1191 C550 1245 514 1283 445 1280 C418 1279 383 1266 352 1234 L383 1182 C400 1197 410 1202 426 1202 L426 1202 Z M431 850 C548 850 585 921 587 996 L483 996 C481 988 482 940 431 940 C382 940 381 988 380 996 L276 996 C278 898 334 850 431 850 L431 850 Z M640 0 L827 0 L532 773 L324 773 L31 0 L217 0 L273 158 L584 158 L640 0 Z M331 322 L428 595 L525 322 L331 322 Z " />
<glyph glyph-name="uni1EB3" unicode="&#x1eb3;" horiz-adv-x="702" d="M291 979 C308 979 321 969 321 947 C321 917 300 898 255 839 L324 839 C364 871 412 919 413 968 C415 1022 379 1060 310 1057 C283 1056 248 1043 217 1011 L248 959 C265 974 275 979 291 979 L291 979 Z M296 627 C413 627 450 698 452 773 L348 773 C346 765 347 717 296 717 C247 717 246 765 245 773 L141 773 C143 675 199 627 296 627 L296 627 Z M458 550 L458 479 C422 532 366 566 287 566 C135 566 34 448 34 274 C34 101 134 -16 291 -16 C384 -16 438 25 469 79 L496 0 L624 0 L624 550 L458 550 Z M333 138 C256 138 209 193 209 275 C209 357 256 412 333 412 C410 412 456 357 456 275 C456 191 408 138 333 138 L333 138 Z " />
<glyph glyph-name="uni1EB4" unicode="&#x1eb4;" horiz-adv-x="860" d="M371 1124 C414 1124 436 1060 509 1060 C574 1060 639 1103 639 1219 L540 1219 C540 1186 534 1163 507 1163 C458 1163 437 1223 368 1223 C302 1223 229 1166 229 1065 L329 1065 C329 1099 337 1124 371 1124 L371 1124 Z M431 940 C382 940 381 988 380 996 L276 996 C278 898 334 850 431 850 C548 850 585 921 587 996 L483 996 C481 988 482 940 431 940 L431 940 Z M640 0 L827 0 L532 773 L324 773 L31 0 L217 0 L273 158 L584 158 L640 0 Z M331 322 L428 595 L525 322 L331 322 Z " />
<glyph glyph-name="uni1EB5" unicode="&#x1eb5;" horiz-adv-x="702" d="M236 901 C279 901 301 837 374 837 C439 837 504 880 504 996 L405 996 C405 963 399 940 372 940 C323 940 302 1000 233 1000 C167 1000 94 943 94 842 L194 842 C194 876 202 901 236 901 L236 901 Z M296 717 C247 717 246 765 245 773 L141 773 C143 675 199 627 296 627 C413 627 450 698 452 773 L348 773 C346 765 347 717 296 717 L296 717 Z M458 550 L458 479 C422 532 366 566 287 566 C135 566 34 448 34 274 C34 101 134 -16 291 -16 C384 -16 438 25 469 79 L496 0 L624 0 L624 550 L458 550 Z M333 138 C256 138 209 193 209 275 C209 357 256 412 333 412 C410 412 456 357 456 275 C456 191 408 138 333 138 L333 138 Z " />
<glyph glyph-name="uni1EB6" unicode="&#x1eb6;" horiz-adv-x="860" d="M431 850 C548 850 585 921 587 996 L483 996 C481 988 482 940 431 940 C382 940 381 988 380 996 L276 996 C278 898 334 850 431 850 L431 850 Z M827 0 L532 773 L324 773 L31 0 L217 0 L273 158 L584 158 L640 0 L827 0 Z M331 322 L428 595 L525 322 L331 322 Z M437 -58 C379 -58 342 -97 342 -158 C342 -216 380 -260 437 -260 C495 -260 531 -210 531 -158 C531 -98 493 -58 437 -58 L437 -58 Z " />
<glyph glyph-name="uni1EB7" unicode="&#x1eb7;" horiz-adv-x="702" d="M296 627 C413 627 450 698 452 773 L348 773 C346 765 347 717 296 717 C247 717 246 765 245 773 L141 773 C143 675 199 627 296 627 L296 627 Z M458 550 L458 479 C422 532 366 566 287 566 C135 566 34 448 34 274 C34 101 134 -16 291 -16 C384 -16 438 25 469 79 L496 0 L624 0 L624 550 L458 550 Z M333 138 C256 138 209 193 209 275 C209 357 256 412 333 412 C410 412 456 357 456 275 C456 191 408 138 333 138 L333 138 Z M317 -58 C259 -58 222 -97 222 -158 C222 -216 260 -260 317 -260 C375 -260 411 -210 411 -158 C411 -98 373 -58 317 -58 L317 -58 Z " />
<glyph glyph-name="uni1EB8" unicode="&#x1eb8;" horiz-adv-x="694" d="M625 617 L625 773 L93 773 L93 0 L625 0 L625 156 L263 156 L263 320 L547 320 L547 469 L263 471 L263 617 L625 617 Z M339 -58 C281 -58 244 -97 244 -158 C244 -216 282 -260 339 -260 C397 -260 433 -210 433 -158 C433 -98 395 -58 339 -58 L339 -58 Z " />
<glyph glyph-name="uni1EB9" unicode="&#x1eb9;" horiz-adv-x="622" d="M34 276 C34 422 115 566 313 566 C507 566 596 430 558 227 L218 227 C229 167 260 119 334 119 C397 119 447 142 497 167 L562 44 C495 7 436 -16 334 -16 C153 -16 34 100 34 276 L34 276 Z M218 324 L412 324 C415 369 397 440 317 440 C237 440 218 360 218 324 L218 324 Z M322 -58 C378 -58 416 -98 416 -158 C416 -210 380 -260 322 -260 C265 -260 227 -216 227 -158 C227 -97 264 -58 322 -58 L322 -58 Z " />
<glyph glyph-name="uni1EBA" unicode="&#x1eba;" horiz-adv-x="694" d="M346 979 C363 979 376 969 376 947 C376 917 355 898 310 839 L379 839 C419 871 467 919 468 968 C470 1022 434 1060 365 1057 C338 1056 303 1043 272 1011 L303 959 C320 974 330 979 346 979 L346 979 Z M625 617 L625 773 L93 773 L93 0 L625 0 L625 156 L263 156 L263 320 L547 320 L547 469 L263 471 L263 617 L625 617 Z " />
<glyph glyph-name="uni1EBB" unicode="&#x1ebb;" horiz-adv-x="622" d="M331 616 L262 616 C307 675 328 694 328 724 C328 746 315 756 298 756 C282 756 272 751 255 736 L224 788 C255 820 290 833 317 834 C386 837 422 799 420 745 C419 696 371 648 331 616 L331 616 Z M34 276 C34 422 115 566 313 566 C507 566 596 430 558 227 L218 227 C229 167 260 119 334 119 C397 119 447 142 497 167 L562 44 C495 7 436 -16 334 -16 C153 -16 34 100 34 276 L34 276 Z M218 324 L412 324 C415 369 397 440 317 440 C237 440 218 360 218 324 L218 324 Z " />
<glyph glyph-name="uni1EBC" unicode="&#x1ebc;" horiz-adv-x="694" d="M275 901 C318 901 340 837 413 837 C478 837 543 880 543 996 L444 996 C444 963 438 940 411 940 C362 940 341 1000 272 1000 C206 1000 133 943 133 842 L233 842 C233 876 241 901 275 901 L275 901 Z M625 617 L625 773 L93 773 L93 0 L625 0 L625 156 L263 156 L263 320 L547 320 L547 469 L263 471 L263 617 L625 617 Z " />
<glyph glyph-name="uni1EBD" unicode="&#x1ebd;" horiz-adv-x="622" d="M201 619 C201 653 209 678 243 678 C286 678 308 614 381 614 C446 614 511 657 511 773 L412 773 C412 740 406 717 379 717 C330 717 309 777 240 777 C174 777 101 720 101 619 L201 619 Z M34 276 C34 422 115 566 313 566 C507 566 596 430 558 227 L218 227 C229 167 260 119 334 119 C397 119 447 142 497 167 L562 44 C495 7 436 -16 334 -16 C153 -16 34 100 34 276 L34 276 Z M218 324 L412 324 C415 369 397 440 317 440 C237 440 218 360 218 324 L218 324 Z " />
<glyph glyph-name="uni1EBE" unicode="&#x1ebe;" horiz-adv-x="694" d="M540 1135 L494 1262 L268 1130 L293 1070 L540 1135 Z M351 908 L480 843 L525 903 L376 1035 L327 1035 L178 903 L224 843 L351 908 Z M625 617 L625 773 L93 773 L93 0 L625 0 L625 156 L263 156 L263 320 L547 320 L547 469 L263 471 L263 617 L625 617 Z " />
<glyph glyph-name="uni1EBF" unicode="&#x1ebf;" horiz-adv-x="622" d="M245 847 L492 912 L446 1039 L220 907 L245 847 Z M279 812 L328 812 L477 680 L432 620 L303 685 L176 620 L130 680 L279 812 Z M34 276 C34 422 115 566 313 566 C507 566 596 430 558 227 L218 227 C229 167 260 119 334 119 C397 119 447 142 497 167 L562 44 C495 7 436 -16 334 -16 C153 -16 34 100 34 276 L34 276 Z M218 324 L412 324 C415 369 397 440 317 440 C237 440 218 360 218 324 L218 324 Z " />
<glyph glyph-name="uni1EC0" unicode="&#x1ec0;" horiz-adv-x="694" d="M426 1130 L199 1262 L153 1135 L400 1070 L426 1130 Z M327 1035 L178 903 L224 843 L351 908 L480 843 L525 903 L376 1035 L327 1035 Z M625 617 L625 773 L93 773 L93 0 L625 0 L625 156 L263 156 L263 320 L547 320 L547 469 L263 471 L263 617 L625 617 Z " />
<glyph glyph-name="uni1EC1" unicode="&#x1ec1;" horiz-adv-x="622" d="M352 847 L378 907 L151 1039 L105 912 L352 847 Z M279 812 L328 812 L477 680 L432 620 L303 685 L176 620 L130 680 L279 812 Z M34 276 C34 422 115 566 313 566 C507 566 596 430 558 227 L218 227 C229 167 260 119 334 119 C397 119 447 142 497 167 L562 44 C495 7 436 -16 334 -16 C153 -16 34 100 34 276 L34 276 Z M218 324 L412 324 C415 369 397 440 317 440 C237 440 218 360 218 324 L218 324 Z " />
<glyph glyph-name="uni1EC2" unicode="&#x1ec2;" horiz-adv-x="694" d="M346 1202 C363 1202 376 1192 376 1170 C376 1140 355 1121 310 1062 L379 1062 C419 1094 467 1142 468 1191 C470 1245 434 1283 365 1280 C338 1279 303 1266 272 1234 L303 1182 C320 1197 330 1202 346 1202 L346 1202 Z M351 908 L480 843 L525 903 L376 1035 L327 1035 L178 903 L224 843 L351 908 Z M625 617 L625 773 L93 773 L93 0 L625 0 L625 156 L263 156 L263 320 L547 320 L547 469 L263 471 L263 617 L625 617 Z " />
<glyph glyph-name="uni1EC3" unicode="&#x1ec3;" horiz-adv-x="622" d="M331 839 L262 839 C307 898 328 917 328 947 C328 969 315 979 298 979 C282 979 272 974 255 959 L224 1011 C255 1043 290 1056 317 1057 C386 1060 422 1022 420 968 C419 919 371 871 331 839 L331 839 Z M279 812 L328 812 L477 680 L432 620 L303 685 L176 620 L130 680 L279 812 Z M34 276 C34 422 115 566 313 566 C507 566 596 430 558 227 L218 227 C229 167 260 119 334 119 C397 119 447 142 497 167 L562 44 C495 7 436 -16 334 -16 C153 -16 34 100 34 276 L34 276 Z M218 324 L412 324 C415 369 397 440 317 440 C237 440 218 360 218 324 L218 324 Z " />
<glyph glyph-name="uni1EC4" unicode="&#x1ec4;" horiz-adv-x="694" d="M291 1124 C334 1124 356 1060 429 1060 C494 1060 559 1103 559 1219 L460 1219 C460 1186 454 1163 427 1163 C378 1163 357 1223 288 1223 C222 1223 149 1166 149 1065 L249 1065 C249 1099 257 1124 291 1124 L291 1124 Z M327 1035 L178 903 L224 843 L351 908 L480 843 L525 903 L376 1035 L327 1035 Z M625 617 L625 773 L93 773 L93 0 L625 0 L625 156 L263 156 L263 320 L547 320 L547 469 L263 471 L263 617 L625 617 Z " />
<glyph glyph-name="uni1EC5" unicode="&#x1ec5;" horiz-adv-x="622" d="M201 842 C201 876 209 901 243 901 C286 901 308 837 381 837 C446 837 511 880 511 996 L412 996 C412 963 406 940 379 940 C330 940 309 1000 240 1000 C174 1000 101 943 101 842 L201 842 Z M279 812 L328 812 L477 680 L432 620 L303 685 L176 620 L130 680 L279 812 Z M34 276 C34 422 115 566 313 566 C507 566 596 430 558 227 L218 227 C229 167 260 119 334 119 C397 119 447 142 497 167 L562 44 C495 7 436 -16 334 -16 C153 -16 34 100 34 276 L34 276 Z M218 324 L412 324 C415 369 397 440 317 440 C237 440 218 360 218 324 L218 324 Z " />
<glyph glyph-name="uni1EC6" unicode="&#x1ec6;" horiz-adv-x="694" d="M351 908 L480 843 L525 903 L376 1035 L327 1035 L178 903 L224 843 L351 908 Z M625 617 L625 773 L93 773 L93 0 L625 0 L625 156 L263 156 L263 320 L547 320 L547 469 L263 471 L263 617 L625 617 Z M339 -58 C281 -58 244 -97 244 -158 C244 -216 282 -260 339 -260 C397 -260 433 -210 433 -158 C433 -98 395 -58 339 -58 L339 -58 Z " />
<glyph glyph-name="uni1EC7" unicode="&#x1ec7;" horiz-adv-x="622" d="M279 812 L328 812 L477 680 L432 620 L303 685 L176 620 L130 680 L279 812 Z M34 276 C34 422 115 566 313 566 C507 566 596 430 558 227 L218 227 C229 167 260 119 334 119 C397 119 447 142 497 167 L562 44 C495 7 436 -16 334 -16 C153 -16 34 100 34 276 L34 276 Z M218 324 L412 324 C415 369 397 440 317 440 C237 440 218 360 218 324 L218 324 Z M322 -58 C378 -58 416 -98 416 -158 C416 -210 380 -260 322 -260 C265 -260 227 -216 227 -158 C227 -97 264 -58 322 -58 L322 -58 Z " />
<glyph glyph-name="uni1EC8" unicode="&#x1ec8;" horiz-adv-x="360" d="M210 839 L141 839 C186 898 207 917 207 947 C207 969 194 979 177 979 C161 979 151 974 134 959 L103 1011 C134 1043 169 1056 196 1057 C265 1060 301 1022 299 968 C298 919 250 871 210 839 L210 839 Z M269 0 L93 0 L93 773 L269 773 L269 0 Z " />
<glyph glyph-name="uni1EC9" unicode="&#x1ec9;" horiz-adv-x="332" d="M193 616 L124 616 C169 675 190 694 190 724 C190 746 177 756 160 756 C144 756 134 751 117 736 L86 788 C117 820 152 833 179 834 C248 837 284 799 282 745 C281 696 233 648 193 616 L193 616 Z M253 0 L80 0 L80 550 L253 550 L253 0 Z " />
<glyph glyph-name="uni1ECA" unicode="&#x1eca;" horiz-adv-x="360" d="M269 0 L93 0 L93 773 L269 773 L269 0 Z M184 -58 C240 -58 278 -98 278 -158 C278 -210 242 -260 184 -260 C127 -260 89 -216 89 -158 C89 -97 126 -58 184 -58 L184 -58 Z " />
<glyph glyph-name="uni1ECB" unicode="&#x1ecb;" horiz-adv-x="323" d="M154 861 C208 861 245 823 245 765 C245 715 211 667 154 667 C101 667 64 709 64 765 C64 824 99 861 154 861 L154 861 Z M241 0 L68 0 L68 550 L241 550 L241 0 Z M153 -58 C209 -58 247 -98 247 -158 C247 -210 211 -260 153 -260 C96 -260 58 -216 58 -158 C58 -97 95 -58 153 -58 L153 -58 Z " />
<glyph glyph-name="uni1ECC" unicode="&#x1ecc;" horiz-adv-x="875" d="M438 791 C663 791 815 625 815 387 C815 154 669 -18 438 -18 C214 -18 59 152 59 387 C59 621 207 791 438 791 L438 791 Z M438 631 C302 631 235 522 235 387 C235 250 303 144 438 144 C573 144 640 249 640 387 C640 530 567 631 438 631 L438 631 Z M438 -58 C494 -58 532 -98 532 -158 C532 -210 496 -260 438 -260 C381 -260 343 -216 343 -158 C343 -97 380 -58 438 -58 L438 -58 Z " />
<glyph glyph-name="uni1ECD" unicode="&#x1ecd;" horiz-adv-x="667" d="M333 566 C503 566 632 452 632 274 C632 137 545 -16 333 -16 C160 -16 34 95 34 274 C34 454 160 566 333 566 L333 566 Z M333 415 C245 415 213 341 213 274 C213 209 245 135 333 135 C419 135 453 209 453 274 C453 341 420 415 333 415 L333 415 Z M333 -58 C389 -58 427 -98 427 -158 C427 -210 391 -260 333 -260 C276 -260 238 -216 238 -158 C238 -97 275 -58 333 -58 L333 -58 Z " />
<glyph glyph-name="uni1ECE" unicode="&#x1ece;" horiz-adv-x="875" d="M466 839 L397 839 C442 898 463 917 463 947 C463 969 450 979 433 979 C417 979 407 974 390 959 L359 1011 C390 1043 425 1056 452 1057 C521 1060 557 1022 555 968 C554 919 506 871 466 839 L466 839 Z M438 791 C663 791 815 625 815 387 C815 154 669 -18 438 -18 C214 -18 59 152 59 387 C59 621 207 791 438 791 L438 791 Z M438 631 C302 631 235 522 235 387 C235 250 303 144 438 144 C573 144 640 249 640 387 C640 530 567 631 438 631 L438 631 Z " />
<glyph glyph-name="uni1ECF" unicode="&#x1ecf;" horiz-adv-x="667" d="M345 616 L276 616 C321 675 342 694 342 724 C342 746 329 756 312 756 C296 756 286 751 269 736 L238 788 C269 820 304 833 331 834 C400 837 436 799 434 745 C433 696 385 648 345 616 L345 616 Z M333 566 C503 566 632 452 632 274 C632 137 545 -16 333 -16 C160 -16 34 95 34 274 C34 454 160 566 333 566 L333 566 Z M333 415 C245 415 213 341 213 274 C213 209 245 135 333 135 C419 135 453 209 453 274 C453 341 420 415 333 415 L333 415 Z " />
<glyph glyph-name="uni1ED0" unicode="&#x1ed0;" horiz-adv-x="875" d="M380 1070 L627 1135 L581 1262 L355 1130 L380 1070 Z M414 1035 L463 1035 L612 903 L567 843 L438 908 L311 843 L265 903 L414 1035 Z M438 791 C663 791 815 625 815 387 C815 154 669 -18 438 -18 C214 -18 59 152 59 387 C59 621 207 791 438 791 L438 791 Z M438 631 C302 631 235 522 235 387 C235 250 303 144 438 144 C573 144 640 249 640 387 C640 530 567 631 438 631 L438 631 Z " />
<glyph glyph-name="uni1ED1" unicode="&#x1ed1;" horiz-adv-x="667" d="M259 847 L506 912 L460 1039 L234 907 L259 847 Z M293 812 L342 812 L491 680 L446 620 L317 685 L190 620 L144 680 L293 812 Z M333 566 C503 566 632 452 632 274 C632 137 545 -16 333 -16 C160 -16 34 95 34 274 C34 454 160 566 333 566 L333 566 Z M333 415 C245 415 213 341 213 274 C213 209 245 135 333 135 C419 135 453 209 453 274 C453 341 420 415 333 415 L333 415 Z " />
<glyph glyph-name="uni1ED2" unicode="&#x1ed2;" horiz-adv-x="875" d="M487 1070 L513 1130 L286 1262 L240 1135 L487 1070 Z M414 1035 L463 1035 L612 903 L567 843 L438 908 L311 843 L265 903 L414 1035 Z M438 791 C663 791 815 625 815 387 C815 154 669 -18 438 -18 C214 -18 59 152 59 387 C59 621 207 791 438 791 L438 791 Z M438 631 C302 631 235 522 235 387 C235 250 303 144 438 144 C573 144 640 249 640 387 C640 530 567 631 438 631 L438 631 Z " />
<glyph glyph-name="uni1ED3" unicode="&#x1ed3;" horiz-adv-x="667" d="M366 847 L392 907 L165 1039 L119 912 L366 847 Z M293 812 L342 812 L491 680 L446 620 L317 685 L190 620 L144 680 L293 812 Z M333 566 C503 566 632 452 632 274 C632 137 545 -16 333 -16 C160 -16 34 95 34 274 C34 454 160 566 333 566 L333 566 Z M333 415 C245 415 213 341 213 274 C213 209 245 135 333 135 C419 135 453 209 453 274 C453 341 420 415 333 415 L333 415 Z " />
<glyph glyph-name="uni1ED4" unicode="&#x1ed4;" horiz-adv-x="875" d="M466 1062 L397 1062 C442 1121 463 1140 463 1170 C463 1192 450 1202 433 1202 C417 1202 407 1197 390 1182 L359 1234 C390 1266 425 1279 452 1280 C521 1283 557 1245 555 1191 C554 1142 506 1094 466 1062 L466 1062 Z M414 1035 L463 1035 L612 903 L567 843 L438 908 L311 843 L265 903 L414 1035 Z M438 791 C663 791 815 625 815 387 C815 154 669 -18 438 -18 C214 -18 59 152 59 387 C59 621 207 791 438 791 L438 791 Z M438 631 C302 631 235 522 235 387 C235 250 303 144 438 144 C573 144 640 249 640 387 C640 530 567 631 438 631 L438 631 Z " />
<glyph glyph-name="uni1ED5" unicode="&#x1ed5;" horiz-adv-x="667" d="M345 839 L276 839 C321 898 342 917 342 947 C342 969 329 979 312 979 C296 979 286 974 269 959 L238 1011 C269 1043 304 1056 331 1057 C400 1060 436 1022 434 968 C433 919 385 871 345 839 L345 839 Z M293 812 L342 812 L491 680 L446 620 L317 685 L190 620 L144 680 L293 812 Z M333 566 C503 566 632 452 632 274 C632 137 545 -16 333 -16 C160 -16 34 95 34 274 C34 454 160 566 333 566 L333 566 Z M333 415 C245 415 213 341 213 274 C213 209 245 135 333 135 C419 135 453 209 453 274 C453 341 420 415 333 415 L333 415 Z " />
<glyph glyph-name="uni1ED6" unicode="&#x1ed6;" horiz-adv-x="875" d="M336 1065 C336 1099 344 1124 378 1124 C421 1124 443 1060 516 1060 C581 1060 646 1103 646 1219 L547 1219 C547 1186 541 1163 514 1163 C465 1163 444 1223 375 1223 C309 1223 236 1166 236 1065 L336 1065 Z M414 1035 L463 1035 L612 903 L567 843 L438 908 L311 843 L265 903 L414 1035 Z M438 791 C663 791 815 625 815 387 C815 154 669 -18 438 -18 C214 -18 59 152 59 387 C59 621 207 791 438 791 L438 791 Z M438 631 C302 631 235 522 235 387 C235 250 303 144 438 144 C573 144 640 249 640 387 C640 530 567 631 438 631 L438 631 Z " />
<glyph glyph-name="uni1ED7" unicode="&#x1ed7;" horiz-adv-x="667" d="M215 842 C215 876 223 901 257 901 C300 901 322 837 395 837 C460 837 525 880 525 996 L426 996 C426 963 420 940 393 940 C344 940 323 1000 254 1000 C188 1000 115 943 115 842 L215 842 Z M293 812 L342 812 L491 680 L446 620 L317 685 L190 620 L144 680 L293 812 Z M333 566 C503 566 632 452 632 274 C632 137 545 -16 333 -16 C160 -16 34 95 34 274 C34 454 160 566 333 566 L333 566 Z M333 415 C245 415 213 341 213 274 C213 209 245 135 333 135 C419 135 453 209 453 274 C453 341 420 415 333 415 L333 415 Z " />
<glyph glyph-name="uni1ED8" unicode="&#x1ed8;" horiz-adv-x="875" d="M414 1035 L463 1035 L612 903 L567 843 L438 908 L311 843 L265 903 L414 1035 Z M438 791 C663 791 815 625 815 387 C815 154 669 -18 438 -18 C214 -18 59 152 59 387 C59 621 207 791 438 791 L438 791 Z M438 631 C302 631 235 522 235 387 C235 250 303 144 438 144 C573 144 640 249 640 387 C640 530 567 631 438 631 L438 631 Z M438 -58 C494 -58 532 -98 532 -158 C532 -210 496 -260 438 -260 C381 -260 343 -216 343 -158 C343 -97 380 -58 438 -58 L438 -58 Z " />
<glyph glyph-name="uni1ED9" unicode="&#x1ed9;" horiz-adv-x="667" d="M293 812 L342 812 L491 680 L446 620 L317 685 L190 620 L144 680 L293 812 Z M333 566 C503 566 632 452 632 274 C632 137 545 -16 333 -16 C160 -16 34 95 34 274 C34 454 160 566 333 566 L333 566 Z M333 415 C245 415 213 341 213 274 C213 209 245 135 333 135 C419 135 453 209 453 274 C453 341 420 415 333 415 L333 415 Z M333 -58 C389 -58 427 -98 427 -158 C427 -210 391 -260 333 -260 C276 -260 238 -216 238 -158 C238 -97 275 -58 333 -58 L333 -58 Z " />
<glyph glyph-name="uni1EDA" unicode="&#x1eda;" horiz-adv-x="884" d="M628 912 L582 1039 L356 907 L381 847 L628 912 Z M856 860 L727 860 C736 809 724 775 674 777 C596 782 517 792 439 792 L438 792 C207 792 59 621 59 387 C59 152 214 -18 438 -18 C669 -18 815 154 815 387 C815 497 782 592 725 662 L745 662 C865 662 880 777 856 860 L856 860 Z M438 144 C303 144 235 250 235 387 C235 522 302 631 438 631 C567 631 640 530 640 387 C640 249 573 144 438 144 L438 144 Z " />
<glyph glyph-name="uni1EDB" unicode="&#x1edb;" horiz-adv-x="697" d="M538 689 L492 816 L266 684 L291 624 L538 689 Z M698 639 L569 639 C578 588 566 554 516 557 C438 562 426 566 348 566 C175 566 49 454 49 274 C49 95 175 -16 348 -16 C560 -16 647 137 647 274 C647 349 624 412 585 461 C699 466 719 567 698 639 L698 639 Z M348 135 C268 135 228 209 228 274 C228 341 268 415 348 415 C427 415 468 341 468 274 C468 209 425 135 348 135 L348 135 Z " />
<glyph glyph-name="uni1EDC" unicode="&#x1edc;" horiz-adv-x="884" d="M514 907 L287 1039 L241 912 L488 847 L514 907 Z M856 860 L727 860 C736 809 724 775 674 777 C596 782 517 792 439 792 L438 792 C207 792 59 621 59 387 C59 152 214 -18 438 -18 C669 -18 815 154 815 387 C815 497 782 592 725 662 L745 662 C865 662 880 777 856 860 L856 860 Z M438 144 C303 144 235 250 235 387 C235 522 302 631 438 631 C567 631 640 530 640 387 C640 249 573 144 438 144 L438 144 Z " />
<glyph glyph-name="uni1EDD" unicode="&#x1edd;" horiz-adv-x="697" d="M424 684 L197 816 L151 689 L398 624 L424 684 Z M698 639 L569 639 C578 588 566 554 516 557 C438 562 426 566 348 566 C175 566 49 454 49 274 C49 95 175 -16 348 -16 C560 -16 647 137 647 274 C647 349 624 412 585 461 C699 466 719 567 698 639 L698 639 Z M348 135 C268 135 228 209 228 274 C228 341 268 415 348 415 C427 415 468 341 468 274 C468 209 425 135 348 135 L348 135 Z " />
<glyph glyph-name="uni1EDE" unicode="&#x1ede;" horiz-adv-x="884" d="M434 979 C451 979 464 969 464 947 C464 917 443 898 398 839 L467 839 C507 871 555 919 556 968 C558 1022 522 1060 453 1057 C426 1056 391 1043 360 1011 L391 959 C408 974 418 979 434 979 L434 979 Z M856 860 L727 860 C736 809 724 775 674 777 C596 782 517 792 439 792 L438 792 C207 792 59 621 59 387 C59 152 214 -18 438 -18 C669 -18 815 154 815 387 C815 497 782 592 725 662 L745 662 C865 662 880 777 856 860 L856 860 Z M438 144 C303 144 235 250 235 387 C235 522 302 631 438 631 C567 631 640 530 640 387 C640 249 573 144 438 144 L438 144 Z " />
<glyph glyph-name="uni1EDF" unicode="&#x1edf;" horiz-adv-x="697" d="M344 756 C361 756 374 746 374 724 C374 694 353 675 308 616 L377 616 C417 648 465 696 466 745 C468 799 432 837 363 834 C336 833 301 820 270 788 L301 736 C318 751 328 756 344 756 L344 756 Z M698 639 L569 639 C578 588 566 554 516 557 C438 562 426 566 348 566 C175 566 49 454 49 274 C49 95 175 -16 348 -16 C560 -16 647 137 647 274 C647 349 624 412 585 461 C699 466 719 567 698 639 L698 639 Z M348 135 C268 135 228 209 228 274 C228 341 268 415 348 415 C427 415 468 341 468 274 C468 209 425 135 348 135 L348 135 Z " />
<glyph glyph-name="uni1EE0" unicode="&#x1ee0;" horiz-adv-x="884" d="M379 901 C422 901 444 837 517 837 C582 837 647 880 647 996 L548 996 C548 963 542 940 515 940 C466 940 445 1000 376 1000 C310 1000 237 943 237 842 L337 842 C337 876 345 901 379 901 L379 901 Z M856 860 L727 860 C736 809 724 775 674 777 C596 782 517 792 439 792 L438 792 C207 792 59 621 59 387 C59 152 214 -18 438 -18 C669 -18 815 154 815 387 C815 497 782 592 725 662 L745 662 C865 662 880 777 856 860 L856 860 Z M438 144 C303 144 235 250 235 387 C235 522 302 631 438 631 C567 631 640 530 640 387 C640 249 573 144 438 144 L438 144 Z " />
<glyph glyph-name="uni1EE1" unicode="&#x1ee1;" horiz-adv-x="697" d="M289 678 C332 678 354 614 427 614 C492 614 557 657 557 773 L458 773 C458 740 452 717 425 717 C376 717 355 777 286 777 C220 777 147 720 147 619 L247 619 C247 653 255 678 289 678 L289 678 Z M698 639 L569 639 C578 588 566 554 516 557 C438 562 426 566 348 566 C175 566 49 454 49 274 C49 95 175 -16 348 -16 C560 -16 647 137 647 274 C647 349 624 412 585 461 C699 466 719 567 698 639 L698 639 Z M348 135 C268 135 228 209 228 274 C228 341 268 415 348 415 C427 415 468 341 468 274 C468 209 425 135 348 135 L348 135 Z " />
<glyph glyph-name="uni1EE2" unicode="&#x1ee2;" horiz-adv-x="884" d="M856 860 L727 860 C736 809 724 775 674 777 C596 782 517 792 439 792 L438 792 C207 792 59 621 59 387 C59 152 214 -18 438 -18 C669 -18 815 154 815 387 C815 497 782 592 725 662 L745 662 C865 662 880 777 856 860 L856 860 Z M438 144 C303 144 235 250 235 387 C235 522 302 631 438 631 C567 631 640 530 640 387 C640 249 573 144 438 144 L438 144 Z M441 -58 C383 -58 346 -97 346 -158 C346 -216 384 -260 441 -260 C499 -260 535 -210 535 -158 C535 -98 497 -58 441 -58 L441 -58 Z " />
<glyph glyph-name="uni1EE3" unicode="&#x1ee3;" horiz-adv-x="697" d="M698 639 L569 639 C578 588 566 554 516 557 C438 562 426 566 348 566 C175 566 49 454 49 274 C49 95 175 -16 348 -16 C560 -16 647 137 647 274 C647 349 624 412 585 461 C699 466 719 567 698 639 L698 639 Z M348 135 C268 135 228 209 228 274 C228 341 268 415 348 415 C427 415 468 341 468 274 C468 209 425 135 348 135 L348 135 Z M347 -58 C289 -58 252 -97 252 -158 C252 -216 290 -260 347 -260 C405 -260 441 -210 441 -158 C441 -98 403 -58 347 -58 L347 -58 Z " />
<glyph glyph-name="uni1EE4" unicode="&#x1ee4;" horiz-adv-x="848" d="M761 773 L761 376 C761 134 674 -18 425 -18 C173 -18 88 134 88 376 L88 773 L264 773 L264 400 C264 174 346 133 425 133 C505 133 585 177 585 400 L585 773 L761 773 Z M425 -58 C481 -58 519 -98 519 -158 C519 -210 483 -260 425 -260 C368 -260 330 -216 330 -158 C330 -97 367 -58 425 -58 L425 -58 Z " />
<glyph glyph-name="uni1EE5" unicode="&#x1ee5;" horiz-adv-x="661" d="M419 550 L419 231 C375 188 344 169 302 169 C250 169 238 208 238 263 L239 550 L59 550 L59 208 C59 38 154 -15 258 -15 C334 -15 392 26 432 70 L460 0 L598 0 L598 550 L419 550 Z M312 -58 C254 -58 217 -97 217 -158 C217 -216 255 -260 312 -260 C370 -260 406 -210 406 -158 C406 -98 368 -58 312 -58 L312 -58 Z " />
<glyph glyph-name="uni1EE6" unicode="&#x1ee6;" horiz-adv-x="848" d="M448 839 L379 839 C424 898 445 917 445 947 C445 969 432 979 415 979 C399 979 389 974 372 959 L341 1011 C372 1043 407 1056 434 1057 C503 1060 539 1022 537 968 C536 919 488 871 448 839 L448 839 Z M761 773 L761 376 C761 134 674 -18 425 -18 C173 -18 88 134 88 376 L88 773 L264 773 L264 400 C264 174 346 133 425 133 C505 133 585 177 585 400 L585 773 L761 773 Z " />
<glyph glyph-name="uni1EE7" unicode="&#x1ee7;" horiz-adv-x="661" d="M316 756 C333 756 346 746 346 724 C346 694 325 675 280 616 L349 616 C389 648 437 696 438 745 C440 799 404 837 335 834 C308 833 273 820 242 788 L273 736 C290 751 300 756 316 756 L316 756 Z M419 550 L419 231 C375 188 344 169 302 169 C250 169 238 208 238 263 L239 550 L59 550 L59 208 C59 38 154 -15 258 -15 C334 -15 392 26 432 70 L460 0 L598 0 L598 550 L419 550 Z " />
<glyph glyph-name="uni1EE8" unicode="&#x1ee8;" horiz-adv-x="923" d="M631 912 L585 1039 L359 907 L384 847 L631 912 Z M958 853 L829 853 C838 802 826 770 776 773 L596 773 L596 402 C596 179 516 135 436 135 C357 135 274 176 274 402 L274 773 L98 773 L98 378 C98 136 184 -16 436 -16 C685 -16 772 136 772 378 L772 657 L831 656 C952 656 967 770 958 853 L958 853 Z " />
<glyph glyph-name="uni1EE9" unicode="&#x1ee9;" horiz-adv-x="807" d="M537 689 L491 816 L265 684 L290 624 L537 689 Z M781 630 L652 630 C660 583 651 553 611 550 L434 550 L434 231 C390 188 358 169 316 169 C265 169 253 208 253 263 L254 550 L74 550 L74 208 C74 38 169 -15 273 -15 C349 -15 407 26 447 70 L475 0 L613 0 L613 434 L654 433 C775 433 790 547 781 630 L781 630 Z " />
<glyph glyph-name="uni1EEA" unicode="&#x1eea;" horiz-adv-x="923" d="M517 907 L290 1039 L244 912 L491 847 L517 907 Z M958 853 L829 853 C838 802 826 770 776 773 L596 773 L596 402 C596 179 516 135 436 135 C357 135 274 176 274 402 L274 773 L98 773 L98 378 C98 136 184 -16 436 -16 C685 -16 772 136 772 378 L772 657 L831 656 C952 656 967 770 958 853 L958 853 Z " />
<glyph glyph-name="uni1EEB" unicode="&#x1eeb;" horiz-adv-x="807" d="M423 684 L196 816 L150 689 L397 624 L423 684 Z M781 630 L652 630 C660 583 651 553 611 550 L434 550 L434 231 C390 188 358 169 316 169 C265 169 253 208 253 263 L254 550 L74 550 L74 208 C74 38 169 -15 273 -15 C349 -15 407 26 447 70 L475 0 L613 0 L613 434 L654 433 C775 433 790 547 781 630 L781 630 Z " />
<glyph glyph-name="uni1EEC" unicode="&#x1eec;" horiz-adv-x="923" d="M437 979 C454 979 467 969 467 947 C467 917 446 898 401 839 L470 839 C510 871 558 919 559 968 C561 1022 525 1060 456 1057 C429 1056 394 1043 363 1011 L394 959 C411 974 421 979 437 979 L437 979 Z M958 853 L829 853 C838 802 826 770 776 773 L596 773 L596 402 C596 179 516 135 436 135 C357 135 274 176 274 402 L274 773 L98 773 L98 378 C98 136 184 -16 436 -16 C685 -16 772 136 772 378 L772 657 L831 656 C952 656 967 770 958 853 L958 853 Z " />
<glyph glyph-name="uni1EED" unicode="&#x1eed;" horiz-adv-x="807" d="M343 756 C360 756 373 746 373 724 C373 694 352 675 307 616 L376 616 C416 648 464 696 465 745 C467 799 431 837 362 834 C335 833 300 820 269 788 L300 736 C317 751 327 756 343 756 L343 756 Z M781 630 L652 630 C660 583 651 553 611 550 L434 550 L434 231 C390 188 358 169 316 169 C265 169 253 208 253 263 L254 550 L74 550 L74 208 C74 38 169 -15 273 -15 C349 -15 407 26 447 70 L475 0 L613 0 L613 434 L654 433 C775 433 790 547 781 630 L781 630 Z " />
<glyph glyph-name="uni1EEE" unicode="&#x1eee;" horiz-adv-x="923" d="M382 901 C425 901 447 837 520 837 C585 837 650 880 650 996 L551 996 C551 963 545 940 518 940 C469 940 448 1000 379 1000 C313 1000 240 943 240 842 L340 842 C340 876 348 901 382 901 L382 901 Z M958 853 L829 853 C838 802 826 770 776 773 L596 773 L596 402 C596 179 516 135 436 135 C357 135 274 176 274 402 L274 773 L98 773 L98 378 C98 136 184 -16 436 -16 C685 -16 772 136 772 378 L772 657 L831 656 C952 656 967 770 958 853 L958 853 Z " />
<glyph glyph-name="uni1EEF" unicode="&#x1eef;" horiz-adv-x="807" d="M288 678 C331 678 353 614 426 614 C491 614 556 657 556 773 L457 773 C457 740 451 717 424 717 C375 717 354 777 285 777 C219 777 146 720 146 619 L246 619 C246 653 254 678 288 678 L288 678 Z M781 630 L652 630 C660 583 651 553 611 550 L434 550 L434 231 C390 188 358 169 316 169 C265 169 253 208 253 263 L254 550 L74 550 L74 208 C74 38 169 -15 273 -15 C349 -15 407 26 447 70 L475 0 L613 0 L613 434 L654 433 C775 433 790 547 781 630 L781 630 Z " />
<glyph glyph-name="uni1EF0" unicode="&#x1ef0;" horiz-adv-x="923" d="M958 853 L829 853 C838 802 826 770 776 773 L596 773 L596 402 C596 179 516 135 436 135 C357 135 274 176 274 402 L274 773 L98 773 L98 378 C98 136 184 -16 436 -16 C685 -16 772 136 772 378 L772 657 L831 656 C952 656 967 770 958 853 L958 853 Z M436 -58 C378 -58 341 -97 341 -158 C341 -216 379 -260 436 -260 C494 -260 530 -210 530 -158 C530 -98 492 -58 436 -58 L436 -58 Z " />
<glyph glyph-name="uni1EF1" unicode="&#x1ef1;" horiz-adv-x="807" d="M781 630 L652 630 C660 583 651 553 611 550 L434 550 L434 231 C390 188 358 169 316 169 C265 169 253 208 253 263 L254 550 L74 550 L74 208 C74 38 169 -15 273 -15 C349 -15 407 26 447 70 L475 0 L613 0 L613 434 L654 433 C775 433 790 547 781 630 L781 630 Z M275 -58 C217 -58 180 -97 180 -158 C180 -216 218 -260 275 -260 C333 -260 369 -210 369 -158 C369 -98 331 -58 275 -58 L275 -58 Z " />
<glyph glyph-name="Ygrave" unicode="&#x1ef2;" horiz-adv-x="701" d="M424 900 L197 1032 L151 905 L398 840 L424 900 Z M678 773 L478 773 L349 440 L219 773 L20 773 L255 311 L255 0 L440 0 L440 307 L441 307 L678 773 Z " />
<glyph glyph-name="ygrave" unicode="&#x1ef3;" horiz-adv-x="541" d="M349 684 L122 816 L76 689 L323 624 L349 684 Z M360 550 L270 210 L178 550 L1 550 L183 2 C154 -83 147 -156 21 -105 L8 -270 C235 -324 295 -209 336 -68 L533 550 L360 550 Z " />
<glyph glyph-name="uni1EF4" unicode="&#x1ef4;" horiz-adv-x="701" d="M478 773 L349 440 L219 773 L20 773 L255 311 L255 0 L440 0 L440 307 L441 307 L678 773 L478 773 Z M347 -58 C289 -58 252 -97 252 -158 C252 -216 290 -260 347 -260 C405 -260 441 -210 441 -158 C441 -98 403 -58 347 -58 L347 -58 Z " />
<glyph glyph-name="uni1EF5" unicode="&#x1ef5;" horiz-adv-x="541" d="M336 -68 L533 550 L360 550 L270 210 L178 550 L1 550 L183 2 C154 -83 147 -156 21 -105 L8 -270 C235 -324 295 -209 336 -68 L336 -68 Z M247 -345 C189 -345 152 -384 152 -445 C152 -503 190 -547 247 -547 C305 -547 341 -497 341 -445 C341 -385 303 -345 247 -345 L247 -345 Z " />
<glyph glyph-name="uni1EF6" unicode="&#x1ef6;" horiz-adv-x="701" d="M344 972 C361 972 374 962 374 940 C374 910 353 891 308 832 L377 832 C417 864 465 912 466 961 C468 1015 432 1053 363 1050 C336 1049 301 1036 270 1004 L301 952 C318 967 328 972 344 972 L344 972 Z M678 773 L478 773 L349 440 L219 773 L20 773 L255 311 L255 0 L440 0 L440 307 L441 307 L678 773 Z " />
<glyph glyph-name="uni1EF7" unicode="&#x1ef7;" horiz-adv-x="541" d="M269 756 C286 756 299 746 299 724 C299 694 278 675 233 616 L302 616 C342 648 390 696 391 745 C393 799 357 837 288 834 C261 833 226 820 195 788 L226 736 C243 751 253 756 269 756 L269 756 Z M360 550 L270 210 L178 550 L1 550 L183 2 C154 -83 147 -156 21 -105 L8 -270 C235 -324 295 -209 336 -68 L533 550 L360 550 Z " />
<glyph glyph-name="uni1EF8" unicode="&#x1ef8;" horiz-adv-x="701" d="M273 894 C316 894 338 830 411 830 C476 830 541 873 541 989 L442 989 C442 956 436 933 409 933 C360 933 339 993 270 993 C204 993 131 936 131 835 L231 835 C231 869 239 894 273 894 L273 894 Z M678 773 L478 773 L349 440 L219 773 L20 773 L255 311 L255 0 L440 0 L440 307 L441 307 L678 773 Z " />
<glyph glyph-name="uni1EF9" unicode="&#x1ef9;" horiz-adv-x="541" d="M198 678 C241 678 263 614 336 614 C401 614 466 657 466 773 L367 773 C367 740 361 717 334 717 C285 717 264 777 195 777 C129 777 56 720 56 619 L156 619 C156 653 164 678 198 678 L198 678 Z M360 550 L270 210 L178 550 L1 550 L183 2 C154 -83 147 -156 21 -105 L8 -270 C235 -324 295 -209 336 -68 L533 550 L360 550 Z " />
<glyph glyph-name="uni2009" unicode="&#x2009;" horiz-adv-x="189" d="" />
<glyph glyph-name="endash" unicode="&#x2013;" horiz-adv-x="581" d="M527 425 L527 271 L55 271 L55 425 L527 425 Z " />
<glyph glyph-name="emdash" unicode="&#x2014;" horiz-adv-x="996" d="M941 429 L941 277 L55 277 L55 429 L941 429 Z " />
<glyph glyph-name="quoteleft" unicode="&#x2018;" horiz-adv-x="173" d="M82 576 C36 576 6 609 6 668 C6 733 35 803 105 860 C112 853 130 836 137 830 C96 794 66 754 68 719 C77 721 82 721 84 721 C123 721 152 690 152 647 C152 608 124 576 82 576 L82 576 Z " />
<glyph glyph-name="quoteright" unicode="&#x2019;" horiz-adv-x="173" d="M92 860 C137 860 167 827 167 769 C167 703 138 633 68 576 L37 607 C77 643 107 683 105 718 C97 716 92 716 89 716 C51 716 21 746 21 790 C21 829 49 860 92 860 L92 860 Z " />
<glyph glyph-name="quotesinglbase" unicode="&#x201a;" horiz-adv-x="600" d="M132 182 C70 185 37 141 34 92 C31 30 72 -15 125 -17 C126 -17 132 -17 143 -15 C150 -53 99 -108 51 -145 C60 -151 87 -182 94 -190 C199 -112 229 -22 234 55 C238 128 199 180 132 182 L132 182 Z " />
<glyph glyph-name="quotedblleft" unicode="&#x201c;" horiz-adv-x="452" d="M155 576 C110 576 80 609 80 668 C80 733 108 803 179 860 C186 853 203 836 210 830 C169 794 140 754 142 719 C150 721 155 721 158 721 C196 721 225 690 225 647 C225 608 198 576 155 576 L155 576 Z M325 576 C280 576 250 609 250 668 C250 733 278 803 349 860 C356 853 373 836 380 830 C339 794 310 754 312 719 C320 721 325 721 328 721 C366 721 395 690 395 647 C395 608 368 576 325 576 L325 576 Z " />
<glyph glyph-name="quotedblright" unicode="&#x201d;" horiz-adv-x="452" d="M126 860 C171 860 201 827 201 769 C201 703 173 633 103 576 C96 583 78 601 71 607 C112 643 141 683 140 718 C131 716 126 716 124 716 C85 716 56 746 56 790 C56 829 83 860 126 860 L126 860 Z M296 860 C341 860 371 827 371 769 C371 703 343 633 273 576 C266 583 248 601 241 607 C282 643 311 683 310 718 C301 716 296 716 294 716 C255 716 226 746 226 790 C226 829 253 860 296 860 L296 860 Z " />
<glyph glyph-name="quotedblbase" unicode="&#x201e;" horiz-adv-x="223" d="M132 182 C199 180 238 128 234 55 C229 -22 199 -112 94 -190 C87 -182 60 -151 51 -145 C99 -108 150 -53 143 -15 C130 -17 123 -17 125 -17 C72 -15 31 30 34 92 C37 141 70 185 132 182 L132 182 Z M132 182 C199 180 238 128 234 55 C229 -22 199 -112 94 -190 C87 -182 60 -151 51 -145 C99 -108 150 -53 143 -15 C130 -17 123 -17 125 -17 C72 -15 31 30 34 92 C37 141 70 185 132 182 L132 182 Z " />
<glyph glyph-name="dagger" unicode="&#x2020;" horiz-adv-x="553" d="M423 756 L348 738 L365 810 L365 860 L186 860 L186 810 L203 739 L129 756 L79 756 L79 577 L129 577 L205 595 L186 480 L186 336 L365 336 L365 480 L347 595 L423 577 L473 577 L473 756 L423 756 Z " />
<glyph glyph-name="daggerdbl" unicode="&#x2021;" horiz-adv-x="553" d="M473 490 L473 669 L423 669 L348 651 L365 723 L365 860 L186 860 L186 723 L203 651 L129 669 L79 669 L79 490 L129 490 L203 506 L186 428 L186 373 L204 286 L129 303 L79 303 L79 124 L129 124 L205 141 L186 39 L186 -61 L365 -61 L365 39 L348 141 L423 124 L473 124 L473 303 L423 303 L347 285 L365 373 L365 428 L349 506 L423 490 L473 490 Z " />
<glyph glyph-name="bullet" unicode="&#x2022;" horiz-adv-x="367" d="M183 551 C253 551 301 500 301 425 C301 358 255 298 183 298 C112 298 65 353 65 425 C65 501 111 551 183 551 L183 551 Z " />
<glyph glyph-name="ellipsis" unicode="&#x2026;" horiz-adv-x="725" d="M144 140 C187 140 218 109 218 62 C218 21 189 -18 144 -18 C99 -18 70 17 70 62 C70 110 98 140 144 140 L144 140 Z M363 140 C406 140 437 109 437 62 C437 21 409 -18 363 -18 C319 -18 289 17 289 62 C289 110 317 140 363 140 L363 140 Z M581 140 C624 140 655 109 655 62 C655 21 627 -18 581 -18 C537 -18 507 17 507 62 C507 110 535 140 581 140 L581 140 Z " />
<glyph glyph-name="perthousand" unicode="&#x2030;" horiz-adv-x="1197" d="M266 -13 L164 47 L574 725 L675 664 L266 -13 Z M214 699 C309 699 384 639 384 542 C384 479 341 387 214 387 C120 387 46 445 46 542 C46 641 120 699 214 699 L214 699 Z M214 590 C187 590 179 565 179 542 C179 522 187 497 214 497 C239 497 249 522 249 542 C249 565 239 590 214 590 L214 590 Z M617 305 C712 305 787 244 787 148 C787 85 745 -7 617 -7 C523 -7 450 50 450 148 C450 247 523 305 617 305 L617 305 Z M984 305 C1078 305 1153 244 1153 148 C1153 85 1111 -7 984 -7 C890 -7 816 50 816 148 C816 247 890 305 984 305 L984 305 Z M617 196 C593 196 584 169 584 148 C584 128 593 103 617 103 C642 103 654 128 654 148 C654 169 644 196 617 196 L617 196 Z M984 196 C959 196 950 169 950 148 C950 128 959 103 984 103 C1008 103 1021 128 1021 148 C1021 169 1010 196 984 196 L984 196 Z " />
<glyph glyph-name="guilsinglleft" unicode="&#x2039;" horiz-adv-x="506" d="M401 414 L287 523 L81 277 L287 31 L401 140 L262 278 L401 414 Z " />
<glyph glyph-name="guilsinglright" unicode="&#x203a;" horiz-adv-x="506" d="M220 523 L105 414 L245 278 L105 140 L220 31 L425 277 L220 523 Z " />
<glyph glyph-name="uni203D" unicode="&#x203d;" horiz-adv-x="688" d="M331 870 C192 870 93 795 51 719 L189 631 C209 658 256 720 332 720 C397 720 473 692 473 609 C473 557 453 517 409 491 L411 506 L411 616 L246 616 L246 506 L276 244 L383 244 L393 338 C533 365 622 453 622 609 C622 756 512 870 331 870 L331 870 Z M328 174 C273 174 239 138 239 81 C239 27 274 -15 328 -15 C382 -15 416 32 416 81 C416 137 381 174 328 174 L328 174 Z " />
<glyph glyph-name="fraction" unicode="&#x2044;" horiz-adv-x="222" d="M316 821 L412 768 L-79 -18 L-176 32 L316 821 Z " />
<glyph glyph-name="uni2070" unicode="&#x2070;" horiz-adv-x="415" d="M207 474 C111 474 56 553 56 652 C56 752 112 830 208 830 C303 830 359 755 359 653 C359 552 303 474 207 474 L207 474 Z M208 742 C153 742 162 663 162 652 C162 629 161 564 207 564 C251 564 255 613 255 650 C255 676 256 742 208 742 L208 742 Z " />
<glyph glyph-name="uni2074" unicode="&#x2074;" horiz-adv-x="413" d="M365 630 L319 627 L319 821 L224 821 L52 630 L87 539 L224 539 L224 481 L319 481 L319 539 L365 539 L365 630 Z M143 615 L224 706 L224 621 L143 615 Z " />
<glyph glyph-name="uni2075" unicode="&#x2075;" horiz-adv-x="369" d="M186 697 C182 697 178 697 174 696 L177 729 L282 722 L282 821 L94 821 L79 662 L157 614 C164 620 170 622 176 622 C196 622 208 607 208 589 C208 576 200 560 169 560 C151 560 129 567 105 585 L49 521 C75 502 111 475 178 475 C280 475 309 533 309 584 C309 651 254 697 186 697 L186 697 Z " />
<glyph glyph-name="uni2076" unicode="&#x2076;" horiz-adv-x="392" d="M216 701 C194 701 177 700 162 692 C166 719 178 741 205 741 C218 741 237 737 251 728 L319 794 C294 814 253 830 207 830 C112 830 56 752 56 647 C56 555 93 475 200 475 C289 475 335 526 335 589 C335 663 275 701 216 701 L216 701 Z M199 566 C167 566 159 587 157 607 C175 628 205 611 198 611 C211 611 227 604 227 589 C227 581 231 566 199 566 L199 566 Z " />
<glyph glyph-name="uni2077" unicode="&#x2077;" horiz-adv-x="357" d="M70 821 L70 718 L205 727 L85 481 L200 481 L307 733 L307 821 L70 821 Z " />
<glyph glyph-name="uni2078" unicode="&#x2078;" horiz-adv-x="358" d="M257 659 C285 676 300 701 300 730 C300 791 249 830 179 830 C106 830 56 791 56 731 C56 698 72 674 98 659 C69 641 49 613 49 578 C49 514 103 474 177 474 C264 474 307 527 307 579 C307 613 287 641 257 659 L257 659 Z M177 757 C206 757 215 742 215 721 C215 702 201 688 177 688 C155 688 141 702 141 721 C141 742 149 757 177 757 L177 757 Z M177 554 C148 554 138 570 138 588 C138 604 153 622 177 622 C203 622 218 604 218 588 C218 570 207 554 177 554 L177 554 Z " />
<glyph glyph-name="uni2079" unicode="&#x2079;" horiz-adv-x="386" d="M192 830 C105 830 57 780 57 718 C57 643 117 604 176 604 C198 604 215 606 230 613 C225 587 214 565 188 565 C174 565 153 568 140 578 L75 513 C97 493 138 475 185 475 C280 475 336 554 336 658 C336 751 298 830 192 830 L192 830 Z M192 694 C180 694 164 702 164 718 C164 725 161 739 192 739 C224 739 232 720 234 700 C216 677 185 694 192 694 L192 694 Z " />
<glyph glyph-name="Euro" unicode="&#x20ac;" horiz-adv-x="721" d="M423 125 C370 125 333 166 314 225 L444 225 L460 310 L298 310 C297 320 297 331 297 341 C297 349 297 358 298 366 L469 366 L485 451 L312 451 C332 512 369 556 426 556 C481 556 514 528 539 485 L656 567 C603 653 522 701 431 701 C293 701 192 599 158 451 L100 451 L84 366 L147 366 C146 357 146 349 146 340 C146 330 146 320 147 310 L100 310 L84 225 L159 225 C194 79 297 -20 431 -20 C522 -20 601 29 656 116 L537 200 C513 151 475 125 423 125 L423 125 Z " />
<glyph glyph-name="uni20B1" unicode="&#x20b1;" horiz-adv-x="777" d="M712 447 L652 447 C643 577 557 680 392 680 L141 680 L141 447 L93 447 L93 403 L141 403 L141 0 L301 0 L301 181 L392 181 C556 181 644 275 652 403 L712 403 L712 447 Z M301 515 L364 515 C417 515 468 493 480 447 L301 447 L301 515 Z M365 339 L301 339 L301 403 L479 403 C466 363 422 339 365 339 L365 339 Z " />
<glyph glyph-name="uni20BD" unicode="&#x20bd;" horiz-adv-x="746" d="M423 211 C594 211 681 300 681 440 C681 580 596 680 423 680 L167 680 L167 369 L93 369 L93 211 L167 211 L167 162 L93 162 L93 79 L167 79 L167 0 L326 0 L326 79 L436 79 L436 162 L326 162 L326 211 L423 211 Z M326 515 L395 515 C451 515 510 503 510 443 C510 387 460 369 395 369 L326 369 L326 515 Z " />
<glyph glyph-name="uni20BF" unicode="&#x20bf;" horiz-adv-x="694" d="M545 369 C572 393 599 431 599 502 C599 606 529 680 430 680 L425 680 L425 773 L359 773 L359 680 L317 680 L317 773 L249 773 L249 680 L93 680 L93 0 L249 0 L249 -93 L317 -93 L317 0 L359 0 L359 -93 L425 -93 L425 0 L458 0 C566 0 640 81 640 193 C640 272 603 338 545 369 L545 369 Z M405 542 C440 542 467 519 467 480 C467 436 432 418 401 418 L244 418 L244 542 L405 542 Z M436 138 L244 138 L244 277 L428 277 C465 277 503 255 503 208 C503 166 469 138 436 138 L436 138 Z " />
<glyph glyph-name="uni2116" unicode="&#x2116;" horiz-adv-x="1347" d="M1041 311 C1217 311 1288 437 1288 551 C1288 699 1183 793 1041 793 C895 793 793 700 793 551 C793 401 897 311 1041 311 L1041 311 Z M509 299 L258 773 L84 773 L84 0 L255 0 L255 470 L506 0 L678 0 L678 773 L509 773 L509 299 Z M1048 642 C1099 642 1126 593 1126 551 C1126 511 1098 462 1048 462 C997 462 972 511 972 551 C972 593 997 642 1048 642 L1048 642 Z M826 0 L1261 0 L1261 151 L826 151 L826 0 Z " />
<glyph glyph-name="uni2117" unicode="&#x2117;" horiz-adv-x="841" d="M412 733 C221 733 67 596 67 389 C67 181 221 44 412 44 C602 44 756 180 756 389 C756 596 602 733 412 733 L412 733 Z M412 131 C270 131 154 231 154 389 C154 546 270 646 412 646 C554 646 669 548 669 389 C669 230 553 131 412 131 L412 131 Z M412 540 L314 540 L314 231 L394 231 L394 331 L412 331 C514 331 554 367 554 435 C554 496 513 540 412 540 L412 540 Z M412 398 L394 398 L394 471 L412 471 C445 471 472 469 472 434 C472 398 447 398 412 398 L412 398 Z " />
<glyph glyph-name="trademark" unicode="&#x2122;" horiz-adv-x="714" d="M45 689 L124 689 L124 464 L217 464 L217 689 L296 689 L296 773 L45 773 L45 689 Z M650 464 L630 773 L514 773 L486 592 L456 773 L340 773 L320 464 L412 464 L420 618 L448 464 L523 464 L552 621 L559 464 L650 464 Z " />
<glyph glyph-name="estimated" unicode="&#x212e;" horiz-adv-x="931" d="M208 370 C208 373 210 374 213 374 L870 374 L870 384 C870 484 824 576 751 642 C678 708 575 749 463 749 C351 749 250 708 177 642 C104 576 59 484 59 384 C59 284 104 192 177 127 C250 62 351 21 463 21 C594 21 713 74 784 161 L736 161 C671 89 572 55 465 55 C366 55 284 82 217 149 C211 155 208 162 208 171 L208 370 Z M213 407 C210 407 208 409 208 414 L208 596 C208 605 211 615 218 620 C282 684 369 717 465 717 C561 717 647 688 711 624 C717 617 720 609 720 600 L720 414 C720 409 719 407 716 407 L213 407 Z " />
<glyph glyph-name="oneeighth" unicode="&#x215b;" horiz-adv-x="935" d="M671 821 L179 32 L276 -18 L767 768 L671 821 Z M242 431 L242 771 L178 771 L50 737 L79 649 L135 668 L135 431 L242 431 Z M834 178 C862 195 877 220 877 249 C877 310 826 349 756 349 C683 349 633 310 633 250 C633 217 649 193 675 178 C646 160 626 132 626 97 C626 33 680 -7 754 -7 C841 -7 884 46 884 98 C884 132 864 160 834 178 L834 178 Z M754 276 C783 276 792 261 792 240 C792 221 778 207 754 207 C732 207 718 221 718 240 C718 261 726 276 754 276 L754 276 Z M754 73 C725 73 715 89 715 107 C715 123 730 141 754 141 C780 141 795 123 795 107 C795 89 784 73 754 73 L754 73 Z " />
<glyph glyph-name="threeeighths" unicode="&#x215c;" horiz-adv-x="984" d="M720 821 L228 32 L325 -18 L816 768 L720 821 Z M298 532 C298 570 273 606 223 620 L292 684 L292 771 L72 771 L72 669 L151 674 L105 638 L130 564 C145 564 151 561 157 561 C190 561 191 540 191 537 C191 537 190 514 157 514 C146 514 128 516 114 522 L47 459 C63 448 104 424 157 424 C274 424 298 487 298 532 L298 532 Z M883 178 C911 195 926 220 926 249 C926 310 875 349 805 349 C732 349 682 310 682 250 C682 217 698 193 724 178 C695 160 675 132 675 97 C675 33 729 -7 803 -7 C890 -7 933 46 933 98 C933 132 913 160 883 178 L883 178 Z M803 276 C832 276 841 261 841 240 C841 221 827 207 803 207 C781 207 767 221 767 240 C767 261 775 276 803 276 L803 276 Z M803 73 C774 73 764 89 764 107 C764 123 779 141 803 141 C829 141 844 123 844 107 C844 89 833 73 803 73 L803 73 Z " />
<glyph glyph-name="fiveeighths" unicode="&#x215d;" horiz-adv-x="949" d="M685 821 L193 32 L290 -18 L781 768 L685 821 Z M309 534 C309 601 254 647 186 647 C182 647 178 647 174 646 L177 679 L282 672 L282 771 L94 771 L79 612 L157 564 C164 570 170 572 176 572 C196 572 208 557 208 539 C208 526 200 510 169 510 C151 510 129 517 105 535 L49 471 C75 452 111 425 178 425 C280 425 309 483 309 534 L309 534 Z M848 178 C876 195 891 220 891 249 C891 310 840 349 770 349 C697 349 647 310 647 250 C647 217 663 193 689 178 C660 160 640 132 640 97 C640 33 694 -7 768 -7 C855 -7 898 46 898 98 C898 132 878 160 848 178 L848 178 Z M768 276 C797 276 806 261 806 240 C806 221 792 207 768 207 C746 207 732 221 732 240 C732 261 740 276 768 276 L768 276 Z M768 73 C739 73 729 89 729 107 C729 123 744 141 768 141 C794 141 809 123 809 107 C809 89 798 73 768 73 L768 73 Z " />
<glyph glyph-name="seveneighths" unicode="&#x215e;" horiz-adv-x="892" d="M628 821 L136 32 L233 -18 L724 768 L628 821 Z M200 431 L307 683 L307 771 L70 771 L70 668 L205 677 L85 431 L200 431 Z M791 178 C819 195 834 220 834 249 C834 310 783 349 713 349 C640 349 590 310 590 250 C590 217 606 193 632 178 C603 160 583 132 583 97 C583 33 637 -7 711 -7 C798 -7 841 46 841 98 C841 132 821 160 791 178 L791 178 Z M711 276 C740 276 749 261 749 240 C749 221 735 207 711 207 C689 207 675 221 675 240 C675 261 683 276 711 276 L711 276 Z M711 73 C682 73 672 89 672 107 C672 123 687 141 711 141 C737 141 752 123 752 107 C752 89 741 73 711 73 L711 73 Z " />
<glyph glyph-name="uni2160" unicode="&#x2160;" horiz-adv-x="520" d="M429 548 L429 680 L93 680 L93 548 L173 548 L173 132 L93 132 L93 0 L429 0 L429 132 L349 132 L349 548 L429 548 Z " />
<glyph glyph-name="uni2161" unicode="&#x2161;" horiz-adv-x="829" d="M737 548 L737 680 L93 680 L93 548 L173 548 L173 132 L93 132 L93 0 L737 0 L737 132 L657 132 L657 548 L737 548 Z M481 132 L349 132 L349 548 L481 548 L481 132 Z " />
<glyph glyph-name="uni2162" unicode="&#x2162;" horiz-adv-x="1136" d="M1045 548 L1045 680 L93 680 L93 548 L173 548 L173 132 L93 132 L93 0 L1045 0 L1045 132 L965 132 L965 548 L1045 548 Z M349 132 L349 548 L481 548 L481 132 L349 132 Z M789 132 L657 132 L657 548 L789 548 L789 132 Z " />
<glyph glyph-name="uni2163" unicode="&#x2163;" horiz-adv-x="1158" d="M918 680 L765 172 L610 680 L93 680 L93 548 L173 548 L173 132 L93 132 L93 0 L429 0 L429 132 L349 132 L349 548 L453 548 L656 0 L874 0 L1125 680 L918 680 Z " />
<glyph glyph-name="uni2164" unicode="&#x2164;" horiz-adv-x="784" d="M752 680 L545 680 L391 172 L237 680 L31 680 L283 0 L500 0 L752 680 Z " />
<glyph glyph-name="uni2165" unicode="&#x2165;" horiz-adv-x="1155" d="M1064 548 L1064 680 L546 680 L391 172 L238 680 L31 680 L283 0 L500 0 L703 548 L808 548 L808 132 L728 132 L728 0 L1064 0 L1064 132 L984 132 L984 548 L1064 548 Z " />
<glyph glyph-name="uni2166" unicode="&#x2166;" horiz-adv-x="1464" d="M1372 548 L1372 680 L546 680 L391 172 L238 680 L31 680 L283 0 L500 0 L703 548 L808 548 L808 132 L728 132 L728 0 L1372 0 L1372 132 L1292 132 L1292 548 L1372 548 Z M1116 132 L984 132 L984 548 L1116 548 L1116 132 Z " />
<glyph glyph-name="uni2167" unicode="&#x2167;" horiz-adv-x="1770" d="M1679 548 L1679 680 L546 680 L391 172 L238 680 L31 680 L283 0 L500 0 L703 548 L808 548 L808 132 L728 132 L728 0 L1679 0 L1679 132 L1599 132 L1599 548 L1679 548 Z M984 132 L984 548 L1116 548 L1116 132 L984 132 Z M1423 132 L1292 132 L1292 548 L1423 548 L1423 132 Z " />
<glyph glyph-name="uni2168" unicode="&#x2168;" horiz-adv-x="1006" d="M765 333 L976 680 L789 680 L672 471 L550 680 L93 680 L93 548 L173 548 L173 132 L93 132 L93 0 L567 0 L676 185 L794 0 L983 0 L765 333 Z M462 132 L349 132 L349 548 L448 548 L586 333 L462 132 Z " />
<glyph glyph-name="uni2169" unicode="&#x2169;" horiz-adv-x="657" d="M32 0 L238 333 L14 680 L201 680 L323 471 L440 680 L627 680 L416 333 L634 0 L445 0 L327 185 L219 0 L32 0 Z " />
<glyph glyph-name="uni216A" unicode="&#x216a;" horiz-adv-x="1002" d="M910 548 L910 680 L452 680 L330 471 L214 680 L27 680 L238 333 L20 0 L208 0 L326 185 L435 0 L910 0 L910 132 L830 132 L830 548 L910 548 Z M654 132 L540 132 L416 333 L554 548 L654 548 L654 132 Z " />
<glyph glyph-name="uni216B" unicode="&#x216b;" horiz-adv-x="1345" d="M1254 548 L1254 680 L440 680 L323 471 L201 680 L14 680 L238 333 L32 0 L219 0 L327 185 L445 0 L1254 0 L1254 132 L1173 132 L1173 548 L1254 548 Z M548 132 L416 333 L547 548 L689 548 L689 132 L548 132 Z M997 132 L865 132 L865 548 L997 548 L997 132 Z " />
<glyph glyph-name="uni216C" unicode="&#x216c;" horiz-adv-x="644" d="M269 161 L269 680 L93 680 L93 0 L581 0 L581 161 L269 161 Z " />
<glyph glyph-name="uni216D" unicode="&#x216d;" horiz-adv-x="703" d="M660 564 L519 463 C491 501 447 538 393 538 C288 538 233 449 233 342 C233 232 290 144 393 144 C447 144 492 181 518 221 L662 120 C601 37 504 -14 393 -14 C202 -14 59 134 59 342 C59 546 195 696 393 696 C505 696 601 646 660 564 L660 564 Z " />
<glyph glyph-name="uni216E" unicode="&#x216e;" horiz-adv-x="816" d="M404 680 L93 680 L93 0 L404 0 C612 0 756 137 756 336 C756 542 613 680 404 680 L404 680 Z M404 159 L268 159 L268 521 L404 521 C510 521 574 443 574 336 C574 232 514 159 404 159 L404 159 Z " />
<glyph glyph-name="uni216F" unicode="&#x216f;" horiz-adv-x="978" d="M906 0 L855 680 L635 680 L487 242 L340 680 L120 680 L69 0 L245 0 L275 412 L417 0 L557 0 L702 437 L732 0 L906 0 Z " />
<glyph glyph-name="arrowleft" unicode="&#x2190;" horiz-adv-x="862" d="M818 452 L278 452 L383 554 L297 644 L45 386 L125 304 L297 130 L383 225 L285 317 L818 317 L818 452 Z " />
<glyph glyph-name="arrowup" unicode="&#x2191;" horiz-adv-x="615" d="M564 520 L389 692 L390 693 L308 773 L50 520 L140 435 L242 540 L242 0 L377 0 L377 533 L469 435 L564 520 Z " />
<glyph glyph-name="arrowright" unicode="&#x2192;" horiz-adv-x="858" d="M818 386 L565 644 L479 554 L584 452 L45 452 L45 317 L577 317 L479 225 L565 130 L737 304 L818 386 Z " />
<glyph glyph-name="arrowdown" unicode="&#x2193;" horiz-adv-x="662" d="M587 253 L492 338 L401 240 L401 773 L265 773 L265 233 L164 338 L74 253 L332 0 L413 80 L587 253 Z " />
<glyph glyph-name="arrowboth" unicode="&#x2194;" horiz-adv-x="1019" d="M972 386 L719 644 L633 554 L738 452 L278 452 L383 554 L297 644 L45 386 L125 304 L297 130 L383 225 L285 317 L731 317 L633 225 L719 130 L891 304 L972 386 Z " />
<glyph glyph-name="arrowupdn" unicode="&#x2195;" horiz-adv-x="624" d="M473 262 L381 163 L381 611 L473 512 L568 598 L394 770 L313 850 L55 598 L145 512 L246 617 L246 157 L145 262 L55 176 L313 -76 L394 4 L568 176 L473 262 Z " />
<glyph glyph-name="uni2196" unicode="&#x2196;" horiz-adv-x="688" d="M661 160 L278 541 L427 539 L427 663 L67 659 L65 300 L193 300 L188 441 L565 64 L661 160 Z " />
<glyph glyph-name="uni2197" unicode="&#x2197;" horiz-adv-x="688" d="M625 300 L624 659 L264 663 L264 539 L413 541 L30 160 L126 64 L503 442 L498 300 L625 300 Z " />
<glyph glyph-name="uni2198" unicode="&#x2198;" horiz-adv-x="695" d="M505 450 L508 301 L126 684 L30 588 L407 211 L266 216 L266 88 L625 90 L629 450 L505 450 Z " />
<glyph glyph-name="uni2199" unicode="&#x2199;" horiz-adv-x="695" d="M664 588 L569 684 L187 302 L190 450 L65 450 L69 90 L429 88 L429 216 L287 211 L664 588 Z " />
<glyph glyph-name="partialdiff" unicode="&#x2202;" horiz-adv-x="663" d="M337 723 C256 723 175 690 127 648 L226 541 C252 562 295 580 331 580 C411 580 431 487 433 393 C403 430 360 455 298 455 C190 455 60 376 66 222 C70 94 141 -15 299 -15 C510 -15 598 170 598 381 C598 580 506 723 337 723 L337 723 Z M314 129 C244 129 235 186 237 222 C240 269 270 323 324 323 C362 323 401 295 423 253 C409 180 377 129 314 129 L314 129 Z " />
<glyph glyph-name="emptyset" unicode="&#x2205;" horiz-adv-x="670" d="M576 459 L635 518 L574 578 L513 517 C464 549 404 566 337 566 C164 566 38 454 38 274 C38 203 58 143 92 96 L34 38 L94 -23 L154 37 C203 3 266 -16 337 -16 C549 -16 636 137 636 274 C636 348 614 411 576 459 L576 459 Z M188 274 C188 358 238 447 337 447 C369 447 396 438 418 422 L200 204 C192 226 188 250 188 274 L188 274 Z M337 103 C302 103 272 114 250 133 L471 354 C482 329 487 301 487 274 C487 191 433 103 337 103 L337 103 Z " />
<glyph glyph-name="product" unicode="&#x220f;" horiz-adv-x="667" d="M592 774 L84 774 L84 610 L97 610 L97 0 L276 0 L276 610 L399 610 L399 0 L578 0 L578 610 L592 610 L592 774 Z " />
<glyph glyph-name="summation" unicode="&#x2211;" horiz-adv-x="578" d="M522 680 L85 680 L85 534 L237 261 L86 -14 L85 -14 L85 -160 L522 -160 L522 9 L259 -5 L406 262 L259 525 L522 511 L522 680 Z " />
<glyph glyph-name="minus" unicode="&#x2212;" horiz-adv-x="584" d="M501 490 L501 336 L82 336 L82 489 L501 490 Z " />
<glyph glyph-name="infinity" unicode="&#x221e;" horiz-adv-x="811" d="M558 523 C485 523 441 489 408 443 C368 498 317 523 254 523 C144 523 66 447 66 342 C66 237 144 162 244 162 C313 162 365 197 405 245 C452 186 510 162 568 162 C671 162 744 237 744 340 C744 446 668 523 558 523 L558 523 Z M238 272 C198 272 166 298 166 342 C166 386 200 413 254 413 C295 413 323 397 348 343 C314 292 276 272 238 272 L238 272 Z M570 272 C540 272 500 283 465 338 C495 392 512 413 557 413 C612 413 644 385 644 341 C644 299 615 272 570 272 L570 272 Z " />
<glyph glyph-name="integral" unicode="&#x222b;" horiz-adv-x="448" d="M-20 -300 L-8 -300 C185 -300 282 -203 282 -11 L282 521 C282 581 315 614 375 614 L403 614 L403 773 L392 773 C199 773 103 676 103 484 L103 -48 C103 -108 69 -141 9 -141 L-20 -141 L-20 -300 Z " />
<glyph glyph-name="approxequal" unicode="&#x2248;" horiz-adv-x="657" d="M206 436 C206 473 214 499 254 499 C305 499 330 430 415 430 C488 430 561 476 561 599 L454 599 C454 564 446 540 414 540 C355 540 331 603 251 603 C177 603 97 545 97 436 L206 436 Z M206 237 C206 274 214 300 254 300 C307 300 332 231 415 231 C488 231 561 276 561 400 L454 400 C454 365 446 341 414 341 C355 341 331 404 251 404 C177 404 97 346 97 237 L206 237 Z " />
<glyph glyph-name="notequal" unicode="&#x2260;" horiz-adv-x="629" d="M507 443 L507 579 L448 579 L496 671 L423 712 L353 579 L97 578 L97 443 L281 443 L240 365 L97 365 L97 229 L169 229 L115 127 L189 86 L264 229 L507 229 L507 365 L335 365 L376 443 L507 443 Z " />
<glyph glyph-name="lessequal" unicode="&#x2264;" horiz-adv-x="550" d="M470 316 L209 358 L465 412 L440 538 L99 439 L99 272 L440 194 L470 316 Z M99 155 L99 48 L485 48 L485 154 L99 155 Z " />
<glyph glyph-name="greaterequal" unicode="&#x2265;" horiz-adv-x="550" d="M110 538 L84 412 L340 358 L79 316 L110 194 L450 272 L450 439 L110 538 Z M64 48 L450 48 L450 155 L65 154 L64 48 Z " />
<glyph glyph-name="lozenge" unicode="&#x25ca;" horiz-adv-x="692" d="M371 680 L322 680 L75 334 L322 0 L371 0 L619 334 L371 680 Z M352 176 L341 176 L240 335 L343 504 L350 504 L454 336 L352 176 Z " />
<glyph glyph-name="uni2605" unicode="&#x2605;" horiz-adv-x="744" d="M372 212 L197 144 L207 330 L91 474 L270 526 L372 680 L473 526 L653 474 L535 330 L547 144 L372 212 Z " />
<glyph glyph-name="uni2606" unicode="&#x2606;" horiz-adv-x="744" d="M372 212 L197 144 L207 330 L91 474 L270 526 L372 680 L473 526 L653 474 L535 330 L547 144 L372 212 Z M372 319 L441 294 L440 367 L484 426 L413 449 L372 508 L330 449 L259 426 L303 367 L302 294 L372 319 Z " />
<glyph glyph-name="uni2C6D" unicode="&#x2c6d;" horiz-adv-x="956" d="M887 148 C842 139 813 150 813 201 L813 773 L640 773 L640 687 C587 753 506 791 391 791 C190 791 59 621 59 387 C59 152 196 -18 391 -18 C515 -18 598 25 650 98 C682 -23 791 -30 913 14 L887 148 Z M438 144 C303 144 235 250 235 387 C235 522 302 631 438 631 C567 631 640 530 640 387 C640 249 573 144 438 144 L438 144 Z " />
<glyph glyph-name="uni3012" unicode="&#x3012;" horiz-adv-x="707" d="M38 773 L38 613 L666 613 L666 773 L38 773 Z M38 367 L266 367 L266 0 L439 0 L439 367 L666 367 L666 527 L38 527 L38 367 Z " />
</font>
</defs>
</svg>
