<svg xmlns="http://www.w3.org/2000/svg">
<defs>
<font id="Halcyon Regular Italic">
<font-face  font-family="Halcyon" units-per-em="1200" ascent="860" descent="-475" font-style="italic" font-weight="500" font-stretch="normal" slope="-10" cap-height="773" x-height="550" underline-position="-75" underline-thickness="50" />

<glyph glyph-name="NULL" d="" />
<glyph glyph-name="CR" unicode="&#xd;" horiz-adv-x="300" d="" />
<glyph glyph-name="space" unicode="&#x20;" horiz-adv-x="281" d="" />
<glyph glyph-name="exclam" unicode="&#x21;" horiz-adv-x="304" d="M171 229 L126 229 L180 567 L238 860 L318 860 L254 569 L171 229 Z M122 104 C152 104 169 85 169 56 C169 16 138 -17 97 -17 C69 -17 53 3 53 31 C53 74 82 104 122 104 L122 104 Z " />
<glyph glyph-name="quotedbl" unicode="&#x22;" horiz-adv-x="252" d="M144 619 L97 619 L129 860 L203 860 L144 619 Z M269 619 L223 619 L254 860 L329 860 L269 619 Z " />
<glyph glyph-name="numbersign" unicode="&#x23;" horiz-adv-x="669" d="M647 428 L661 491 L573 491 L656 680 L589 680 L506 491 L320 491 L402 680 L336 680 L253 491 L133 491 L119 429 L226 429 L147 249 L43 249 L30 187 L120 187 L38 0 L106 0 L187 187 L373 186 L291 0 L358 0 L440 186 L559 186 L571 249 L467 249 L546 428 L647 428 Z M400 249 L214 249 L293 429 L479 428 L400 249 Z " />
<glyph glyph-name="dollar" unicode="&#x24;" horiz-adv-x="590" d="M346 373 L377 551 C415 543 450 522 469 498 L523 540 C493 578 443 605 388 611 L400 680 L349 680 L337 612 C229 604 152 547 152 466 C152 386 221 356 288 329 L252 126 C194 130 150 153 123 195 L71 151 C104 101 168 69 241 64 L230 0 L281 0 L292 64 C400 74 487 134 487 233 C487 314 415 346 346 373 L346 373 Z M221 468 C221 514 267 545 327 552 L299 392 C255 410 221 431 221 468 L221 468 Z M303 127 L335 310 C380 291 415 268 415 225 C415 171 367 136 303 127 L303 127 Z " />
<glyph glyph-name="percent" unicode="&#x25;" horiz-adv-x="796" d="M188 -11 L135 19 L641 789 L694 759 L188 -11 Z M305 784 C388 784 441 727 441 641 C441 537 367 434 244 434 C159 434 108 491 108 577 C108 698 194 784 305 784 L305 784 Z M293 723 C224 723 177 660 177 586 C177 536 204 496 254 496 C322 496 370 560 370 632 C370 684 344 723 293 723 L293 723 Z M590 335 C675 335 726 279 726 192 C726 88 654 -15 530 -15 C446 -15 394 42 394 128 C394 249 481 335 590 335 L590 335 Z M580 274 C512 274 465 211 465 138 C465 87 491 47 541 47 C609 47 657 110 657 183 C657 235 631 274 580 274 L580 274 Z " />
<glyph glyph-name="ampersand" unicode="&#x26;" horiz-adv-x="1056" d="M1023 472 L710 472 L656 415 C693 374 711 337 711 279 C711 147 597 39 452 40 C359 40 285 76 239 136 L887 731 L849 774 L566 514 C583 556 593 600 593 644 C593 717 566 793 447 793 C252 794 106 559 106 322 C106 252 124 189 156 137 L26 18 L64 -25 L190 91 C251 23 342 -18 450 -18 C644 -18 789 117 789 283 C789 338 778 378 758 412 L1012 412 L1023 472 Z M183 318 C182 525 299 736 442 737 C507 737 524 686 524 629 C524 539 471 435 380 344 L209 186 C192 225 183 269 183 318 L183 318 Z " />
<glyph glyph-name="quotesingle" unicode="&#x27;" horiz-adv-x="111" d="M137 619 L90 619 L122 860 L196 860 L137 619 Z " />
<glyph glyph-name="parenleft" unicode="&#x28;" horiz-adv-x="347" d="M442 823 C280 671 181 434 181 206 C181 81 207 -58 267 -141 L212 -178 C144 -88 108 52 108 197 C108 452 211 692 399 860 L442 823 Z " />
<glyph glyph-name="parenright" unicode="&#x29;" horiz-adv-x="342" d="M193 823 L250 860 C320 768 355 622 355 477 C355 225 255 -11 70 -178 L27 -141 C193 14 282 248 282 459 C282 594 254 738 193 823 L193 823 Z " />
<glyph glyph-name="asterisk" unicode="&#x2a;" horiz-adv-x="470" d="M138 475 L183 436 L286 557 L345 436 L405 475 L328 588 L465 630 L451 690 L323 634 L357 775 L291 775 L275 634 L167 690 L131 630 L253 588 L138 475 Z " />
<glyph glyph-name="plus" unicode="&#x2b;" horiz-adv-x="635" d="M568 349 L367 349 L403 551 L327 551 L292 350 L92 350 L80 277 L279 277 L242 65 L317 65 L355 277 L555 277 L568 349 Z " />
<glyph glyph-name="comma" unicode="&#x2c;" horiz-adv-x="265" d="M95 114 C127 114 147 93 147 53 C147 -13 104 -87 17 -147 C11 -140 -1 -126 -5 -120 C41 -84 73 -49 82 -14 C75 -16 70 -16 66 -16 C35 -16 15 5 15 37 C15 80 51 114 95 114 L95 114 Z " />
<glyph glyph-name="hyphen" unicode="&#x2d;" horiz-adv-x="483" d="M416 340 L402 271 L77 271 L91 340 L416 340 Z " />
<glyph glyph-name="period" unicode="&#x2e;" horiz-adv-x="271" d="M108 114 C139 114 158 93 158 62 C158 21 125 -16 82 -16 C51 -16 33 6 33 37 C33 82 65 114 108 114 L108 114 Z " />
<glyph glyph-name="slash" unicode="&#x2f;" horiz-adv-x="550" d="M58 -83 L-23 -83 L495 742 L575 742 L58 -83 Z " />
<glyph glyph-name="zero" unicode="0" horiz-adv-x="735" d="M317 -14 C165 -14 86 108 86 268 C86 495 230 697 441 697 C593 697 674 576 674 415 C674 188 528 -14 317 -14 L317 -14 Z M429 627 C275 627 164 467 164 275 C164 156 214 57 329 57 C475 57 596 202 596 407 C596 526 544 627 429 627 L429 627 Z " />
<glyph glyph-name="one" unicode="1" horiz-adv-x="428" d="M318 680 L120 616 L133 548 L275 597 L171 0 L249 0 L369 680 L318 680 Z " />
<glyph glyph-name="two" unicode="2" horiz-adv-x="648" d="M354 213 C475 298 593 392 593 521 C593 625 511 697 383 697 C273 697 180 647 125 566 L178 523 C214 583 285 627 370 627 C454 627 514 579 514 505 C514 406 425 346 311 263 L43 70 L30 0 L510 0 L524 75 L156 71 L354 213 Z " />
<glyph glyph-name="three" unicode="3" horiz-adv-x="628" d="M583 680 L149 680 L136 605 L467 608 L201 398 L220 340 C254 347 289 349 311 349 C406 349 454 295 454 226 C454 135 380 56 259 56 C177 56 121 94 106 149 L39 108 C59 37 134 -14 246 -14 C427 -14 533 99 533 231 C533 335 457 407 327 407 L317 407 L571 609 L583 680 Z " />
<glyph glyph-name="four" unicode="4" horiz-adv-x="651" d="M581 268 L492 268 L564 680 L490 680 L61 268 L63 196 L406 196 L372 0 L445 0 L479 196 L568 196 L581 268 Z M151 268 L472 576 L419 268 L151 268 Z " />
<glyph glyph-name="five" unicode="5" horiz-adv-x="627" d="M563 605 L576 680 L204 680 L123 366 L180 328 C209 350 252 372 317 372 C418 372 464 320 464 242 C464 138 386 55 266 55 C181 55 125 97 106 162 L44 119 C66 42 138 -14 257 -14 C431 -14 541 105 541 249 C541 362 462 435 339 435 C285 435 242 425 207 411 L258 608 L563 605 Z " />
<glyph glyph-name="six" unicode="6" horiz-adv-x="655" d="M374 439 C283 439 215 398 167 350 C192 488 267 626 413 626 C480 626 523 594 544 572 L605 625 C570 666 503 697 426 697 C220 697 83 497 83 242 C83 93 146 -14 294 -14 C447 -14 543 94 564 215 C589 361 501 439 374 439 L374 439 Z M485 215 C471 133 411 58 303 58 C192 58 158 149 158 246 L158 265 C196 312 263 369 357 369 C465 369 500 298 485 215 L485 215 Z " />
<glyph glyph-name="seven" unicode="7" horiz-adv-x="557" d="M122 680 L108 603 L493 608 L88 0 L174 0 L573 609 L586 680 L122 680 Z " />
<glyph glyph-name="eight" unicode="8" horiz-adv-x="659" d="M471 355 C554 391 609 459 609 537 C609 635 526 697 402 697 C249 697 132 613 132 485 C132 425 165 382 214 356 C124 323 53 255 53 156 C53 51 143 -14 279 -14 C472 -14 574 97 574 210 C574 279 531 328 471 355 L471 355 Z M391 630 C492 630 533 591 533 528 C533 446 460 385 348 385 C256 385 207 429 207 490 C207 576 282 630 391 630 L391 630 Z M291 57 C188 57 131 98 131 168 C131 254 210 319 337 319 C440 319 497 273 497 207 C497 114 419 57 291 57 L291 57 Z " />
<glyph glyph-name="nine" unicode="9" horiz-adv-x="659" d="M393 698 C223 698 134 586 113 468 C87 324 174 243 298 243 C394 243 466 286 514 331 C488 197 410 55 264 55 C189 55 144 93 124 112 L70 59 C104 22 172 -13 254 -13 C464 -13 600 201 600 435 C600 584 540 698 393 698 L393 698 Z M311 304 C219 304 173 379 189 468 C204 556 270 629 382 629 C483 629 525 551 525 436 C525 428 525 419 524 411 C474 350 394 304 311 304 L311 304 Z " />
<glyph glyph-name="colon" unicode="&#x3a;" horiz-adv-x="272" d="M170 435 C200 435 219 414 219 383 C219 342 186 305 143 305 C112 305 94 327 94 358 C94 403 127 435 170 435 L170 435 Z M105 114 C136 114 155 93 155 62 C155 20 122 -17 79 -17 C48 -17 30 6 30 36 C30 81 62 114 105 114 L105 114 Z " />
<glyph glyph-name="semicolon" unicode="&#x3b;" horiz-adv-x="253" d="M144 435 C174 435 194 414 194 383 C194 342 163 305 119 305 C88 305 70 327 70 358 C70 403 101 435 144 435 L144 435 Z M82 114 C114 114 134 93 134 53 C134 -13 91 -87 4 -147 L-18 -120 C28 -84 60 -49 69 -14 C62 -16 57 -16 53 -16 C22 -16 3 5 3 37 C3 80 38 114 82 114 L82 114 Z " />
<glyph glyph-name="less" unicode="&#x3c;" horiz-adv-x="517" d="M473 471 L452 536 L78 349 L65 273 L64 265 L372 78 L416 143 L136 307 L473 471 Z " />
<glyph glyph-name="equal" unicode="&#x3d;" horiz-adv-x="600" d="M532 430 L520 361 L110 361 L122 431 L532 430 Z M501 252 L488 183 L78 183 L90 253 L501 252 Z " />
<glyph glyph-name="greater" unicode="&#x3e;" horiz-adv-x="517" d="M462 349 L153 536 L110 471 L390 308 L53 143 L73 78 L448 265 L462 349 Z " />
<glyph glyph-name="question" unicode="&#x3f;" horiz-adv-x="650" d="M656 666 C656 780 582 870 443 870 C315 870 205 798 150 735 L202 691 C245 738 327 800 428 800 C527 800 577 734 577 654 C577 531 467 413 286 413 L267 231 L330 231 L365 355 C525 378 656 507 656 666 L656 666 Z M279 110 C237 110 204 79 204 34 C204 4 222 -16 254 -16 C296 -16 326 19 326 60 C326 90 309 110 279 110 L279 110 Z " />
<glyph glyph-name="at" unicode="&#x40;" horiz-adv-x="837" d="M491 697 C275 697 77 537 77 279 C77 112 178 -17 367 -17 C445 -17 521 5 586 47 L565 90 C510 55 443 35 376 35 C224 35 129 134 129 284 C129 520 306 645 481 645 C635 645 729 547 729 396 C729 293 702 209 623 209 C591 209 576 234 581 266 L622 498 L588 498 L567 456 L564 437 C546 487 503 519 438 519 C318 519 242 424 242 309 C242 224 290 167 377 167 C444 167 498 196 531 242 C531 188 567 157 618 157 C747 157 782 288 782 403 C782 575 674 697 491 697 L491 697 Z M398 217 C334 217 298 257 298 318 C298 404 355 468 443 468 C506 468 542 428 542 367 C542 280 483 217 398 217 L398 217 Z " />
<glyph glyph-name="A" unicode="A" horiz-adv-x="795" d="M633 0 L714 0 L527 773 L442 773 L-14 0 L67 0 L188 208 L584 208 L633 0 Z M232 283 L470 692 L566 283 L232 283 Z " />
<glyph glyph-name="B" unicode="B" horiz-adv-x="745" d="M568 411 C604 421 683 495 683 607 C683 705 624 773 525 773 L195 773 L60 0 L420 0 C558 0 667 112 667 250 C667 326 629 391 568 411 L568 411 Z M509 700 C565 700 613 660 613 591 C613 509 558 438 481 438 L212 438 L258 700 L509 700 Z M422 73 L149 73 L200 365 L479 365 C549 365 594 316 594 245 C594 148 513 73 422 73 L422 73 Z " />
<glyph glyph-name="C" unicode="C" horiz-adv-x="805" d="M816 641 L746 596 C703 673 625 717 527 717 C319 717 161 548 161 322 C161 164 252 55 411 55 C508 55 602 98 670 174 L725 129 C639 33 518 -19 397 -19 C201 -19 84 117 84 311 C84 583 282 791 540 791 C662 791 764 737 816 641 L816 641 Z " />
<glyph glyph-name="D" unicode="D" horiz-adv-x="845" d="M518 773 L195 773 L60 0 L383 0 C619 0 802 214 802 461 C802 641 697 773 518 773 L518 773 Z M396 74 L150 74 L259 699 L505 699 C646 699 723 593 723 451 C723 252 581 74 396 74 L396 74 Z " />
<glyph glyph-name="E" unicode="E" horiz-adv-x="677" d="M682 700 L695 773 L195 773 L60 0 L560 0 L573 73 L149 73 L199 363 L510 363 L523 437 L212 437 L258 700 L682 700 Z " />
<glyph glyph-name="F" unicode="F" horiz-adv-x="667" d="M674 699 L687 773 L195 773 L60 0 L137 0 L200 358 L501 358 L515 432 L212 432 L259 699 L674 699 Z " />
<glyph glyph-name="G" unicode="G" horiz-adv-x="845" d="M767 382 L500 382 L487 308 L674 308 L650 163 C585 94 503 58 409 58 C252 58 162 167 162 324 C162 552 319 719 521 719 C622 719 706 674 744 595 L812 640 C763 739 660 793 534 793 C281 793 84 585 84 313 C84 120 199 -17 395 -17 C520 -17 637 36 724 136 L767 382 Z " />
<glyph glyph-name="H" unicode="H" horiz-adv-x="853" d="M755 773 L694 424 L211 424 L272 773 L195 773 L60 0 L137 0 L198 349 L681 349 L620 0 L697 0 L832 773 L755 773 Z " />
<glyph glyph-name="I" unicode="I" horiz-adv-x="291" d="M137 0 L60 0 L195 773 L272 773 L137 0 Z " />
<glyph glyph-name="J" unicode="J" horiz-adv-x="659" d="M16 97 L81 140 C112 84 165 54 236 54 C362 54 454 151 481 304 L563 773 L641 773 L558 300 C527 122 412 -18 226 -18 C126 -18 52 27 16 97 L16 97 Z " />
<glyph glyph-name="K" unicode="K" horiz-adv-x="711" d="M753 773 L657 773 L312 424 L211 424 L272 773 L195 773 L60 0 L137 0 L198 349 L299 349 L540 0 L641 0 L369 387 L753 773 Z " />
<glyph glyph-name="L" unicode="L" horiz-adv-x="643" d="M150 74 L272 773 L195 773 L60 0 L547 0 L560 74 L150 74 Z " />
<glyph glyph-name="M" unicode="M" horiz-adv-x="976" d="M844 772 L460 115 L307 772 L214 772 L29 0 L106 0 L261 637 L413 0 L467 0 L844 643 L775 0 L851 0 L936 772 L844 772 Z " />
<glyph glyph-name="N" unicode="N" horiz-adv-x="885" d="M791 773 L694 215 C646 292 568 354 488 418 C365 516 241 614 268 772 L268 773 L190 773 L55 0 L133 0 L231 561 C279 482 358 419 435 357 C560 257 684 159 656 0 L734 0 L869 773 L791 773 Z " />
<glyph glyph-name="O" unicode="O" horiz-adv-x="894" d="M537 792 C733 792 848 657 848 462 C848 190 652 -19 395 -19 C199 -19 84 118 84 311 C84 583 279 792 537 792 L537 792 Z M524 718 C317 718 161 549 161 322 C161 165 250 56 408 56 C617 56 771 227 771 449 C771 607 680 718 524 718 L524 718 Z " />
<glyph glyph-name="P" unicode="P" horiz-adv-x="731" d="M467 772 L195 772 L60 0 L137 0 L183 261 L378 261 C583 261 718 371 718 562 C718 695 625 772 467 772 L467 772 Z M390 334 L195 334 L259 699 L454 699 C566 699 639 651 639 550 C639 403 535 334 390 334 L390 334 Z " />
<glyph glyph-name="Q" unicode="Q" horiz-adv-x="908" d="M571 -196 C491 -196 445 -124 368 -105 L577 21 C739 92 847 260 847 463 C847 658 733 792 536 792 C276 792 84 585 84 313 C84 119 198 -17 394 -17 L395 -17 L111 -188 L151 -236 L170 -224 C218 -197 270 -171 313 -171 C412 -171 450 -267 560 -267 C611 -267 673 -252 758 -179 L720 -132 C672 -172 622 -196 571 -196 L571 -196 Z M162 323 C162 548 312 718 523 718 C682 718 769 611 769 454 C769 227 623 58 407 58 C250 58 162 166 162 323 L162 323 Z " />
<glyph glyph-name="R" unicode="R" horiz-adv-x="719" d="M736 573 C736 700 642 773 482 773 L195 773 L60 0 L137 0 L188 294 L399 294 L420 294 L551 0 L640 0 L500 303 C645 332 736 427 736 573 L736 573 Z M412 366 L201 366 L259 700 L469 700 C583 700 658 657 658 562 C658 426 555 366 412 366 L412 366 Z " />
<glyph glyph-name="S" unicode="S" horiz-adv-x="739" d="M34 109 L101 161 C150 97 231 58 348 58 C494 58 575 117 575 209 C575 414 155 331 155 573 C155 717 315 793 469 793 C566 793 661 763 715 685 L651 637 C609 700 530 720 454 720 C332 720 242 664 242 580 C242 402 665 471 665 219 C665 77 530 -15 345 -15 C219 -15 92 34 34 109 L34 109 Z " />
<glyph glyph-name="T" unicode="T" horiz-adv-x="711" d="M756 773 L128 773 L116 699 L392 699 L269 0 L345 0 L468 699 L744 699 L756 773 Z " />
<glyph glyph-name="U" unicode="U" horiz-adv-x="842" d="M826 773 L748 326 C712 122 568 -18 369 -18 C170 -18 76 122 112 326 L190 773 L267 773 L189 330 C159 158 237 52 381 52 C521 52 641 153 671 330 L749 773 L826 773 Z " />
<glyph glyph-name="V" unicode="V" horiz-adv-x="766" d="M820 772 L736 772 L350 80 L206 772 L122 772 L292 0 L380 0 L820 772 Z " />
<glyph glyph-name="W" unicode="W" horiz-adv-x="987" d="M951 773 L694 129 L611 740 L544 740 L240 130 L209 773 L130 773 L173 0 L251 0 L554 618 L637 0 L715 0 L1032 773 L951 773 Z " />
<glyph glyph-name="X" unicode="X" horiz-adv-x="680" d="M-15 0 L316 394 L129 773 L221 773 L373 462 L630 773 L722 773 L407 394 L601 0 L508 0 L349 324 L77 0 L-15 0 Z " />
<glyph glyph-name="Y" unicode="Y" horiz-adv-x="720" d="M777 773 L690 773 L372 343 L205 773 L119 773 L321 277 L273 0 L351 0 L399 276 L777 773 Z " />
<glyph glyph-name="Z" unicode="Z" horiz-adv-x="759" d="M786 772 L153 772 L139 697 L651 699 L25 39 L18 0 L651 0 L665 75 L150 73 L779 736 L786 772 Z " />
<glyph glyph-name="bracketleft" unicode="&#x5b;" horiz-adv-x="344" d="M429 823 L418 760 L296 760 L148 -76 L270 -76 L259 -139 L69 -139 L239 823 L429 823 Z " />
<glyph glyph-name="backslash" unicode="&#x5c;" horiz-adv-x="512" d="M439 14 L363 -18 L130 855 L207 888 L439 14 Z " />
<glyph glyph-name="bracketright" unicode="&#x5d;" horiz-adv-x="344" d="M205 823 L395 823 L225 -139 L35 -139 L47 -76 L169 -76 L316 760 L194 760 L205 823 Z " />
<glyph glyph-name="asciicircum" unicode="&#x5e;" horiz-adv-x="566" d="M547 434 L412 773 L328 773 L73 434 L132 401 L359 711 L476 402 L547 434 Z " />
<glyph glyph-name="underscore" unicode="&#x5f;" horiz-adv-x="512" d="M430 -40 L417 -103 L-42 -103 L-29 -40 L430 -40 Z " />
<glyph glyph-name="grave" unicode="&#x60;" horiz-adv-x="485" d="M394 619 L419 655 L252 780 L207 712 L394 619 Z " />
<glyph glyph-name="a" unicode="a" horiz-adv-x="754" d="M660 70 C591 53 569 64 579 115 L654 550 L579 550 L560 439 C533 517 470 566 372 566 C192 566 59 416 59 217 C59 79 137 -16 274 -16 C373 -16 449 28 500 95 C491 17 531 -37 662 8 L660 70 Z M298 55 C195 55 137 127 137 232 C137 381 236 495 374 495 C476 495 534 423 534 319 C534 306 533 293 532 280 L526 247 C500 134 411 55 298 55 L298 55 Z " />
<glyph glyph-name="b" unicode="b" horiz-adv-x="697" d="M424 566 C327 566 257 528 209 469 L278 860 L202 860 L52 0 L120 0 L138 63 L145 100 C171 29 228 -16 322 -16 C518 -16 638 142 638 335 C638 472 564 566 424 566 L424 566 Z M327 55 C221 55 171 125 171 226 C171 237 171 248 172 259 L183 320 C212 423 289 495 404 495 C510 495 560 425 560 324 C560 174 477 55 327 55 L327 55 Z " />
<glyph glyph-name="c" unicode="c" horiz-adv-x="615" d="M59 224 C59 413 203 566 396 566 C490 566 566 527 604 457 L538 417 C509 469 453 496 385 496 C239 496 135 378 135 237 C135 129 199 52 308 52 C374 52 438 79 487 133 L541 92 C479 23 391 -16 296 -16 C148 -16 59 78 59 224 L59 224 Z " />
<glyph glyph-name="d" unicode="d" horiz-adv-x="698" d="M624 860 L552 452 C527 520 472 566 376 566 C185 566 60 415 60 217 C60 82 131 -16 273 -16 C367 -16 438 21 487 81 L484 63 L481 0 L549 0 L700 860 L624 860 Z M294 55 C188 55 137 125 137 227 C137 376 221 495 371 495 C476 495 528 425 528 324 L528 313 L510 211 C478 118 403 55 294 55 L294 55 Z " />
<glyph glyph-name="e" unicode="e" horiz-adv-x="632" d="M295 51 C215 51 140 89 131 191 C292 194 580 223 580 430 C580 517 502 566 400 566 C209 566 56 406 56 203 C56 48 162 -16 283 -16 C377 -16 471 22 535 85 L495 133 C461 101 381 51 295 51 L295 51 Z M392 499 C467 499 509 464 509 419 C509 281 254 262 134 261 C154 386 250 499 392 499 L392 499 Z " />
<glyph glyph-name="f" unicode="f" horiz-adv-x="456" d="M519 773 L531 840 C421 888 247 857 208 646 L191 550 L95 550 L82 478 L179 478 L54 -242 L130 -242 L255 478 L458 478 L471 550 L267 550 L285 652 C310 795 417 817 519 773 L519 773 Z " />
<glyph glyph-name="g" unicode="g" horiz-adv-x="698" d="M584 550 L557 458 L556 451 C530 521 474 566 376 566 C187 566 63 418 63 223 C63 93 134 -4 277 -4 C374 -4 445 33 492 91 L480 22 C453 -131 359 -228 231 -228 C159 -228 105 -198 73 -141 L6 -185 C44 -255 118 -300 222 -300 C408 -300 525 -159 556 19 L649 550 L584 550 Z M298 67 C192 67 141 136 141 235 C141 380 224 495 374 495 C478 495 530 426 530 326 C530 317 530 308 529 300 L517 234 C489 136 412 67 298 67 L298 67 Z " />
<glyph glyph-name="h" unicode="h" horiz-adv-x="664" d="M422 566 C327 566 254 507 206 444 L277 849 L200 849 L51 0 L128 0 L187 337 C243 423 316 491 398 491 C489 491 524 439 504 328 L446 0 L524 0 L581 326 C612 504 538 566 422 566 L422 566 Z " />
<glyph glyph-name="i" unicode="i" horiz-adv-x="326" d="M236 860 C268 860 288 839 288 808 C288 765 256 732 214 732 C183 732 165 753 165 784 C165 829 195 860 236 860 L236 860 Z M232 70 L234 8 C98 -39 60 22 73 105 L151 550 L226 550 L151 115 C141 64 163 53 232 70 L232 70 Z " />
<glyph glyph-name="j" unicode="j" horiz-adv-x="285" d="M240 860 C272 860 291 839 291 807 C291 766 260 731 218 731 C187 731 169 752 169 784 C169 828 200 860 240 860 L240 860 Z M242 550 L142 -21 C117 -164 20 -258 -90 -308 L-110 -244 C-110 -244 37 -180 64 -26 L164 550 L242 550 Z " />
<glyph glyph-name="k" unicode="k" horiz-adv-x="604" d="M344 280 L601 550 L505 550 L275 314 C266 315 255 316 244 316 L183 316 L272 820 L195 820 L51 0 L128 0 L170 241 L226 241 C377 241 289 0 534 0 L547 74 C390 74 410 213 344 280 L344 280 Z " />
<glyph glyph-name="l" unicode="l" horiz-adv-x="310" d="M230 68 L231 4 C95 -42 56 18 69 102 L198 835 L274 835 L148 112 C138 62 160 51 230 68 L230 68 Z " />
<glyph glyph-name="m" unicode="m" horiz-adv-x="1037" d="M799 566 C698 566 623 497 575 429 C565 529 501 566 412 566 C320 566 250 509 202 448 L202 450 L206 550 L142 550 L46 0 L123 0 L183 344 C238 429 310 494 389 494 C480 494 513 442 494 330 L436 0 L512 0 L569 326 L572 347 C627 430 698 494 777 494 C867 494 901 442 881 330 L823 0 L899 0 L956 326 C987 504 914 566 799 566 L799 566 Z " />
<glyph glyph-name="n" unicode="n" horiz-adv-x="659" d="M417 566 C324 566 251 509 202 448 L202 450 L206 550 L142 550 L46 0 L123 0 L182 338 L183 337 C238 423 311 491 393 491 C484 491 519 439 499 328 L442 0 L519 0 L576 326 C607 504 533 566 417 566 L417 566 Z " />
<glyph glyph-name="o" unicode="o" horiz-adv-x="696" d="M399 566 C545 566 636 470 636 327 C636 138 497 -16 297 -16 C149 -16 60 82 60 223 C60 421 206 566 399 566 L399 566 Z M387 495 C241 495 138 379 138 234 C138 130 199 55 309 55 C454 55 557 171 557 316 C557 420 496 495 387 495 L387 495 Z " />
<glyph glyph-name="p" unicode="p" horiz-adv-x="698" d="M424 566 C328 566 255 527 206 464 L210 487 L213 550 L145 550 L-4 -300 L72 -300 L143 104 C167 32 222 -16 322 -16 C513 -16 639 135 639 333 C639 468 567 566 424 566 L424 566 Z M327 55 C221 55 170 125 170 226 C170 246 172 266 174 284 L176 296 C199 412 279 495 402 495 C509 495 561 425 561 323 C561 173 475 55 327 55 L327 55 Z " />
<glyph glyph-name="q" unicode="q" horiz-adv-x="693" d="M577 550 L559 487 L552 448 C527 520 469 566 374 566 C179 566 59 408 59 215 C59 78 132 -16 273 -16 C371 -16 440 22 487 80 L420 -300 L496 -300 L645 550 L577 550 Z M293 55 C188 55 136 125 136 227 C136 376 220 495 370 495 C475 495 527 425 527 324 C527 317 527 310 526 303 L512 218 C481 121 405 55 293 55 L293 55 Z " />
<glyph glyph-name="r" unicode="r" horiz-adv-x="463" d="M386 566 C299 566 239 506 199 442 L199 443 L205 550 L142 550 L46 0 L122 0 L176 312 C211 399 276 490 361 490 C387 490 407 483 423 473 L470 546 C450 557 420 566 386 566 L386 566 Z " />
<glyph glyph-name="s" unicode="s" horiz-adv-x="567" d="M26 82 L83 129 C118 85 176 56 256 56 C350 56 401 92 401 151 C401 285 112 236 112 408 C112 509 224 566 339 566 C411 566 480 544 520 490 L463 444 C433 486 378 500 327 500 C249 500 193 465 193 413 C193 298 484 337 484 159 C484 58 390 -11 255 -11 C160 -11 68 27 26 82 L26 82 Z " />
<glyph glyph-name="t" unicode="t" horiz-adv-x="476" d="M251 480 L437 480 L452 550 L263 550 L293 723 L216 723 L186 550 L93 550 L81 480 L174 480 L121 177 C94 26 202 -69 385 14 L377 78 C246 18 179 75 197 174 L251 480 Z " />
<glyph glyph-name="u" unicode="u" horiz-adv-x="659" d="M534 550 L474 213 C418 129 349 63 265 63 C174 63 140 115 160 226 L216 550 L138 550 L81 224 C51 46 123 -16 240 -16 C333 -16 404 39 454 99 L452 0 L516 0 L612 550 L534 550 Z " />
<glyph glyph-name="v" unicode="v" horiz-adv-x="650" d="M667 551 L571 551 C490 383 400 215 289 72 C230 213 188 375 161 551 L80 551 C111 348 162 164 234 0 L321 0 C447 163 565 346 667 551 L667 551 Z " />
<glyph glyph-name="w" unicode="w" horiz-adv-x="986" d="M861 550 L801 225 C781 124 731 58 632 58 C551 58 499 111 519 223 L576 550 L498 550 L442 224 C440 214 439 204 438 195 C395 116 328 58 258 58 C171 58 138 110 158 222 L215 550 L138 550 L81 224 C51 46 122 -16 231 -16 C328 -16 397 45 442 109 C462 21 535 -16 618 -16 C773 -16 848 67 881 241 L939 550 L861 550 Z " />
<glyph glyph-name="x" unicode="x" horiz-adv-x="563" d="M87 550 L235 283 L-19 0 L73 0 L272 224 L393 0 L486 0 L331 283 L569 550 L478 550 L294 340 L182 550 L87 550 Z " />
<glyph glyph-name="y" unicode="y" horiz-adv-x="658" d="M533 550 L475 214 C419 129 350 63 266 63 C175 63 140 115 159 226 L216 550 L139 550 L82 224 C52 46 125 -16 241 -16 C336 -16 406 40 456 101 L442 22 C416 -131 321 -228 192 -228 C121 -228 66 -198 35 -141 L-32 -185 C5 -254 80 -300 182 -300 C370 -300 487 -159 518 19 L611 550 L533 550 Z " />
<glyph glyph-name="z" unicode="z" horiz-adv-x="609" d="M574 550 L118 550 L104 475 L466 478 L12 52 L47 0 C211 94 279 -78 511 3 L524 77 C338 12 263 107 150 95 L560 475 L574 550 Z " />
<glyph glyph-name="braceleft" unicode="&#x7b;" horiz-adv-x="372" d="M287 -149 L298 -82 C226 -82 199 -51 214 33 L247 221 C258 283 251 313 197 333 C258 353 276 383 287 445 L320 632 C334 716 372 746 444 746 L457 814 C341 814 271 754 250 637 L215 434 C206 388 188 364 136 364 L113 364 L102 302 L125 302 C177 302 187 278 179 232 L142 27 C121 -90 171 -149 287 -149 L287 -149 Z " />
<glyph glyph-name="bar" unicode="&#x7c;" horiz-adv-x="299" d="M101 -220 L24 -220 L198 773 L275 773 L101 -220 Z " />
<glyph glyph-name="braceright" unicode="&#x7d;" horiz-adv-x="381" d="M202 814 C317 814 366 754 345 637 L309 434 C301 388 310 364 362 364 L385 364 L374 302 L351 302 C299 302 282 278 274 232 L237 27 C216 -90 147 -149 32 -149 L43 -82 C115 -82 153 -51 168 33 L201 221 C212 283 230 313 291 333 C237 353 230 383 241 445 L274 632 C288 716 259 746 189 746 L202 814 Z " />
<glyph glyph-name="asciitilde" unicode="&#x7e;" horiz-adv-x="625" d="M176 341 C182 376 200 407 245 407 C309 407 330 335 415 335 C486 335 550 385 564 468 L493 468 C487 434 470 403 424 403 C362 403 339 474 254 474 C182 474 120 422 105 341 L176 341 Z " />
<glyph glyph-name="exclamdown" unicode="&#xa1;" horiz-adv-x="309" d="M200 522 C175 522 161 540 161 565 C161 602 186 630 222 630 C248 630 263 613 263 588 C263 550 235 522 200 522 L200 522 Z M154 403 L197 403 L139 37 L86 -248 L5 -248 L68 37 L154 403 Z " />
<glyph glyph-name="cent" unicode="&#xa2;" horiz-adv-x="601" d="M309 132 C201 132 148 201 151 303 C156 442 242 541 381 541 C446 541 496 518 523 468 L588 509 C552 571 487 607 404 610 L417 680 L362 680 L349 607 C196 586 85 461 78 301 C71 174 136 84 255 67 L243 0 L299 0 L309 64 C395 67 472 102 527 164 L477 205 C432 156 374 132 309 132 L309 132 Z " />
<glyph glyph-name="sterling" unicode="&#xa3;" horiz-adv-x="625" d="M434 696 C299 696 191 597 165 444 C160 413 154 381 148 349 L77 349 L67 289 L138 289 C123 206 110 127 99 67 L26 58 L16 0 L497 0 L510 71 L175 71 C184 125 199 210 212 289 L441 289 L452 349 L223 349 C229 386 235 419 240 444 C259 549 327 629 427 629 C481 629 525 603 546 557 L604 602 C571 663 514 696 434 696 L434 696 Z " />
<glyph glyph-name="currency" unicode="&#xa4;" horiz-adv-x="606" d="M505 466 L588 536 L553 578 L472 507 C443 534 401 548 351 548 C298 548 251 534 213 510 L158 579 L107 536 L165 470 C126 426 103 366 103 296 C103 263 110 233 122 209 L39 140 L74 97 L154 167 C184 139 226 124 278 124 C331 124 378 138 417 162 L469 97 L520 140 L465 204 C503 247 525 306 525 375 C525 410 518 441 505 466 L505 466 Z M175 305 C175 410 238 482 340 482 C412 482 453 439 453 366 C453 262 389 190 287 190 C215 190 175 234 175 305 L175 305 Z " />
<glyph glyph-name="yen" unicode="&#xa5;" horiz-adv-x="693" d="M733 680 L648 680 L353 313 L187 680 L102 680 L291 281 L177 281 L167 223 L507 223 L517 281 L406 281 L733 680 Z M146 106 L277 106 L259 0 L336 0 L354 106 L486 106 L497 165 L157 165 L146 106 Z " />
<glyph glyph-name="brokenbar" unicode="&#xa6;" horiz-adv-x="300" d="M203 364 L126 364 L199 773 L276 773 L203 364 Z M102 -220 L25 -220 L101 213 L178 213 L102 -220 Z " />
<glyph glyph-name="section" unicode="&#xa7;" horiz-adv-x="597" d="M220 595 C220 681 286 728 379 728 C447 728 498 702 532 648 L593 693 C559 751 482 793 390 793 C269 793 144 723 144 582 C144 525 171 491 210 467 C143 440 94 384 94 298 C94 113 408 180 408 18 C408 -99 295 -116 233 -116 C152 -116 94 -87 54 -28 L0 -81 C44 -140 115 -182 225 -182 C362 -182 487 -119 487 32 C487 91 460 127 421 152 C486 177 539 227 539 323 C539 517 220 437 220 595 L220 595 Z M298 203 C230 226 170 249 170 314 C170 410 264 429 330 419 C400 396 463 371 463 304 C463 207 372 185 298 203 L298 203 Z " />
<glyph glyph-name="dieresis" unicode="&#xa8;" horiz-adv-x="505" d="M239 773 C263 773 279 755 279 730 C279 695 254 668 220 668 C194 668 179 685 179 710 C179 746 204 773 239 773 L239 773 Z M443 773 C467 773 483 755 483 730 C483 695 458 668 424 668 C398 668 383 685 383 710 C383 746 408 773 443 773 L443 773 Z " />
<glyph glyph-name="copyright" unicode="&#xa9;" horiz-adv-x="841" d="M499 733 C668 733 789 618 789 445 C789 206 593 44 379 44 C210 44 89 159 89 332 C89 570 286 733 499 733 L499 733 Z M490 677 C310 677 145 544 145 341 C145 193 247 100 389 100 C568 100 732 233 732 437 C732 583 630 677 490 677 L490 677 Z M268 364 C274 480 357 563 471 563 C530 563 575 537 598 495 L540 461 C527 486 499 503 460 503 C385 503 338 443 335 369 C333 314 361 273 420 273 C458 273 492 289 515 314 L560 280 C525 241 473 213 409 213 C315 213 264 272 268 364 L268 364 Z " />
<glyph glyph-name="ordfeminine" unicode="&#xaa;" horiz-adv-x="446" d="M327 793 C267 793 216 775 177 756 L194 701 C225 717 268 733 316 733 C380 733 421 704 410 640 L404 605 C377 620 336 635 282 635 C181 635 103 580 103 492 C103 430 149 387 234 387 C296 387 343 408 376 441 L378 397 L432 397 L474 636 C493 742 425 793 327 793 L327 793 Z M256 442 C200 442 170 464 170 502 C170 553 215 583 283 583 C334 583 372 568 395 554 L393 543 C379 485 331 442 256 442 L256 442 Z " />
<glyph glyph-name="guillemotleft" unicode="&#xab;" horiz-adv-x="575" d="M328 463 L286 511 L51 277 L203 43 L262 91 L135 277 L328 463 Z M517 463 L475 511 L240 277 L392 43 L452 91 L325 277 L517 463 Z " />
<glyph glyph-name="logicalnot" unicode="&#xac;" horiz-adv-x="657" d="M522 427 L121 428 L110 361 L508 361 L479 194 L548 194 L590 428 L522 427 Z " />
<glyph glyph-name="registered" unicode="&#xae;" horiz-adv-x="511" d="M347 793 C206 793 100 686 100 543 C100 439 165 368 273 368 C414 368 518 480 518 618 C518 723 453 793 347 793 L347 793 Z M279 403 C190 403 140 462 140 547 C140 666 222 756 340 756 C428 756 478 697 478 612 C478 493 395 403 279 403 L279 403 Z M324 694 L250 694 L209 462 L251 462 L265 542 L297 542 L299 542 L332 462 L382 462 L340 546 C387 557 409 586 409 631 C409 670 382 694 324 694 L324 694 Z M303 578 L272 578 L285 657 L317 657 C346 657 366 648 366 624 C366 588 342 578 303 578 L303 578 Z " />
<glyph glyph-name="macron" unicode="&#xaf;" horiz-adv-x="545" d="M170 688 L182 750 L532 750 L520 688 L170 688 Z " />
<glyph glyph-name="degree" unicode="&#xb0;" horiz-adv-x="318" d="M251 793 C310 793 348 755 348 698 C348 625 289 559 208 559 C147 559 111 600 111 658 C111 738 167 793 251 793 L251 793 Z M240 734 C199 734 171 706 171 669 C171 641 190 621 219 621 C259 621 287 653 287 687 C287 715 269 734 240 734 L240 734 Z " />
<glyph glyph-name="plusminus" unicode="&#xb1;" horiz-adv-x="606" d="M371 413 L395 551 L322 551 L298 414 L103 414 L91 344 L286 344 L261 196 L333 196 L359 344 L556 344 L569 413 L371 413 Z M42 65 L507 65 L520 135 L54 135 L42 65 Z " />
<glyph glyph-name="uni00B2" unicode="&#xb2;" horiz-adv-x="366" d="M274 589 C318 623 368 669 368 732 C368 793 318 830 250 830 C195 830 151 805 124 766 L165 726 C182 751 208 774 242 774 C270 774 302 760 302 722 C302 685 274 660 234 627 L116 536 L112 481 L354 481 L359 542 L209 538 L274 589 Z " />
<glyph glyph-name="uni00B3" unicode="&#xb3;" horiz-adv-x="349" d="M356 821 L137 821 L133 758 L271 763 L172 682 L185 635 C199 638 213 639 225 639 C269 639 285 612 285 588 C285 561 266 530 218 530 C189 530 163 543 151 562 L105 525 C119 499 159 474 214 474 C312 474 352 532 352 587 C352 635 317 675 254 680 L353 766 L356 821 Z " />
<glyph glyph-name="acute" unicode="&#xb4;" horiz-adv-x="484" d="M214 619 L432 712 L412 780 L201 655 L214 619 Z " />
<glyph glyph-name="uni00B5" unicode="&#xb5;" horiz-adv-x="659" d="M535 550 L476 216 C421 130 352 63 267 63 C176 63 140 115 159 226 L216 550 L138 550 L81 224 L78 202 L-10 -300 L60 -300 L117 25 C147 -4 190 -16 242 -16 C335 -16 406 40 456 100 L451 0 L516 0 L613 550 L535 550 Z " />
<glyph glyph-name="paragraph" unicode="&#xb6;" horiz-adv-x="802" d="M786 772 L430 772 C225 772 89 660 89 471 C89 336 182 261 341 261 L415 261 L338 -180 L407 -180 L561 698 L703 698 L549 -180 L619 -180 L786 772 Z " />
<glyph glyph-name="periodcentered" unicode="&#xb7;" horiz-adv-x="264" d="M162 436 C187 436 203 418 203 393 C203 357 175 328 140 328 C114 328 99 345 99 370 C99 408 125 436 162 436 L162 436 Z " />
<glyph glyph-name="cedilla" unicode="&#xb8;" horiz-adv-x="460" d="M162 14 L205 7 L188 -50 C216 -52 315 -76 283 -167 C254 -254 128 -259 61 -220 L88 -172 C105 -183 206 -222 228 -160 C250 -98 149 -94 125 -93 L162 14 Z " />
<glyph glyph-name="uni00B9" unicode="&#xb9;" horiz-adv-x="294" d="M239 821 L130 788 L144 733 L209 756 L190 481 L256 481 L280 821 L239 821 Z " />
<glyph glyph-name="ordmasculine" unicode="&#xba;" horiz-adv-x="529" d="M355 793 C458 793 523 727 523 625 C523 498 429 386 284 386 C179 386 116 453 116 553 C116 692 219 793 355 793 L355 793 Z M345 733 C249 733 184 655 184 563 C184 497 222 446 294 446 C390 446 455 525 455 617 C455 683 417 733 345 733 L345 733 Z " />
<glyph glyph-name="guillemotright" unicode="&#xbb;" horiz-adv-x="575" d="M183 511 L124 463 L251 278 L59 91 L100 43 L336 277 L183 511 Z M372 511 L313 463 L440 278 L247 91 L289 43 L524 277 L372 511 Z " />
<glyph glyph-name="onequarter" unicode="&#xbc;" horiz-adv-x="811" d="M750 792 L85 27 L134 -2 L799 761 L750 792 Z M197 705 L150 431 L216 431 L275 771 L234 771 L122 738 L130 683 L197 705 Z M737 340 L677 340 L465 138 L474 81 L632 81 L618 0 L678 0 L692 81 L736 81 L746 138 L702 137 L737 340 Z M528 132 L664 263 L641 135 L528 132 Z " />
<glyph glyph-name="onehalf" unicode="&#xbd;" horiz-adv-x="851" d="M750 792 L85 27 L134 -2 L799 761 L750 792 Z M197 705 L150 431 L216 431 L275 771 L234 771 L122 738 L130 683 L197 705 Z M795 260 C795 316 751 349 688 349 C633 349 586 324 554 285 L591 245 C611 270 640 293 674 293 C700 293 730 280 730 246 C730 206 696 181 650 146 L523 55 L512 0 L755 0 L767 61 L615 57 L686 108 C736 144 795 192 795 260 L795 260 Z " />
<glyph glyph-name="threequarters" unicode="&#xbe;" horiz-adv-x="830" d="M769 792 L104 27 L153 -2 L818 761 L769 792 Z M331 545 C331 589 300 625 242 630 L350 716 L359 771 L141 771 L129 708 L268 713 L160 632 L169 585 C182 588 196 589 209 589 C250 589 264 565 264 543 C264 515 242 480 190 480 C161 480 136 493 127 512 L77 475 C88 449 126 424 180 424 C287 424 331 488 331 545 L331 545 Z M756 340 L696 340 L484 138 L493 81 L651 81 L637 0 L697 0 L711 81 L755 81 L765 138 L721 137 L756 340 Z M547 132 L683 263 L660 135 L547 132 Z " />
<glyph glyph-name="questiondown" unicode="&#xbf;" horiz-adv-x="649" d="M380 517 C417 517 445 546 445 587 C445 613 429 631 402 631 C365 631 338 600 338 562 C338 535 353 517 380 517 L380 517 Z M458 -78 C416 -125 333 -187 233 -187 C133 -187 82 -121 82 -41 C82 82 195 200 373 200 L393 398 L335 398 L301 259 C140 238 4 108 4 -53 C4 -167 78 -257 218 -257 C346 -257 454 -185 510 -122 L458 -78 Z " />
<glyph glyph-name="Agrave" unicode="&#xc0;" horiz-adv-x="795" d="M577 878 L410 1003 L365 935 L552 842 L577 878 Z M633 0 L714 0 L527 773 L442 773 L-14 0 L67 0 L188 208 L584 208 L633 0 Z M232 283 L470 692 L566 283 L232 283 Z " />
<glyph glyph-name="Aacute" unicode="&#xc1;" horiz-adv-x="795" d="M655 935 L635 1003 L424 878 L437 842 L655 935 Z M633 0 L714 0 L527 773 L442 773 L-14 0 L67 0 L188 208 L584 208 L633 0 Z M232 283 L470 692 L566 283 L232 283 Z " />
<glyph glyph-name="Acircumflex" unicode="&#xc2;" horiz-adv-x="795" d="M515 957 L584 866 L630 901 L553 1019 L499 1019 L379 901 L412 866 L515 957 Z M633 0 L714 0 L527 773 L442 773 L-14 0 L67 0 L188 208 L584 208 L633 0 Z M232 283 L470 692 L566 283 L232 283 Z " />
<glyph glyph-name="Atilde" unicode="&#xc3;" horiz-adv-x="795" d="M441 940 C492 940 507 879 576 879 C634 879 687 922 702 996 L640 996 C634 966 621 941 585 941 C535 941 518 1001 450 1001 C391 1001 335 956 323 884 L385 884 C390 915 405 940 441 940 L441 940 Z M633 0 L714 0 L527 773 L442 773 L-14 0 L67 0 L188 208 L584 208 L633 0 Z M232 283 L470 692 L566 283 L232 283 Z " />
<glyph glyph-name="Adieresis" unicode="&#xc4;" horiz-adv-x="795" d="M403 891 C437 891 462 918 462 953 C462 978 446 996 422 996 C387 996 362 969 362 933 C362 908 377 891 403 891 L403 891 Z M607 891 C641 891 666 918 666 953 C666 978 650 996 626 996 C591 996 566 969 566 933 C566 908 581 891 607 891 L607 891 Z M633 0 L714 0 L527 773 L442 773 L-14 0 L67 0 L188 208 L584 208 L633 0 Z M232 283 L470 692 L566 283 L232 283 Z " />
<glyph glyph-name="Aring" unicode="&#xc5;" horiz-adv-x="795" d="M496 837 C566 837 620 899 620 967 C620 1020 587 1057 534 1057 C461 1057 411 1004 411 928 C411 875 442 837 496 837 L496 837 Z M526 1005 C552 1005 569 986 569 958 C569 923 542 890 505 890 C477 890 460 910 460 937 C460 975 489 1005 526 1005 L526 1005 Z M633 0 L714 0 L527 773 L442 773 L-14 0 L67 0 L188 208 L584 208 L633 0 Z M232 283 L470 692 L566 283 L232 283 Z " />
<glyph glyph-name="AE" unicode="&#xc6;" horiz-adv-x="1071" d="M1080 698 L1093 773 L605 773 L-27 0 L61 0 L240 221 L510 221 L471 0 L958 0 L972 75 L559 75 L609 363 L900 363 L913 437 L622 437 L668 698 L1080 698 Z M296 291 L584 647 L522 291 L296 291 Z " />
<glyph glyph-name="Ccedilla" unicode="&#xc7;" horiz-adv-x="805" d="M527 717 C625 717 703 673 746 596 L816 641 C764 737 662 791 540 791 C282 791 84 583 84 311 C84 126 191 -7 371 -18 L345 -93 C369 -94 470 -98 448 -160 C426 -222 325 -183 308 -172 L281 -220 C348 -259 474 -254 503 -167 C535 -76 436 -52 408 -50 L417 -19 C531 -13 644 38 725 129 L670 174 C602 98 508 55 411 55 C252 55 161 164 161 322 C161 548 319 717 527 717 L527 717 Z " />
<glyph glyph-name="Egrave" unicode="&#xc8;" horiz-adv-x="677" d="M538 878 L371 1003 L326 935 L513 842 L538 878 Z M682 700 L695 773 L195 773 L60 0 L560 0 L573 73 L149 73 L199 363 L510 363 L523 437 L212 437 L258 700 L682 700 Z " />
<glyph glyph-name="Eacute" unicode="&#xc9;" horiz-adv-x="677" d="M616 935 L596 1003 L385 878 L398 842 L616 935 Z M682 700 L695 773 L195 773 L60 0 L560 0 L573 73 L149 73 L199 363 L510 363 L523 437 L212 437 L258 700 L682 700 Z " />
<glyph glyph-name="Ecircumflex" unicode="&#xca;" horiz-adv-x="677" d="M476 957 L545 866 L591 901 L514 1019 L460 1019 L340 901 L373 866 L476 957 Z M682 700 L695 773 L195 773 L60 0 L560 0 L573 73 L149 73 L199 363 L510 363 L523 437 L212 437 L258 700 L682 700 Z " />
<glyph glyph-name="Edieresis" unicode="&#xcb;" horiz-adv-x="677" d="M364 891 C398 891 423 918 423 953 C423 978 407 996 383 996 C348 996 323 969 323 933 C323 908 338 891 364 891 L364 891 Z M568 891 C602 891 627 918 627 953 C627 978 611 996 587 996 C552 996 527 969 527 933 C527 908 542 891 568 891 L568 891 Z M682 700 L695 773 L195 773 L60 0 L560 0 L573 73 L149 73 L199 363 L510 363 L523 437 L212 437 L258 700 L682 700 Z " />
<glyph glyph-name="Igrave" unicode="&#xcc;" horiz-adv-x="291" d="M301 842 L326 878 L159 1003 L114 935 L301 842 Z M137 0 L60 0 L195 773 L272 773 L137 0 Z " />
<glyph glyph-name="Iacute" unicode="&#xcd;" horiz-adv-x="291" d="M186 842 L404 935 L384 1003 L173 878 L186 842 Z M137 0 L60 0 L195 773 L272 773 L137 0 Z " />
<glyph glyph-name="Icircumflex" unicode="&#xce;" horiz-adv-x="291" d="M248 1019 L302 1019 L379 901 L333 866 L264 957 L161 866 L128 901 L248 1019 Z M137 0 L60 0 L195 773 L272 773 L137 0 Z " />
<glyph glyph-name="Idieresis" unicode="&#xcf;" horiz-adv-x="291" d="M171 996 C195 996 211 978 211 953 C211 918 186 891 152 891 C126 891 111 908 111 933 C111 969 136 996 171 996 L171 996 Z M375 996 C399 996 415 978 415 953 C415 918 390 891 356 891 C330 891 315 908 315 933 C315 969 340 996 375 996 L375 996 Z M137 0 L60 0 L195 773 L272 773 L137 0 Z " />
<glyph glyph-name="Eth" unicode="&#xd0;" horiz-adv-x="872" d="M541 773 L225 773 L165 427 L86 427 L72 352 L151 352 L90 0 L406 0 C642 0 825 214 825 461 C825 641 719 773 541 773 L541 773 Z M419 75 L181 75 L229 352 L464 352 L478 427 L243 427 L290 698 L527 698 C669 698 746 592 746 451 C746 253 604 75 419 75 L419 75 Z " />
<glyph glyph-name="Ntilde" unicode="&#xd1;" horiz-adv-x="885" d="M503 940 C554 940 569 879 638 879 C696 879 749 922 764 996 L702 996 C696 966 683 941 647 941 C597 941 580 1001 512 1001 C453 1001 397 956 385 884 L447 884 C452 915 467 940 503 940 L503 940 Z M791 773 L694 215 C646 292 568 354 488 418 C365 516 241 614 268 772 L268 773 L190 773 L55 0 L133 0 L231 561 C279 482 358 419 435 357 C560 257 684 159 656 0 L734 0 L869 773 L791 773 Z " />
<glyph glyph-name="Ograve" unicode="&#xd2;" horiz-adv-x="894" d="M602 842 L627 878 L460 1003 L415 935 L602 842 Z M537 792 C733 792 848 657 848 462 C848 190 652 -19 395 -19 C199 -19 84 118 84 311 C84 583 279 792 537 792 L537 792 Z M524 718 C317 718 161 549 161 322 C161 165 250 56 408 56 C617 56 771 227 771 449 C771 607 680 718 524 718 L524 718 Z " />
<glyph glyph-name="Oacute" unicode="&#xd3;" horiz-adv-x="894" d="M487 842 L705 935 L685 1003 L474 878 L487 842 Z M537 792 C733 792 848 657 848 462 C848 190 652 -19 395 -19 C199 -19 84 118 84 311 C84 583 279 792 537 792 L537 792 Z M524 718 C317 718 161 549 161 322 C161 165 250 56 408 56 C617 56 771 227 771 449 C771 607 680 718 524 718 L524 718 Z " />
<glyph glyph-name="Ocircumflex" unicode="&#xd4;" horiz-adv-x="894" d="M549 1019 L603 1019 L680 901 L634 866 L565 957 L462 866 L429 901 L549 1019 Z M537 792 C733 792 848 657 848 462 C848 190 652 -19 395 -19 C199 -19 84 118 84 311 C84 583 279 792 537 792 L537 792 Z M524 718 C317 718 161 549 161 322 C161 165 250 56 408 56 C617 56 771 227 771 449 C771 607 680 718 524 718 L524 718 Z " />
<glyph glyph-name="Otilde" unicode="&#xd5;" horiz-adv-x="894" d="M435 884 C440 915 455 940 491 940 C542 940 557 879 626 879 C684 879 737 922 752 996 L690 996 C684 966 671 941 635 941 C585 941 568 1001 500 1001 C441 1001 385 956 373 884 L435 884 Z M537 792 C733 792 848 657 848 462 C848 190 652 -19 395 -19 C199 -19 84 118 84 311 C84 583 279 792 537 792 L537 792 Z M524 718 C317 718 161 549 161 322 C161 165 250 56 408 56 C617 56 771 227 771 449 C771 607 680 718 524 718 L524 718 Z " />
<glyph glyph-name="Odieresis" unicode="&#xd6;" horiz-adv-x="894" d="M472 996 C496 996 512 978 512 953 C512 918 487 891 453 891 C427 891 412 908 412 933 C412 969 437 996 472 996 L472 996 Z M676 996 C700 996 716 978 716 953 C716 918 691 891 657 891 C631 891 616 908 616 933 C616 969 641 996 676 996 L676 996 Z M537 792 C733 792 848 657 848 462 C848 190 652 -19 395 -19 C199 -19 84 118 84 311 C84 583 279 792 537 792 L537 792 Z M524 718 C317 718 161 549 161 322 C161 165 250 56 408 56 C617 56 771 227 771 449 C771 607 680 718 524 718 L524 718 Z " />
<glyph glyph-name="multiply" unicode="&#xd7;" horiz-adv-x="529" d="M485 540 L444 591 L294 464 L188 592 L125 538 L231 410 L82 284 L125 233 L273 359 L385 224 L449 277 L336 413 L485 540 Z " />
<glyph glyph-name="Oslash" unicode="&#xd8;" horiz-adv-x="893" d="M909 720 L867 771 L774 692 C721 755 640 792 538 792 C281 792 85 583 85 311 C85 246 98 187 123 137 L28 56 L70 6 L160 82 C213 19 294 -19 397 -19 C653 -19 849 191 849 462 C849 528 836 587 811 636 L909 720 Z M164 322 C164 548 317 717 525 717 C605 717 668 688 710 637 L188 193 C172 230 164 274 164 322 L164 322 Z M770 449 C770 228 618 56 408 56 C327 56 264 86 223 136 L745 580 C761 542 770 498 770 449 L770 449 Z " />
<glyph glyph-name="Ugrave" unicode="&#xd9;" horiz-adv-x="842" d="M579 842 L604 878 L437 1003 L392 935 L579 842 Z M826 773 L748 326 C712 122 568 -18 369 -18 C170 -18 76 122 112 326 L190 773 L267 773 L189 330 C159 158 237 52 381 52 C521 52 641 153 671 330 L749 773 L826 773 Z " />
<glyph glyph-name="Uacute" unicode="&#xda;" horiz-adv-x="842" d="M464 842 L682 935 L662 1003 L451 878 L464 842 Z M826 773 L748 326 C712 122 568 -18 369 -18 C170 -18 76 122 112 326 L190 773 L267 773 L189 330 C159 158 237 52 381 52 C521 52 641 153 671 330 L749 773 L826 773 Z " />
<glyph glyph-name="Ucircumflex" unicode="&#xdb;" horiz-adv-x="842" d="M526 1019 L580 1019 L657 901 L611 866 L542 957 L439 866 L406 901 L526 1019 Z M826 773 L748 326 C712 122 568 -18 369 -18 C170 -18 76 122 112 326 L190 773 L267 773 L189 330 C159 158 237 52 381 52 C521 52 641 153 671 330 L749 773 L826 773 Z " />
<glyph glyph-name="Udieresis" unicode="&#xdc;" horiz-adv-x="842" d="M449 996 C473 996 489 978 489 953 C489 918 464 891 430 891 C404 891 389 908 389 933 C389 969 414 996 449 996 L449 996 Z M653 996 C677 996 693 978 693 953 C693 918 668 891 634 891 C608 891 593 908 593 933 C593 969 618 996 653 996 L653 996 Z M826 773 L748 326 C712 122 568 -18 369 -18 C170 -18 76 122 112 326 L190 773 L267 773 L189 330 C159 158 237 52 381 52 C521 52 641 153 671 330 L749 773 L826 773 Z " />
<glyph glyph-name="Yacute" unicode="&#xdd;" horiz-adv-x="720" d="M618 934 L598 1002 L387 877 L400 841 L618 934 Z M777 773 L690 773 L372 343 L205 773 L119 773 L321 277 L273 0 L351 0 L399 276 L777 773 Z " />
<glyph glyph-name="Thorn" unicode="&#xde;" horiz-adv-x="732" d="M449 672 L255 672 L272 772 L195 772 L60 0 L137 0 L165 161 L360 161 C564 161 701 271 701 461 C701 595 609 672 449 672 L449 672 Z M373 234 L178 234 L242 598 L437 598 C549 598 621 551 621 450 C621 303 517 234 373 234 L373 234 Z " />
<glyph glyph-name="germandbls" unicode="&#xdf;" horiz-adv-x="716" d="M33 -144 C71 -63 91 18 101 74 L178 515 C207 677 300 773 444 773 C561 773 609 704 609 636 C609 508 477 491 397 426 C378 411 357 394 357 358 C357 245 620 309 620 134 C620 54 531 -14 403 -14 C314 -14 248 17 213 59 L259 108 C290 71 344 46 413 46 C489 46 550 78 550 140 C550 255 285 195 285 352 C285 400 317 440 363 472 C438 525 540 547 540 623 C540 665 506 705 435 705 C337 705 272 635 250 516 L172 74 C162 13 139 -78 102 -162 L33 -144 Z " />
<glyph glyph-name="agrave" unicode="&#xe0;" horiz-adv-x="754" d="M475 655 L308 780 L263 712 L450 619 L475 655 Z M660 70 C591 53 569 64 579 115 L654 550 L579 550 L560 439 C533 517 470 566 372 566 C192 566 59 416 59 217 C59 79 137 -16 274 -16 C373 -16 449 28 500 95 C491 17 531 -37 662 8 L660 70 Z M298 55 C195 55 137 127 137 232 C137 381 236 495 374 495 C476 495 534 423 534 319 C534 306 533 293 532 280 L526 247 C500 134 411 55 298 55 L298 55 Z " />
<glyph glyph-name="aacute" unicode="&#xe1;" horiz-adv-x="754" d="M553 712 L533 780 L322 655 L335 619 L553 712 Z M660 70 C591 53 569 64 579 115 L654 550 L579 550 L560 439 C533 517 470 566 372 566 C192 566 59 416 59 217 C59 79 137 -16 274 -16 C373 -16 449 28 500 95 C491 17 531 -37 662 8 L660 70 Z M298 55 C195 55 137 127 137 232 C137 381 236 495 374 495 C476 495 534 423 534 319 C534 306 533 293 532 280 L526 247 C500 134 411 55 298 55 L298 55 Z " />
<glyph glyph-name="acircumflex" unicode="&#xe2;" horiz-adv-x="754" d="M413 734 L482 643 L528 678 L451 796 L397 796 L277 678 L310 643 L413 734 Z M660 70 C591 53 569 64 579 115 L654 550 L579 550 L560 439 C533 517 470 566 372 566 C192 566 59 416 59 217 C59 79 137 -16 274 -16 C373 -16 449 28 500 95 C491 17 531 -37 662 8 L660 70 Z M298 55 C195 55 137 127 137 232 C137 381 236 495 374 495 C476 495 534 423 534 319 C534 306 533 293 532 280 L526 247 C500 134 411 55 298 55 L298 55 Z " />
<glyph glyph-name="atilde" unicode="&#xe3;" horiz-adv-x="754" d="M342 717 C393 717 408 656 477 656 C535 656 588 699 603 773 L541 773 C535 743 522 718 486 718 C436 718 419 778 351 778 C292 778 236 733 224 661 L286 661 C291 692 306 717 342 717 L342 717 Z M660 70 C591 53 569 64 579 115 L654 550 L579 550 L560 439 C533 517 470 566 372 566 C192 566 59 416 59 217 C59 79 137 -16 274 -16 C373 -16 449 28 500 95 C491 17 531 -37 662 8 L660 70 Z M298 55 C195 55 137 127 137 232 C137 381 236 495 374 495 C476 495 534 423 534 319 C534 306 533 293 532 280 L526 247 C500 134 411 55 298 55 L298 55 Z " />
<glyph glyph-name="adieresis" unicode="&#xe4;" horiz-adv-x="754" d="M301 668 C335 668 360 695 360 730 C360 755 344 773 320 773 C285 773 260 746 260 710 C260 685 275 668 301 668 L301 668 Z M505 668 C539 668 564 695 564 730 C564 755 548 773 524 773 C489 773 464 746 464 710 C464 685 479 668 505 668 L505 668 Z M660 70 C591 53 569 64 579 115 L654 550 L579 550 L560 439 C533 517 470 566 372 566 C192 566 59 416 59 217 C59 79 137 -16 274 -16 C373 -16 449 28 500 95 C491 17 531 -37 662 8 L660 70 Z M298 55 C195 55 137 127 137 232 C137 381 236 495 374 495 C476 495 534 423 534 319 C534 306 533 293 532 280 L526 247 C500 134 411 55 298 55 L298 55 Z " />
<glyph glyph-name="aring" unicode="&#xe5;" horiz-adv-x="754" d="M394 614 C464 614 518 676 518 744 C518 797 485 834 432 834 C359 834 309 781 309 705 C309 652 340 614 394 614 L394 614 Z M424 782 C450 782 467 763 467 735 C467 700 440 667 403 667 C375 667 358 687 358 714 C358 752 387 782 424 782 L424 782 Z M660 70 C591 53 569 64 579 115 L654 550 L579 550 L560 439 C533 517 470 566 372 566 C192 566 59 416 59 217 C59 79 137 -16 274 -16 C373 -16 449 28 500 95 C491 17 531 -37 662 8 L660 70 Z M298 55 C195 55 137 127 137 232 C137 381 236 495 374 495 C476 495 534 423 534 319 C534 306 533 293 532 280 L526 247 C500 134 411 55 298 55 L298 55 Z " />
<glyph glyph-name="ae" unicode="&#xe6;" horiz-adv-x="1047" d="M992 403 C1010 506 929 566 815 566 C706 566 610 512 549 426 C525 513 452 566 346 566 C277 566 189 544 125 515 L147 448 C196 470 272 494 335 494 C441 494 503 426 484 319 L483 314 C443 327 381 343 315 343 C141 343 42 259 42 141 C42 49 117 -13 240 -13 C360 -13 443 42 490 122 C521 26 608 -16 703 -16 C795 -16 886 22 950 85 L909 133 C858 82 780 54 710 54 C631 54 556 90 548 191 C669 193 957 209 992 403 L992 403 Z M921 402 C898 269 657 260 551 261 C571 386 666 496 806 496 C890 496 930 454 921 402 L921 402 Z M257 56 C170 56 118 94 119 155 C120 236 190 274 313 274 C379 274 436 259 472 247 L472 246 L471 246 C451 130 382 56 257 56 L257 56 Z " />
<glyph glyph-name="ccedilla" unicode="&#xe7;" horiz-adv-x="615" d="M308 52 C199 52 135 129 135 237 C135 378 239 496 385 496 C453 496 509 469 538 417 L604 457 C566 527 490 566 396 566 C203 566 59 413 59 224 C59 88 136 -3 267 -15 L240 -93 C264 -94 365 -98 343 -160 C321 -222 220 -183 203 -172 L176 -220 C243 -259 369 -254 398 -167 C430 -76 331 -52 303 -50 L313 -16 C402 -11 483 27 541 92 L487 133 C438 79 374 52 308 52 L308 52 Z " />
<glyph glyph-name="egrave" unicode="&#xe8;" horiz-adv-x="632" d="M492 655 L325 780 L280 712 L467 619 L492 655 Z M295 51 C215 51 140 89 131 191 C292 194 580 223 580 430 C580 517 502 566 400 566 C209 566 56 406 56 203 C56 48 162 -16 283 -16 C377 -16 471 22 535 85 L495 133 C461 101 381 51 295 51 L295 51 Z M392 499 C467 499 509 464 509 419 C509 281 254 262 134 261 C154 386 250 499 392 499 L392 499 Z " />
<glyph glyph-name="eacute" unicode="&#xe9;" horiz-adv-x="632" d="M570 712 L550 780 L339 655 L352 619 L570 712 Z M295 51 C215 51 140 89 131 191 C292 194 580 223 580 430 C580 517 502 566 400 566 C209 566 56 406 56 203 C56 48 162 -16 283 -16 C377 -16 471 22 535 85 L495 133 C461 101 381 51 295 51 L295 51 Z M392 499 C467 499 509 464 509 419 C509 281 254 262 134 261 C154 386 250 499 392 499 L392 499 Z " />
<glyph glyph-name="ecircumflex" unicode="&#xea;" horiz-adv-x="632" d="M430 734 L499 643 L545 678 L468 796 L414 796 L294 678 L327 643 L430 734 Z M295 51 C215 51 140 89 131 191 C292 194 580 223 580 430 C580 517 502 566 400 566 C209 566 56 406 56 203 C56 48 162 -16 283 -16 C377 -16 471 22 535 85 L495 133 C461 101 381 51 295 51 L295 51 Z M392 499 C467 499 509 464 509 419 C509 281 254 262 134 261 C154 386 250 499 392 499 L392 499 Z " />
<glyph glyph-name="edieresis" unicode="&#xeb;" horiz-adv-x="632" d="M318 668 C352 668 377 695 377 730 C377 755 361 773 337 773 C302 773 277 746 277 710 C277 685 292 668 318 668 L318 668 Z M522 668 C556 668 581 695 581 730 C581 755 565 773 541 773 C506 773 481 746 481 710 C481 685 496 668 522 668 L522 668 Z M580 430 C580 517 502 566 400 566 C209 566 56 406 56 203 C56 48 162 -16 283 -16 C377 -16 471 22 535 85 L495 133 C461 101 381 51 295 51 C215 51 140 89 131 191 C292 194 580 223 580 430 L580 430 Z M134 261 C154 386 250 499 392 499 C467 499 509 464 509 419 C509 281 254 262 134 261 L134 261 Z " />
<glyph glyph-name="igrave" unicode="&#xec;" horiz-adv-x="298" d="M271 619 L296 655 L129 780 L84 712 L271 619 Z M247 70 L249 8 C113 -39 75 22 88 105 L166 550 L241 550 L166 115 C156 64 178 53 247 70 L247 70 Z " />
<glyph glyph-name="iacute" unicode="&#xed;" horiz-adv-x="298" d="M156 619 L374 712 L354 780 L143 655 L156 619 Z M247 70 L249 8 C113 -39 75 22 88 105 L166 550 L241 550 L166 115 C156 64 178 53 247 70 L247 70 Z " />
<glyph glyph-name="icircumflex" unicode="&#xee;" horiz-adv-x="298" d="M218 796 L272 796 L349 678 L303 643 L234 734 L131 643 L98 678 L218 796 Z M247 70 L249 8 C113 -39 75 22 88 105 L166 550 L241 550 L166 115 C156 64 178 53 247 70 L247 70 Z " />
<glyph glyph-name="idieresis" unicode="&#xef;" horiz-adv-x="298" d="M141 773 C165 773 181 755 181 730 C181 695 156 668 122 668 C96 668 81 685 81 710 C81 746 106 773 141 773 L141 773 Z M345 773 C369 773 385 755 385 730 C385 695 360 668 326 668 C300 668 285 685 285 710 C285 746 310 773 345 773 L345 773 Z M247 70 L249 8 C113 -39 75 22 88 105 L166 550 L241 550 L166 115 C156 64 178 53 247 70 L247 70 Z " />
<glyph glyph-name="eth" unicode="&#xf0;" horiz-adv-x="695" d="M693 712 L679 773 L538 721 C476 797 398 834 358 848 L318 778 C351 764 407 740 456 691 L338 647 L351 587 L496 640 C527 592 548 528 548 443 C548 417 546 386 541 354 C524 430 469 501 349 501 C208 501 79 405 57 233 C39 101 98 -17 262 -17 C506 -17 625 215 625 456 C625 544 604 613 573 668 L693 712 Z M280 56 C156 56 117 147 134 244 C152 344 220 429 341 429 C494 429 510 286 501 213 C462 126 394 56 280 56 L280 56 Z " />
<glyph glyph-name="ntilde" unicode="&#xf1;" horiz-adv-x="659" d="M327 717 C378 717 393 656 462 656 C520 656 573 699 588 773 L526 773 C520 743 507 718 471 718 C421 718 404 778 336 778 C277 778 221 733 209 661 L271 661 C276 692 291 717 327 717 L327 717 Z M417 566 C324 566 251 509 202 448 L202 450 L206 550 L142 550 L46 0 L123 0 L182 338 L183 337 C238 423 311 491 393 491 C484 491 519 439 499 328 L442 0 L519 0 L576 326 C607 504 533 566 417 566 L417 566 Z " />
<glyph glyph-name="ograve" unicode="&#xf2;" horiz-adv-x="696" d="M466 619 L491 655 L324 780 L279 712 L466 619 Z M399 566 C545 566 636 470 636 327 C636 138 497 -16 297 -16 C149 -16 60 82 60 223 C60 421 206 566 399 566 L399 566 Z M387 495 C241 495 138 379 138 234 C138 130 199 55 309 55 C454 55 557 171 557 316 C557 420 496 495 387 495 L387 495 Z " />
<glyph glyph-name="oacute" unicode="&#xf3;" horiz-adv-x="696" d="M351 619 L569 712 L549 780 L338 655 L351 619 Z M399 566 C545 566 636 470 636 327 C636 138 497 -16 297 -16 C149 -16 60 82 60 223 C60 421 206 566 399 566 L399 566 Z M387 495 C241 495 138 379 138 234 C138 130 199 55 309 55 C454 55 557 171 557 316 C557 420 496 495 387 495 L387 495 Z " />
<glyph glyph-name="ocircumflex" unicode="&#xf4;" horiz-adv-x="696" d="M413 796 L467 796 L544 678 L498 643 L429 734 L326 643 L293 678 L413 796 Z M399 566 C545 566 636 470 636 327 C636 138 497 -16 297 -16 C149 -16 60 82 60 223 C60 421 206 566 399 566 L399 566 Z M387 495 C241 495 138 379 138 234 C138 130 199 55 309 55 C454 55 557 171 557 316 C557 420 496 495 387 495 L387 495 Z " />
<glyph glyph-name="otilde" unicode="&#xf5;" horiz-adv-x="696" d="M299 661 C304 692 319 717 355 717 C406 717 421 656 490 656 C548 656 601 699 616 773 L554 773 C548 743 535 718 499 718 C449 718 432 778 364 778 C305 778 249 733 237 661 L299 661 Z M399 566 C545 566 636 470 636 327 C636 138 497 -16 297 -16 C149 -16 60 82 60 223 C60 421 206 566 399 566 L399 566 Z M387 495 C241 495 138 379 138 234 C138 130 199 55 309 55 C454 55 557 171 557 316 C557 420 496 495 387 495 L387 495 Z " />
<glyph glyph-name="odieresis" unicode="&#xf6;" horiz-adv-x="696" d="M336 773 C360 773 376 755 376 730 C376 695 351 668 317 668 C291 668 276 685 276 710 C276 746 301 773 336 773 L336 773 Z M540 773 C564 773 580 755 580 730 C580 695 555 668 521 668 C495 668 480 685 480 710 C480 746 505 773 540 773 L540 773 Z M399 566 C545 566 636 470 636 327 C636 138 497 -16 297 -16 C149 -16 60 82 60 223 C60 421 206 566 399 566 L399 566 Z M387 495 C241 495 138 379 138 234 C138 130 199 55 309 55 C454 55 557 171 557 316 C557 420 496 495 387 495 L387 495 Z " />
<glyph glyph-name="divide" unicode="&#xf7;" horiz-adv-x="595" d="M363 629 C389 629 405 611 405 585 C405 549 381 521 345 521 C318 521 303 539 303 564 C303 602 328 629 363 629 L363 629 Z M545 446 L533 380 L97 380 L109 447 L545 446 Z M307 305 C333 305 349 286 349 260 C349 225 324 197 288 197 C261 197 245 214 245 240 C245 278 271 305 307 305 L307 305 Z " />
<glyph glyph-name="oslash" unicode="&#xf8;" horiz-adv-x="706" d="M682 515 L649 555 L580 496 C539 541 479 566 404 566 C211 566 64 421 64 223 C64 171 76 125 99 87 L20 20 L54 -21 L132 46 C173 7 230 -16 302 -16 C503 -16 640 138 640 327 C640 375 630 418 610 454 L682 515 Z M144 234 C144 379 245 495 390 495 C446 495 489 476 518 444 L163 142 C151 168 144 200 144 234 L144 234 Z M562 316 C562 171 459 55 314 55 C263 55 223 71 194 99 L546 399 C557 375 562 347 562 316 L562 316 Z " />
<glyph glyph-name="ugrave" unicode="&#xf9;" horiz-adv-x="659" d="M475 655 L308 780 L263 712 L450 619 L475 655 Z M534 550 L474 213 C418 129 349 63 265 63 C174 63 140 115 160 226 L216 550 L138 550 L81 224 C51 46 123 -16 240 -16 C333 -16 404 39 454 99 L452 0 L516 0 L612 550 L534 550 Z " />
<glyph glyph-name="uacute" unicode="&#xfa;" horiz-adv-x="659" d="M553 712 L533 780 L322 655 L335 619 L553 712 Z M534 550 L474 213 C418 129 349 63 265 63 C174 63 140 115 160 226 L216 550 L138 550 L81 224 C51 46 123 -16 240 -16 C333 -16 404 39 454 99 L452 0 L516 0 L612 550 L534 550 Z " />
<glyph glyph-name="ucircumflex" unicode="&#xfb;" horiz-adv-x="659" d="M413 734 L482 643 L528 678 L451 796 L397 796 L277 678 L310 643 L413 734 Z M534 550 L474 213 C418 129 349 63 265 63 C174 63 140 115 160 226 L216 550 L138 550 L81 224 C51 46 123 -16 240 -16 C333 -16 404 39 454 99 L452 0 L516 0 L612 550 L534 550 Z " />
<glyph glyph-name="udieresis" unicode="&#xfc;" horiz-adv-x="659" d="M301 668 C335 668 360 695 360 730 C360 755 344 773 320 773 C285 773 260 746 260 710 C260 685 275 668 301 668 L301 668 Z M505 668 C539 668 564 695 564 730 C564 755 548 773 524 773 C489 773 464 746 464 710 C464 685 479 668 505 668 L505 668 Z M534 550 L474 213 C418 129 349 63 265 63 C174 63 140 115 160 226 L216 550 L138 550 L81 224 C51 46 123 -16 240 -16 C333 -16 404 39 454 99 L452 0 L516 0 L612 550 L534 550 Z " />
<glyph glyph-name="yacute" unicode="&#xfd;" horiz-adv-x="658" d="M530 712 L510 780 L299 655 L312 619 L530 712 Z M533 550 L475 214 C419 129 350 63 266 63 C175 63 140 115 159 226 L216 550 L139 550 L82 224 C52 46 125 -16 241 -16 C336 -16 406 40 456 101 L442 22 C416 -131 321 -228 192 -228 C121 -228 66 -198 35 -141 L-32 -185 C5 -254 80 -300 182 -300 C370 -300 487 -159 518 19 L611 550 L533 550 Z " />
<glyph glyph-name="thorn" unicode="&#xfe;" horiz-adv-x="699" d="M423 566 C339 566 268 536 214 486 L221 523 L277 850 L200 850 L-1 -300 L76 -300 L142 76 C176 20 234 -16 321 -16 C511 -16 640 134 640 332 C640 467 566 566 423 566 L423 566 Z M328 55 C223 55 172 125 172 226 C172 234 172 241 173 248 L187 331 C217 428 293 495 404 495 C510 495 562 425 562 323 C562 173 477 55 328 55 L328 55 Z " />
<glyph glyph-name="ydieresis" unicode="&#xff;" horiz-adv-x="658" d="M278 668 C312 668 337 695 337 730 C337 755 321 773 297 773 C262 773 237 746 237 710 C237 685 252 668 278 668 L278 668 Z M482 668 C516 668 541 695 541 730 C541 755 525 773 501 773 C466 773 441 746 441 710 C441 685 456 668 482 668 L482 668 Z M533 550 L475 214 C419 129 350 63 266 63 C175 63 140 115 159 226 L216 550 L139 550 L82 224 C52 46 125 -16 241 -16 C336 -16 406 40 456 101 L442 22 C416 -131 321 -228 192 -228 C121 -228 66 -198 35 -141 L-32 -185 C5 -254 80 -300 182 -300 C370 -300 487 -159 518 19 L611 550 L533 550 Z " />
<glyph glyph-name="Amacron" unicode="&#x100;" horiz-adv-x="795" d="M696 973 L346 973 L334 911 L684 911 L696 973 Z M633 0 L714 0 L527 773 L442 773 L-14 0 L67 0 L188 208 L584 208 L633 0 Z M232 283 L470 692 L566 283 L232 283 Z " />
<glyph glyph-name="amacron" unicode="&#x101;" horiz-adv-x="754" d="M594 750 L244 750 L232 688 L582 688 L594 750 Z M660 70 C591 53 569 64 579 115 L654 550 L579 550 L560 439 C533 517 470 566 372 566 C192 566 59 416 59 217 C59 79 137 -16 274 -16 C373 -16 449 28 500 95 C491 17 531 -37 662 8 L660 70 Z M298 55 C195 55 137 127 137 232 C137 381 236 495 374 495 C476 495 534 423 534 319 C534 306 533 293 532 280 L526 247 C500 134 411 55 298 55 L298 55 Z " />
<glyph glyph-name="Abreve" unicode="&#x102;" horiz-adv-x="795" d="M500 866 C586 866 647 921 671 996 L609 996 C592 959 559 926 510 926 C461 926 437 959 436 996 L373 996 C369 917 417 866 500 866 L500 866 Z M633 0 L714 0 L527 773 L442 773 L-14 0 L67 0 L188 208 L584 208 L633 0 Z M232 283 L470 692 L566 283 L232 283 Z " />
<glyph glyph-name="abreve" unicode="&#x103;" horiz-adv-x="754" d="M398 643 C484 643 545 698 569 773 L507 773 C490 736 457 703 408 703 C359 703 335 736 334 773 L271 773 C267 694 315 643 398 643 L398 643 Z M660 70 C591 53 569 64 579 115 L654 550 L579 550 L560 439 C533 517 470 566 372 566 C192 566 59 416 59 217 C59 79 137 -16 274 -16 C373 -16 449 28 500 95 C491 17 531 -37 662 8 L660 70 Z M298 55 C195 55 137 127 137 232 C137 381 236 495 374 495 C476 495 534 423 534 319 C534 306 533 293 532 280 L526 247 C500 134 411 55 298 55 L298 55 Z " />
<glyph glyph-name="Aogonek" unicode="&#x104;" horiz-adv-x="795" d="M607 -179 C587 -179 577 -164 577 -145 C577 -103 633 -51 687 0 L714 0 L527 773 L442 773 L-14 0 L67 0 L188 208 L584 208 L633 0 C594 -28 514 -91 511 -159 C509 -203 534 -235 591 -235 C637 -235 670 -206 694 -182 L665 -148 C649 -166 629 -179 607 -179 L607 -179 Z M232 283 L470 692 L566 283 L232 283 Z " />
<glyph glyph-name="aogonek" unicode="&#x105;" horiz-adv-x="754" d="M554 -180 C534 -180 524 -165 524 -146 C524 -104 581 -51 635 0 C643 2 652 5 662 8 L660 70 C591 53 569 64 579 115 L654 550 L579 550 L560 439 C533 517 470 566 372 566 C192 566 59 416 59 217 C59 79 137 -16 274 -16 C373 -16 449 28 500 95 C494 40 512 -4 570 -8 C529 -39 461 -97 458 -160 C456 -204 481 -236 538 -236 C584 -236 617 -207 641 -183 L612 -149 C596 -167 576 -180 554 -180 L554 -180 Z M298 55 C195 55 137 127 137 232 C137 381 236 495 374 495 C476 495 534 423 534 319 C534 306 533 293 532 280 L526 247 C500 134 411 55 298 55 L298 55 Z " />
<glyph glyph-name="Cacute" unicode="&#x106;" horiz-adv-x="805" d="M476 842 L694 935 L674 1003 L463 878 L476 842 Z M816 641 L746 596 C703 673 625 717 527 717 C319 717 161 548 161 322 C161 164 252 55 411 55 C508 55 602 98 670 174 L725 129 C639 33 518 -19 397 -19 C201 -19 84 117 84 311 C84 583 282 791 540 791 C662 791 764 737 816 641 L816 641 Z " />
<glyph glyph-name="cacute" unicode="&#x107;" horiz-adv-x="615" d="M341 619 L559 712 L539 780 L328 655 L341 619 Z M59 224 C59 413 203 566 396 566 C490 566 566 527 604 457 L538 417 C509 469 453 496 385 496 C239 496 135 378 135 237 C135 129 199 52 308 52 C374 52 438 79 487 133 L541 92 C479 23 391 -16 296 -16 C148 -16 59 78 59 224 L59 224 Z " />
<glyph glyph-name="Cdotaccent" unicode="&#x10a;" horiz-adv-x="805" d="M564 1002 C591 1002 609 982 609 955 C609 917 582 886 544 886 C516 886 499 905 499 933 C499 973 526 1002 564 1002 L564 1002 Z M816 641 L746 596 C703 673 625 717 527 717 C319 717 161 548 161 322 C161 164 252 55 411 55 C508 55 602 98 670 174 L725 129 C639 33 518 -19 397 -19 C201 -19 84 117 84 311 C84 583 282 791 540 791 C662 791 764 737 816 641 L816 641 Z " />
<glyph glyph-name="cdotaccent" unicode="&#x10b;" horiz-adv-x="615" d="M429 779 C456 779 474 759 474 732 C474 694 447 663 409 663 C381 663 364 682 364 710 C364 750 391 779 429 779 L429 779 Z M59 224 C59 413 203 566 396 566 C490 566 566 527 604 457 L538 417 C509 469 453 496 385 496 C239 496 135 378 135 237 C135 129 199 52 308 52 C374 52 438 79 487 133 L541 92 C479 23 391 -16 296 -16 C148 -16 59 78 59 224 L59 224 Z " />
<glyph glyph-name="Ccaron" unicode="&#x10c;" horiz-adv-x="805" d="M512 859 L433 978 L477 1012 L549 921 L650 1012 L683 978 L565 859 L512 859 Z M816 641 L746 596 C703 673 625 717 527 717 C319 717 161 548 161 322 C161 164 252 55 411 55 C508 55 602 98 670 174 L725 129 C639 33 518 -19 397 -19 C201 -19 84 117 84 311 C84 583 282 791 540 791 C662 791 764 737 816 641 L816 641 Z " />
<glyph glyph-name="ccaron" unicode="&#x10d;" horiz-adv-x="615" d="M377 636 L298 755 L342 789 L414 698 L515 789 L548 755 L430 636 L377 636 Z M59 224 C59 413 203 566 396 566 C490 566 566 527 604 457 L538 417 C509 469 453 496 385 496 C239 496 135 378 135 237 C135 129 199 52 308 52 C374 52 438 79 487 133 L541 92 C479 23 391 -16 296 -16 C148 -16 59 78 59 224 L59 224 Z " />
<glyph glyph-name="Dcaron" unicode="&#x10e;" horiz-adv-x="845" d="M519 859 L637 978 L604 1012 L503 921 L431 1012 L387 978 L466 859 L519 859 Z M518 773 L195 773 L60 0 L383 0 C619 0 802 214 802 461 C802 641 697 773 518 773 L518 773 Z M396 74 L150 74 L259 699 L505 699 C646 699 723 593 723 451 C723 252 581 74 396 74 L396 74 Z " />
<glyph glyph-name="dcaron" unicode="&#x10f;" horiz-adv-x="708" d="M815 865 L730 643 L768 631 L882 840 L815 865 Z M552 452 C527 520 472 566 376 566 C185 566 60 415 60 217 C60 82 131 -16 273 -16 C367 -16 438 21 487 81 L484 63 L481 0 L549 0 L700 860 L624 860 L552 452 Z M294 55 C188 55 137 125 137 227 C137 376 221 495 371 495 C476 495 528 425 528 324 L528 313 L510 211 C478 118 403 55 294 55 L294 55 Z " />
<glyph glyph-name="Dcroat" unicode="&#x110;" horiz-adv-x="872" d="M541 773 L225 773 L165 427 L86 427 L72 352 L151 352 L90 0 L406 0 C642 0 825 214 825 461 C825 641 719 773 541 773 L541 773 Z M419 75 L181 75 L229 352 L464 352 L478 427 L243 427 L290 698 L527 698 C669 698 746 592 746 451 C746 253 604 75 419 75 L419 75 Z " />
<glyph glyph-name="dcroat" unicode="&#x111;" horiz-adv-x="708" d="M741 742 L677 742 L698 860 L621 860 L600 742 L439 742 L427 678 L589 678 L553 473 C519 530 460 566 375 566 C185 566 56 417 56 216 C56 82 127 -16 272 -16 C358 -16 429 15 482 66 L481 0 L548 0 L666 678 L729 678 L741 742 Z M292 57 C186 57 135 126 135 226 C135 378 218 493 368 493 C473 493 525 424 525 324 L525 312 L507 212 C475 119 401 57 292 57 L292 57 Z " />
<glyph glyph-name="Emacron" unicode="&#x112;" horiz-adv-x="677" d="M657 973 L307 973 L295 911 L645 911 L657 973 Z M682 700 L695 773 L195 773 L60 0 L560 0 L573 73 L149 73 L199 363 L510 363 L523 437 L212 437 L258 700 L682 700 Z " />
<glyph glyph-name="emacron" unicode="&#x113;" horiz-adv-x="632" d="M261 750 L249 688 L599 688 L611 750 L261 750 Z M580 430 C580 517 502 566 400 566 C209 566 56 406 56 203 C56 48 162 -16 283 -16 C377 -16 471 22 535 85 L495 133 C461 101 381 51 295 51 C215 51 140 89 131 191 C292 194 580 223 580 430 L580 430 Z M134 261 C154 386 250 499 392 499 C467 499 509 464 509 419 C509 281 254 262 134 261 L134 261 Z " />
<glyph glyph-name="Edotaccent" unicode="&#x116;" horiz-adv-x="677" d="M466 886 C504 886 531 917 531 955 C531 982 513 1002 486 1002 C448 1002 421 973 421 933 C421 905 438 886 466 886 L466 886 Z M682 700 L695 773 L195 773 L60 0 L560 0 L573 73 L149 73 L199 363 L510 363 L523 437 L212 437 L258 700 L682 700 Z " />
<glyph glyph-name="edotaccent" unicode="&#x117;" horiz-adv-x="632" d="M420 663 C458 663 485 694 485 732 C485 759 467 779 440 779 C402 779 375 750 375 710 C375 682 392 663 420 663 L420 663 Z M295 51 C215 51 140 89 131 191 C292 194 580 223 580 430 C580 517 502 566 400 566 C209 566 56 406 56 203 C56 48 162 -16 283 -16 C377 -16 471 22 535 85 L495 133 C461 101 381 51 295 51 L295 51 Z M392 499 C467 499 509 464 509 419 C509 281 254 262 134 261 C154 386 250 499 392 499 L392 499 Z " />
<glyph glyph-name="Eogonek" unicode="&#x118;" horiz-adv-x="677" d="M682 700 L695 773 L195 773 L60 0 L449 0 C409 -29 332 -91 329 -158 C327 -202 352 -234 409 -234 C455 -234 488 -205 512 -181 L483 -147 C467 -165 447 -178 425 -178 C405 -178 395 -163 395 -144 C395 -103 451 -50 504 0 L560 0 L573 73 L149 73 L199 363 L510 363 L523 437 L212 437 L258 700 L682 700 Z " />
<glyph glyph-name="eogonek" unicode="&#x119;" horiz-adv-x="632" d="M514 66 C521 72 528 78 535 85 L495 133 C461 101 381 51 295 51 C215 51 140 89 131 191 C292 194 580 223 580 430 C580 517 502 566 400 566 C209 566 56 406 56 203 C56 48 162 -16 283 -16 C316 -16 350 -11 382 -2 C359 -29 340 -60 339 -92 C337 -136 362 -168 419 -168 C465 -168 498 -139 522 -115 L493 -81 C477 -99 457 -112 435 -112 C415 -112 405 -97 405 -78 C405 -37 461 16 514 66 L514 66 Z M392 499 C467 499 509 464 509 419 C509 281 254 262 134 261 C154 386 250 499 392 499 L392 499 Z " />
<glyph glyph-name="Ecaron" unicode="&#x11a;" horiz-adv-x="677" d="M487 859 L605 978 L572 1012 L471 921 L399 1012 L355 978 L434 859 L487 859 Z M682 700 L695 773 L195 773 L60 0 L560 0 L573 73 L149 73 L199 363 L510 363 L523 437 L212 437 L258 700 L682 700 Z " />
<glyph glyph-name="ecaron" unicode="&#x11b;" horiz-adv-x="632" d="M441 636 L559 755 L526 789 L425 698 L353 789 L309 755 L388 636 L441 636 Z M295 51 C215 51 140 89 131 191 C292 194 580 223 580 430 C580 517 502 566 400 566 C209 566 56 406 56 203 C56 48 162 -16 283 -16 C377 -16 471 22 535 85 L495 133 C461 101 381 51 295 51 L295 51 Z M392 499 C467 499 509 464 509 419 C509 281 254 262 134 261 C154 386 250 499 392 499 L392 499 Z " />
<glyph glyph-name="Gbreve" unicode="&#x11e;" horiz-adv-x="845" d="M548 866 C634 866 695 921 719 996 L657 996 C640 959 607 926 558 926 C509 926 485 959 484 996 L421 996 C417 917 465 866 548 866 L548 866 Z M767 382 L500 382 L487 308 L674 308 L650 163 C585 94 503 58 409 58 C252 58 162 167 162 324 C162 552 319 719 521 719 C622 719 706 674 744 595 L812 640 C763 739 660 793 534 793 C281 793 84 585 84 313 C84 120 199 -17 395 -17 C520 -17 637 36 724 136 L767 382 Z " />
<glyph glyph-name="gbreve" unicode="&#x11f;" horiz-adv-x="698" d="M399 643 C485 643 546 698 570 773 L508 773 C491 736 458 703 409 703 C360 703 336 736 335 773 L272 773 C268 694 316 643 399 643 L399 643 Z M584 550 L557 458 L556 451 C530 521 474 566 376 566 C187 566 63 418 63 223 C63 93 134 -4 277 -4 C374 -4 445 33 492 91 L480 22 C453 -131 359 -228 231 -228 C159 -228 105 -198 73 -141 L6 -185 C44 -255 118 -300 222 -300 C408 -300 525 -159 556 19 L649 550 L584 550 Z M298 67 C192 67 141 136 141 235 C141 380 224 495 374 495 C478 495 530 426 530 326 C530 317 530 308 529 300 L517 234 C489 136 412 67 298 67 L298 67 Z " />
<glyph glyph-name="Gdotaccent" unicode="&#x120;" horiz-adv-x="845" d="M553 886 C591 886 618 917 618 955 C618 982 600 1002 573 1002 C535 1002 508 973 508 933 C508 905 525 886 553 886 L553 886 Z M767 382 L500 382 L487 308 L674 308 L650 163 C585 94 503 58 409 58 C252 58 162 167 162 324 C162 552 319 719 521 719 C622 719 706 674 744 595 L812 640 C763 739 660 793 534 793 C281 793 84 585 84 313 C84 120 199 -17 395 -17 C520 -17 637 36 724 136 L767 382 Z " />
<glyph glyph-name="gdotaccent" unicode="&#x121;" horiz-adv-x="698" d="M404 663 C442 663 469 694 469 732 C469 759 451 779 424 779 C386 779 359 750 359 710 C359 682 376 663 404 663 L404 663 Z M584 550 L557 458 L556 451 C530 521 474 566 376 566 C187 566 63 418 63 223 C63 93 134 -4 277 -4 C374 -4 445 33 492 91 L480 22 C453 -131 359 -228 231 -228 C159 -228 105 -198 73 -141 L6 -185 C44 -255 118 -300 222 -300 C408 -300 525 -159 556 19 L649 550 L584 550 Z M298 67 C192 67 141 136 141 235 C141 380 224 495 374 495 C478 495 530 426 530 326 C530 317 530 308 529 300 L517 234 C489 136 412 67 298 67 L298 67 Z " />
<glyph glyph-name="Gcommaaccent" unicode="&#x122;" horiz-adv-x="845" d="M767 382 L500 382 L487 308 L674 308 L650 163 C585 94 503 58 409 58 C252 58 162 167 162 324 C162 552 319 719 521 719 C622 719 706 674 744 595 L812 640 C763 739 660 793 534 793 C281 793 84 585 84 313 C84 120 199 -17 395 -17 C520 -17 637 36 724 136 L767 382 Z M385 -79 C351 -79 323 -107 323 -143 C323 -169 339 -188 365 -188 L371 -188 C359 -204 343 -214 317 -221 L321 -256 C377 -243 413 -207 423 -156 C426 -148 428 -139 428 -129 C428 -95 413 -79 385 -79 L385 -79 Z " />
<glyph glyph-name="gcommaaccent" unicode="&#x123;" horiz-adv-x="698" d="M400 663 C438 663 464 691 464 727 C464 753 448 772 422 772 L417 772 C427 788 444 798 470 805 L466 839 C397 825 359 776 359 714 C359 679 377 663 400 663 L400 663 Z M584 550 L557 458 L556 451 C530 521 474 566 376 566 C187 566 63 418 63 223 C63 93 134 -4 277 -4 C374 -4 445 33 492 91 L480 22 C453 -131 359 -228 231 -228 C159 -228 105 -198 73 -141 L6 -185 C44 -255 118 -300 222 -300 C408 -300 525 -159 556 19 L649 550 L584 550 Z M298 67 C192 67 141 136 141 235 C141 380 224 495 374 495 C478 495 530 426 530 326 C530 317 530 308 529 300 L517 234 C489 136 412 67 298 67 L298 67 Z " />
<glyph glyph-name="Hbar" unicode="&#x126;" horiz-adv-x="987" d="M945 600 L864 600 L894 773 L817 773 L787 600 L313 600 L343 773 L265 773 L235 600 L155 600 L145 543 L225 543 L129 0 L207 0 L268 349 L742 349 L681 0 L758 0 L854 543 L935 543 L945 600 Z M756 424 L282 424 L303 543 L777 543 L756 424 Z " />
<glyph glyph-name="hbar" unicode="&#x127;" horiz-adv-x="732" d="M490 566 C400 566 327 513 277 454 L315 674 L507 674 L519 738 L327 738 L346 849 L268 849 L249 738 L180 738 L169 674 L237 674 L119 0 L197 0 L257 340 C313 427 385 494 467 494 C558 494 593 442 573 330 L515 0 L592 0 L649 326 C680 504 607 566 490 566 L490 566 Z " />
<glyph glyph-name="Itilde" unicode="&#x128;" horiz-adv-x="291" d="M134 884 C139 915 154 940 190 940 C241 940 256 879 325 879 C383 879 436 922 451 996 L389 996 C383 966 370 941 334 941 C284 941 267 1001 199 1001 C140 1001 84 956 72 884 L134 884 Z M137 0 L60 0 L195 773 L272 773 L137 0 Z " />
<glyph glyph-name="itilde" unicode="&#x129;" horiz-adv-x="298" d="M104 661 C109 692 124 717 160 717 C211 717 226 656 295 656 C353 656 406 699 421 773 L359 773 C353 743 340 718 304 718 C254 718 237 778 169 778 C110 778 54 733 42 661 L104 661 Z M247 70 L249 8 C113 -39 75 22 88 105 L166 550 L241 550 L166 115 C156 64 178 53 247 70 L247 70 Z " />
<glyph glyph-name="Imacron" unicode="&#x12a;" horiz-adv-x="291" d="M83 911 L95 973 L445 973 L433 911 L83 911 Z M137 0 L60 0 L195 773 L272 773 L137 0 Z " />
<glyph glyph-name="imacron" unicode="&#x12b;" horiz-adv-x="298" d="M53 688 L65 750 L415 750 L403 688 L53 688 Z M247 70 L249 8 C113 -39 75 22 88 105 L166 550 L241 550 L166 115 C156 64 178 53 247 70 L247 70 Z " />
<glyph glyph-name="Iogonek" unicode="&#x12e;" horiz-adv-x="291" d="M113 0 L137 0 L272 773 L195 773 L60 2 C21 -27 -58 -89 -61 -157 C-63 -201 -38 -233 19 -233 C65 -233 98 -204 122 -180 L93 -146 C77 -164 57 -177 35 -177 C15 -177 5 -162 5 -143 C5 -102 60 -50 113 0 L113 0 Z " />
<glyph glyph-name="iogonek" unicode="&#x12f;" horiz-adv-x="298" d="M244 779 C206 779 179 750 179 710 C179 682 196 663 224 663 C262 663 289 694 289 732 C289 759 271 779 244 779 L244 779 Z M165 -8 C187 -9 215 -4 249 8 L247 70 C178 53 156 64 166 115 L241 550 L166 550 L88 105 C81 59 89 20 121 2 C82 -27 3 -89 0 -157 C-2 -201 23 -233 80 -233 C126 -233 159 -204 183 -180 L154 -146 C138 -164 118 -177 96 -177 C76 -177 66 -162 66 -143 C66 -104 115 -56 165 -8 L165 -8 Z " />
<glyph glyph-name="Idotaccent" unicode="&#x130;" horiz-adv-x="291" d="M274 1002 C301 1002 319 982 319 955 C319 917 292 886 254 886 C226 886 209 905 209 933 C209 973 236 1002 274 1002 L274 1002 Z M137 0 L60 0 L195 773 L272 773 L137 0 Z " />
<glyph glyph-name="dotlessi" unicode="&#x131;" horiz-adv-x="298" d="M247 70 L249 8 C113 -39 75 22 88 105 L166 550 L241 550 L166 115 C156 64 178 53 247 70 L247 70 Z " />
<glyph glyph-name="IJ" unicode="&#x132;" horiz-adv-x="724" d="M80 97 L146 140 C177 84 230 54 301 54 C427 54 519 151 546 304 L628 773 L706 773 L623 300 C592 122 477 -18 291 -18 C191 -18 117 27 80 97 L80 97 Z M184 271 L107 271 L195 773 L272 773 L184 271 Z " />
<glyph glyph-name="ij" unicode="&#x133;" horiz-adv-x="611" d="M236 860 C268 860 288 839 288 808 C288 765 256 732 214 732 C183 732 165 753 165 784 C165 829 195 860 236 860 L236 860 Z M566 860 C598 860 617 839 617 807 C617 766 586 731 544 731 C513 731 495 752 495 784 C495 828 526 860 566 860 L566 860 Z M232 70 L234 8 C98 -39 60 22 73 105 L151 550 L226 550 L151 115 C141 64 163 53 232 70 L232 70 Z M568 550 L468 -21 C443 -164 346 -258 236 -308 L216 -244 C216 -244 363 -180 390 -26 L490 550 L568 550 Z " />
<glyph glyph-name="Kcommaaccent" unicode="&#x136;" horiz-adv-x="711" d="M753 773 L657 773 L312 424 L211 424 L272 773 L195 773 L60 0 L137 0 L198 349 L299 349 L540 0 L641 0 L369 387 L753 773 Z M317 -79 C283 -79 255 -107 255 -143 C255 -169 271 -188 297 -188 L303 -188 C291 -204 275 -214 249 -221 L253 -256 C309 -243 345 -207 355 -156 C358 -148 360 -139 360 -129 C360 -95 345 -79 317 -79 L317 -79 Z " />
<glyph glyph-name="kcommaaccent" unicode="&#x137;" horiz-adv-x="604" d="M344 280 L601 550 L505 550 L275 314 C266 315 255 316 244 316 L183 316 L272 820 L195 820 L51 0 L128 0 L170 241 L226 241 C377 241 289 0 534 0 L547 74 C390 74 410 213 344 280 L344 280 Z M258 -79 C224 -79 196 -107 196 -143 C196 -169 212 -188 238 -188 L244 -188 C232 -204 216 -214 190 -221 L194 -256 C250 -243 286 -207 296 -156 C299 -148 301 -139 301 -129 C301 -95 286 -79 258 -79 L258 -79 Z " />
<glyph glyph-name="Lacute" unicode="&#x139;" horiz-adv-x="643" d="M407 935 L387 1003 L176 878 L189 842 L407 935 Z M150 74 L272 773 L195 773 L60 0 L547 0 L560 74 L150 74 Z " />
<glyph glyph-name="lacute" unicode="&#x13a;" horiz-adv-x="310" d="M192 919 L410 1012 L390 1080 L179 955 L192 919 Z M230 68 L231 4 C95 -42 56 18 69 102 L198 835 L274 835 L148 112 C138 62 160 51 230 68 L230 68 Z " />
<glyph glyph-name="Lcommaaccent" unicode="&#x13b;" horiz-adv-x="643" d="M150 74 L272 773 L195 773 L60 0 L547 0 L560 74 L150 74 Z M303 -79 C269 -79 241 -107 241 -143 C241 -169 257 -188 283 -188 L289 -188 C277 -204 261 -214 235 -221 L239 -256 C295 -243 331 -207 341 -156 C344 -148 346 -139 346 -129 C346 -95 331 -79 303 -79 L303 -79 Z " />
<glyph glyph-name="lcommaaccent" unicode="&#x13c;" horiz-adv-x="310" d="M148 112 L274 835 L198 835 L69 102 C56 18 95 -42 231 4 L230 68 C160 51 138 62 148 112 L148 112 Z M132 -79 C98 -79 70 -107 70 -143 C70 -169 86 -188 112 -188 L118 -188 C106 -204 90 -214 64 -221 L68 -256 C124 -243 160 -207 170 -156 C173 -148 175 -139 175 -129 C175 -95 160 -79 132 -79 L132 -79 Z " />
<glyph glyph-name="Lcaron" unicode="&#x13d;" horiz-adv-x="643" d="M456 753 L389 778 L304 556 L342 544 L456 753 Z M150 74 L272 773 L195 773 L60 0 L547 0 L560 74 L150 74 Z " />
<glyph glyph-name="lcaron" unicode="&#x13e;" horiz-adv-x="320" d="M345 621 L459 830 L392 855 L307 633 L345 621 Z M230 68 L231 4 C95 -42 56 18 69 102 L198 835 L274 835 L148 112 C138 62 160 51 230 68 L230 68 Z " />
<glyph glyph-name="Lslash" unicode="&#x141;" horiz-adv-x="643" d="M146 75 L191 334 L365 406 L377 476 L203 403 L268 773 L190 773 L119 368 L34 332 L21 263 L107 299 L55 0 L543 0 L556 75 L146 75 Z " />
<glyph glyph-name="lslash" unicode="&#x142;" horiz-adv-x="306" d="M197 418 L296 459 L308 528 L209 487 L273 850 L196 850 L126 452 L44 418 L32 348 L114 382 L67 115 C53 30 91 -30 229 16 L227 80 C159 63 137 74 146 124 L197 418 Z " />
<glyph glyph-name="Nacute" unicode="&#x143;" horiz-adv-x="885" d="M714 935 L694 1003 L483 878 L496 842 L714 935 Z M791 773 L694 215 C646 292 568 354 488 418 C365 516 241 614 268 772 L268 773 L190 773 L55 0 L133 0 L231 561 C279 482 358 419 435 357 C560 257 684 159 656 0 L734 0 L869 773 L791 773 Z " />
<glyph glyph-name="nacute" unicode="&#x144;" horiz-adv-x="659" d="M541 712 L521 780 L310 655 L323 619 L541 712 Z M417 566 C324 566 251 509 202 448 L202 450 L206 550 L142 550 L46 0 L123 0 L182 338 L183 337 C238 423 311 491 393 491 C484 491 519 439 499 328 L442 0 L519 0 L576 326 C607 504 533 566 417 566 L417 566 Z " />
<glyph glyph-name="Ncommaaccent" unicode="&#x145;" horiz-adv-x="885" d="M791 773 L694 215 C646 292 568 354 488 418 C365 516 241 614 268 772 L268 773 L190 773 L55 0 L133 0 L231 561 C279 482 358 419 435 357 C560 257 684 159 656 0 L734 0 L869 773 L791 773 Z M389 -79 C355 -79 327 -107 327 -143 C327 -169 343 -188 369 -188 L375 -188 C363 -204 347 -214 321 -221 L325 -256 C381 -243 417 -207 427 -156 C430 -148 432 -139 432 -129 C432 -95 417 -79 389 -79 L389 -79 Z " />
<glyph glyph-name="ncommaaccent" unicode="&#x146;" horiz-adv-x="659" d="M417 566 C324 566 251 509 202 448 L202 450 L206 550 L142 550 L46 0 L123 0 L182 338 L183 337 C238 423 311 491 393 491 C484 491 519 439 499 328 L442 0 L519 0 L576 326 C607 504 533 566 417 566 L417 566 Z M282 -79 C248 -79 220 -107 220 -143 C220 -169 236 -188 262 -188 L268 -188 C256 -204 240 -214 214 -221 L218 -256 C274 -243 310 -207 320 -156 C323 -148 325 -139 325 -129 C325 -95 310 -79 282 -79 L282 -79 Z " />
<glyph glyph-name="Ncaron" unicode="&#x147;" horiz-adv-x="885" d="M585 859 L703 978 L670 1012 L569 921 L497 1012 L453 978 L532 859 L585 859 Z M791 773 L694 215 C646 292 568 354 488 418 C365 516 241 614 268 772 L268 773 L190 773 L55 0 L133 0 L231 561 C279 482 358 419 435 357 C560 257 684 159 656 0 L734 0 L869 773 L791 773 Z " />
<glyph glyph-name="ncaron" unicode="&#x148;" horiz-adv-x="659" d="M412 636 L530 755 L497 789 L396 698 L324 789 L280 755 L359 636 L412 636 Z M417 566 C324 566 251 509 202 448 L202 450 L206 550 L142 550 L46 0 L123 0 L182 338 L183 337 C238 423 311 491 393 491 C484 491 519 439 499 328 L442 0 L519 0 L576 326 C607 504 533 566 417 566 L417 566 Z " />
<glyph glyph-name="Eng" unicode="&#x14a;" horiz-adv-x="886" d="M869 773 L791 773 L694 215 C646 292 568 354 488 418 C365 516 241 614 268 772 L268 773 L190 773 L55 0 L133 0 L231 561 C279 482 358 419 435 357 C555 261 673 168 659 20 L651 -22 C623 -178 477 -242 477 -242 L499 -308 C608 -258 705 -164 731 -21 L746 66 L869 773 Z " />
<glyph glyph-name="eng" unicode="&#x14b;" horiz-adv-x="659" d="M417 566 C326 566 252 512 202 452 L203 458 L206 550 L142 550 L46 0 L123 0 L182 339 L183 339 C238 426 312 494 394 494 C485 494 519 442 499 330 L455 76 L454 76 L437 -26 C411 -180 262 -244 263 -244 L284 -308 C392 -258 492 -165 515 -21 L518 0 L519 0 L576 326 C607 504 533 566 417 566 L417 566 Z " />
<glyph glyph-name="Omacron" unicode="&#x14c;" horiz-adv-x="894" d="M384 911 L396 973 L746 973 L734 911 L384 911 Z M537 792 C733 792 848 657 848 462 C848 190 652 -19 395 -19 C199 -19 84 118 84 311 C84 583 279 792 537 792 L537 792 Z M524 718 C317 718 161 549 161 322 C161 165 250 56 408 56 C617 56 771 227 771 449 C771 607 680 718 524 718 L524 718 Z " />
<glyph glyph-name="omacron" unicode="&#x14d;" horiz-adv-x="696" d="M248 688 L260 750 L610 750 L598 688 L248 688 Z M399 566 C545 566 636 470 636 327 C636 138 497 -16 297 -16 C149 -16 60 82 60 223 C60 421 206 566 399 566 L399 566 Z M387 495 C241 495 138 379 138 234 C138 130 199 55 309 55 C454 55 557 171 557 316 C557 420 496 495 387 495 L387 495 Z " />
<glyph glyph-name="Ohungarumlaut" unicode="&#x150;" horiz-adv-x="894" d="M505 844 L601 987 L536 1013 L469 857 L505 844 Z M605 844 L702 987 L636 1013 L569 857 L605 844 Z M537 792 C733 792 848 657 848 462 C848 190 652 -19 395 -19 C199 -19 84 118 84 311 C84 583 279 792 537 792 L537 792 Z M524 718 C317 718 161 549 161 322 C161 165 250 56 408 56 C617 56 771 227 771 449 C771 607 680 718 524 718 L524 718 Z " />
<glyph glyph-name="ohungarumlaut" unicode="&#x151;" horiz-adv-x="696" d="M369 621 L465 764 L400 790 L333 634 L369 621 Z M469 621 L566 764 L500 790 L433 634 L469 621 Z M399 566 C545 566 636 470 636 327 C636 138 497 -16 297 -16 C149 -16 60 82 60 223 C60 421 206 566 399 566 L399 566 Z M387 495 C241 495 138 379 138 234 C138 130 199 55 309 55 C454 55 557 171 557 316 C557 420 496 495 387 495 L387 495 Z " />
<glyph glyph-name="OE" unicode="&#x152;" horiz-adv-x="1305" d="M1314 698 L1327 773 L840 773 L814 623 C767 727 671 792 537 792 C281 792 87 582 87 311 C87 118 201 -19 395 -19 C529 -19 646 39 727 133 L704 0 L1191 0 L1204 75 L793 75 L843 363 L1134 363 L1147 437 L856 437 L902 698 L1314 698 Z M411 56 C254 56 165 165 165 322 C165 548 320 717 527 717 C682 717 773 607 773 449 C773 228 620 56 411 56 L411 56 Z " />
<glyph glyph-name="oe" unicode="&#x153;" horiz-adv-x="1116" d="M1061 403 C1079 506 998 566 884 566 C772 566 673 508 612 417 C583 509 505 566 393 566 C207 566 60 421 60 223 C60 82 149 -16 291 -16 C408 -16 502 37 560 119 C592 25 678 -16 773 -16 C865 -16 956 22 1019 85 L978 133 C928 82 850 54 779 54 C701 54 626 90 617 191 C736 193 1027 209 1061 403 L1061 403 Z M990 402 C967 269 726 260 620 261 C640 386 735 496 876 496 C960 496 999 454 990 402 L990 402 Z M309 55 C199 55 138 130 138 234 C138 379 241 495 387 495 C496 495 557 420 557 316 C557 171 454 55 309 55 L309 55 Z " />
<glyph glyph-name="Racute" unicode="&#x154;" horiz-adv-x="719" d="M631 935 L611 1003 L400 878 L413 842 L631 935 Z M736 573 C736 700 642 773 482 773 L195 773 L60 0 L137 0 L188 294 L399 294 L420 294 L551 0 L640 0 L500 303 C645 332 736 427 736 573 L736 573 Z M412 366 L201 366 L259 700 L469 700 C583 700 658 657 658 562 C658 426 555 366 412 366 L412 366 Z " />
<glyph glyph-name="racute" unicode="&#x155;" horiz-adv-x="463" d="M458 712 L438 780 L227 655 L240 619 L458 712 Z M386 566 C299 566 239 506 199 442 L199 443 L205 550 L142 550 L46 0 L122 0 L176 312 C211 399 276 490 361 490 C387 490 407 483 423 473 L470 546 C450 557 420 566 386 566 L386 566 Z " />
<glyph glyph-name="Rcommaaccent" unicode="&#x156;" horiz-adv-x="719" d="M736 573 C736 700 642 773 482 773 L195 773 L60 0 L137 0 L188 294 L399 294 L420 294 L551 0 L640 0 L500 303 C645 332 736 427 736 573 L736 573 Z M412 366 L201 366 L259 700 L469 700 C583 700 658 657 658 562 C658 426 555 366 412 366 L412 366 Z M326 -79 C292 -79 264 -107 264 -143 C264 -169 280 -188 306 -188 L312 -188 C300 -204 284 -214 258 -221 L262 -256 C318 -243 354 -207 364 -156 C367 -148 369 -139 369 -129 C369 -95 354 -79 326 -79 L326 -79 Z " />
<glyph glyph-name="rcommaaccent" unicode="&#x157;" horiz-adv-x="463" d="M386 566 C299 566 239 506 199 442 L199 443 L205 550 L142 550 L46 0 L122 0 L176 312 C211 399 276 490 361 490 C387 490 407 483 423 473 L470 546 C450 557 420 566 386 566 L386 566 Z M75 -79 C41 -79 13 -107 13 -143 C13 -169 29 -188 55 -188 L61 -188 C49 -204 33 -214 7 -221 L11 -256 C67 -243 103 -207 113 -156 C116 -148 118 -139 118 -129 C118 -95 103 -79 75 -79 L75 -79 Z " />
<glyph glyph-name="Rcaron" unicode="&#x158;" horiz-adv-x="719" d="M502 859 L620 978 L587 1012 L486 921 L414 1012 L370 978 L449 859 L502 859 Z M736 573 C736 700 642 773 482 773 L195 773 L60 0 L137 0 L188 294 L399 294 L420 294 L551 0 L640 0 L500 303 C645 332 736 427 736 573 L736 573 Z M412 366 L201 366 L259 700 L469 700 C583 700 658 657 658 562 C658 426 555 366 412 366 L412 366 Z " />
<glyph glyph-name="rcaron" unicode="&#x159;" horiz-adv-x="463" d="M329 636 L447 755 L414 789 L313 698 L241 789 L197 755 L276 636 L329 636 Z M386 566 C299 566 239 506 199 442 L199 443 L205 550 L142 550 L46 0 L122 0 L176 312 C211 399 276 490 361 490 C387 490 407 483 423 473 L470 546 C450 557 420 566 386 566 L386 566 Z " />
<glyph glyph-name="Sacute" unicode="&#x15a;" horiz-adv-x="739" d="M419 841 L637 934 L617 1002 L406 877 L419 841 Z M34 109 L101 161 C150 97 231 58 348 58 C494 58 575 117 575 209 C575 414 155 331 155 573 C155 717 315 793 469 793 C566 793 661 763 715 685 L651 637 C609 700 530 720 454 720 C332 720 242 664 242 580 C242 402 665 471 665 219 C665 77 530 -15 345 -15 C219 -15 92 34 34 109 L34 109 Z " />
<glyph glyph-name="sacute" unicode="&#x15b;" horiz-adv-x="567" d="M287 638 L505 731 L485 799 L274 674 L287 638 Z M26 82 L83 129 C118 85 176 56 256 56 C350 56 401 92 401 151 C401 285 112 236 112 408 C112 509 224 566 339 566 C411 566 480 544 520 490 L463 444 C433 486 378 500 327 500 C249 500 193 465 193 413 C193 298 484 337 484 159 C484 58 390 -11 255 -11 C160 -11 68 27 26 82 L26 82 Z " />
<glyph glyph-name="Scedilla" unicode="&#x15e;" horiz-adv-x="739" d="M242 580 C242 664 332 720 454 720 C530 720 609 700 651 637 L715 685 C661 763 566 793 469 793 C315 793 155 717 155 573 C155 331 575 414 575 209 C575 117 494 58 348 58 C231 58 150 97 101 161 L34 109 C84 44 186 -1 294 -12 L266 -93 C290 -94 391 -98 369 -160 C347 -222 246 -183 229 -172 L202 -220 C269 -259 395 -254 424 -167 C456 -76 357 -52 329 -50 L339 -15 L345 -15 C530 -15 665 77 665 219 C665 471 242 402 242 580 L242 580 Z " />
<glyph glyph-name="scedilla" unicode="&#x15f;" horiz-adv-x="567" d="M193 413 C193 465 249 500 327 500 C378 500 433 486 463 444 L520 490 C480 544 411 566 339 566 C224 566 112 509 112 408 C112 236 401 285 401 151 C401 92 350 56 256 56 C176 56 118 85 83 129 L26 82 C61 36 130 2 207 -8 L178 -93 C202 -94 303 -98 281 -160 C259 -222 158 -183 141 -172 L114 -220 C129 -230 180 -247 227 -242 C266 -238 320 -218 337 -165 C368 -76 269 -52 241 -50 L253 -11 L255 -11 C390 -11 484 58 484 159 C484 337 193 298 193 413 L193 413 Z " />
<glyph glyph-name="Scaron" unicode="&#x160;" horiz-adv-x="739" d="M455 858 L376 977 L420 1011 L492 920 L593 1011 L626 977 L508 858 L455 858 Z M34 109 L101 161 C150 97 231 58 348 58 C494 58 575 117 575 209 C575 414 155 331 155 573 C155 717 315 793 469 793 C566 793 661 763 715 685 L651 637 C609 700 530 720 454 720 C332 720 242 664 242 580 C242 402 665 471 665 219 C665 77 530 -15 345 -15 C219 -15 92 34 34 109 L34 109 Z " />
<glyph glyph-name="scaron" unicode="&#x161;" horiz-adv-x="567" d="M323 655 L244 774 L288 808 L360 717 L461 808 L494 774 L376 655 L323 655 Z M26 82 L83 129 C118 85 176 56 256 56 C350 56 401 92 401 151 C401 285 112 236 112 408 C112 509 224 566 339 566 C411 566 480 544 520 490 L463 444 C433 486 378 500 327 500 C249 500 193 465 193 413 C193 298 484 337 484 159 C484 58 390 -11 255 -11 C160 -11 68 27 26 82 L26 82 Z " />
<glyph glyph-name="uni0162" unicode="&#x162;" horiz-adv-x="711" d="M345 0 L468 699 L744 699 L756 773 L128 773 L116 699 L392 699 L269 0 L283 0 L251 -93 C275 -94 376 -98 354 -160 C332 -222 231 -183 214 -172 L187 -220 C254 -259 380 -254 409 -167 C441 -76 342 -52 314 -50 L329 0 L345 0 Z " />
<glyph glyph-name="uni0163" unicode="&#x163;" horiz-adv-x="476" d="M251 480 L437 480 L452 550 L263 550 L293 723 L216 723 L186 550 L93 550 L81 480 L174 480 L121 177 C104 82 140 10 214 -11 L186 -93 C210 -94 311 -98 289 -160 C267 -222 166 -183 149 -172 L122 -220 C189 -259 315 -254 344 -167 C376 -76 277 -52 249 -50 L259 -17 C295 -17 338 -8 385 14 L377 78 C246 18 179 75 197 174 L251 480 Z " />
<glyph glyph-name="Tcaron" unicode="&#x164;" horiz-adv-x="711" d="M485 859 L603 978 L570 1012 L469 921 L397 1012 L353 978 L432 859 L485 859 Z M756 773 L128 773 L116 699 L392 699 L269 0 L345 0 L468 699 L744 699 L756 773 Z " />
<glyph glyph-name="tcaron" unicode="&#x165;" horiz-adv-x="476" d="M501 833 L434 858 L349 636 L387 624 L501 833 Z M293 723 L216 723 L186 550 L93 550 L81 480 L174 480 L121 177 C94 26 202 -69 385 14 L377 78 C246 18 179 75 197 174 L251 480 L437 480 L452 550 L263 550 L293 723 Z " />
<glyph glyph-name="Tbar" unicode="&#x166;" horiz-adv-x="710" d="M743 698 L757 773 L129 773 L115 698 L390 698 L350 468 L155 468 L141 393 L337 393 L268 0 L346 0 L415 393 L609 393 L623 468 L428 468 L468 698 L743 698 Z " />
<glyph glyph-name="tbar" unicode="&#x167;" horiz-adv-x="477" d="M437 480 L452 550 L263 550 L293 723 L216 723 L186 550 L93 550 L81 480 L173 480 L151 352 L78 352 L67 286 L139 286 L119 170 C93 19 201 -76 385 7 L376 72 C245 11 179 68 196 167 L217 286 L375 286 L389 352 L228 352 L251 480 L437 480 Z " />
<glyph glyph-name="Utilde" unicode="&#x168;" horiz-adv-x="842" d="M412 884 C417 915 432 940 468 940 C519 940 534 879 603 879 C661 879 714 922 729 996 L667 996 C661 966 648 941 612 941 C562 941 545 1001 477 1001 C418 1001 362 956 350 884 L412 884 Z M826 773 L748 326 C712 122 568 -18 369 -18 C170 -18 76 122 112 326 L190 773 L267 773 L189 330 C159 158 237 52 381 52 C521 52 641 153 671 330 L749 773 L826 773 Z " />
<glyph glyph-name="utilde" unicode="&#x169;" horiz-adv-x="659" d="M339 717 C390 717 405 656 474 656 C532 656 585 699 600 773 L538 773 C532 743 519 718 483 718 C433 718 416 778 348 778 C289 778 233 733 221 661 L283 661 C288 692 303 717 339 717 L339 717 Z M534 550 L474 213 C418 129 349 63 265 63 C174 63 140 115 160 226 L216 550 L138 550 L81 224 C51 46 123 -16 240 -16 C333 -16 404 39 454 99 L452 0 L516 0 L612 550 L534 550 Z " />
<glyph glyph-name="Umacron" unicode="&#x16a;" horiz-adv-x="842" d="M361 911 L373 973 L723 973 L711 911 L361 911 Z M826 773 L748 326 C712 122 568 -18 369 -18 C170 -18 76 122 112 326 L190 773 L267 773 L189 330 C159 158 237 52 381 52 C521 52 641 153 671 330 L749 773 L826 773 Z " />
<glyph glyph-name="umacron" unicode="&#x16b;" horiz-adv-x="659" d="M594 750 L244 750 L232 688 L582 688 L594 750 Z M534 550 L474 213 C418 129 349 63 265 63 C174 63 140 115 160 226 L216 550 L138 550 L81 224 C51 46 123 -16 240 -16 C333 -16 404 39 454 99 L452 0 L516 0 L612 550 L534 550 Z " />
<glyph glyph-name="Uring" unicode="&#x16e;" horiz-adv-x="842" d="M561 1057 C614 1057 647 1020 647 967 C647 899 593 837 523 837 C469 837 438 875 438 928 C438 1004 488 1057 561 1057 L561 1057 Z M553 1005 C516 1005 487 975 487 937 C487 910 504 890 532 890 C569 890 596 923 596 958 C596 986 579 1005 553 1005 L553 1005 Z M826 773 L748 326 C712 122 568 -18 369 -18 C170 -18 76 122 112 326 L190 773 L267 773 L189 330 C159 158 237 52 381 52 C521 52 641 153 671 330 L749 773 L826 773 Z " />
<glyph glyph-name="uring" unicode="&#x16f;" horiz-adv-x="659" d="M394 614 C464 614 518 676 518 744 C518 797 485 834 432 834 C359 834 309 781 309 705 C309 652 340 614 394 614 L394 614 Z M424 782 C450 782 467 763 467 735 C467 700 440 667 403 667 C375 667 358 687 358 714 C358 752 387 782 424 782 L424 782 Z M534 550 L474 213 C418 129 349 63 265 63 C174 63 140 115 160 226 L216 550 L138 550 L81 224 C51 46 123 -16 240 -16 C333 -16 404 39 454 99 L452 0 L516 0 L612 550 L534 550 Z " />
<glyph glyph-name="Uhungarumlaut" unicode="&#x170;" horiz-adv-x="842" d="M482 844 L578 987 L513 1013 L446 857 L482 844 Z M582 844 L679 987 L613 1013 L546 857 L582 844 Z M826 773 L748 326 C712 122 568 -18 369 -18 C170 -18 76 122 112 326 L190 773 L267 773 L189 330 C159 158 237 52 381 52 C521 52 641 153 671 330 L749 773 L826 773 Z " />
<glyph glyph-name="uhungarumlaut" unicode="&#x171;" horiz-adv-x="659" d="M449 764 L384 790 L317 634 L353 621 L449 764 Z M453 621 L550 764 L484 790 L417 634 L453 621 Z M534 550 L474 213 C418 129 349 63 265 63 C174 63 140 115 160 226 L216 550 L138 550 L81 224 C51 46 123 -16 240 -16 C333 -16 404 39 454 99 L452 0 L516 0 L612 550 L534 550 Z " />
<glyph glyph-name="Uogonek" unicode="&#x172;" horiz-adv-x="842" d="M749 773 L671 330 C641 153 521 52 381 52 C237 52 159 158 189 330 L267 773 L190 773 L112 326 C76 122 170 -18 369 -18 C386 -18 403 -17 420 -15 C380 -48 329 -98 327 -152 C325 -196 350 -228 407 -228 C453 -228 486 -199 510 -175 L481 -141 C465 -159 445 -172 423 -172 C403 -172 393 -157 393 -138 C393 -97 447 -45 500 4 C630 52 721 170 748 326 L826 773 L749 773 Z " />
<glyph glyph-name="uogonek" unicode="&#x173;" horiz-adv-x="659" d="M503 0 L516 0 L612 550 L534 550 L474 213 C418 129 349 63 265 63 C174 63 140 115 160 226 L216 550 L138 550 L81 224 C51 46 123 -16 240 -16 C333 -16 404 39 454 99 L452 3 C413 -25 332 -88 329 -157 C327 -201 352 -233 409 -233 C455 -233 488 -204 512 -180 L483 -146 C467 -164 447 -177 425 -177 C405 -177 395 -162 395 -143 C395 -102 450 -50 503 0 L503 0 Z " />
<glyph glyph-name="Wcircumflex" unicode="&#x174;" horiz-adv-x="987" d="M613 957 L682 866 L728 901 L651 1019 L597 1019 L477 901 L510 866 L613 957 Z M951 773 L694 129 L611 740 L544 740 L240 130 L209 773 L130 773 L173 0 L251 0 L554 618 L637 0 L715 0 L1032 773 L951 773 Z " />
<glyph glyph-name="wcircumflex" unicode="&#x175;" horiz-adv-x="986" d="M567 734 L636 643 L682 678 L605 796 L551 796 L431 678 L464 643 L567 734 Z M861 550 L801 225 C781 124 731 58 632 58 C551 58 499 111 519 223 L576 550 L498 550 L442 224 C440 214 439 204 438 195 C395 116 328 58 258 58 C171 58 138 110 158 222 L215 550 L138 550 L81 224 C51 46 122 -16 231 -16 C328 -16 397 45 442 109 C462 21 535 -16 618 -16 C773 -16 848 67 881 241 L939 550 L861 550 Z " />
<glyph glyph-name="Ycircumflex" unicode="&#x176;" horiz-adv-x="720" d="M478 956 L547 865 L593 900 L516 1018 L462 1018 L342 900 L375 865 L478 956 Z M777 773 L690 773 L372 343 L205 773 L119 773 L321 277 L273 0 L351 0 L399 276 L777 773 Z " />
<glyph glyph-name="ycircumflex" unicode="&#x177;" horiz-adv-x="658" d="M390 734 L459 643 L505 678 L428 796 L374 796 L254 678 L287 643 L390 734 Z M533 550 L475 214 C419 129 350 63 266 63 C175 63 140 115 159 226 L216 550 L139 550 L82 224 C52 46 125 -16 241 -16 C336 -16 406 40 456 101 L442 22 C416 -131 321 -228 192 -228 C121 -228 66 -198 35 -141 L-32 -185 C5 -254 80 -300 182 -300 C370 -300 487 -159 518 19 L611 550 L533 550 Z " />
<glyph glyph-name="Ydieresis" unicode="&#x178;" horiz-adv-x="720" d="M366 890 C400 890 425 917 425 952 C425 977 409 995 385 995 C350 995 325 968 325 932 C325 907 340 890 366 890 L366 890 Z M570 890 C604 890 629 917 629 952 C629 977 613 995 589 995 C554 995 529 968 529 932 C529 907 544 890 570 890 L570 890 Z M777 773 L690 773 L372 343 L205 773 L119 773 L321 277 L273 0 L351 0 L399 276 L777 773 Z " />
<glyph glyph-name="Zacute" unicode="&#x179;" horiz-adv-x="759" d="M636 935 L616 1003 L405 878 L418 842 L636 935 Z M786 772 L153 772 L139 697 L651 699 L25 39 L18 0 L651 0 L665 75 L150 73 L779 736 L786 772 Z " />
<glyph glyph-name="zacute" unicode="&#x17a;" horiz-adv-x="609" d="M520 712 L500 780 L289 655 L302 619 L520 712 Z M574 550 L118 550 L104 475 L466 478 L12 52 L47 0 C211 94 279 -78 511 3 L524 77 C338 12 263 107 150 95 L560 475 L574 550 Z " />
<glyph glyph-name="Zdotaccent" unicode="&#x17b;" horiz-adv-x="759" d="M486 886 C524 886 551 917 551 955 C551 982 533 1002 506 1002 C468 1002 441 973 441 933 C441 905 458 886 486 886 L486 886 Z M786 772 L153 772 L139 697 L651 699 L25 39 L18 0 L651 0 L665 75 L150 73 L779 736 L786 772 Z " />
<glyph glyph-name="zdotaccent" unicode="&#x17c;" horiz-adv-x="609" d="M370 663 C408 663 435 694 435 732 C435 759 417 779 390 779 C352 779 325 750 325 710 C325 682 342 663 370 663 L370 663 Z M574 550 L118 550 L104 475 L466 478 L12 52 L47 0 C211 94 279 -78 511 3 L524 77 C338 12 263 107 150 95 L560 475 L574 550 Z " />
<glyph glyph-name="Zcaron" unicode="&#x17d;" horiz-adv-x="759" d="M507 859 L625 978 L592 1012 L491 921 L419 1012 L375 978 L454 859 L507 859 Z M786 772 L153 772 L139 697 L651 699 L25 39 L18 0 L651 0 L665 75 L150 73 L779 736 L786 772 Z " />
<glyph glyph-name="zcaron" unicode="&#x17e;" horiz-adv-x="609" d="M391 636 L509 755 L476 789 L375 698 L303 789 L259 755 L338 636 L391 636 Z M574 550 L118 550 L104 475 L466 478 L12 52 L47 0 C211 94 279 -78 511 3 L524 77 C338 12 263 107 150 95 L560 475 L574 550 Z " />
<glyph glyph-name="longs" unicode="&#x17f;" horiz-adv-x="454" d="M208 646 L191 550 L94 550 L81 478 L179 478 L54 -242 L129 -242 L284 652 C309 795 416 817 519 773 L531 840 C420 888 246 857 208 646 L208 646 Z " />
<glyph glyph-name="Ohorn" unicode="&#x1a0;" horiz-adv-x="888" d="M894 860 L825 860 C825 809 809 789 759 789 C685 790 613 792 539 792 L538 792 L536 792 C278 791 84 582 84 311 C84 118 199 -19 395 -19 C652 -19 848 190 848 462 C848 572 811 664 743 722 L770 722 C866 722 890 777 894 860 L894 860 Z M771 449 C771 227 617 56 408 56 C250 56 161 165 161 322 C161 549 317 718 524 718 C680 718 771 607 771 449 L771 449 Z " />
<glyph glyph-name="ohorn" unicode="&#x1a1;" horiz-adv-x="693" d="M708 637 L639 637 C640 586 624 564 574 564 C499 565 473 566 399 566 C206 566 59 421 59 223 C59 82 148 -16 297 -16 C497 -16 635 138 635 327 C635 399 612 459 571 501 L575 501 C679 496 705 554 708 637 L708 637 Z M309 55 C199 55 137 130 137 234 C137 379 241 495 386 495 C495 495 556 420 556 316 C556 171 453 55 309 55 L309 55 Z " />
<glyph glyph-name="Uhorn" unicode="&#x1af;" horiz-adv-x="849" d="M907 847 C907 796 891 772 841 773 L745 773 L667 332 C637 155 517 54 377 54 C233 54 155 160 185 332 L263 773 L185 773 L107 328 C71 124 165 -16 365 -16 C564 -16 707 124 744 328 L810 708 L849 708 C945 708 971 764 976 847 L907 847 Z " />
<glyph glyph-name="uhorn" unicode="&#x1b0;" horiz-adv-x="698" d="M675 624 C675 574 659 550 611 550 L534 550 L474 213 C417 129 348 63 264 63 C173 63 140 115 159 226 L216 550 L138 550 L81 224 C50 46 123 -16 239 -16 C333 -16 404 39 454 99 L451 0 L515 0 L600 485 L616 485 C713 485 739 541 744 624 L675 624 Z " />
<glyph glyph-name="uni01CD" unicode="&#x1cd;" horiz-adv-x="795" d="M526 859 L644 978 L611 1012 L510 921 L438 1012 L394 978 L473 859 L526 859 Z M633 0 L714 0 L527 773 L442 773 L-14 0 L67 0 L188 208 L584 208 L633 0 Z M232 283 L470 692 L566 283 L232 283 Z " />
<glyph glyph-name="uni01CE" unicode="&#x1ce;" horiz-adv-x="754" d="M424 636 L542 755 L509 789 L408 698 L336 789 L292 755 L371 636 L424 636 Z M660 70 C591 53 569 64 579 115 L654 550 L579 550 L560 439 C533 517 470 566 372 566 C192 566 59 416 59 217 C59 79 137 -16 274 -16 C373 -16 449 28 500 95 C491 17 531 -37 662 8 L660 70 Z M298 55 C195 55 137 127 137 232 C137 381 236 495 374 495 C476 495 534 423 534 319 C534 306 533 293 532 280 L526 247 C500 134 411 55 298 55 L298 55 Z " />
<glyph glyph-name="uni01CF" unicode="&#x1cf;" horiz-adv-x="291" d="M222 859 L143 978 L187 1012 L259 921 L360 1012 L393 978 L275 859 L222 859 Z M137 0 L60 0 L195 773 L272 773 L137 0 Z " />
<glyph glyph-name="uni01D0" unicode="&#x1d0;" horiz-adv-x="298" d="M192 636 L113 755 L157 789 L229 698 L330 789 L363 755 L245 636 L192 636 Z M247 70 L249 8 C113 -39 75 22 88 105 L166 550 L241 550 L166 115 C156 64 178 53 247 70 L247 70 Z " />
<glyph glyph-name="uni01D1" unicode="&#x1d1;" horiz-adv-x="894" d="M523 859 L444 978 L488 1012 L560 921 L661 1012 L694 978 L576 859 L523 859 Z M537 792 C733 792 848 657 848 462 C848 190 652 -19 395 -19 C199 -19 84 118 84 311 C84 583 279 792 537 792 L537 792 Z M524 718 C317 718 161 549 161 322 C161 165 250 56 408 56 C617 56 771 227 771 449 C771 607 680 718 524 718 L524 718 Z " />
<glyph glyph-name="uni01D2" unicode="&#x1d2;" horiz-adv-x="696" d="M387 636 L308 755 L352 789 L424 698 L525 789 L558 755 L440 636 L387 636 Z M399 566 C545 566 636 470 636 327 C636 138 497 -16 297 -16 C149 -16 60 82 60 223 C60 421 206 566 399 566 L399 566 Z M387 495 C241 495 138 379 138 234 C138 130 199 55 309 55 C454 55 557 171 557 316 C557 420 496 495 387 495 L387 495 Z " />
<glyph glyph-name="uni01D3" unicode="&#x1d3;" horiz-adv-x="842" d="M500 859 L421 978 L465 1012 L537 921 L638 1012 L671 978 L553 859 L500 859 Z M826 773 L748 326 C712 122 568 -18 369 -18 C170 -18 76 122 112 326 L190 773 L267 773 L189 330 C159 158 237 52 381 52 C521 52 641 153 671 330 L749 773 L826 773 Z " />
<glyph glyph-name="uni01D4" unicode="&#x1d4;" horiz-adv-x="659" d="M424 636 L542 755 L509 789 L408 698 L336 789 L292 755 L371 636 L424 636 Z M534 550 L474 213 C418 129 349 63 265 63 C174 63 140 115 160 226 L216 550 L138 550 L81 224 C51 46 123 -16 240 -16 C333 -16 404 39 454 99 L452 0 L516 0 L612 550 L534 550 Z " />
<glyph glyph-name="uni01D5" unicode="&#x1d5;" horiz-adv-x="842" d="M401 1134 L413 1196 L763 1196 L751 1134 L401 1134 Z M449 996 C473 996 489 978 489 953 C489 918 464 891 430 891 C404 891 389 908 389 933 C389 969 414 996 449 996 L449 996 Z M653 996 C677 996 693 978 693 953 C693 918 668 891 634 891 C608 891 593 908 593 933 C593 969 618 996 653 996 L653 996 Z M826 773 L748 326 C712 122 568 -18 369 -18 C170 -18 76 122 112 326 L190 773 L267 773 L189 330 C159 158 237 52 381 52 C521 52 641 153 671 330 L749 773 L826 773 Z " />
<glyph glyph-name="uni01D6" unicode="&#x1d6;" horiz-adv-x="659" d="M284 973 L272 911 L622 911 L634 973 L284 973 Z M301 668 C335 668 360 695 360 730 C360 755 344 773 320 773 C285 773 260 746 260 710 C260 685 275 668 301 668 L301 668 Z M564 730 C564 755 548 773 524 773 C489 773 464 746 464 710 C464 685 479 668 505 668 C539 668 564 695 564 730 L564 730 Z M474 213 C418 129 349 63 265 63 C174 63 140 115 160 226 L216 550 L138 550 L81 224 C51 46 123 -16 240 -16 C333 -16 404 39 454 99 L452 0 L516 0 L612 550 L534 550 L474 213 Z " />
<glyph glyph-name="uni01D7" unicode="&#x1d7;" horiz-adv-x="842" d="M504 1065 L722 1158 L702 1226 L491 1101 L504 1065 Z M449 996 C473 996 489 978 489 953 C489 918 464 891 430 891 C404 891 389 908 389 933 C389 969 414 996 449 996 L449 996 Z M653 996 C677 996 693 978 693 953 C693 918 668 891 634 891 C608 891 593 908 593 933 C593 969 618 996 653 996 L653 996 Z M826 773 L748 326 C712 122 568 -18 369 -18 C170 -18 76 122 112 326 L190 773 L267 773 L189 330 C159 158 237 52 381 52 C521 52 641 153 671 330 L749 773 L826 773 Z " />
<glyph glyph-name="uni01D8" unicode="&#x1d8;" horiz-adv-x="659" d="M593 935 L573 1003 L362 878 L375 842 L593 935 Z M301 668 C335 668 360 695 360 730 C360 755 344 773 320 773 C285 773 260 746 260 710 C260 685 275 668 301 668 L301 668 Z M464 710 C464 685 479 668 505 668 C539 668 564 695 564 730 C564 755 548 773 524 773 C489 773 464 746 464 710 L464 710 Z M534 550 L474 213 C418 129 349 63 265 63 C174 63 140 115 160 226 L216 550 L138 550 L81 224 C51 46 123 -16 240 -16 C333 -16 404 39 454 99 L452 0 L516 0 L612 550 L534 550 Z " />
<glyph glyph-name="uni01D9" unicode="&#x1d9;" horiz-adv-x="842" d="M540 1082 L461 1201 L505 1235 L577 1144 L678 1235 L711 1201 L593 1082 L540 1082 Z M449 996 C473 996 489 978 489 953 C489 918 464 891 430 891 C404 891 389 908 389 933 C389 969 414 996 449 996 L449 996 Z M653 996 C677 996 693 978 693 953 C693 918 668 891 634 891 C608 891 593 908 593 933 C593 969 618 996 653 996 L653 996 Z M826 773 L748 326 C712 122 568 -18 369 -18 C170 -18 76 122 112 326 L190 773 L267 773 L189 330 C159 158 237 52 381 52 C521 52 641 153 671 330 L749 773 L826 773 Z " />
<glyph glyph-name="uni01DA" unicode="&#x1da;" horiz-adv-x="659" d="M464 859 L582 978 L549 1012 L448 921 L376 1012 L332 978 L411 859 L464 859 Z M301 668 C335 668 360 695 360 730 C360 755 344 773 320 773 C285 773 260 746 260 710 C260 685 275 668 301 668 L301 668 Z M464 710 C464 685 479 668 505 668 C539 668 564 695 564 730 C564 755 548 773 524 773 C489 773 464 746 464 710 L464 710 Z M534 550 L474 213 C418 129 349 63 265 63 C174 63 140 115 160 226 L216 550 L138 550 L81 224 C51 46 123 -16 240 -16 C333 -16 404 39 454 99 L452 0 L516 0 L612 550 L534 550 Z " />
<glyph glyph-name="uni01DB" unicode="&#x1db;" horiz-adv-x="842" d="M619 1065 L644 1101 L477 1226 L432 1158 L619 1065 Z M449 996 C473 996 489 978 489 953 C489 918 464 891 430 891 C404 891 389 908 389 933 C389 969 414 996 449 996 L449 996 Z M653 996 C677 996 693 978 693 953 C693 918 668 891 634 891 C608 891 593 908 593 933 C593 969 618 996 653 996 L653 996 Z M826 773 L748 326 C712 122 568 -18 369 -18 C170 -18 76 122 112 326 L190 773 L267 773 L189 330 C159 158 237 52 381 52 C521 52 641 153 671 330 L749 773 L826 773 Z " />
<glyph glyph-name="uni01DC" unicode="&#x1dc;" horiz-adv-x="659" d="M515 878 L348 1003 L303 935 L490 842 L515 878 Z M301 668 C335 668 360 695 360 730 C360 755 344 773 320 773 C285 773 260 746 260 710 C260 685 275 668 301 668 L301 668 Z M464 710 C464 685 479 668 505 668 C539 668 564 695 564 730 C564 755 548 773 524 773 C489 773 464 746 464 710 L464 710 Z M534 550 L474 213 C418 129 349 63 265 63 C174 63 140 115 160 226 L216 550 L138 550 L81 224 C51 46 123 -16 240 -16 C333 -16 404 39 454 99 L452 0 L516 0 L612 550 L534 550 Z " />
<glyph glyph-name="uni01DE" unicode="&#x1de;" horiz-adv-x="795" d="M386 1196 L374 1134 L724 1134 L736 1196 L386 1196 Z M462 953 C462 978 446 996 422 996 C387 996 362 969 362 933 C362 908 377 891 403 891 C437 891 462 918 462 953 L462 953 Z M666 953 C666 978 650 996 626 996 C591 996 566 969 566 933 C566 908 581 891 607 891 C641 891 666 918 666 953 L666 953 Z M442 773 L-14 0 L67 0 L188 208 L584 208 L633 0 L714 0 L527 773 L442 773 Z M232 283 L470 692 L566 283 L232 283 Z " />
<glyph glyph-name="uni01DF" unicode="&#x1df;" horiz-adv-x="754" d="M634 973 L284 973 L272 911 L622 911 L634 973 Z M301 668 C335 668 360 695 360 730 C360 755 344 773 320 773 C285 773 260 746 260 710 C260 685 275 668 301 668 L301 668 Z M464 710 C464 685 479 668 505 668 C539 668 564 695 564 730 C564 755 548 773 524 773 C489 773 464 746 464 710 L464 710 Z M660 70 C591 53 569 64 579 115 L654 550 L579 550 L560 439 C533 517 470 566 372 566 C192 566 59 416 59 217 C59 79 137 -16 274 -16 C373 -16 449 28 500 95 C491 17 531 -37 662 8 L660 70 Z M298 55 C195 55 137 127 137 232 C137 381 236 495 374 495 C476 495 534 423 534 319 C534 306 533 293 532 280 L526 247 C500 134 411 55 298 55 L298 55 Z " />
<glyph glyph-name="Gcaron" unicode="&#x1e6;" horiz-adv-x="845" d="M574 859 L692 978 L659 1012 L558 921 L486 1012 L442 978 L521 859 L574 859 Z M767 382 L500 382 L487 308 L674 308 L650 163 C585 94 503 58 409 58 C252 58 162 167 162 324 C162 552 319 719 521 719 C622 719 706 674 744 595 L812 640 C763 739 660 793 534 793 C281 793 84 585 84 313 C84 120 199 -17 395 -17 C520 -17 637 36 724 136 L767 382 Z " />
<glyph glyph-name="gcaron" unicode="&#x1e7;" horiz-adv-x="698" d="M425 636 L543 755 L510 789 L409 698 L337 789 L293 755 L372 636 L425 636 Z M584 550 L557 458 L556 451 C530 521 474 566 376 566 C187 566 63 418 63 223 C63 93 134 -4 277 -4 C374 -4 445 33 492 91 L480 22 C453 -131 359 -228 231 -228 C159 -228 105 -198 73 -141 L6 -185 C44 -255 118 -300 222 -300 C408 -300 525 -159 556 19 L649 550 L584 550 Z M298 67 C192 67 141 136 141 235 C141 380 224 495 374 495 C478 495 530 426 530 326 C530 317 530 308 529 300 L517 234 C489 136 412 67 298 67 L298 67 Z " />
<glyph glyph-name="aeacute" unicode="&#x1fd;" horiz-adv-x="1047" d="M731 712 L711 780 L500 655 L513 619 L731 712 Z M992 403 C1010 506 929 566 815 566 C706 566 610 512 549 426 C525 513 452 566 346 566 C277 566 189 544 125 515 L147 448 C196 470 272 494 335 494 C441 494 503 426 484 319 L483 314 C443 327 381 343 315 343 C141 343 42 259 42 141 C42 49 117 -13 240 -13 C360 -13 443 42 490 122 C521 26 608 -16 703 -16 C795 -16 886 22 950 85 L909 133 C858 82 780 54 710 54 C631 54 556 90 548 191 C669 193 957 209 992 403 L992 403 Z M921 402 C898 269 657 260 551 261 C571 386 666 496 806 496 C890 496 930 454 921 402 L921 402 Z M257 56 C170 56 118 94 119 155 C120 236 190 274 313 274 C379 274 436 259 472 247 L472 246 L471 246 C451 130 382 56 257 56 L257 56 Z " />
<glyph glyph-name="Oslashacute" unicode="&#x1fe;" horiz-adv-x="893" d="M706 935 L686 1003 L475 878 L488 842 L706 935 Z M909 720 L867 771 L774 692 C721 755 640 792 538 792 C281 792 85 583 85 311 C85 246 98 187 123 137 L28 56 L70 6 L160 82 C213 19 294 -19 397 -19 C653 -19 849 191 849 462 C849 528 836 587 811 636 L909 720 Z M164 322 C164 548 317 717 525 717 C605 717 668 688 710 637 L188 193 C172 230 164 274 164 322 L164 322 Z M770 449 C770 228 618 56 408 56 C327 56 264 86 223 136 L745 580 C761 542 770 498 770 449 L770 449 Z " />
<glyph glyph-name="oslashacute" unicode="&#x1ff;" horiz-adv-x="706" d="M572 712 L552 780 L341 655 L354 619 L572 712 Z M682 515 L649 555 L580 496 C539 541 479 566 404 566 C211 566 64 421 64 223 C64 171 76 125 99 87 L20 20 L54 -21 L132 46 C173 7 230 -16 302 -16 C503 -16 640 138 640 327 C640 375 630 418 610 454 L682 515 Z M144 234 C144 379 245 495 390 495 C446 495 489 476 518 444 L163 142 C151 168 144 200 144 234 L144 234 Z M562 316 C562 171 459 55 314 55 C263 55 223 71 194 99 L546 399 C557 375 562 347 562 316 L562 316 Z " />
<glyph glyph-name="Scommaaccent" unicode="&#x218;" horiz-adv-x="739" d="M242 580 C242 664 332 720 454 720 C530 720 609 700 651 637 L715 685 C661 763 566 793 469 793 C315 793 155 717 155 573 C155 331 575 414 575 209 C575 117 494 58 348 58 C231 58 150 97 101 161 L34 109 C92 34 219 -15 345 -15 C530 -15 665 77 665 219 C665 471 242 402 242 580 L242 580 Z M310 -79 C276 -79 248 -107 248 -143 C248 -169 264 -188 290 -188 L296 -188 C284 -204 268 -214 242 -221 L246 -256 C302 -243 338 -207 348 -156 C351 -148 353 -139 353 -129 C353 -95 338 -79 310 -79 L310 -79 Z " />
<glyph glyph-name="scommaaccent" unicode="&#x219;" horiz-adv-x="567" d="M193 413 C193 465 249 500 327 500 C378 500 433 486 463 444 L520 490 C480 544 411 566 339 566 C224 566 112 509 112 408 C112 236 401 285 401 151 C401 92 350 56 256 56 C176 56 118 85 83 129 L26 82 C68 27 160 -11 255 -11 C390 -11 484 58 484 159 C484 337 193 298 193 413 L193 413 Z M222 -79 C188 -79 160 -107 160 -143 C160 -169 176 -188 202 -188 L208 -188 C196 -204 180 -214 154 -221 L158 -256 C214 -243 250 -207 260 -156 C263 -148 265 -139 265 -129 C265 -95 250 -79 222 -79 L222 -79 Z " />
<glyph glyph-name="uni021A" unicode="&#x21a;" horiz-adv-x="711" d="M756 773 L128 773 L116 699 L392 699 L269 0 L345 0 L468 699 L744 699 L756 773 Z M295 -79 C261 -79 233 -107 233 -143 C233 -169 249 -188 275 -188 L281 -188 C269 -204 253 -214 227 -221 L231 -256 C287 -243 323 -207 333 -156 C336 -148 338 -139 338 -129 C338 -95 323 -79 295 -79 L295 -79 Z " />
<glyph glyph-name="uni021B" unicode="&#x21b;" horiz-adv-x="476" d="M251 480 L437 480 L452 550 L263 550 L293 723 L216 723 L186 550 L93 550 L81 480 L174 480 L121 177 C94 26 202 -69 385 14 L377 78 C246 18 179 75 197 174 L251 480 Z M230 -79 C196 -79 168 -107 168 -143 C168 -169 184 -188 210 -188 L216 -188 C204 -204 188 -214 162 -221 L166 -256 C222 -243 258 -207 268 -156 C271 -148 273 -139 273 -129 C273 -95 258 -79 230 -79 L230 -79 Z " />
<glyph glyph-name="uni0228" unicode="&#x228;" horiz-adv-x="677" d="M682 700 L695 773 L195 773 L60 0 L283 0 L251 -93 C275 -94 376 -98 354 -160 C332 -222 231 -183 214 -172 L187 -220 C202 -230 253 -247 300 -242 C339 -238 393 -218 410 -165 C441 -76 342 -52 314 -50 L329 0 L560 0 L573 73 L149 73 L199 363 L510 363 L523 437 L212 437 L258 700 L682 700 Z " />
<glyph glyph-name="uni0229" unicode="&#x229;" horiz-adv-x="632" d="M535 85 L495 133 C461 101 381 51 295 51 C215 51 140 89 131 191 C292 194 580 223 580 430 C580 517 502 566 400 566 C209 566 56 406 56 203 C56 60 147 -6 256 -15 L229 -93 C253 -94 354 -98 332 -160 C310 -222 209 -183 192 -172 L165 -220 C180 -230 231 -247 278 -242 C317 -238 371 -218 388 -165 C419 -76 320 -52 292 -50 L302 -15 C390 -11 475 26 535 85 L535 85 Z M392 499 C467 499 509 464 509 419 C509 281 254 262 134 261 C154 386 250 499 392 499 L392 499 Z " />
<glyph glyph-name="uni022A" unicode="&#x22a;" horiz-adv-x="894" d="M424 1134 L436 1196 L786 1196 L774 1134 L424 1134 Z M472 996 C496 996 512 978 512 953 C512 918 487 891 453 891 C427 891 412 908 412 933 C412 969 437 996 472 996 L472 996 Z M676 996 C700 996 716 978 716 953 C716 918 691 891 657 891 C631 891 616 908 616 933 C616 969 641 996 676 996 L676 996 Z M537 792 C733 792 848 657 848 462 C848 190 652 -19 395 -19 C199 -19 84 118 84 311 C84 583 279 792 537 792 L537 792 Z M524 718 C317 718 161 549 161 322 C161 165 250 56 408 56 C617 56 771 227 771 449 C771 607 680 718 524 718 L524 718 Z " />
<glyph glyph-name="uni022B" unicode="&#x22b;" horiz-adv-x="696" d="M288 911 L300 973 L650 973 L638 911 L288 911 Z M336 773 C360 773 376 755 376 730 C376 695 351 668 317 668 C291 668 276 685 276 710 C276 746 301 773 336 773 L336 773 Z M540 773 C564 773 580 755 580 730 C580 695 555 668 521 668 C495 668 480 685 480 710 C480 746 505 773 540 773 L540 773 Z M399 566 C545 566 636 470 636 327 C636 138 497 -16 297 -16 C149 -16 60 82 60 223 C60 421 206 566 399 566 L399 566 Z M387 495 C241 495 138 379 138 234 C138 130 199 55 309 55 C454 55 557 171 557 316 C557 420 496 495 387 495 L387 495 Z " />
<glyph glyph-name="uni0237" unicode="&#x237;" horiz-adv-x="457" d="M352 550 L252 -21 C227 -164 130 -258 20 -308 L0 -244 C0 -244 147 -180 174 -26 L274 550 L352 550 Z " />
<glyph glyph-name="uni0244" unicode="&#x244;" horiz-adv-x="992" d="M942 551 L862 551 L901 773 L824 773 L785 551 L303 550 L342 773 L265 773 L226 550 L146 550 L136 493 L216 493 L187 328 C150 124 244 -16 444 -16 C643 -16 787 124 823 328 L852 494 L932 494 L942 551 Z M747 332 C716 155 597 54 458 54 C313 54 234 160 264 332 L293 493 L775 494 L747 332 Z " />
<glyph glyph-name="uni0250" unicode="&#x250;" horiz-adv-x="600" d="M120 263 C159 241 223 216 305 216 C449 216 559 292 559 417 C559 505 491 566 366 566 C276 566 207 536 159 490 L162 553 L94 553 L34 211 C8 61 98 -13 237 -13 C322 -13 397 14 449 44 L428 110 C383 84 320 59 250 59 C154 59 93 106 110 208 L120 263 Z M347 497 C433 497 480 463 480 405 C480 325 413 282 307 282 C224 282 166 308 132 330 L133 336 C148 427 220 497 347 497 L347 497 Z " />
<glyph glyph-name="uni0251" unicode="&#x251;" horiz-adv-x="754" d="M660 70 C591 53 569 64 579 115 L654 550 L579 550 L560 439 C533 517 470 566 372 566 C192 566 59 416 59 217 C59 79 137 -16 274 -16 C373 -16 449 28 500 95 C491 17 531 -37 662 8 L660 70 Z M298 55 C195 55 137 127 137 232 C137 381 236 495 374 495 C476 495 534 423 534 319 C534 306 533 293 532 280 L526 247 C500 134 411 55 298 55 L298 55 Z " />
<glyph glyph-name="uni0259" unicode="&#x259;" horiz-adv-x="637" d="M577 331 C577 107 428 -16 256 -16 C84 -16 16 95 71 307 L500 307 C509 422 454 496 340 496 C271 496 193 468 141 417 L103 465 C167 530 262 566 352 566 C495 566 577 472 577 331 L577 331 Z M488 244 L131 244 C112 129 151 52 267 52 C383 52 467 125 488 244 L488 244 Z " />
<glyph glyph-name="uni0289" unicode="&#x289;" horiz-adv-x="753" d="M703 364 L627 364 L660 550 L582 550 L549 364 L230 363 L263 550 L184 550 L152 363 L75 363 L65 306 L142 306 L128 224 C97 46 171 -16 288 -16 C382 -16 452 40 502 101 L502 100 L497 0 L562 0 L617 307 L693 307 L703 364 Z M523 217 C466 131 398 63 313 63 C222 63 186 115 206 226 L220 306 L539 307 L523 217 Z " />
<glyph glyph-name="circumflex" unicode="&#x2c6;" horiz-adv-x="495" d="M313 796 L367 796 L444 678 L398 643 L329 734 L226 643 L193 678 L313 796 Z " />
<glyph glyph-name="caron" unicode="&#x2c7;" horiz-adv-x="495" d="M286 636 L207 755 L251 789 L323 698 L424 789 L457 755 L339 636 L286 636 Z " />
<glyph glyph-name="breve" unicode="&#x2d8;" horiz-adv-x="523" d="M436 773 L498 773 C474 698 413 643 327 643 C244 643 196 694 200 773 L263 773 C264 736 288 703 337 703 C386 703 419 736 436 773 L436 773 Z " />
<glyph glyph-name="dotaccent" unicode="&#x2d9;" horiz-adv-x="514" d="M346 779 C373 779 391 759 391 732 C391 694 364 663 326 663 C298 663 281 682 281 710 C281 750 308 779 346 779 L346 779 Z " />
<glyph glyph-name="ring" unicode="&#x2da;" horiz-adv-x="487" d="M342 834 C395 834 428 797 428 744 C428 676 374 614 304 614 C250 614 219 652 219 705 C219 781 269 834 342 834 L342 834 Z M334 782 C297 782 268 752 268 714 C268 687 285 667 313 667 C350 667 377 700 377 735 C377 763 360 782 334 782 L334 782 Z " />
<glyph glyph-name="ogonek" unicode="&#x2db;" horiz-adv-x="470" d="M207 8 L261 8 C207 -43 150 -96 150 -138 C150 -157 160 -172 180 -172 C202 -172 222 -159 238 -141 L267 -175 C243 -199 210 -228 164 -228 C107 -228 82 -196 84 -152 C87 -83 168 -20 207 8 L207 8 Z " />
<glyph glyph-name="tilde" unicode="&#x2dc;" horiz-adv-x="606" d="M236 661 C241 692 256 717 292 717 C343 717 358 656 427 656 C485 656 538 699 553 773 L491 773 C485 743 472 718 436 718 C386 718 369 778 301 778 C242 778 186 733 174 661 L236 661 Z " />
<glyph glyph-name="hungarumlaut" unicode="&#x2dd;" horiz-adv-x="394" d="M192 620 L288 763 L223 789 L156 633 L192 620 Z M292 620 L389 763 L323 789 L256 633 L292 620 Z " />
<glyph glyph-name="gravecomb" unicode="&#x300;" d="M-91 619 L-66 655 L-233 780 L-278 712 L-91 619 Z " />
<glyph glyph-name="acutecomb" unicode="&#x301;" d="M-270 619 L-52 712 L-72 780 L-283 655 L-270 619 Z " />
<glyph glyph-name="uni0302" unicode="&#x302;" d="M-182 796 L-128 796 L-51 678 L-97 643 L-166 734 L-269 643 L-302 678 L-182 796 Z " />
<glyph glyph-name="tildecomb" unicode="&#x303;" d="M-370 661 C-365 692 -350 717 -314 717 C-263 717 -248 656 -179 656 C-121 656 -68 699 -53 773 L-115 773 C-121 743 -134 718 -170 718 C-220 718 -237 778 -305 778 C-364 778 -420 733 -432 661 L-370 661 Z " />
<glyph glyph-name="uni0304" unicode="&#x304;" d="M-375 688 L-363 750 L-13 750 L-25 688 L-375 688 Z " />
<glyph glyph-name="uni0306" unicode="&#x306;" d="M-87 773 L-25 773 C-49 698 -110 643 -196 643 C-279 643 -327 694 -323 773 L-260 773 C-259 736 -235 703 -186 703 C-137 703 -104 736 -87 773 L-87 773 Z " />
<glyph glyph-name="uni0307" unicode="&#x307;" d="M-168 779 C-141 779 -123 759 -123 732 C-123 694 -150 663 -188 663 C-216 663 -233 682 -233 710 C-233 750 -206 779 -168 779 L-168 779 Z " />
<glyph glyph-name="uni0308" unicode="&#x308;" d="M-266 773 C-242 773 -226 755 -226 730 C-226 695 -251 668 -285 668 C-311 668 -326 685 -326 710 C-326 746 -301 773 -266 773 L-266 773 Z M-62 773 C-38 773 -22 755 -22 730 C-22 695 -47 668 -81 668 C-107 668 -122 685 -122 710 C-122 746 -97 773 -62 773 L-62 773 Z " />
<glyph glyph-name="hookabovecomb" unicode="&#x309;" d="M-120 616 L-173 616 C-120 666 -65 709 -65 751 C-65 771 -75 785 -96 785 C-118 785 -135 772 -154 755 L-182 789 C-160 813 -127 841 -78 841 C-23 842 3 809 1 766 C-2 695 -82 644 -120 616 L-120 616 Z " />
<glyph glyph-name="uni030A" unicode="&#x30a;" d="M-145 834 C-92 834 -59 797 -59 744 C-59 676 -113 614 -183 614 C-237 614 -268 652 -268 705 C-268 781 -218 834 -145 834 L-145 834 Z M-153 782 C-190 782 -219 752 -219 714 C-219 687 -202 667 -174 667 C-137 667 -110 700 -110 735 C-110 763 -127 782 -153 782 L-153 782 Z " />
<glyph glyph-name="uni030B" unicode="&#x30b;" d="M-202 620 L-106 763 L-171 789 L-238 633 L-202 620 Z M-102 620 L-5 763 L-71 789 L-138 633 L-102 620 Z " />
<glyph glyph-name="uni030C" unicode="&#x30c;" d="M-209 636 L-288 755 L-244 789 L-172 698 L-71 789 L-38 755 L-156 636 L-209 636 Z " />
<glyph glyph-name="uni0312" unicode="&#x312;" d="M-66 727 C-66 691 -92 663 -130 663 C-153 663 -171 679 -171 714 C-171 776 -133 825 -64 839 L-60 805 C-86 798 -103 788 -113 772 L-108 772 C-82 772 -66 753 -66 727 L-66 727 Z " />
<glyph glyph-name="dotbelowcomb" unicode="&#x323;" d="M-321 -89 C-294 -89 -276 -109 -276 -137 C-276 -175 -304 -205 -341 -205 C-370 -205 -387 -186 -387 -159 C-387 -119 -359 -89 -321 -89 L-321 -89 Z " />
<glyph glyph-name="uni0326" unicode="&#x326;" d="M-217 -129 C-217 -95 -232 -79 -260 -79 C-294 -79 -322 -107 -322 -143 C-322 -169 -306 -188 -280 -188 L-274 -188 C-286 -204 -302 -214 -328 -221 L-324 -256 C-268 -243 -232 -207 -222 -156 C-219 -148 -217 -139 -217 -129 L-217 -129 Z " />
<glyph glyph-name="uni0327" unicode="&#x327;" d="M-298 14 L-255 7 L-272 -50 C-244 -52 -145 -76 -176 -165 C-193 -218 -247 -238 -286 -242 C-333 -247 -384 -230 -399 -220 L-372 -172 C-355 -183 -254 -222 -232 -160 C-210 -98 -311 -94 -335 -93 L-298 14 Z " />
<glyph glyph-name="uni0328" unicode="&#x328;" d="M-263 8 L-209 8 C-263 -43 -320 -96 -320 -138 C-320 -157 -310 -172 -290 -172 C-268 -172 -248 -159 -232 -141 L-203 -175 C-227 -199 -260 -228 -306 -228 C-363 -228 -388 -196 -386 -152 C-383 -83 -302 -20 -263 8 L-263 8 Z " />
<glyph glyph-name="uni032D" unicode="&#x32d;" d="M-346 -100 L-293 -100 L-215 -219 L-261 -253 L-330 -162 L-433 -253 L-466 -219 L-346 -100 Z " />
<glyph glyph-name="uni0331" unicode="&#x331;" d="M-525 -162 L-513 -100 L-163 -100 L-175 -162 L-525 -162 Z " />
<glyph glyph-name="uni0E3F" unicode="&#xe3f;" horiz-adv-x="686" d="M517 362 C550 371 617 437 617 534 C617 621 564 680 477 680 L427 680 L443 773 L387 773 L371 680 L178 680 L59 0 L252 0 L236 -93 L292 -93 L308 0 L385 0 C506 0 603 98 603 220 C603 287 568 345 517 362 L517 362 Z M359 612 L320 387 L199 387 L238 612 L359 612 Z M461 612 C510 612 550 579 550 517 C550 448 503 387 437 387 L376 387 L415 612 L461 612 Z M143 68 L187 319 L308 319 L264 68 L143 68 Z M386 68 L320 68 L364 319 L434 319 C496 319 535 277 535 217 C535 131 465 68 386 68 L386 68 Z " />
<glyph glyph-name="uni1E04" unicode="&#x1e04;" horiz-adv-x="745" d="M568 411 C604 421 683 495 683 607 C683 705 624 773 525 773 L195 773 L60 0 L420 0 C558 0 667 112 667 250 C667 326 629 391 568 411 L568 411 Z M509 700 C565 700 613 660 613 591 C613 509 558 438 481 438 L212 438 L258 700 L509 700 Z M422 73 L149 73 L200 365 L479 365 C549 365 594 316 594 245 C594 148 513 73 422 73 L422 73 Z M312 -89 C274 -89 246 -119 246 -159 C246 -186 263 -205 292 -205 C329 -205 357 -175 357 -137 C357 -109 339 -89 312 -89 L312 -89 Z " />
<glyph glyph-name="uni1E05" unicode="&#x1e05;" horiz-adv-x="697" d="M424 566 C327 566 257 528 209 469 L278 860 L202 860 L52 0 L120 0 L138 63 L145 100 C171 29 228 -16 322 -16 C518 -16 638 142 638 335 C638 472 564 566 424 566 L424 566 Z M327 55 C221 55 171 125 171 226 C171 237 171 248 172 259 L183 320 C212 423 289 495 404 495 C510 495 560 425 560 324 C560 174 477 55 327 55 L327 55 Z M308 -89 C270 -89 242 -119 242 -159 C242 -186 259 -205 288 -205 C325 -205 353 -175 353 -137 C353 -109 335 -89 308 -89 L308 -89 Z " />
<glyph glyph-name="uni1E0C" unicode="&#x1e0c;" horiz-adv-x="845" d="M518 773 L195 773 L60 0 L383 0 C619 0 802 214 802 461 C802 641 697 773 518 773 L518 773 Z M396 74 L150 74 L259 699 L505 699 C646 699 723 593 723 451 C723 252 581 74 396 74 L396 74 Z M348 -89 C310 -89 282 -119 282 -159 C282 -186 299 -205 328 -205 C365 -205 393 -175 393 -137 C393 -109 375 -89 348 -89 L348 -89 Z " />
<glyph glyph-name="uni1E0D" unicode="&#x1e0d;" horiz-adv-x="698" d="M624 860 L552 452 C527 520 472 566 376 566 C185 566 60 415 60 217 C60 82 131 -16 273 -16 C367 -16 438 21 487 81 L484 63 L481 0 L549 0 L700 860 L624 860 Z M294 55 C188 55 137 125 137 227 C137 376 221 495 371 495 C476 495 528 425 528 324 L528 313 L510 211 C478 118 403 55 294 55 L294 55 Z M281 -89 C243 -89 215 -119 215 -159 C215 -186 232 -205 261 -205 C298 -205 326 -175 326 -137 C326 -109 308 -89 281 -89 L281 -89 Z " />
<glyph glyph-name="uni1E0E" unicode="&#x1e0e;" horiz-adv-x="845" d="M518 773 L195 773 L60 0 L383 0 C619 0 802 214 802 461 C802 641 697 773 518 773 L518 773 Z M396 74 L150 74 L259 699 L505 699 C646 699 723 593 723 451 C723 252 581 74 396 74 L396 74 Z M160 -162 L510 -162 L522 -100 L172 -100 L160 -162 Z " />
<glyph glyph-name="uni1E0F" unicode="&#x1e0f;" horiz-adv-x="698" d="M624 860 L552 452 C527 520 472 566 376 566 C185 566 60 415 60 217 C60 82 131 -16 273 -16 C367 -16 438 21 487 81 L484 63 L481 0 L549 0 L700 860 L624 860 Z M294 55 C188 55 137 125 137 227 C137 376 221 495 371 495 C476 495 528 425 528 324 L528 313 L510 211 C478 118 403 55 294 55 L294 55 Z M93 -162 L443 -162 L455 -100 L105 -100 L93 -162 Z " />
<glyph glyph-name="uni1E12" unicode="&#x1e12;" horiz-adv-x="845" d="M518 773 L195 773 L60 0 L383 0 C619 0 802 214 802 461 C802 641 697 773 518 773 L518 773 Z M396 74 L150 74 L259 699 L505 699 C646 699 723 593 723 451 C723 252 581 74 396 74 L396 74 Z M317 -100 L197 -219 L230 -253 L333 -162 L402 -253 L448 -219 L370 -100 L317 -100 Z " />
<glyph glyph-name="uni1E13" unicode="&#x1e13;" horiz-adv-x="698" d="M624 860 L552 452 C527 520 472 566 376 566 C185 566 60 415 60 217 C60 82 131 -16 273 -16 C367 -16 438 21 487 81 L484 63 L481 0 L549 0 L700 860 L624 860 Z M294 55 C188 55 137 125 137 227 C137 376 221 495 371 495 C476 495 528 425 528 324 L528 313 L510 211 C478 118 403 55 294 55 L294 55 Z M250 -100 L130 -219 L163 -253 L266 -162 L335 -253 L381 -219 L303 -100 L250 -100 Z " />
<glyph glyph-name="uni1E24" unicode="&#x1e24;" horiz-adv-x="853" d="M755 773 L694 424 L211 424 L272 773 L195 773 L60 0 L137 0 L198 349 L681 349 L620 0 L697 0 L832 773 L755 773 Z M379 -89 C341 -89 313 -119 313 -159 C313 -186 330 -205 359 -205 C396 -205 424 -175 424 -137 C424 -109 406 -89 379 -89 L379 -89 Z " />
<glyph glyph-name="uni1E25" unicode="&#x1e25;" horiz-adv-x="664" d="M422 566 C327 566 254 507 206 444 L277 849 L200 849 L51 0 L128 0 L187 337 C243 423 316 491 398 491 C489 491 524 439 504 328 L446 0 L524 0 L581 326 C612 504 538 566 422 566 L422 566 Z M284 -89 C246 -89 218 -119 218 -159 C218 -186 235 -205 264 -205 C301 -205 329 -175 329 -137 C329 -109 311 -89 284 -89 L284 -89 Z " />
<glyph glyph-name="uni1E2E" unicode="&#x1e2e;" horiz-adv-x="291" d="M226 1065 L444 1158 L424 1226 L213 1101 L226 1065 Z M171 996 C195 996 211 978 211 953 C211 918 186 891 152 891 C126 891 111 908 111 933 C111 969 136 996 171 996 L171 996 Z M375 996 C399 996 415 978 415 953 C415 918 390 891 356 891 C330 891 315 908 315 933 C315 969 340 996 375 996 L375 996 Z M137 0 L60 0 L195 773 L272 773 L137 0 Z " />
<glyph glyph-name="uni1E2F" unicode="&#x1e2f;" horiz-adv-x="298" d="M196 842 L414 935 L394 1003 L183 878 L196 842 Z M141 773 C165 773 181 755 181 730 C181 695 156 668 122 668 C96 668 81 685 81 710 C81 746 106 773 141 773 L141 773 Z M345 773 C369 773 385 755 385 730 C385 695 360 668 326 668 C300 668 285 685 285 710 C285 746 310 773 345 773 L345 773 Z M247 70 L249 8 C113 -39 75 22 88 105 L166 550 L241 550 L166 115 C156 64 178 53 247 70 L247 70 Z " />
<glyph glyph-name="uni1E36" unicode="&#x1e36;" horiz-adv-x="643" d="M150 74 L272 773 L195 773 L60 0 L547 0 L560 74 L150 74 Z M301 -89 C263 -89 235 -119 235 -159 C235 -186 252 -205 281 -205 C318 -205 346 -175 346 -137 C346 -109 328 -89 301 -89 L301 -89 Z " />
<glyph glyph-name="uni1E37" unicode="&#x1e37;" horiz-adv-x="310" d="M230 68 L231 4 C95 -42 56 18 69 102 L198 835 L274 835 L148 112 C138 62 160 51 230 68 L230 68 Z M130 -89 C157 -89 175 -109 175 -137 C175 -175 147 -205 110 -205 C81 -205 64 -186 64 -159 C64 -119 92 -89 130 -89 L130 -89 Z " />
<glyph glyph-name="uni1E3C" unicode="&#x1e3c;" horiz-adv-x="643" d="M150 74 L272 773 L195 773 L60 0 L547 0 L560 74 L150 74 Z M270 -100 L150 -219 L183 -253 L286 -162 L355 -253 L401 -219 L323 -100 L270 -100 Z " />
<glyph glyph-name="uni1E3D" unicode="&#x1e3d;" horiz-adv-x="310" d="M230 68 L231 4 C95 -42 56 18 69 102 L198 835 L274 835 L148 112 C138 62 160 51 230 68 L230 68 Z M99 -100 L152 -100 L230 -219 L184 -253 L115 -162 L12 -253 L-21 -219 L99 -100 Z " />
<glyph glyph-name="uni1E3E" unicode="&#x1e3e;" horiz-adv-x="976" d="M744 935 L724 1003 L513 878 L526 842 L744 935 Z M844 772 L460 115 L307 772 L214 772 L29 0 L106 0 L261 637 L413 0 L467 0 L844 643 L775 0 L851 0 L936 772 L844 772 Z " />
<glyph glyph-name="uni1E3F" unicode="&#x1e3f;" horiz-adv-x="1037" d="M735 712 L715 780 L504 655 L517 619 L735 712 Z M799 566 C698 566 623 497 575 429 C565 529 501 566 412 566 C320 566 250 509 202 448 L202 450 L206 550 L142 550 L46 0 L123 0 L183 344 C238 429 310 494 389 494 C480 494 513 442 494 330 L436 0 L512 0 L569 326 L572 347 C627 430 698 494 777 494 C867 494 901 442 881 330 L823 0 L899 0 L956 326 C987 504 914 566 799 566 L799 566 Z " />
<glyph glyph-name="uni1E44" unicode="&#x1e44;" horiz-adv-x="885" d="M564 886 C602 886 629 917 629 955 C629 982 611 1002 584 1002 C546 1002 519 973 519 933 C519 905 536 886 564 886 L564 886 Z M791 773 L694 215 C646 292 568 354 488 418 C365 516 241 614 268 772 L268 773 L190 773 L55 0 L133 0 L231 561 C279 482 358 419 435 357 C560 257 684 159 656 0 L734 0 L869 773 L791 773 Z " />
<glyph glyph-name="uni1E45" unicode="&#x1e45;" horiz-adv-x="659" d="M391 663 C429 663 456 694 456 732 C456 759 438 779 411 779 C373 779 346 750 346 710 C346 682 363 663 391 663 L391 663 Z M417 566 C324 566 251 509 202 448 L202 450 L206 550 L142 550 L46 0 L123 0 L182 338 L183 337 C238 423 311 491 393 491 C484 491 519 439 499 328 L442 0 L519 0 L576 326 C607 504 533 566 417 566 L417 566 Z " />
<glyph glyph-name="uni1E46" unicode="&#x1e46;" horiz-adv-x="885" d="M791 773 L694 215 C646 292 568 354 488 418 C365 516 241 614 268 772 L268 773 L190 773 L55 0 L133 0 L231 561 C279 482 358 419 435 357 C560 257 684 159 656 0 L734 0 L869 773 L791 773 Z M387 -89 C349 -89 321 -119 321 -159 C321 -186 338 -205 367 -205 C404 -205 432 -175 432 -137 C432 -109 414 -89 387 -89 L387 -89 Z " />
<glyph glyph-name="uni1E47" unicode="&#x1e47;" horiz-adv-x="659" d="M417 566 C324 566 251 509 202 448 L202 450 L206 550 L142 550 L46 0 L123 0 L182 338 L183 337 C238 423 311 491 393 491 C484 491 519 439 499 328 L442 0 L519 0 L576 326 C607 504 533 566 417 566 L417 566 Z M280 -89 C242 -89 214 -119 214 -159 C214 -186 231 -205 260 -205 C297 -205 325 -175 325 -137 C325 -109 307 -89 280 -89 L280 -89 Z " />
<glyph glyph-name="uni1E4A" unicode="&#x1e4a;" horiz-adv-x="885" d="M791 773 L694 215 C646 292 568 354 488 418 C365 516 241 614 268 772 L268 773 L190 773 L55 0 L133 0 L231 561 C279 482 358 419 435 357 C560 257 684 159 656 0 L734 0 L869 773 L791 773 Z M356 -100 L236 -219 L269 -253 L372 -162 L441 -253 L487 -219 L409 -100 L356 -100 Z " />
<glyph glyph-name="uni1E4B" unicode="&#x1e4b;" horiz-adv-x="659" d="M417 566 C324 566 251 509 202 448 L202 450 L206 550 L142 550 L46 0 L123 0 L182 338 L183 337 C238 423 311 491 393 491 C484 491 519 439 499 328 L442 0 L519 0 L576 326 C607 504 533 566 417 566 L417 566 Z M249 -100 L129 -219 L162 -253 L265 -162 L334 -253 L380 -219 L302 -100 L249 -100 Z " />
<glyph glyph-name="uni1E4C" unicode="&#x1e4c;" horiz-adv-x="894" d="M536 1065 L754 1158 L734 1226 L523 1101 L536 1065 Z M438 884 C443 915 458 940 494 940 C545 940 560 879 629 879 C687 879 740 922 755 996 L693 996 C687 966 674 941 638 941 C588 941 571 1001 503 1001 C444 1001 388 956 376 884 L438 884 Z M537 792 C733 792 848 657 848 462 C848 190 652 -19 395 -19 C199 -19 84 118 84 311 C84 583 279 792 537 792 L537 792 Z M524 718 C317 718 161 549 161 322 C161 165 250 56 408 56 C617 56 771 227 771 449 C771 607 680 718 524 718 L524 718 Z " />
<glyph glyph-name="uni1E4D" unicode="&#x1e4d;" horiz-adv-x="696" d="M400 842 L618 935 L598 1003 L387 878 L400 842 Z M302 661 C307 692 322 717 358 717 C409 717 424 656 493 656 C551 656 604 699 619 773 L557 773 C551 743 538 718 502 718 C452 718 435 778 367 778 C308 778 252 733 240 661 L302 661 Z M399 566 C545 566 636 470 636 327 C636 138 497 -16 297 -16 C149 -16 60 82 60 223 C60 421 206 566 399 566 L399 566 Z M387 495 C241 495 138 379 138 234 C138 130 199 55 309 55 C454 55 557 171 557 316 C557 420 496 495 387 495 L387 495 Z " />
<glyph glyph-name="uni1E50" unicode="&#x1e50;" horiz-adv-x="894" d="M641 1065 L666 1101 L499 1226 L454 1158 L641 1065 Z M384 911 L396 973 L746 973 L734 911 L384 911 Z M537 792 C733 792 848 657 848 462 C848 190 652 -19 395 -19 C199 -19 84 118 84 311 C84 583 279 792 537 792 L537 792 Z M524 718 C317 718 161 549 161 322 C161 165 250 56 408 56 C617 56 771 227 771 449 C771 607 680 718 524 718 L524 718 Z " />
<glyph glyph-name="uni1E51" unicode="&#x1e51;" horiz-adv-x="696" d="M505 842 L530 878 L363 1003 L318 935 L505 842 Z M248 688 L260 750 L610 750 L598 688 L248 688 Z M399 566 C545 566 636 470 636 327 C636 138 497 -16 297 -16 C149 -16 60 82 60 223 C60 421 206 566 399 566 L399 566 Z M387 495 C241 495 138 379 138 234 C138 130 199 55 309 55 C454 55 557 171 557 316 C557 420 496 495 387 495 L387 495 Z " />
<glyph glyph-name="uni1E52" unicode="&#x1e52;" horiz-adv-x="894" d="M526 1065 L744 1158 L724 1226 L513 1101 L526 1065 Z M384 911 L396 973 L746 973 L734 911 L384 911 Z M537 792 C733 792 848 657 848 462 C848 190 652 -19 395 -19 C199 -19 84 118 84 311 C84 583 279 792 537 792 L537 792 Z M524 718 C317 718 161 549 161 322 C161 165 250 56 408 56 C617 56 771 227 771 449 C771 607 680 718 524 718 L524 718 Z " />
<glyph glyph-name="uni1E53" unicode="&#x1e53;" horiz-adv-x="696" d="M390 842 L608 935 L588 1003 L377 878 L390 842 Z M248 688 L260 750 L610 750 L598 688 L248 688 Z M399 566 C545 566 636 470 636 327 C636 138 497 -16 297 -16 C149 -16 60 82 60 223 C60 421 206 566 399 566 L399 566 Z M387 495 C241 495 138 379 138 234 C138 130 199 55 309 55 C454 55 557 171 557 316 C557 420 496 495 387 495 L387 495 Z " />
<glyph glyph-name="uni1E62" unicode="&#x1e62;" horiz-adv-x="739" d="M34 109 L101 161 C150 97 231 58 348 58 C494 58 575 117 575 209 C575 414 155 331 155 573 C155 717 315 793 469 793 C566 793 661 763 715 685 L651 637 C609 700 530 720 454 720 C332 720 242 664 242 580 C242 402 665 471 665 219 C665 77 530 -15 345 -15 C219 -15 92 34 34 109 L34 109 Z M308 -89 C335 -89 353 -109 353 -137 C353 -175 325 -205 288 -205 C259 -205 242 -186 242 -159 C242 -119 270 -89 308 -89 L308 -89 Z " />
<glyph glyph-name="uni1E63" unicode="&#x1e63;" horiz-adv-x="567" d="M26 82 L83 129 C118 85 176 56 256 56 C350 56 401 92 401 151 C401 285 112 236 112 408 C112 509 224 566 339 566 C411 566 480 544 520 490 L463 444 C433 486 378 500 327 500 C249 500 193 465 193 413 C193 298 484 337 484 159 C484 58 390 -11 255 -11 C160 -11 68 27 26 82 L26 82 Z M220 -89 C247 -89 265 -109 265 -137 C265 -175 237 -205 200 -205 C171 -205 154 -186 154 -159 C154 -119 182 -89 220 -89 L220 -89 Z " />
<glyph glyph-name="uni1E6C" unicode="&#x1e6c;" horiz-adv-x="711" d="M756 773 L128 773 L116 699 L392 699 L269 0 L345 0 L468 699 L744 699 L756 773 Z M293 -89 C255 -89 227 -119 227 -159 C227 -186 244 -205 273 -205 C310 -205 338 -175 338 -137 C338 -109 320 -89 293 -89 L293 -89 Z " />
<glyph glyph-name="uni1E6D" unicode="&#x1e6d;" horiz-adv-x="476" d="M251 480 L437 480 L452 550 L263 550 L293 723 L216 723 L186 550 L93 550 L81 480 L174 480 L121 177 C94 26 202 -69 385 14 L377 78 C246 18 179 75 197 174 L251 480 Z M228 -89 C190 -89 162 -119 162 -159 C162 -186 179 -205 208 -205 C245 -205 273 -175 273 -137 C273 -109 255 -89 228 -89 L228 -89 Z " />
<glyph glyph-name="uni1E6E" unicode="&#x1e6e;" horiz-adv-x="711" d="M756 773 L128 773 L116 699 L392 699 L269 0 L345 0 L468 699 L744 699 L756 773 Z M105 -162 L455 -162 L467 -100 L117 -100 L105 -162 Z " />
<glyph glyph-name="uni1E6F" unicode="&#x1e6f;" horiz-adv-x="476" d="M263 550 L293 723 L216 723 L186 550 L93 550 L81 480 L174 480 L121 177 C94 26 202 -69 385 14 L377 78 C246 18 179 75 197 174 L251 480 L437 480 L452 550 L263 550 Z M40 -162 L390 -162 L402 -100 L52 -100 L40 -162 Z " />
<glyph glyph-name="uni1E70" unicode="&#x1e70;" horiz-adv-x="711" d="M756 773 L128 773 L116 699 L392 699 L269 0 L345 0 L468 699 L744 699 L756 773 Z M262 -100 L142 -219 L175 -253 L278 -162 L347 -253 L393 -219 L315 -100 L262 -100 Z " />
<glyph glyph-name="uni1E71" unicode="&#x1e71;" horiz-adv-x="476" d="M251 480 L437 480 L452 550 L263 550 L293 723 L216 723 L186 550 L93 550 L81 480 L174 480 L121 177 C94 26 202 -69 385 14 L377 78 C246 18 179 75 197 174 L251 480 Z M197 -100 L77 -219 L110 -253 L213 -162 L282 -253 L328 -219 L250 -100 L197 -100 Z " />
<glyph glyph-name="Wgrave" unicode="&#x1e80;" horiz-adv-x="987" d="M675 878 L508 1003 L463 935 L650 842 L675 878 Z M951 773 L694 129 L611 740 L544 740 L240 130 L209 773 L130 773 L173 0 L251 0 L554 618 L637 0 L715 0 L1032 773 L951 773 Z " />
<glyph glyph-name="wgrave" unicode="&#x1e81;" horiz-adv-x="986" d="M629 655 L462 780 L417 712 L604 619 L629 655 Z M861 550 L801 225 C781 124 731 58 632 58 C551 58 499 111 519 223 L576 550 L498 550 L442 224 C440 214 439 204 438 195 C395 116 328 58 258 58 C171 58 138 110 158 222 L215 550 L138 550 L81 224 C51 46 122 -16 231 -16 C328 -16 397 45 442 109 C462 21 535 -16 618 -16 C773 -16 848 67 881 241 L939 550 L861 550 Z " />
<glyph glyph-name="Wacute" unicode="&#x1e82;" horiz-adv-x="987" d="M753 935 L733 1003 L522 878 L535 842 L753 935 Z M951 773 L694 129 L611 740 L544 740 L240 130 L209 773 L130 773 L173 0 L251 0 L554 618 L637 0 L715 0 L1032 773 L951 773 Z " />
<glyph glyph-name="wacute" unicode="&#x1e83;" horiz-adv-x="986" d="M707 712 L687 780 L476 655 L489 619 L707 712 Z M861 550 L801 225 C781 124 731 58 632 58 C551 58 499 111 519 223 L576 550 L498 550 L442 224 C440 214 439 204 438 195 C395 116 328 58 258 58 C171 58 138 110 158 222 L215 550 L138 550 L81 224 C51 46 122 -16 231 -16 C328 -16 397 45 442 109 C462 21 535 -16 618 -16 C773 -16 848 67 881 241 L939 550 L861 550 Z " />
<glyph glyph-name="Wdieresis" unicode="&#x1e84;" horiz-adv-x="987" d="M501 891 C535 891 560 918 560 953 C560 978 544 996 520 996 C485 996 460 969 460 933 C460 908 475 891 501 891 L501 891 Z M705 891 C739 891 764 918 764 953 C764 978 748 996 724 996 C689 996 664 969 664 933 C664 908 679 891 705 891 L705 891 Z M951 773 L694 129 L611 740 L544 740 L240 130 L209 773 L130 773 L173 0 L251 0 L554 618 L637 0 L715 0 L1032 773 L951 773 Z " />
<glyph glyph-name="wdieresis" unicode="&#x1e85;" horiz-adv-x="986" d="M455 668 C489 668 514 695 514 730 C514 755 498 773 474 773 C439 773 414 746 414 710 C414 685 429 668 455 668 L455 668 Z M659 668 C693 668 718 695 718 730 C718 755 702 773 678 773 C643 773 618 746 618 710 C618 685 633 668 659 668 L659 668 Z M861 550 L801 225 C781 124 731 58 632 58 C551 58 499 111 519 223 L576 550 L498 550 L442 224 C440 214 439 204 438 195 C395 116 328 58 258 58 C171 58 138 110 158 222 L215 550 L138 550 L81 224 C51 46 122 -16 231 -16 C328 -16 397 45 442 109 C462 21 535 -16 618 -16 C773 -16 848 67 881 241 L939 550 L861 550 Z " />
<glyph glyph-name="uni1E92" unicode="&#x1e92;" horiz-adv-x="759" d="M786 772 L153 772 L139 697 L651 699 L25 39 L18 0 L651 0 L665 75 L150 73 L779 736 L786 772 Z M330 -89 C292 -89 264 -119 264 -159 C264 -186 281 -205 310 -205 C347 -205 375 -175 375 -137 C375 -109 357 -89 330 -89 L330 -89 Z " />
<glyph glyph-name="uni1E93" unicode="&#x1e93;" horiz-adv-x="600" d="M574 550 L118 550 L104 475 L466 478 L12 52 L47 0 C211 94 279 -78 511 3 L524 77 C338 12 263 107 150 95 L560 475 L574 550 Z M243 -89 C205 -89 177 -119 177 -159 C177 -186 194 -205 223 -205 C260 -205 288 -175 288 -137 C288 -109 270 -89 243 -89 L243 -89 Z " />
<glyph glyph-name="uni1E9E" unicode="&#x1e9e;" horiz-adv-x="728" d="M688 700 L701 773 L434 773 C279 773 180 688 153 533 L59 0 L137 0 L230 534 C248 641 317 700 423 699 L595 699 L333 432 L357 372 C378 379 405 390 447 390 C533 390 572 342 572 264 C572 147 525 70 377 70 L235 70 L222 0 L366 0 C570 0 652 114 652 278 C652 390 589 460 460 460 L445 460 L689 699 L688 700 Z " />
<glyph glyph-name="uni1EA0" unicode="&#x1ea0;" horiz-adv-x="795" d="M714 0 L527 773 L442 773 L-14 0 L67 0 L188 208 L584 208 L633 0 L714 0 Z M232 283 L470 692 L566 283 L232 283 Z M345 -89 C307 -89 279 -119 279 -159 C279 -186 296 -205 325 -205 C362 -205 390 -175 390 -137 C390 -109 372 -89 345 -89 L345 -89 Z " />
<glyph glyph-name="uni1EA1" unicode="&#x1ea1;" horiz-adv-x="754" d="M660 70 C591 53 569 64 579 115 L654 550 L579 550 L560 439 C533 517 470 566 372 566 C192 566 59 416 59 217 C59 79 137 -16 274 -16 C373 -16 449 28 500 95 C491 17 531 -37 662 8 L660 70 Z M298 55 C195 55 137 127 137 232 C137 381 236 495 374 495 C476 495 534 423 534 319 C534 306 533 293 532 280 L526 247 C500 134 411 55 298 55 L298 55 Z M284 -89 C246 -89 218 -119 218 -159 C218 -186 235 -205 264 -205 C301 -205 329 -175 329 -137 C329 -109 311 -89 284 -89 L284 -89 Z " />
<glyph glyph-name="uni1EA2" unicode="&#x1ea2;" horiz-adv-x="795" d="M547 1008 C568 1008 578 994 578 974 C578 932 523 889 470 839 L523 839 C561 867 641 918 644 989 C646 1032 620 1065 565 1064 C516 1064 483 1036 461 1012 L489 978 C508 995 525 1008 547 1008 L547 1008 Z M633 0 L714 0 L527 773 L442 773 L-14 0 L67 0 L188 208 L584 208 L633 0 Z M232 283 L470 692 L566 283 L232 283 Z " />
<glyph glyph-name="uni1EA3" unicode="&#x1ea3;" horiz-adv-x="754" d="M445 785 C466 785 476 771 476 751 C476 709 421 666 368 616 L421 616 C459 644 539 695 542 766 C544 809 518 842 463 841 C414 841 381 813 359 789 L387 755 C406 772 423 785 445 785 L445 785 Z M660 70 C591 53 569 64 579 115 L654 550 L579 550 L560 439 C533 517 470 566 372 566 C192 566 59 416 59 217 C59 79 137 -16 274 -16 C373 -16 449 28 500 95 C491 17 531 -37 662 8 L660 70 Z M298 55 C195 55 137 127 137 232 C137 381 236 495 374 495 C476 495 534 423 534 319 C534 306 533 293 532 280 L526 247 C500 134 411 55 298 55 L298 55 Z " />
<glyph glyph-name="uni1EA4" unicode="&#x1ea4;" horiz-adv-x="795" d="M693 1158 L673 1226 L462 1101 L475 1065 L693 1158 Z M515 957 L584 866 L630 901 L553 1019 L499 1019 L379 901 L412 866 L515 957 Z M633 0 L714 0 L527 773 L442 773 L-14 0 L67 0 L188 208 L584 208 L633 0 Z M232 283 L470 692 L566 283 L232 283 Z " />
<glyph glyph-name="uni1EA5" unicode="&#x1ea5;" horiz-adv-x="754" d="M591 935 L571 1003 L360 878 L373 842 L591 935 Z M413 734 L482 643 L528 678 L451 796 L397 796 L277 678 L310 643 L413 734 Z M660 70 C591 53 569 64 579 115 L654 550 L579 550 L560 439 C533 517 470 566 372 566 C192 566 59 416 59 217 C59 79 137 -16 274 -16 C373 -16 449 28 500 95 C491 17 531 -37 662 8 L660 70 Z M298 55 C195 55 137 127 137 232 C137 381 236 495 374 495 C476 495 534 423 534 319 C534 306 533 293 532 280 L526 247 C500 134 411 55 298 55 L298 55 Z " />
<glyph glyph-name="uni1EA6" unicode="&#x1ea6;" horiz-adv-x="795" d="M615 1101 L448 1226 L403 1158 L590 1065 L615 1101 Z M515 957 L584 866 L630 901 L553 1019 L499 1019 L379 901 L412 866 L515 957 Z M633 0 L714 0 L527 773 L442 773 L-14 0 L67 0 L188 208 L584 208 L633 0 Z M232 283 L470 692 L566 283 L232 283 Z " />
<glyph glyph-name="uni1EA7" unicode="&#x1ea7;" horiz-adv-x="754" d="M513 878 L346 1003 L301 935 L488 842 L513 878 Z M413 734 L482 643 L528 678 L451 796 L397 796 L277 678 L310 643 L413 734 Z M660 70 C591 53 569 64 579 115 L654 550 L579 550 L560 439 C533 517 470 566 372 566 C192 566 59 416 59 217 C59 79 137 -16 274 -16 C373 -16 449 28 500 95 C491 17 531 -37 662 8 L660 70 Z M298 55 C195 55 137 127 137 232 C137 381 236 495 374 495 C476 495 534 423 534 319 C534 306 533 293 532 280 L526 247 C500 134 411 55 298 55 L298 55 Z " />
<glyph glyph-name="uni1EA8" unicode="&#x1ea8;" horiz-adv-x="795" d="M585 1231 C606 1231 616 1217 616 1197 C616 1155 561 1112 508 1062 L561 1062 C599 1090 679 1141 682 1212 C684 1255 658 1288 603 1287 C554 1287 521 1259 499 1235 L527 1201 C546 1218 563 1231 585 1231 L585 1231 Z M515 957 L584 866 L630 901 L553 1019 L499 1019 L379 901 L412 866 L515 957 Z M633 0 L714 0 L527 773 L442 773 L-14 0 L67 0 L188 208 L584 208 L633 0 Z M232 283 L470 692 L566 283 L232 283 Z " />
<glyph glyph-name="uni1EA9" unicode="&#x1ea9;" horiz-adv-x="754" d="M483 1008 C504 1008 514 994 514 974 C514 932 459 889 406 839 L459 839 C497 867 577 918 580 989 C582 1032 556 1065 501 1064 C452 1064 419 1036 397 1012 L425 978 C444 995 461 1008 483 1008 L483 1008 Z M413 734 L482 643 L528 678 L451 796 L397 796 L277 678 L310 643 L413 734 Z M660 70 C591 53 569 64 579 115 L654 550 L579 550 L560 439 C533 517 470 566 372 566 C192 566 59 416 59 217 C59 79 137 -16 274 -16 C373 -16 449 28 500 95 C491 17 531 -37 662 8 L660 70 Z M298 55 C195 55 137 127 137 232 C137 381 236 495 374 495 C476 495 534 423 534 319 C534 306 533 293 532 280 L526 247 C500 134 411 55 298 55 L298 55 Z " />
<glyph glyph-name="uni1EAA" unicode="&#x1eaa;" horiz-adv-x="795" d="M482 1163 C533 1163 548 1102 617 1102 C675 1102 728 1145 743 1219 L681 1219 C675 1189 662 1164 626 1164 C576 1164 559 1224 491 1224 C432 1224 376 1179 364 1107 L426 1107 C431 1138 446 1163 482 1163 L482 1163 Z M499 1019 L379 901 L412 866 L515 957 L584 866 L630 901 L553 1019 L499 1019 Z M442 773 L-14 0 L67 0 L188 208 L584 208 L633 0 L714 0 L527 773 L442 773 Z M232 283 L470 692 L566 283 L232 283 Z " />
<glyph glyph-name="uni1EAB" unicode="&#x1eab;" horiz-adv-x="754" d="M380 940 C431 940 446 879 515 879 C573 879 626 922 641 996 L579 996 C573 966 560 941 524 941 C474 941 457 1001 389 1001 C330 1001 274 956 262 884 L324 884 C329 915 344 940 380 940 L380 940 Z M397 796 L277 678 L310 643 L413 734 L482 643 L528 678 L451 796 L397 796 Z M660 70 C591 53 569 64 579 115 L654 550 L579 550 L560 439 C533 517 470 566 372 566 C192 566 59 416 59 217 C59 79 137 -16 274 -16 C373 -16 449 28 500 95 C491 17 531 -37 662 8 L660 70 Z M298 55 C195 55 137 127 137 232 C137 381 236 495 374 495 C476 495 534 423 534 319 C534 306 533 293 532 280 L526 247 C500 134 411 55 298 55 L298 55 Z " />
<glyph glyph-name="uni1EAC" unicode="&#x1eac;" horiz-adv-x="795" d="M515 957 L584 866 L630 901 L553 1019 L499 1019 L379 901 L412 866 L515 957 Z M714 0 L527 773 L442 773 L-14 0 L67 0 L188 208 L584 208 L633 0 L714 0 Z M232 283 L470 692 L566 283 L232 283 Z M345 -89 C307 -89 279 -119 279 -159 C279 -186 296 -205 325 -205 C362 -205 390 -175 390 -137 C390 -109 372 -89 345 -89 L345 -89 Z " />
<glyph glyph-name="uni1EAD" unicode="&#x1ead;" horiz-adv-x="754" d="M413 734 L482 643 L528 678 L451 796 L397 796 L277 678 L310 643 L413 734 Z M660 70 C591 53 569 64 579 115 L654 550 L579 550 L560 439 C533 517 470 566 372 566 C192 566 59 416 59 217 C59 79 137 -16 274 -16 C373 -16 449 28 500 95 C491 17 531 -37 662 8 L660 70 Z M298 55 C195 55 137 127 137 232 C137 381 236 495 374 495 C476 495 534 423 534 319 C534 306 533 293 532 280 L526 247 C500 134 411 55 298 55 L298 55 Z M284 -89 C246 -89 218 -119 218 -159 C218 -186 235 -205 264 -205 C301 -205 329 -175 329 -137 C329 -109 311 -89 284 -89 L284 -89 Z " />
<glyph glyph-name="uni1EAE" unicode="&#x1eae;" horiz-adv-x="795" d="M694 1158 L674 1226 L463 1101 L476 1065 L694 1158 Z M500 866 C586 866 647 921 671 996 L609 996 C592 959 559 926 510 926 C461 926 437 959 436 996 L373 996 C369 917 417 866 500 866 L500 866 Z M633 0 L714 0 L527 773 L442 773 L-14 0 L67 0 L188 208 L584 208 L633 0 Z M232 283 L470 692 L566 283 L232 283 Z " />
<glyph glyph-name="uni1EAF" unicode="&#x1eaf;" horiz-adv-x="754" d="M592 935 L572 1003 L361 878 L374 842 L592 935 Z M398 643 C484 643 545 698 569 773 L507 773 C490 736 457 703 408 703 C359 703 335 736 334 773 L271 773 C267 694 315 643 398 643 L398 643 Z M660 70 C591 53 569 64 579 115 L654 550 L579 550 L560 439 C533 517 470 566 372 566 C192 566 59 416 59 217 C59 79 137 -16 274 -16 C373 -16 449 28 500 95 C491 17 531 -37 662 8 L660 70 Z M298 55 C195 55 137 127 137 232 C137 381 236 495 374 495 C476 495 534 423 534 319 C534 306 533 293 532 280 L526 247 C500 134 411 55 298 55 L298 55 Z " />
<glyph glyph-name="uni1EB0" unicode="&#x1eb0;" horiz-adv-x="795" d="M616 1101 L449 1226 L404 1158 L591 1065 L616 1101 Z M500 866 C586 866 647 921 671 996 L609 996 C592 959 559 926 510 926 C461 926 437 959 436 996 L373 996 C369 917 417 866 500 866 L500 866 Z M633 0 L714 0 L527 773 L442 773 L-14 0 L67 0 L188 208 L584 208 L633 0 Z M232 283 L470 692 L566 283 L232 283 Z " />
<glyph glyph-name="uni1EB1" unicode="&#x1eb1;" horiz-adv-x="754" d="M514 878 L347 1003 L302 935 L489 842 L514 878 Z M398 643 C484 643 545 698 569 773 L507 773 C490 736 457 703 408 703 C359 703 335 736 334 773 L271 773 C267 694 315 643 398 643 L398 643 Z M660 70 C591 53 569 64 579 115 L654 550 L579 550 L560 439 C533 517 470 566 372 566 C192 566 59 416 59 217 C59 79 137 -16 274 -16 C373 -16 449 28 500 95 C491 17 531 -37 662 8 L660 70 Z M298 55 C195 55 137 127 137 232 C137 381 236 495 374 495 C476 495 534 423 534 319 C534 306 533 293 532 280 L526 247 C500 134 411 55 298 55 L298 55 Z " />
<glyph glyph-name="uni1EB2" unicode="&#x1eb2;" horiz-adv-x="795" d="M586 1231 C607 1231 617 1217 617 1197 C617 1155 562 1112 509 1062 L562 1062 C600 1090 680 1141 683 1212 C685 1255 659 1288 604 1287 C555 1287 522 1259 500 1235 L528 1201 C547 1218 564 1231 586 1231 L586 1231 Z M500 866 C586 866 647 921 671 996 L609 996 C592 959 559 926 510 926 C461 926 437 959 436 996 L373 996 C369 917 417 866 500 866 L500 866 Z M633 0 L714 0 L527 773 L442 773 L-14 0 L67 0 L188 208 L584 208 L633 0 Z M232 283 L470 692 L566 283 L232 283 Z " />
<glyph glyph-name="uni1EB3" unicode="&#x1eb3;" horiz-adv-x="754" d="M484 1008 C505 1008 515 994 515 974 C515 932 460 889 407 839 L460 839 C498 867 578 918 581 989 C583 1032 557 1065 502 1064 C453 1064 420 1036 398 1012 L426 978 C445 995 462 1008 484 1008 L484 1008 Z M398 643 C484 643 545 698 569 773 L507 773 C490 736 457 703 408 703 C359 703 335 736 334 773 L271 773 C267 694 315 643 398 643 L398 643 Z M660 70 C591 53 569 64 579 115 L654 550 L579 550 L560 439 C533 517 470 566 372 566 C192 566 59 416 59 217 C59 79 137 -16 274 -16 C373 -16 449 28 500 95 C491 17 531 -37 662 8 L660 70 Z M298 55 C195 55 137 127 137 232 C137 381 236 495 374 495 C476 495 534 423 534 319 C534 306 533 293 532 280 L526 247 C500 134 411 55 298 55 L298 55 Z " />
<glyph glyph-name="uni1EB4" unicode="&#x1eb4;" horiz-adv-x="795" d="M483 1163 C534 1163 549 1102 618 1102 C676 1102 729 1145 744 1219 L682 1219 C676 1189 663 1164 627 1164 C577 1164 560 1224 492 1224 C433 1224 377 1179 365 1107 L427 1107 C432 1138 447 1163 483 1163 L483 1163 Z M510 926 C461 926 437 959 436 996 L373 996 C369 917 417 866 500 866 C586 866 647 921 671 996 L609 996 C592 959 559 926 510 926 L510 926 Z M442 773 L-14 0 L67 0 L188 208 L584 208 L633 0 L714 0 L527 773 L442 773 Z M232 283 L470 692 L566 283 L232 283 Z " />
<glyph glyph-name="uni1EB5" unicode="&#x1eb5;" horiz-adv-x="754" d="M381 940 C432 940 447 879 516 879 C574 879 627 922 642 996 L580 996 C574 966 561 941 525 941 C475 941 458 1001 390 1001 C331 1001 275 956 263 884 L325 884 C330 915 345 940 381 940 L381 940 Z M408 703 C359 703 335 736 334 773 L271 773 C267 694 315 643 398 643 C484 643 545 698 569 773 L507 773 C490 736 457 703 408 703 L408 703 Z M660 70 C591 53 569 64 579 115 L654 550 L579 550 L560 439 C533 517 470 566 372 566 C192 566 59 416 59 217 C59 79 137 -16 274 -16 C373 -16 449 28 500 95 C491 17 531 -37 662 8 L660 70 Z M298 55 C195 55 137 127 137 232 C137 381 236 495 374 495 C476 495 534 423 534 319 C534 306 533 293 532 280 L526 247 C500 134 411 55 298 55 L298 55 Z " />
<glyph glyph-name="uni1EB6" unicode="&#x1eb6;" horiz-adv-x="795" d="M500 866 C586 866 647 921 671 996 L609 996 C592 959 559 926 510 926 C461 926 437 959 436 996 L373 996 C369 917 417 866 500 866 L500 866 Z M714 0 L527 773 L442 773 L-14 0 L67 0 L188 208 L584 208 L633 0 L714 0 Z M232 283 L470 692 L566 283 L232 283 Z M345 -89 C307 -89 279 -119 279 -159 C279 -186 296 -205 325 -205 C362 -205 390 -175 390 -137 C390 -109 372 -89 345 -89 L345 -89 Z " />
<glyph glyph-name="uni1EB7" unicode="&#x1eb7;" horiz-adv-x="754" d="M398 643 C484 643 545 698 569 773 L507 773 C490 736 457 703 408 703 C359 703 335 736 334 773 L271 773 C267 694 315 643 398 643 L398 643 Z M660 70 C591 53 569 64 579 115 L654 550 L579 550 L560 439 C533 517 470 566 372 566 C192 566 59 416 59 217 C59 79 137 -16 274 -16 C373 -16 449 28 500 95 C491 17 531 -37 662 8 L660 70 Z M298 55 C195 55 137 127 137 232 C137 381 236 495 374 495 C476 495 534 423 534 319 C534 306 533 293 532 280 L526 247 C500 134 411 55 298 55 L298 55 Z M284 -89 C246 -89 218 -119 218 -159 C218 -186 235 -205 264 -205 C301 -205 329 -175 329 -137 C329 -109 311 -89 284 -89 L284 -89 Z " />
<glyph glyph-name="uni1EB8" unicode="&#x1eb8;" horiz-adv-x="677" d="M682 700 L695 773 L195 773 L60 0 L560 0 L573 73 L149 73 L199 363 L510 363 L523 437 L212 437 L258 700 L682 700 Z M293 -89 C255 -89 227 -119 227 -159 C227 -186 244 -205 273 -205 C310 -205 338 -175 338 -137 C338 -109 320 -89 293 -89 L293 -89 Z " />
<glyph glyph-name="uni1EB9" unicode="&#x1eb9;" horiz-adv-x="632" d="M295 51 C215 51 140 89 131 191 C292 194 580 223 580 430 C580 517 502 566 400 566 C209 566 56 406 56 203 C56 48 162 -16 283 -16 C377 -16 471 22 535 85 L495 133 C461 101 381 51 295 51 L295 51 Z M392 499 C467 499 509 464 509 419 C509 281 254 262 134 261 C154 386 250 499 392 499 L392 499 Z M271 -89 C233 -89 205 -119 205 -159 C205 -186 222 -205 251 -205 C288 -205 316 -175 316 -137 C316 -109 298 -89 271 -89 L271 -89 Z " />
<glyph glyph-name="uni1EBA" unicode="&#x1eba;" horiz-adv-x="677" d="M508 1008 C529 1008 539 994 539 974 C539 932 484 889 431 839 L484 839 C522 867 602 918 605 989 C607 1032 581 1065 526 1064 C477 1064 444 1036 422 1012 L450 978 C469 995 486 1008 508 1008 L508 1008 Z M682 700 L695 773 L195 773 L60 0 L560 0 L573 73 L149 73 L199 363 L510 363 L523 437 L212 437 L258 700 L682 700 Z " />
<glyph glyph-name="uni1EBB" unicode="&#x1ebb;" horiz-adv-x="632" d="M462 785 C483 785 493 771 493 751 C493 709 438 666 385 616 L438 616 C476 644 556 695 559 766 C561 809 535 842 480 841 C431 841 398 813 376 789 L404 755 C423 772 440 785 462 785 L462 785 Z M295 51 C215 51 140 89 131 191 C292 194 580 223 580 430 C580 517 502 566 400 566 C209 566 56 406 56 203 C56 48 162 -16 283 -16 C377 -16 471 22 535 85 L495 133 C461 101 381 51 295 51 L295 51 Z M392 499 C467 499 509 464 509 419 C509 281 254 262 134 261 C154 386 250 499 392 499 L392 499 Z " />
<glyph glyph-name="uni1EBC" unicode="&#x1ebc;" horiz-adv-x="677" d="M402 940 C453 940 468 879 537 879 C595 879 648 922 663 996 L601 996 C595 966 582 941 546 941 C496 941 479 1001 411 1001 C352 1001 296 956 284 884 L346 884 C351 915 366 940 402 940 L402 940 Z M682 700 L695 773 L195 773 L60 0 L560 0 L573 73 L149 73 L199 363 L510 363 L523 437 L212 437 L258 700 L682 700 Z " />
<glyph glyph-name="uni1EBD" unicode="&#x1ebd;" horiz-adv-x="632" d="M359 717 C410 717 425 656 494 656 C552 656 605 699 620 773 L558 773 C552 743 539 718 503 718 C453 718 436 778 368 778 C309 778 253 733 241 661 L303 661 C308 692 323 717 359 717 L359 717 Z M580 430 C580 517 502 566 400 566 C209 566 56 406 56 203 C56 48 162 -16 283 -16 C377 -16 471 22 535 85 L495 133 C461 101 381 51 295 51 C215 51 140 89 131 191 C292 194 580 223 580 430 L580 430 Z M134 261 C154 386 250 499 392 499 C467 499 509 464 509 419 C509 281 254 262 134 261 L134 261 Z " />
<glyph glyph-name="uni1EBE" unicode="&#x1ebe;" horiz-adv-x="677" d="M654 1158 L634 1226 L423 1101 L436 1065 L654 1158 Z M476 957 L545 866 L591 901 L514 1019 L460 1019 L340 901 L373 866 L476 957 Z M682 700 L695 773 L195 773 L60 0 L560 0 L573 73 L149 73 L199 363 L510 363 L523 437 L212 437 L258 700 L682 700 Z " />
<glyph glyph-name="uni1EBF" unicode="&#x1ebf;" horiz-adv-x="632" d="M608 935 L588 1003 L377 878 L390 842 L608 935 Z M430 734 L499 643 L545 678 L468 796 L414 796 L294 678 L327 643 L430 734 Z M580 430 C580 517 502 566 400 566 C209 566 56 406 56 203 C56 48 162 -16 283 -16 C377 -16 471 22 535 85 L495 133 C461 101 381 51 295 51 C215 51 140 89 131 191 C292 194 580 223 580 430 L580 430 Z M134 261 C154 386 250 499 392 499 C467 499 509 464 509 419 C509 281 254 262 134 261 L134 261 Z " />
<glyph glyph-name="uni1EC0" unicode="&#x1ec0;" horiz-adv-x="677" d="M576 1101 L409 1226 L364 1158 L551 1065 L576 1101 Z M476 957 L545 866 L591 901 L514 1019 L460 1019 L340 901 L373 866 L476 957 Z M682 700 L695 773 L195 773 L60 0 L560 0 L573 73 L149 73 L199 363 L510 363 L523 437 L212 437 L258 700 L682 700 Z " />
<glyph glyph-name="uni1EC1" unicode="&#x1ec1;" horiz-adv-x="632" d="M530 878 L363 1003 L318 935 L505 842 L530 878 Z M430 734 L499 643 L545 678 L468 796 L414 796 L294 678 L327 643 L430 734 Z M295 51 C215 51 140 89 131 191 C292 194 580 223 580 430 C580 517 502 566 400 566 C209 566 56 406 56 203 C56 48 162 -16 283 -16 C377 -16 471 22 535 85 L495 133 C461 101 381 51 295 51 L295 51 Z M392 499 C467 499 509 464 509 419 C509 281 254 262 134 261 C154 386 250 499 392 499 L392 499 Z " />
<glyph glyph-name="uni1EC2" unicode="&#x1ec2;" horiz-adv-x="677" d="M546 1231 C567 1231 577 1217 577 1197 C577 1155 522 1112 469 1062 L522 1062 C560 1090 640 1141 643 1212 C645 1255 619 1288 564 1287 C515 1287 482 1259 460 1235 L488 1201 C507 1218 524 1231 546 1231 L546 1231 Z M476 957 L545 866 L591 901 L514 1019 L460 1019 L340 901 L373 866 L476 957 Z M682 700 L695 773 L195 773 L60 0 L560 0 L573 73 L149 73 L199 363 L510 363 L523 437 L212 437 L258 700 L682 700 Z " />
<glyph glyph-name="uni1EC3" unicode="&#x1ec3;" horiz-adv-x="632" d="M518 1064 C469 1064 436 1036 414 1012 L442 978 C461 995 478 1008 500 1008 C521 1008 531 994 531 974 C531 932 476 889 423 839 L476 839 C514 867 594 918 597 989 C599 1032 573 1065 518 1064 L518 1064 Z M430 734 L499 643 L545 678 L468 796 L414 796 L294 678 L327 643 L430 734 Z M580 430 C580 517 502 566 400 566 C209 566 56 406 56 203 C56 48 162 -16 283 -16 C377 -16 471 22 535 85 L495 133 C461 101 381 51 295 51 C215 51 140 89 131 191 C292 194 580 223 580 430 L580 430 Z M134 261 C154 386 250 499 392 499 C467 499 509 464 509 419 C509 281 254 262 134 261 L134 261 Z " />
<glyph glyph-name="uni1EC4" unicode="&#x1ec4;" horiz-adv-x="677" d="M443 1163 C494 1163 509 1102 578 1102 C636 1102 689 1145 704 1219 L642 1219 C636 1189 623 1164 587 1164 C537 1164 520 1224 452 1224 C393 1224 337 1179 325 1107 L387 1107 C392 1138 407 1163 443 1163 L443 1163 Z M460 1019 L340 901 L373 866 L476 957 L545 866 L591 901 L514 1019 L460 1019 Z M60 0 L560 0 L573 73 L149 73 L199 363 L510 363 L523 437 L212 437 L258 700 L682 700 L695 773 L195 773 L60 0 Z " />
<glyph glyph-name="uni1EC5" unicode="&#x1ec5;" horiz-adv-x="632" d="M596 996 C590 966 577 941 541 941 C491 941 474 1001 406 1001 C347 1001 291 956 279 884 L341 884 C346 915 361 940 397 940 C448 940 463 879 532 879 C590 879 643 922 658 996 L596 996 Z M499 643 L545 678 L468 796 L414 796 L294 678 L327 643 L430 734 L499 643 Z M580 430 C580 517 502 566 400 566 C209 566 56 406 56 203 C56 48 162 -16 283 -16 C377 -16 471 22 535 85 L495 133 C461 101 381 51 295 51 C215 51 140 89 131 191 C292 194 580 223 580 430 L580 430 Z M134 261 C154 386 250 499 392 499 C467 499 509 464 509 419 C509 281 254 262 134 261 L134 261 Z " />
<glyph glyph-name="uni1EC6" unicode="&#x1ec6;" horiz-adv-x="677" d="M476 957 L545 866 L591 901 L514 1019 L460 1019 L340 901 L373 866 L476 957 Z M682 700 L695 773 L195 773 L60 0 L560 0 L573 73 L149 73 L199 363 L510 363 L523 437 L212 437 L258 700 L682 700 Z M293 -89 C255 -89 227 -119 227 -159 C227 -186 244 -205 273 -205 C310 -205 338 -175 338 -137 C338 -109 320 -89 293 -89 L293 -89 Z " />
<glyph glyph-name="uni1EC7" unicode="&#x1ec7;" horiz-adv-x="632" d="M430 734 L499 643 L545 678 L468 796 L414 796 L294 678 L327 643 L430 734 Z M295 51 C215 51 140 89 131 191 C292 194 580 223 580 430 C580 517 502 566 400 566 C209 566 56 406 56 203 C56 48 162 -16 283 -16 C377 -16 471 22 535 85 L495 133 C461 101 381 51 295 51 L295 51 Z M392 499 C467 499 509 464 509 419 C509 281 254 262 134 261 C154 386 250 499 392 499 L392 499 Z M271 -89 C233 -89 205 -119 205 -159 C205 -186 222 -205 251 -205 C288 -205 316 -175 316 -137 C316 -109 298 -89 271 -89 L271 -89 Z " />
<glyph glyph-name="uni1EC8" unicode="&#x1ec8;" horiz-adv-x="291" d="M272 839 L219 839 C272 889 327 932 327 974 C327 994 317 1008 296 1008 C274 1008 257 995 238 978 L210 1012 C232 1036 265 1064 314 1064 C369 1065 395 1032 393 989 C390 918 310 867 272 839 L272 839 Z M137 0 L60 0 L195 773 L272 773 L137 0 Z " />
<glyph glyph-name="uni1EC9" unicode="&#x1ec9;" horiz-adv-x="298" d="M242 616 L189 616 C242 666 297 709 297 751 C297 771 287 785 266 785 C244 785 227 772 208 755 L180 789 C202 813 235 841 284 841 C339 842 365 809 363 766 C360 695 280 644 242 616 L242 616 Z M247 70 L249 8 C113 -39 75 22 88 105 L166 550 L241 550 L166 115 C156 64 178 53 247 70 L247 70 Z " />
<glyph glyph-name="uni1ECA" unicode="&#x1eca;" horiz-adv-x="291" d="M137 0 L60 0 L195 773 L272 773 L137 0 Z M85 -89 C112 -89 130 -109 130 -137 C130 -175 102 -205 65 -205 C36 -205 19 -186 19 -159 C19 -119 47 -89 85 -89 L85 -89 Z " />
<glyph glyph-name="uni1ECB" unicode="&#x1ecb;" horiz-adv-x="326" d="M236 860 C268 860 288 839 288 808 C288 765 256 732 214 732 C183 732 165 753 165 784 C165 829 195 860 236 860 L236 860 Z M232 70 L234 8 C98 -39 60 22 73 105 L151 550 L226 550 L151 115 C141 64 163 53 232 70 L232 70 Z M121 -89 C148 -89 166 -109 166 -137 C166 -175 138 -205 101 -205 C72 -205 55 -186 55 -159 C55 -119 83 -89 121 -89 L121 -89 Z " />
<glyph glyph-name="uni1ECC" unicode="&#x1ecc;" horiz-adv-x="894" d="M537 792 C733 792 848 657 848 462 C848 190 652 -19 395 -19 C199 -19 84 118 84 311 C84 583 279 792 537 792 L537 792 Z M524 718 C317 718 161 549 161 322 C161 165 250 56 408 56 C617 56 771 227 771 449 C771 607 680 718 524 718 L524 718 Z M383 -89 C410 -89 428 -109 428 -137 C428 -175 400 -205 363 -205 C334 -205 317 -186 317 -159 C317 -119 345 -89 383 -89 L383 -89 Z " />
<glyph glyph-name="uni1ECD" unicode="&#x1ecd;" horiz-adv-x="696" d="M399 566 C545 566 636 470 636 327 C636 138 497 -16 297 -16 C149 -16 60 82 60 223 C60 421 206 566 399 566 L399 566 Z M387 495 C241 495 138 379 138 234 C138 130 199 55 309 55 C454 55 557 171 557 316 C557 420 496 495 387 495 L387 495 Z M285 -89 C312 -89 330 -109 330 -137 C330 -175 302 -205 265 -205 C236 -205 219 -186 219 -159 C219 -119 247 -89 285 -89 L285 -89 Z " />
<glyph glyph-name="uni1ECE" unicode="&#x1ece;" horiz-adv-x="894" d="M573 839 L520 839 C573 889 628 932 628 974 C628 994 618 1008 597 1008 C575 1008 558 995 539 978 L511 1012 C533 1036 566 1064 615 1064 C670 1065 696 1032 694 989 C691 918 611 867 573 839 L573 839 Z M537 792 C733 792 848 657 848 462 C848 190 652 -19 395 -19 C199 -19 84 118 84 311 C84 583 279 792 537 792 L537 792 Z M524 718 C317 718 161 549 161 322 C161 165 250 56 408 56 C617 56 771 227 771 449 C771 607 680 718 524 718 L524 718 Z " />
<glyph glyph-name="uni1ECF" unicode="&#x1ecf;" horiz-adv-x="696" d="M437 616 L384 616 C437 666 492 709 492 751 C492 771 482 785 461 785 C439 785 422 772 403 755 L375 789 C397 813 430 841 479 841 C534 842 560 809 558 766 C555 695 475 644 437 616 L437 616 Z M399 566 C545 566 636 470 636 327 C636 138 497 -16 297 -16 C149 -16 60 82 60 223 C60 421 206 566 399 566 L399 566 Z M387 495 C241 495 138 379 138 234 C138 130 199 55 309 55 C454 55 557 171 557 316 C557 420 496 495 387 495 L387 495 Z " />
<glyph glyph-name="uni1ED0" unicode="&#x1ed0;" horiz-adv-x="894" d="M525 1065 L743 1158 L723 1226 L512 1101 L525 1065 Z M549 1019 L603 1019 L680 901 L634 866 L565 957 L462 866 L429 901 L549 1019 Z M537 792 C733 792 848 657 848 462 C848 190 652 -19 395 -19 C199 -19 84 118 84 311 C84 583 279 792 537 792 L537 792 Z M524 718 C317 718 161 549 161 322 C161 165 250 56 408 56 C617 56 771 227 771 449 C771 607 680 718 524 718 L524 718 Z " />
<glyph glyph-name="uni1ED1" unicode="&#x1ed1;" horiz-adv-x="696" d="M389 842 L607 935 L587 1003 L376 878 L389 842 Z M413 796 L467 796 L544 678 L498 643 L429 734 L326 643 L293 678 L413 796 Z M399 566 C545 566 636 470 636 327 C636 138 497 -16 297 -16 C149 -16 60 82 60 223 C60 421 206 566 399 566 L399 566 Z M387 495 C241 495 138 379 138 234 C138 130 199 55 309 55 C454 55 557 171 557 316 C557 420 496 495 387 495 L387 495 Z " />
<glyph glyph-name="uni1ED2" unicode="&#x1ed2;" horiz-adv-x="894" d="M640 1065 L665 1101 L498 1226 L453 1158 L640 1065 Z M549 1019 L603 1019 L680 901 L634 866 L565 957 L462 866 L429 901 L549 1019 Z M537 792 C733 792 848 657 848 462 C848 190 652 -19 395 -19 C199 -19 84 118 84 311 C84 583 279 792 537 792 L537 792 Z M524 718 C317 718 161 549 161 322 C161 165 250 56 408 56 C617 56 771 227 771 449 C771 607 680 718 524 718 L524 718 Z " />
<glyph glyph-name="uni1ED3" unicode="&#x1ed3;" horiz-adv-x="696" d="M504 842 L529 878 L362 1003 L317 935 L504 842 Z M413 796 L467 796 L544 678 L498 643 L429 734 L326 643 L293 678 L413 796 Z M399 566 C545 566 636 470 636 327 C636 138 497 -16 297 -16 C149 -16 60 82 60 223 C60 421 206 566 399 566 L399 566 Z M387 495 C241 495 138 379 138 234 C138 130 199 55 309 55 C454 55 557 171 557 316 C557 420 496 495 387 495 L387 495 Z " />
<glyph glyph-name="uni1ED4" unicode="&#x1ed4;" horiz-adv-x="894" d="M611 1062 L558 1062 C611 1112 666 1155 666 1197 C666 1217 656 1231 635 1231 C613 1231 596 1218 577 1201 L549 1235 C571 1259 604 1287 653 1287 C708 1288 734 1255 732 1212 C729 1141 649 1090 611 1062 L611 1062 Z M549 1019 L603 1019 L680 901 L634 866 L565 957 L462 866 L429 901 L549 1019 Z M537 792 C733 792 848 657 848 462 C848 190 652 -19 395 -19 C199 -19 84 118 84 311 C84 583 279 792 537 792 L537 792 Z M524 718 C317 718 161 549 161 322 C161 165 250 56 408 56 C617 56 771 227 771 449 C771 607 680 718 524 718 L524 718 Z " />
<glyph glyph-name="uni1ED5" unicode="&#x1ed5;" horiz-adv-x="696" d="M475 839 L422 839 C475 889 530 932 530 974 C530 994 520 1008 499 1008 C477 1008 460 995 441 978 L413 1012 C435 1036 468 1064 517 1064 C572 1065 598 1032 596 989 C593 918 513 867 475 839 L475 839 Z M413 796 L467 796 L544 678 L498 643 L429 734 L326 643 L293 678 L413 796 Z M399 566 C545 566 636 470 636 327 C636 138 497 -16 297 -16 C149 -16 60 82 60 223 C60 421 206 566 399 566 L399 566 Z M387 495 C241 495 138 379 138 234 C138 130 199 55 309 55 C454 55 557 171 557 316 C557 420 496 495 387 495 L387 495 Z " />
<glyph glyph-name="uni1ED6" unicode="&#x1ed6;" horiz-adv-x="894" d="M476 1107 C481 1138 496 1163 532 1163 C583 1163 598 1102 667 1102 C725 1102 778 1145 793 1219 L731 1219 C725 1189 712 1164 676 1164 C626 1164 609 1224 541 1224 C482 1224 426 1179 414 1107 L476 1107 Z M549 1019 L603 1019 L680 901 L634 866 L565 957 L462 866 L429 901 L549 1019 Z M537 792 C733 792 848 657 848 462 C848 190 652 -19 395 -19 C199 -19 84 118 84 311 C84 583 279 792 537 792 L537 792 Z M524 718 C317 718 161 549 161 322 C161 165 250 56 408 56 C617 56 771 227 771 449 C771 607 680 718 524 718 L524 718 Z " />
<glyph glyph-name="uni1ED7" unicode="&#x1ed7;" horiz-adv-x="696" d="M340 884 C345 915 360 940 396 940 C447 940 462 879 531 879 C589 879 642 922 657 996 L595 996 C589 966 576 941 540 941 C490 941 473 1001 405 1001 C346 1001 290 956 278 884 L340 884 Z M413 796 L467 796 L544 678 L498 643 L429 734 L326 643 L293 678 L413 796 Z M399 566 C545 566 636 470 636 327 C636 138 497 -16 297 -16 C149 -16 60 82 60 223 C60 421 206 566 399 566 L399 566 Z M387 495 C241 495 138 379 138 234 C138 130 199 55 309 55 C454 55 557 171 557 316 C557 420 496 495 387 495 L387 495 Z " />
<glyph glyph-name="uni1ED8" unicode="&#x1ed8;" horiz-adv-x="894" d="M549 1019 L603 1019 L680 901 L634 866 L565 957 L462 866 L429 901 L549 1019 Z M537 792 C733 792 848 657 848 462 C848 190 652 -19 395 -19 C199 -19 84 118 84 311 C84 583 279 792 537 792 L537 792 Z M524 718 C317 718 161 549 161 322 C161 165 250 56 408 56 C617 56 771 227 771 449 C771 607 680 718 524 718 L524 718 Z M383 -89 C410 -89 428 -109 428 -137 C428 -175 400 -205 363 -205 C334 -205 317 -186 317 -159 C317 -119 345 -89 383 -89 L383 -89 Z " />
<glyph glyph-name="uni1ED9" unicode="&#x1ed9;" horiz-adv-x="696" d="M413 796 L467 796 L544 678 L498 643 L429 734 L326 643 L293 678 L413 796 Z M399 566 C545 566 636 470 636 327 C636 138 497 -16 297 -16 C149 -16 60 82 60 223 C60 421 206 566 399 566 L399 566 Z M387 495 C241 495 138 379 138 234 C138 130 199 55 309 55 C454 55 557 171 557 316 C557 420 496 495 387 495 L387 495 Z M285 -89 C312 -89 330 -109 330 -137 C330 -175 302 -205 265 -205 C236 -205 219 -186 219 -159 C219 -119 247 -89 285 -89 L285 -89 Z " />
<glyph glyph-name="uni1EDA" unicode="&#x1eda;" horiz-adv-x="888" d="M703 935 L683 1003 L472 878 L485 842 L703 935 Z M894 860 L825 860 C825 809 809 789 759 789 C685 790 613 792 539 792 L538 792 L536 792 C278 791 84 582 84 311 C84 118 199 -19 395 -19 C652 -19 848 190 848 462 C848 572 811 664 743 722 L770 722 C866 722 890 777 894 860 L894 860 Z M771 449 C771 227 617 56 408 56 C250 56 161 165 161 322 C161 549 317 718 524 718 C680 718 771 607 771 449 L771 449 Z " />
<glyph glyph-name="uni1EDB" unicode="&#x1edb;" horiz-adv-x="693" d="M567 712 L547 780 L336 655 L349 619 L567 712 Z M708 637 L639 637 C640 586 624 564 574 564 C499 565 473 566 399 566 C206 566 59 421 59 223 C59 82 148 -16 297 -16 C497 -16 635 138 635 327 C635 399 612 459 571 501 L575 501 C679 496 705 554 708 637 L708 637 Z M309 55 C199 55 137 130 137 234 C137 379 241 495 386 495 C495 495 556 420 556 316 C556 171 453 55 309 55 L309 55 Z " />
<glyph glyph-name="uni1EDC" unicode="&#x1edc;" horiz-adv-x="888" d="M625 878 L458 1003 L413 935 L600 842 L625 878 Z M894 860 L825 860 C825 809 809 789 759 789 C685 790 613 792 539 792 L538 792 L536 792 C278 791 84 582 84 311 C84 118 199 -19 395 -19 C652 -19 848 190 848 462 C848 572 811 664 743 722 L770 722 C866 722 890 777 894 860 L894 860 Z M771 449 C771 227 617 56 408 56 C250 56 161 165 161 322 C161 549 317 718 524 718 C680 718 771 607 771 449 L771 449 Z " />
<glyph glyph-name="uni1EDD" unicode="&#x1edd;" horiz-adv-x="693" d="M489 655 L322 780 L277 712 L464 619 L489 655 Z M708 637 L639 637 C640 586 624 564 574 564 C499 565 473 566 399 566 C206 566 59 421 59 223 C59 82 148 -16 297 -16 C497 -16 635 138 635 327 C635 399 612 459 571 501 L575 501 C679 496 705 554 708 637 L708 637 Z M309 55 C199 55 137 130 137 234 C137 379 241 495 386 495 C495 495 556 420 556 316 C556 171 453 55 309 55 L309 55 Z " />
<glyph glyph-name="uni1EDE" unicode="&#x1ede;" horiz-adv-x="888" d="M595 1008 C616 1008 626 994 626 974 C626 932 571 889 518 839 L571 839 C609 867 689 918 692 989 C694 1032 668 1065 613 1064 C564 1064 531 1036 509 1012 L537 978 C556 995 573 1008 595 1008 L595 1008 Z M894 860 L825 860 C825 809 809 789 759 789 C685 790 613 792 539 792 L538 792 L536 792 C278 791 84 582 84 311 C84 118 199 -19 395 -19 C652 -19 848 190 848 462 C848 572 811 664 743 722 L770 722 C866 722 890 777 894 860 L894 860 Z M771 449 C771 227 617 56 408 56 C250 56 161 165 161 322 C161 549 317 718 524 718 C680 718 771 607 771 449 L771 449 Z " />
<glyph glyph-name="uni1EDF" unicode="&#x1edf;" horiz-adv-x="693" d="M459 785 C480 785 490 771 490 751 C490 709 435 666 382 616 L435 616 C473 644 553 695 556 766 C558 809 532 842 477 841 C428 841 395 813 373 789 L401 755 C420 772 437 785 459 785 L459 785 Z M708 637 L639 637 C640 586 624 564 574 564 C499 565 473 566 399 566 C206 566 59 421 59 223 C59 82 148 -16 297 -16 C497 -16 635 138 635 327 C635 399 612 459 571 501 L575 501 C679 496 705 554 708 637 L708 637 Z M309 55 C199 55 137 130 137 234 C137 379 241 495 386 495 C495 495 556 420 556 316 C556 171 453 55 309 55 L309 55 Z " />
<glyph glyph-name="uni1EE0" unicode="&#x1ee0;" horiz-adv-x="888" d="M492 940 C543 940 558 879 627 879 C685 879 738 922 753 996 L691 996 C685 966 672 941 636 941 C586 941 569 1001 501 1001 C442 1001 386 956 374 884 L436 884 C441 915 456 940 492 940 L492 940 Z M894 860 L825 860 C825 809 809 789 759 789 C685 790 613 792 539 792 L538 792 L536 792 C278 791 84 582 84 311 C84 118 199 -19 395 -19 C652 -19 848 190 848 462 C848 572 811 664 743 722 L770 722 C866 722 890 777 894 860 L894 860 Z M771 449 C771 227 617 56 408 56 C250 56 161 165 161 322 C161 549 317 718 524 718 C680 718 771 607 771 449 L771 449 Z " />
<glyph glyph-name="uni1EE1" unicode="&#x1ee1;" horiz-adv-x="693" d="M356 717 C407 717 422 656 491 656 C549 656 602 699 617 773 L555 773 C549 743 536 718 500 718 C450 718 433 778 365 778 C306 778 250 733 238 661 L300 661 C305 692 320 717 356 717 L356 717 Z M708 637 L639 637 C640 586 624 564 574 564 C499 565 473 566 399 566 C206 566 59 421 59 223 C59 82 148 -16 297 -16 C497 -16 635 138 635 327 C635 399 612 459 571 501 L575 501 C679 496 705 554 708 637 L708 637 Z M309 55 C199 55 137 130 137 234 C137 379 241 495 386 495 C495 495 556 420 556 316 C556 171 453 55 309 55 L309 55 Z " />
<glyph glyph-name="uni1EE2" unicode="&#x1ee2;" horiz-adv-x="888" d="M894 860 L825 860 C825 809 809 789 759 789 C685 790 613 792 539 792 L538 792 L536 792 C278 791 84 582 84 311 C84 118 199 -19 395 -19 C652 -19 848 190 848 462 C848 572 811 664 743 722 L770 722 C866 722 890 777 894 860 L894 860 Z M771 449 C771 227 617 56 408 56 C250 56 161 165 161 322 C161 549 317 718 524 718 C680 718 771 607 771 449 L771 449 Z M383 -89 C345 -89 317 -119 317 -159 C317 -186 334 -205 363 -205 C400 -205 428 -175 428 -137 C428 -109 410 -89 383 -89 L383 -89 Z " />
<glyph glyph-name="uni1EE3" unicode="&#x1ee3;" horiz-adv-x="693" d="M708 637 L639 637 C640 586 624 564 574 564 C499 565 473 566 399 566 C206 566 59 421 59 223 C59 82 148 -16 297 -16 C497 -16 635 138 635 327 C635 399 612 459 571 501 L575 501 C679 496 705 554 708 637 L708 637 Z M309 55 C199 55 137 130 137 234 C137 379 241 495 386 495 C495 495 556 420 556 316 C556 171 453 55 309 55 L309 55 Z M285 -89 C247 -89 219 -119 219 -159 C219 -186 236 -205 265 -205 C302 -205 330 -175 330 -137 C330 -109 312 -89 285 -89 L285 -89 Z " />
<glyph glyph-name="uni1EE4" unicode="&#x1ee4;" horiz-adv-x="842" d="M826 773 L748 326 C712 122 568 -18 369 -18 C170 -18 76 122 112 326 L190 773 L267 773 L189 330 C159 158 237 52 381 52 C521 52 641 153 671 330 L749 773 L826 773 Z M358 -89 C385 -89 403 -109 403 -137 C403 -175 375 -205 338 -205 C309 -205 292 -186 292 -159 C292 -119 320 -89 358 -89 L358 -89 Z " />
<glyph glyph-name="uni1EE5" unicode="&#x1ee5;" horiz-adv-x="659" d="M534 550 L474 213 C418 129 349 63 265 63 C174 63 140 115 160 226 L216 550 L138 550 L81 224 C51 46 123 -16 240 -16 C333 -16 404 39 454 99 L452 0 L516 0 L612 550 L534 550 Z M250 -89 C212 -89 184 -119 184 -159 C184 -186 201 -205 230 -205 C267 -205 295 -175 295 -137 C295 -109 277 -89 250 -89 L250 -89 Z " />
<glyph glyph-name="uni1EE6" unicode="&#x1ee6;" horiz-adv-x="842" d="M550 839 L497 839 C550 889 605 932 605 974 C605 994 595 1008 574 1008 C552 1008 535 995 516 978 L488 1012 C510 1036 543 1064 592 1064 C647 1065 673 1032 671 989 C668 918 588 867 550 839 L550 839 Z M826 773 L748 326 C712 122 568 -18 369 -18 C170 -18 76 122 112 326 L190 773 L267 773 L189 330 C159 158 237 52 381 52 C521 52 641 153 671 330 L749 773 L826 773 Z " />
<glyph glyph-name="uni1EE7" unicode="&#x1ee7;" horiz-adv-x="659" d="M445 785 C466 785 476 771 476 751 C476 709 421 666 368 616 L421 616 C459 644 539 695 542 766 C544 809 518 842 463 841 C414 841 381 813 359 789 L387 755 C406 772 423 785 445 785 L445 785 Z M534 550 L474 213 C418 129 349 63 265 63 C174 63 140 115 160 226 L216 550 L138 550 L81 224 C51 46 123 -16 240 -16 C333 -16 404 39 454 99 L452 0 L516 0 L612 550 L534 550 Z " />
<glyph glyph-name="uni1EE8" unicode="&#x1ee8;" horiz-adv-x="849" d="M676 935 L656 1003 L445 878 L458 842 L676 935 Z M907 847 C907 796 891 772 841 773 L745 773 L667 332 C637 155 517 54 377 54 C233 54 155 160 185 332 L263 773 L185 773 L107 328 C71 124 165 -16 365 -16 C564 -16 707 124 744 328 L810 708 L849 708 C945 708 971 764 976 847 L907 847 Z " />
<glyph glyph-name="uni1EE9" unicode="&#x1ee9;" horiz-adv-x="698" d="M557 712 L537 780 L326 655 L339 619 L557 712 Z M675 624 C675 574 659 550 611 550 L534 550 L474 213 C417 129 348 63 264 63 C173 63 140 115 159 226 L216 550 L138 550 L81 224 C50 46 123 -16 239 -16 C333 -16 404 39 454 99 L451 0 L515 0 L600 485 L616 485 C713 485 739 541 744 624 L675 624 Z " />
<glyph glyph-name="uni1EEA" unicode="&#x1eea;" horiz-adv-x="849" d="M598 878 L431 1003 L386 935 L573 842 L598 878 Z M907 847 C907 796 891 772 841 773 L745 773 L667 332 C637 155 517 54 377 54 C233 54 155 160 185 332 L263 773 L185 773 L107 328 C71 124 165 -16 365 -16 C564 -16 707 124 744 328 L810 708 L849 708 C945 708 971 764 976 847 L907 847 Z " />
<glyph glyph-name="uni1EEB" unicode="&#x1eeb;" horiz-adv-x="698" d="M479 655 L312 780 L267 712 L454 619 L479 655 Z M675 624 C675 574 659 550 611 550 L534 550 L474 213 C417 129 348 63 264 63 C173 63 140 115 159 226 L216 550 L138 550 L81 224 C50 46 123 -16 239 -16 C333 -16 404 39 454 99 L451 0 L515 0 L600 485 L616 485 C713 485 739 541 744 624 L675 624 Z " />
<glyph glyph-name="uni1EEC" unicode="&#x1eec;" horiz-adv-x="849" d="M568 1008 C589 1008 599 994 599 974 C599 932 544 889 491 839 L544 839 C582 867 662 918 665 989 C667 1032 641 1065 586 1064 C537 1064 504 1036 482 1012 L510 978 C529 995 546 1008 568 1008 L568 1008 Z M907 847 C907 796 891 772 841 773 L745 773 L667 332 C637 155 517 54 377 54 C233 54 155 160 185 332 L263 773 L185 773 L107 328 C71 124 165 -16 365 -16 C564 -16 707 124 744 328 L810 708 L849 708 C945 708 971 764 976 847 L907 847 Z " />
<glyph glyph-name="uni1EED" unicode="&#x1eed;" horiz-adv-x="698" d="M449 785 C470 785 480 771 480 751 C480 709 425 666 372 616 L425 616 C463 644 543 695 546 766 C548 809 522 842 467 841 C418 841 385 813 363 789 L391 755 C410 772 427 785 449 785 L449 785 Z M675 624 C675 574 659 550 611 550 L534 550 L474 213 C417 129 348 63 264 63 C173 63 140 115 159 226 L216 550 L138 550 L81 224 C50 46 123 -16 239 -16 C333 -16 404 39 454 99 L451 0 L515 0 L600 485 L616 485 C713 485 739 541 744 624 L675 624 Z " />
<glyph glyph-name="uni1EEE" unicode="&#x1eee;" horiz-adv-x="849" d="M465 940 C516 940 531 879 600 879 C658 879 711 922 726 996 L664 996 C658 966 645 941 609 941 C559 941 542 1001 474 1001 C415 1001 359 956 347 884 L409 884 C414 915 429 940 465 940 L465 940 Z M907 847 C907 796 891 772 841 773 L745 773 L667 332 C637 155 517 54 377 54 C233 54 155 160 185 332 L263 773 L185 773 L107 328 C71 124 165 -16 365 -16 C564 -16 707 124 744 328 L810 708 L849 708 C945 708 971 764 976 847 L907 847 Z " />
<glyph glyph-name="uni1EEF" unicode="&#x1eef;" horiz-adv-x="698" d="M346 717 C397 717 412 656 481 656 C539 656 592 699 607 773 L545 773 C539 743 526 718 490 718 C440 718 423 778 355 778 C296 778 240 733 228 661 L290 661 C295 692 310 717 346 717 L346 717 Z M675 624 C675 574 659 550 611 550 L534 550 L474 213 C417 129 348 63 264 63 C173 63 140 115 159 226 L216 550 L138 550 L81 224 C50 46 123 -16 239 -16 C333 -16 404 39 454 99 L451 0 L515 0 L600 485 L616 485 C713 485 739 541 744 624 L675 624 Z " />
<glyph glyph-name="uni1EF0" unicode="&#x1ef0;" horiz-adv-x="849" d="M907 847 C907 796 891 772 841 773 L745 773 L667 332 C637 155 517 54 377 54 C233 54 155 160 185 332 L263 773 L185 773 L107 328 C71 124 165 -16 365 -16 C564 -16 707 124 744 328 L810 708 L849 708 C945 708 971 764 976 847 L907 847 Z M353 -89 C315 -89 287 -119 287 -159 C287 -186 304 -205 333 -205 C370 -205 398 -175 398 -137 C398 -109 380 -89 353 -89 L353 -89 Z " />
<glyph glyph-name="uni1EF1" unicode="&#x1ef1;" horiz-adv-x="698" d="M675 624 C675 574 659 550 611 550 L534 550 L474 213 C417 129 348 63 264 63 C173 63 140 115 159 226 L216 550 L138 550 L81 224 C50 46 123 -16 239 -16 C333 -16 404 39 454 99 L451 0 L515 0 L600 485 L616 485 C713 485 739 541 744 624 L675 624 Z M229 -89 C191 -89 163 -119 163 -159 C163 -186 180 -205 209 -205 C246 -205 274 -175 274 -137 C274 -109 256 -89 229 -89 L229 -89 Z " />
<glyph glyph-name="Ygrave" unicode="&#x1ef2;" horiz-adv-x="720" d="M540 877 L373 1002 L328 934 L515 841 L540 877 Z M777 773 L690 773 L372 343 L205 773 L119 773 L321 277 L273 0 L351 0 L399 276 L777 773 Z " />
<glyph glyph-name="ygrave" unicode="&#x1ef3;" horiz-adv-x="658" d="M452 655 L285 780 L240 712 L427 619 L452 655 Z M533 550 L475 214 C419 129 350 63 266 63 C175 63 140 115 159 226 L216 550 L139 550 L82 224 C52 46 125 -16 241 -16 C336 -16 406 40 456 101 L442 22 C416 -131 321 -228 192 -228 C121 -228 66 -198 35 -141 L-32 -185 C5 -254 80 -300 182 -300 C370 -300 487 -159 518 19 L611 550 L533 550 Z " />
<glyph glyph-name="uni1EF4" unicode="&#x1ef4;" horiz-adv-x="720" d="M777 773 L690 773 L372 343 L205 773 L119 773 L321 277 L273 0 L351 0 L399 276 L777 773 Z M297 -89 C259 -89 231 -119 231 -159 C231 -186 248 -205 277 -205 C314 -205 342 -175 342 -137 C342 -109 324 -89 297 -89 L297 -89 Z " />
<glyph glyph-name="uni1EF5" unicode="&#x1ef5;" horiz-adv-x="658" d="M533 550 L475 214 C419 129 350 63 266 63 C175 63 140 115 159 226 L216 550 L139 550 L82 224 C52 46 125 -16 241 -16 C336 -16 406 40 456 101 L442 22 C416 -131 321 -228 192 -228 C121 -228 66 -198 35 -141 L-32 -185 C5 -254 80 -300 182 -300 C370 -300 487 -159 518 19 L611 550 L533 550 Z M193 -389 C155 -389 127 -419 127 -459 C127 -486 144 -505 173 -505 C210 -505 238 -475 238 -437 C238 -409 220 -389 193 -389 L193 -389 Z " />
<glyph glyph-name="uni1EF6" unicode="&#x1ef6;" horiz-adv-x="720" d="M510 1007 C531 1007 541 993 541 973 C541 931 486 888 433 838 L486 838 C524 866 604 917 607 988 C609 1031 583 1064 528 1063 C479 1063 446 1035 424 1011 L452 977 C471 994 488 1007 510 1007 L510 1007 Z M777 773 L690 773 L372 343 L205 773 L119 773 L321 277 L273 0 L351 0 L399 276 L777 773 Z " />
<glyph glyph-name="uni1EF7" unicode="&#x1ef7;" horiz-adv-x="658" d="M422 785 C443 785 453 771 453 751 C453 709 398 666 345 616 L398 616 C436 644 516 695 519 766 C521 809 495 842 440 841 C391 841 358 813 336 789 L364 755 C383 772 400 785 422 785 L422 785 Z M533 550 L475 214 C419 129 350 63 266 63 C175 63 140 115 159 226 L216 550 L139 550 L82 224 C52 46 125 -16 241 -16 C336 -16 406 40 456 101 L442 22 C416 -131 321 -228 192 -228 C121 -228 66 -198 35 -141 L-32 -185 C5 -254 80 -300 182 -300 C370 -300 487 -159 518 19 L611 550 L533 550 Z " />
<glyph glyph-name="uni1EF8" unicode="&#x1ef8;" horiz-adv-x="720" d="M404 939 C455 939 470 878 539 878 C597 878 650 921 665 995 L603 995 C597 965 584 940 548 940 C498 940 481 1000 413 1000 C354 1000 298 955 286 883 L348 883 C353 914 368 939 404 939 L404 939 Z M777 773 L690 773 L372 343 L205 773 L119 773 L321 277 L273 0 L351 0 L399 276 L777 773 Z " />
<glyph glyph-name="uni1EF9" unicode="&#x1ef9;" horiz-adv-x="658" d="M319 717 C370 717 385 656 454 656 C512 656 565 699 580 773 L518 773 C512 743 499 718 463 718 C413 718 396 778 328 778 C269 778 213 733 201 661 L263 661 C268 692 283 717 319 717 L319 717 Z M533 550 L475 214 C419 129 350 63 266 63 C175 63 140 115 159 226 L216 550 L139 550 L82 224 C52 46 125 -16 241 -16 C336 -16 406 40 456 101 L442 22 C416 -131 321 -228 192 -228 C121 -228 66 -198 35 -141 L-32 -185 C5 -254 80 -300 182 -300 C370 -300 487 -159 518 19 L611 550 L533 550 Z " />
<glyph glyph-name="uni2009" unicode="&#x2009;" horiz-adv-x="165" d="" />
<glyph glyph-name="endash" unicode="&#x2013;" horiz-adv-x="589" d="M541 392 L528 324 L76 324 L90 392 L541 392 Z " />
<glyph glyph-name="emdash" unicode="&#x2014;" horiz-adv-x="1004" d="M956 393 L943 324 L76 324 L90 393 L956 393 Z " />
<glyph glyph-name="quoteleft" unicode="&#x2018;" horiz-adv-x="259" d="M199 599 C166 599 146 620 146 660 C146 726 190 800 276 860 C281 853 293 839 298 833 C252 797 218 762 211 727 C219 729 224 729 228 729 C257 729 276 708 276 676 C276 633 243 599 199 599 L199 599 Z " />
<glyph glyph-name="quoteright" unicode="&#x2019;" horiz-adv-x="200" d="M191 860 C223 860 243 839 243 799 C243 733 200 659 113 599 L91 626 C137 662 169 697 178 732 C171 730 166 730 162 730 C131 730 112 751 112 783 C112 826 147 860 191 860 L191 860 Z " />
<glyph glyph-name="quotesinglbase" unicode="&#x201a;" horiz-adv-x="600" d="M95 114 C127 114 147 93 147 53 C147 -13 104 -87 17 -147 C11 -140 -1 -126 -5 -120 C41 -84 73 -49 82 -14 C75 -16 70 -16 66 -16 C35 -16 15 5 15 37 C15 80 51 114 95 114 L95 114 Z " />
<glyph glyph-name="quotedblleft" unicode="&#x201c;" horiz-adv-x="429" d="M199 599 C166 599 146 620 146 660 C146 726 190 800 276 860 C281 853 293 839 298 833 C252 797 218 762 211 727 C219 729 224 729 228 729 C257 729 276 708 276 676 C276 633 243 599 199 599 L199 599 Z M369 599 C336 599 316 620 316 660 C316 726 360 800 446 860 C451 853 463 839 468 833 C422 797 388 762 381 727 C389 729 394 729 398 729 C427 729 446 708 446 676 C446 633 413 599 369 599 L369 599 Z " />
<glyph glyph-name="quotedblright" unicode="&#x201d;" horiz-adv-x="430" d="M221 860 C253 860 273 839 273 799 C273 733 230 659 143 599 L121 626 C167 662 199 697 208 732 C201 730 196 730 192 730 C161 730 142 751 142 783 C142 826 177 860 221 860 L221 860 Z M391 860 C423 860 443 839 443 799 C443 733 400 659 313 599 L291 626 C337 662 369 697 378 732 C371 730 366 730 362 730 C331 730 312 751 312 783 C312 826 347 860 391 860 L391 860 Z " />
<glyph glyph-name="quotedblbase" unicode="&#x201e;" horiz-adv-x="223" d="M95 114 C51 114 15 80 15 37 C15 5 35 -16 66 -16 C70 -16 75 -16 82 -14 C73 -49 41 -84 -5 -120 C-1 -126 11 -140 17 -147 C104 -87 147 -13 147 53 C147 93 127 114 95 114 L95 114 Z " />
<glyph glyph-name="dagger" unicode="&#x2020;" horiz-adv-x="506" d="M475 706 L362 702 L385 810 L394 860 L317 860 L308 810 L292 702 L181 706 L131 706 L117 629 L167 629 L281 632 L243 443 L224 335 L302 335 L321 443 L350 632 L461 629 L511 629 L525 706 L475 706 Z " />
<glyph glyph-name="daggerdbl" unicode="&#x2021;" horiz-adv-x="507" d="M473 690 L361 686 L383 794 L394 860 L317 860 L305 794 L291 686 L179 690 L129 690 L115 613 L165 613 L278 616 L250 475 L240 424 L241 424 L212 238 L101 243 L51 243 L37 165 L87 165 L200 169 L173 39 L156 -61 L233 -61 L250 39 L270 169 L381 165 L431 165 L445 243 L395 243 L281 238 L319 425 L328 475 L347 616 L459 613 L509 613 L523 690 L473 690 Z " />
<glyph glyph-name="bullet" unicode="&#x2022;" horiz-adv-x="345" d="M223 551 C284 551 319 511 319 451 C319 370 255 298 173 298 C112 298 78 342 78 400 C78 489 140 551 223 551 L223 551 Z " />
<glyph glyph-name="ellipsis" unicode="&#x2026;" horiz-adv-x="643" d="M96 90 C120 90 136 72 136 46 C136 11 109 -18 74 -18 C48 -18 33 -1 33 24 C33 62 58 90 96 90 L96 90 Z M291 90 C316 90 332 72 332 46 C332 11 304 -18 270 -18 C243 -18 228 -1 228 24 C228 62 255 90 291 90 L291 90 Z M485 90 C510 90 526 72 526 46 C526 11 499 -18 464 -18 C437 -18 422 -1 422 24 C422 62 449 90 485 90 L485 90 Z " />
<glyph glyph-name="perthousand" unicode="&#x2030;" horiz-adv-x="1133" d="M188 -11 L135 19 L641 789 L694 759 L188 -11 Z M305 784 C388 784 441 727 441 641 C441 537 367 434 244 434 C159 434 108 491 108 577 C108 698 194 784 305 784 L305 784 Z M293 723 C224 723 177 660 177 586 C177 536 204 496 254 496 C322 496 370 560 370 632 C370 684 344 723 293 723 L293 723 Z M590 335 C674 335 726 279 726 192 C726 88 654 -15 530 -15 C446 -15 394 42 394 128 C394 249 481 335 590 335 L590 335 Z M955 335 C1038 335 1091 279 1091 192 C1091 88 1018 -15 894 -15 C811 -15 758 42 758 128 C758 249 845 335 955 335 L955 335 Z M580 274 C512 274 465 211 465 138 C465 87 491 47 541 47 C609 47 657 110 657 183 C657 235 631 274 580 274 L580 274 Z M944 274 C876 274 829 211 829 138 C829 87 856 47 905 47 C973 47 1021 110 1021 183 C1021 235 995 274 944 274 L944 274 Z " />
<glyph glyph-name="guilsinglleft" unicode="&#x2039;" horiz-adv-x="385" d="M330 458 L286 511 L51 277 L203 43 L266 96 L136 277 L330 458 Z " />
<glyph glyph-name="guilsinglright" unicode="&#x203a;" horiz-adv-x="385" d="M182 511 L119 458 L249 278 L55 96 L99 43 L334 277 L182 511 Z " />
<glyph glyph-name="uni203D" unicode="&#x203d;" horiz-adv-x="650" d="M656 666 C656 780 582 870 443 870 C315 870 205 798 150 735 L202 691 C245 738 327 800 428 800 C529 800 582 734 582 654 C582 548 508 445 372 417 L394 504 L428 676 L346 676 L312 504 L268 215 L322 215 L356 351 C518 371 656 502 656 666 L656 666 Z M271 96 C233 96 205 67 205 26 C205 1 221 -17 249 -17 C285 -17 314 13 314 51 C314 78 298 96 271 96 L271 96 Z " />
<glyph glyph-name="fraction" unicode="&#x2044;" horiz-adv-x="198" d="M433 792 L482 761 L-183 -2 L-232 27 L433 792 Z " />
<glyph glyph-name="uni2070" unicode="&#x2070;" horiz-adv-x="393" d="M250 474 C163 474 116 545 116 636 C116 743 176 830 276 830 C362 830 410 760 410 668 C410 561 349 474 250 474 L250 474 Z M272 774 C206 774 181 698 181 639 C181 588 199 530 254 530 C314 530 345 591 345 665 C345 717 327 774 272 774 L272 774 Z " />
<glyph glyph-name="uni2074" unicode="&#x2074;" horiz-adv-x="367" d="M381 619 L337 618 L351 821 L291 821 L100 619 L115 562 L273 562 L267 481 L327 481 L333 562 L377 562 L381 619 Z M163 613 L286 744 L277 616 L163 613 Z " />
<glyph glyph-name="uni2075" unicode="&#x2075;" horiz-adv-x="335" d="M228 698 C212 698 197 695 183 691 L194 764 L327 759 L332 821 L146 821 L120 663 L168 633 C179 641 192 650 217 650 C257 650 276 625 276 594 C276 558 254 528 206 528 C173 528 146 544 129 571 L89 533 C108 502 145 474 207 474 C298 474 340 530 340 592 C340 656 291 698 228 698 L228 698 Z " />
<glyph glyph-name="uni2076" unicode="&#x2076;" horiz-adv-x="365" d="M262 701 C226 701 201 689 181 670 C189 724 212 773 265 773 C290 773 312 762 323 752 L369 794 C348 814 311 830 270 830 C174 830 115 744 115 627 C115 541 152 474 240 474 C320 474 366 527 371 589 C376 662 323 701 262 701 L262 701 Z M304 589 C302 561 285 532 242 532 C194 532 181 570 178 608 C195 630 222 645 250 645 C288 645 306 620 304 589 L304 589 Z " />
<glyph glyph-name="uni2077" unicode="&#x2077;" horiz-adv-x="330" d="M148 821 L143 757 L313 763 L156 481 L227 481 L378 765 L383 821 L148 821 Z " />
<glyph glyph-name="uni2078" unicode="&#x2078;" horiz-adv-x="353" d="M309 658 C344 675 364 705 364 741 C364 794 318 830 250 830 C177 830 125 790 125 728 C125 696 142 673 168 659 C131 643 104 612 104 569 C104 511 154 474 226 474 C315 474 362 528 362 581 C362 617 340 643 309 658 L309 658 Z M246 777 C284 777 304 760 304 732 C304 703 279 680 241 680 C204 680 184 700 184 726 C184 756 205 777 246 777 L246 777 Z M229 530 C188 530 167 549 167 577 C167 607 193 632 237 632 C276 632 299 611 299 583 C299 553 273 530 229 530 L229 530 Z " />
<glyph glyph-name="uni2079" unicode="&#x2079;" horiz-adv-x="361" d="M258 830 C179 830 131 777 127 716 C121 642 173 603 236 603 C271 603 296 615 316 633 C308 579 286 531 232 531 C207 531 186 542 173 553 L129 511 C149 491 187 474 229 474 C325 474 383 560 383 676 C383 762 346 830 258 830 L258 830 Z M248 660 C210 660 191 684 193 716 C195 744 212 773 255 773 C303 773 317 733 319 695 C302 673 274 660 248 660 L248 660 Z " />
<glyph glyph-name="Euro" unicode="&#x20ac;" horiz-adv-x="755" d="M515 633 C583 633 634 603 664 530 L728 566 C690 653 619 700 525 700 C379 700 256 599 204 439 L136 439 L116 386 L189 386 C183 356 179 325 177 292 L110 292 L91 239 L176 239 C182 79 266 -19 400 -19 C492 -19 581 27 648 113 L596 148 C543 78 483 46 413 46 C304 46 252 123 246 239 L477 239 L497 292 L247 292 C248 325 253 356 259 386 L530 386 L550 439 L274 439 C314 557 398 633 515 633 L515 633 Z " />
<glyph glyph-name="uni20B1" unicode="&#x20b1;" horiz-adv-x="805" d="M783 486 L700 486 L700 502 C700 616 626 680 497 680 L237 680 L203 486 L144 486 L137 437 L194 437 L117 0 L192 0 L235 243 L419 243 C566 243 668 311 694 437 L776 437 L783 486 Z M299 606 L480 606 C563 606 622 571 622 489 L622 486 L278 486 L299 606 Z M429 315 L248 315 L269 437 L616 437 C596 352 523 315 429 315 L429 315 Z " />
<glyph glyph-name="uni20BD" unicode="&#x20bd;" horiz-adv-x="741" d="M513 680 L259 680 L196 322 L115 322 L102 250 L183 250 L169 168 L88 168 L78 111 L159 111 L139 0 L213 0 L233 111 L396 111 L407 168 L243 168 L257 250 L437 250 C608 250 718 338 718 505 C718 619 643 680 513 680 L513 680 Z M445 322 L270 322 L320 606 L495 606 C579 606 639 575 639 493 C639 370 558 322 445 322 L445 322 Z " />
<glyph glyph-name="uni20BF" unicode="&#x20bf;" horiz-adv-x="686" d="M517 362 C550 371 617 437 617 534 C617 621 564 680 477 680 L472 680 L488 773 L433 773 L416 680 L372 680 L388 773 L333 773 L316 680 L178 680 L59 0 L197 0 L182 -93 L237 -93 L252 0 L297 0 L282 -93 L337 -93 L352 0 L385 0 C506 0 603 98 603 220 C603 287 568 345 517 362 L517 362 Z M461 612 C510 612 550 579 550 517 C550 448 503 387 437 387 L199 387 L238 612 L461 612 Z M386 68 L143 68 L187 319 L434 319 C496 319 535 277 535 217 C535 131 465 68 386 68 L386 68 Z " />
<glyph glyph-name="uni2116" unicode="&#x2116;" horiz-adv-x="1325" d="M1127 793 C967 793 845 674 845 510 C845 391 919 311 1043 311 C1208 311 1323 438 1323 595 C1323 714 1247 793 1127 793 L1127 793 Z M583 138 L284 773 L213 773 L78 0 L154 0 L265 634 L564 0 L634 0 L769 773 L694 773 L583 138 Z M1057 382 C972 382 924 441 924 520 C924 633 1005 722 1117 722 C1201 722 1248 664 1248 584 C1248 471 1169 382 1057 382 L1057 382 Z M807 161 L1218 161 L1231 232 L819 232 L807 161 Z " />
<glyph glyph-name="uni2117" unicode="&#x2117;" horiz-adv-x="838" d="M499 733 C286 733 89 570 89 332 C89 159 210 44 379 44 C592 44 789 206 789 445 C789 618 668 733 499 733 L499 733 Z M389 100 C247 100 145 193 145 341 C145 544 310 677 490 677 C630 677 732 583 732 437 C732 233 568 100 389 100 L389 100 Z M469 539 L373 539 L319 230 L378 230 L396 332 L432 332 C535 332 585 377 585 453 C585 505 548 539 469 539 L469 539 Z M441 382 L405 382 L423 487 L460 487 C496 487 522 477 522 444 C522 396 490 382 441 382 L441 382 Z " />
<glyph glyph-name="trademark" unicode="&#x2122;" horiz-adv-x="699" d="M362 715 L372 773 L121 773 L111 715 L204 715 L161 464 L223 464 L266 715 L362 715 Z M637 773 L531 551 L502 773 L425 773 L351 464 L412 464 L462 673 L490 464 L539 464 L643 679 L618 464 L679 464 L713 773 L637 773 Z " />
<glyph glyph-name="estimated" unicode="&#x212e;" horiz-adv-x="967" d="M248 370 C248 373 250 374 253 374 L910 374 L910 384 C910 484 864 576 791 642 C718 708 615 749 503 749 C391 749 290 708 217 642 C144 576 99 484 99 384 C99 284 144 192 217 127 C290 62 391 21 503 21 C634 21 753 74 824 161 L776 161 C711 89 612 55 505 55 C406 55 324 82 257 149 C251 155 248 162 248 171 L248 370 Z M253 407 C250 407 248 409 248 414 L248 596 C248 605 251 615 258 620 C322 684 409 717 505 717 C601 717 687 688 751 624 C757 617 760 609 760 600 L760 414 C760 409 759 407 756 407 L253 407 Z " />
<glyph glyph-name="oneeighth" unicode="&#x215b;" horiz-adv-x="862" d="M750 792 L85 27 L134 -2 L799 761 L750 792 Z M197 705 L150 431 L216 431 L275 771 L234 771 L122 738 L130 683 L197 705 Z M741 177 C781 195 805 228 805 266 C805 316 763 349 699 349 C622 349 564 305 564 241 C564 212 578 191 600 178 C558 161 526 128 526 80 C526 27 570 -7 638 -7 C734 -7 787 52 787 107 C787 140 769 163 741 177 L741 177 Z M692 296 C726 296 742 280 742 256 C742 224 715 199 674 199 C640 199 623 217 623 240 C623 272 647 296 692 296 L692 296 Z M648 50 C610 50 590 67 590 92 C590 124 620 151 666 151 C703 151 723 132 723 106 C723 75 695 50 648 50 L648 50 Z " />
<glyph glyph-name="threeeighths" unicode="&#x215c;" horiz-adv-x="881" d="M769 792 L104 27 L153 -2 L818 761 L769 792 Z M331 545 C331 589 300 625 242 630 L350 716 L359 771 L141 771 L129 708 L268 713 L160 632 L169 585 C182 588 196 589 209 589 C250 589 264 565 264 543 C264 515 242 480 190 480 C161 480 136 493 127 512 L77 475 C88 449 126 424 180 424 C287 424 331 488 331 545 L331 545 Z M760 177 C800 195 824 228 824 266 C824 316 782 349 718 349 C641 349 583 305 583 241 C583 212 597 191 619 178 C577 161 545 128 545 80 C545 27 589 -7 657 -7 C753 -7 806 52 806 107 C806 140 788 163 760 177 L760 177 Z M711 296 C745 296 761 280 761 256 C761 224 734 199 693 199 C659 199 642 217 642 240 C642 272 666 296 711 296 L711 296 Z M667 50 C629 50 609 67 609 92 C609 124 639 151 685 151 C722 151 742 132 742 106 C742 75 714 50 667 50 L667 50 Z " />
<glyph glyph-name="fiveeighths" unicode="&#x215d;" horiz-adv-x="885" d="M773 792 L108 27 L157 -2 L822 761 L773 792 Z M337 552 C337 609 295 648 236 648 C220 648 205 645 191 641 L209 714 L342 709 L353 771 L167 771 L124 613 L170 583 C182 591 196 600 221 600 C257 600 273 579 273 550 C273 511 247 478 196 478 C163 478 138 494 124 521 L80 483 C95 452 130 424 192 424 C290 424 337 487 337 552 L337 552 Z M764 177 C804 195 828 228 828 266 C828 316 786 349 722 349 C645 349 587 305 587 241 C587 212 601 191 623 178 C581 161 549 128 549 80 C549 27 593 -7 661 -7 C757 -7 810 52 810 107 C810 140 792 163 764 177 L764 177 Z M715 296 C749 296 765 280 765 256 C765 224 738 199 697 199 C663 199 646 217 646 240 C646 272 670 296 715 296 L715 296 Z M671 50 C633 50 613 67 613 92 C613 124 643 151 689 151 C726 151 746 132 746 106 C746 75 718 50 671 50 L671 50 Z " />
<glyph glyph-name="seveneighths" unicode="&#x215e;" horiz-adv-x="838" d="M726 792 L61 27 L110 -2 L775 761 L726 792 Z M183 431 L364 715 L375 771 L140 771 L128 707 L299 713 L112 431 L183 431 Z M717 177 C757 195 781 228 781 266 C781 316 739 349 675 349 C598 349 540 305 540 241 C540 212 554 191 576 178 C534 161 502 128 502 80 C502 27 546 -7 614 -7 C710 -7 763 52 763 107 C763 140 745 163 717 177 L717 177 Z M668 296 C702 296 718 280 718 256 C718 224 691 199 650 199 C616 199 599 217 599 240 C599 272 623 296 668 296 L668 296 Z M624 50 C586 50 566 67 566 92 C566 124 596 151 642 151 C679 151 699 132 699 106 C699 75 671 50 624 50 L624 50 Z " />
<glyph glyph-name="uni2160" unicode="&#x2160;" horiz-adv-x="451" d="M403 611 L416 680 L179 680 L166 611 L247 611 L151 69 L71 69 L59 0 L296 0 L308 69 L228 69 L324 611 L403 611 Z " />
<glyph glyph-name="uni2161" unicode="&#x2161;" horiz-adv-x="692" d="M645 611 L658 680 L179 680 L166 611 L247 611 L151 69 L71 69 L59 0 L538 0 L550 69 L470 69 L566 611 L645 611 Z M393 69 L228 69 L324 611 L489 611 L393 69 Z " />
<glyph glyph-name="uni2162" unicode="&#x2162;" horiz-adv-x="936" d="M889 611 L901 680 L179 680 L166 611 L247 611 L151 69 L71 69 L59 0 L781 0 L793 69 L713 69 L809 611 L889 611 Z M228 69 L324 611 L489 611 L393 69 L228 69 Z M636 69 L470 69 L566 611 L732 611 L636 69 Z " />
<glyph glyph-name="uni2163" unicode="&#x2163;" horiz-adv-x="1003" d="M956 680 L628 80 L509 680 L179 680 L166 611 L247 611 L151 69 L71 69 L59 0 L296 0 L308 69 L228 69 L324 611 L441 611 L569 0 L657 0 L1040 680 L956 680 Z " />
<glyph glyph-name="uni2164" unicode="&#x2164;" horiz-adv-x="682" d="M719 680 L635 680 L307 80 L189 680 L105 680 L249 0 L337 0 L719 680 Z " />
<glyph glyph-name="uni2165" unicode="&#x2165;" horiz-adv-x="1001" d="M954 611 L966 680 L636 680 L307 80 L190 680 L105 680 L248 0 L336 0 L680 611 L797 611 L701 69 L622 69 L609 0 L846 0 L859 69 L778 69 L874 611 L954 611 Z " />
<glyph glyph-name="uni2166" unicode="&#x2166;" horiz-adv-x="1243" d="M1196 611 L1208 680 L636 680 L307 80 L190 680 L105 680 L248 0 L336 0 L680 611 L797 611 L701 69 L622 69 L609 0 L1088 0 L1101 69 L1021 69 L1117 611 L1196 611 Z M944 69 L778 69 L874 611 L1040 611 L944 69 Z " />
<glyph glyph-name="uni2167" unicode="&#x2167;" horiz-adv-x="1489" d="M1441 611 L1454 680 L636 680 L307 80 L190 680 L105 680 L248 0 L336 0 L680 611 L797 611 L701 69 L622 69 L609 0 L1334 0 L1346 69 L1266 69 L1362 611 L1441 611 Z M778 69 L874 611 L1040 611 L944 69 L778 69 Z M1189 69 L1021 69 L1117 611 L1285 611 L1189 69 Z " />
<glyph glyph-name="uni2168" unicode="&#x2168;" horiz-adv-x="926" d="M954 680 L867 680 L638 411 L504 680 L179 680 L166 611 L247 611 L151 69 L71 69 L59 0 L378 0 L617 279 L758 0 L847 0 L671 346 L954 680 Z M349 69 L228 69 L324 611 L451 611 L586 346 L349 69 Z " />
<glyph glyph-name="uni2169" unicode="&#x2169;" horiz-adv-x="621" d="M-15 0 L280 346 L110 680 L198 680 L334 411 L561 680 L648 680 L366 346 L542 0 L454 0 L311 279 L73 0 L-15 0 Z " />
<glyph glyph-name="uni216A" unicode="&#x216a;" horiz-adv-x="925" d="M878 611 L890 680 L565 680 L336 411 L203 680 L115 680 L281 346 L-17 0 L71 0 L311 279 L452 0 L770 0 L783 69 L702 69 L798 611 L878 611 Z M625 69 L506 69 L367 346 L594 611 L721 611 L625 69 Z " />
<glyph glyph-name="uni216B" unicode="&#x216b;" horiz-adv-x="1173" d="M1126 611 L1138 680 L562 680 L333 411 L199 680 L111 680 L281 346 L-16 0 L72 0 L312 279 L453 0 L1018 0 L1031 69 L951 69 L1047 611 L1126 611 Z M507 69 L366 346 L591 611 L728 611 L632 69 L507 69 Z M874 69 L709 69 L805 611 L970 611 L874 69 Z " />
<glyph glyph-name="uni216C" unicode="&#x216c;" horiz-adv-x="642" d="M149 74 L255 680 L178 680 L59 0 L546 0 L559 74 L149 74 Z " />
<glyph glyph-name="uni216D" unicode="&#x216d;" horiz-adv-x="720" d="M716 564 L648 520 C613 586 545 624 462 624 C286 624 151 479 151 284 C151 150 228 55 363 55 C446 55 525 93 582 158 L637 114 C561 30 456 -16 350 -16 C179 -16 76 102 76 274 C76 513 249 696 475 696 C582 696 671 648 716 564 L716 564 Z " />
<glyph glyph-name="uni216E" unicode="&#x216e;" horiz-adv-x="806" d="M482 680 L178 680 L59 0 L363 0 C583 0 753 184 753 401 C753 562 652 680 482 680 L482 680 Z M376 72 L148 72 L241 608 L470 608 C603 608 674 515 674 392 C674 223 546 72 376 72 L376 72 Z " />
<glyph glyph-name="uni216F" unicode="&#x216f;" horiz-adv-x="952" d="M805 679 L448 111 L289 679 L197 679 L29 0 L105 0 L244 554 L401 0 L455 0 L807 560 L751 0 L827 0 L897 679 L805 679 Z " />
<glyph glyph-name="arrowleft" unicode="&#x2190;" horiz-adv-x="839" d="M832 420 L180 420 L358 570 L321 615 L104 429 L103 430 L53 386 L240 158 L292 204 L169 351 L819 351 L832 420 Z " />
<glyph glyph-name="arrowup" unicode="&#x2191;" horiz-adv-x="558" d="M555 545 L403 729 L404 730 L367 773 L98 545 L136 500 L313 652 L198 0 L267 0 L381 650 L502 500 L555 545 Z " />
</font>
</defs>
</svg>
